<svg xmlns="http://www.w3.org/2000/svg" xmlns:xlink="http://www.w3.org/1999/xlink" id="Ebene_1" data-name="Ebene 1" viewBox="0 0 347.28 244.54"><defs><style>.cls-1,.cls-156,.cls-157,.cls-158,.cls-2{fill:none;}.cls-1,.cls-2{stroke:#1d1d1b;stroke-linecap:square;stroke-linejoin:round;}.cls-1{stroke-width:2px;}.cls-2{stroke-width:3px;}.cls-3{fill:#37b18c;}.cls-4{fill:url(#Unbenannter_Verlauf_88);}.cls-5{fill:url(#Unbenannter_Verlauf_270);}.cls-6{fill:url(#Unbenannter_Verlauf_88-2);}.cls-7{fill:url(#Unbenannter_Verlauf_270-2);}.cls-8{fill:url(#Unbenannter_Verlauf_134);}.cls-9{fill:url(#Unbenannter_Verlauf_136);}.cls-10{fill:url(#Unbenannter_Verlauf_208);}.cls-11{fill:url(#Unbenannter_Verlauf_209);}.cls-12{fill:url(#Unbenannter_Verlauf_208-2);}.cls-13{fill:url(#Unbenannter_Verlauf_209-2);}.cls-14{fill:url(#Unbenannter_Verlauf_173);}.cls-15{fill:url(#Unbenannter_Verlauf_175);}.cls-16{fill:url(#Unbenannter_Verlauf_5);}.cls-17{fill:url(#Unbenannter_Verlauf_5-2);}.cls-18{fill:url(#Unbenannter_Verlauf_5-3);}.cls-19{fill:url(#Unbenannter_Verlauf_5-4);}.cls-20{fill:url(#Unbenannter_Verlauf_5-5);}.cls-21{fill:url(#Unbenannter_Verlauf_5-6);}.cls-22{fill:url(#Unbenannter_Verlauf_5-7);}.cls-23{fill:url(#Unbenannter_Verlauf_5-8);}.cls-24{fill:url(#Unbenannter_Verlauf_7);}.cls-25{fill:url(#Unbenannter_Verlauf_5-9);}.cls-26{fill:url(#Unbenannter_Verlauf_5-10);}.cls-27{fill:url(#Unbenannter_Verlauf_5-11);}.cls-28{fill:url(#Unbenannter_Verlauf_5-12);}.cls-29{fill:url(#Unbenannter_Verlauf_5-13);}.cls-30{fill:url(#Unbenannter_Verlauf_5-14);}.cls-31{fill:url(#Unbenannter_Verlauf_5-15);}.cls-32{fill:url(#Unbenannter_Verlauf_5-16);}.cls-33{fill:url(#Unbenannter_Verlauf_7-2);}.cls-34{fill:url(#Unbenannter_Verlauf_5-17);}.cls-35{fill:url(#Unbenannter_Verlauf_5-18);}.cls-36{fill:url(#Unbenannter_Verlauf_5-19);}.cls-37{fill:url(#Unbenannter_Verlauf_5-20);}.cls-38{fill:url(#Unbenannter_Verlauf_5-21);}.cls-39{fill:url(#Unbenannter_Verlauf_5-22);}.cls-40{fill:url(#Unbenannter_Verlauf_5-23);}.cls-41{fill:url(#Unbenannter_Verlauf_5-24);}.cls-42{fill:url(#Unbenannter_Verlauf_7-3);}.cls-43{fill:url(#Unbenannter_Verlauf_40);}.cls-44{fill:url(#Unbenannter_Verlauf_40-2);}.cls-45{fill:url(#Unbenannter_Verlauf_40-3);}.cls-46{fill:url(#Unbenannter_Verlauf_40-4);}.cls-47{fill:url(#Unbenannter_Verlauf_40-5);}.cls-48{fill:url(#Unbenannter_Verlauf_40-6);}.cls-49{fill:url(#Unbenannter_Verlauf_40-7);}.cls-50{fill:url(#Unbenannter_Verlauf_40-8);}.cls-51{fill:url(#Unbenannter_Verlauf_7-4);}.cls-52{fill:url(#Unbenannter_Verlauf_40-9);}.cls-53{fill:url(#Unbenannter_Verlauf_40-10);}.cls-54{fill:url(#Unbenannter_Verlauf_40-11);}.cls-55{fill:url(#Unbenannter_Verlauf_40-12);}.cls-56{fill:url(#Unbenannter_Verlauf_40-13);}.cls-57{fill:url(#Unbenannter_Verlauf_40-14);}.cls-58{fill:url(#Unbenannter_Verlauf_40-15);}.cls-59{fill:url(#Unbenannter_Verlauf_40-16);}.cls-60{fill:url(#Unbenannter_Verlauf_7-5);}.cls-61{fill:url(#Unbenannter_Verlauf_40-17);}.cls-62{fill:url(#Unbenannter_Verlauf_40-18);}.cls-63{fill:url(#Unbenannter_Verlauf_40-19);}.cls-64{fill:url(#Unbenannter_Verlauf_40-20);}.cls-65{fill:url(#Unbenannter_Verlauf_40-21);}.cls-66{fill:url(#Unbenannter_Verlauf_40-22);}.cls-67{fill:url(#Unbenannter_Verlauf_40-23);}.cls-68{fill:url(#Unbenannter_Verlauf_40-24);}.cls-69{fill:url(#Unbenannter_Verlauf_7-6);}.cls-70{fill:url(#Unbenannter_Verlauf_91);}.cls-71{fill:url(#Unbenannter_Verlauf_91-2);}.cls-72{fill:url(#Unbenannter_Verlauf_91-3);}.cls-73{fill:url(#Unbenannter_Verlauf_91-4);}.cls-74{fill:url(#Unbenannter_Verlauf_91-5);}.cls-75{fill:url(#Unbenannter_Verlauf_91-6);}.cls-76{fill:url(#Unbenannter_Verlauf_91-7);}.cls-77{fill:url(#Unbenannter_Verlauf_91-8);}.cls-78{fill:url(#Unbenannter_Verlauf_7-7);}.cls-79{fill:url(#Unbenannter_Verlauf_91-9);}.cls-80{fill:url(#Unbenannter_Verlauf_91-10);}.cls-81{fill:url(#Unbenannter_Verlauf_91-11);}.cls-82{fill:url(#Unbenannter_Verlauf_91-12);}.cls-83{fill:url(#Unbenannter_Verlauf_91-13);}.cls-84{fill:url(#Unbenannter_Verlauf_91-14);}.cls-85{fill:url(#Unbenannter_Verlauf_91-15);}.cls-86{fill:url(#Unbenannter_Verlauf_91-16);}.cls-87{fill:url(#Unbenannter_Verlauf_7-8);}.cls-88{fill:url(#Unbenannter_Verlauf_91-17);}.cls-89{fill:url(#Unbenannter_Verlauf_91-18);}.cls-90{fill:url(#Unbenannter_Verlauf_91-19);}.cls-91{fill:url(#Unbenannter_Verlauf_91-20);}.cls-92{fill:url(#Unbenannter_Verlauf_91-21);}.cls-93{fill:url(#Unbenannter_Verlauf_91-22);}.cls-94{fill:url(#Unbenannter_Verlauf_91-23);}.cls-95{fill:url(#Unbenannter_Verlauf_91-24);}.cls-96{fill:url(#Unbenannter_Verlauf_7-9);}.cls-97{fill:url(#Unbenannter_Verlauf_75);}.cls-98{fill:url(#Unbenannter_Verlauf_75-2);}.cls-99{fill:url(#Unbenannter_Verlauf_75-3);}.cls-100{fill:url(#Unbenannter_Verlauf_75-4);}.cls-101{fill:url(#Unbenannter_Verlauf_75-5);}.cls-102{fill:url(#Unbenannter_Verlauf_75-6);}.cls-103{fill:url(#Unbenannter_Verlauf_75-7);}.cls-104{fill:url(#Unbenannter_Verlauf_75-8);}.cls-105{fill:url(#Unbenannter_Verlauf_7-10);}.cls-106{fill:url(#Unbenannter_Verlauf_75-9);}.cls-107{fill:url(#Unbenannter_Verlauf_75-10);}.cls-108{fill:url(#Unbenannter_Verlauf_75-11);}.cls-109{fill:url(#Unbenannter_Verlauf_75-12);}.cls-110{fill:url(#Unbenannter_Verlauf_75-13);}.cls-111{fill:url(#Unbenannter_Verlauf_75-14);}.cls-112{fill:url(#Unbenannter_Verlauf_75-15);}.cls-113{fill:url(#Unbenannter_Verlauf_75-16);}.cls-114{fill:url(#Unbenannter_Verlauf_7-11);}.cls-115{fill:url(#Unbenannter_Verlauf_23);}.cls-116{fill:url(#Unbenannter_Verlauf_23-2);}.cls-117{fill:url(#Unbenannter_Verlauf_23-3);}.cls-118{fill:url(#Unbenannter_Verlauf_23-4);}.cls-119{fill:#88c4cd;}.cls-120{fill:#99cbd2;}.cls-121{fill:#86c27a;}.cls-122{fill:#51b2bb;}.cls-123{fill:#7ec1bf;}.cls-124{fill:#5cb799;}.cls-125{fill:#6abb8d;}.cls-126{fill:#81bb27;}.cls-127{fill:url(#Unbenannter_Verlauf_53);}.cls-128{fill:url(#Unbenannter_Verlauf_60);}.cls-129{fill:#6796cf;}.cls-130{fill:#1f193e;}.cls-131{fill:#e61a4f;}.cls-132{fill:#f8b520;}.cls-133{fill:url(#Unbenannter_Verlauf_216);}.cls-134{fill:#1d1d1b;}.cls-135{fill:url(#Unbenannter_Verlauf_134-2);}.cls-136{fill:url(#Unbenannter_Verlauf_136-2);}.cls-137{fill:url(#Unbenannter_Verlauf_173-2);}.cls-138{fill:url(#Unbenannter_Verlauf_175-2);}.cls-139{fill:url(#Unbenannter_Verlauf_208-3);}.cls-140{fill:url(#Unbenannter_Verlauf_209-3);}.cls-141{fill:url(#Unbenannter_Verlauf_215);}.cls-142{fill:url(#Unbenannter_Verlauf_215-2);}.cls-143{fill:url(#Unbenannter_Verlauf_215-3);}.cls-144{fill:url(#Unbenannter_Verlauf_215-4);}.cls-145{fill:url(#Unbenannter_Verlauf_215-5);}.cls-146{fill:url(#Unbenannter_Verlauf_215-6);}.cls-147{fill:url(#Unbenannter_Verlauf_215-7);}.cls-148{fill:url(#Unbenannter_Verlauf_215-8);}.cls-149{fill:url(#Unbenannter_Verlauf_258);}.cls-150{fill:url(#Unbenannter_Verlauf_258-2);}.cls-151{fill:url(#Unbenannter_Verlauf_258-3);}.cls-152{fill:url(#Unbenannter_Verlauf_241);}.cls-153{fill:url(#Unbenannter_Verlauf_258-4);}.cls-154{fill:url(#Unbenannter_Verlauf_241-2);}.cls-155{fill:#ededed;}.cls-156,.cls-157,.cls-158{stroke:#ededed;stroke-miterlimit:10;}.cls-157{stroke-width:1.4px;}.cls-158{stroke-width:0.5px;}.cls-159{fill:#262623;}</style><linearGradient id="Unbenannter_Verlauf_88" x1="921.69" y1="809.88" x2="921.69" y2="787.06" gradientTransform="translate(-619.56 -667.42)" gradientUnits="userSpaceOnUse"><stop offset="0" stop-color="#683c11"></stop><stop offset="0.55" stop-color="#6a6310"></stop><stop offset="0.56" stop-color="#696412"></stop><stop offset="0.86" stop-color="#459b69"></stop><stop offset="1" stop-color="#37b18c"></stop></linearGradient><linearGradient id="Unbenannter_Verlauf_270" x1="921.69" y1="783.14" x2="921.69" y2="762.37" gradientTransform="translate(1083.47 -805.35) rotate(89)" gradientUnits="userSpaceOnUse"><stop offset="0" stop-color="#2fac66"></stop><stop offset="1" stop-color="#37b18c"></stop></linearGradient><linearGradient id="Unbenannter_Verlauf_88-2" x1="524.21" y1="459.54" x2="524.21" y2="430.21" gradientTransform="translate(-240.32 -390.43)" xlink:href="#Unbenannter_Verlauf_88"></linearGradient><linearGradient id="Unbenannter_Verlauf_270-2" x1="524.21" y1="425.17" x2="524.21" y2="398.47" gradientTransform="translate(354.18 -629.94) rotate(55.64)" xlink:href="#Unbenannter_Verlauf_270"></linearGradient><linearGradient id="Unbenannter_Verlauf_134" x1="762.49" y1="699.32" x2="762.49" y2="706.2" gradientTransform="translate(-434.56 842.45) rotate(-88.1)" gradientUnits="userSpaceOnUse"><stop offset="0" stop-color="#e7c400"></stop><stop offset="0.73" stop-color="#d5b44e"></stop></linearGradient><linearGradient id="Unbenannter_Verlauf_136" x1="763.47" y1="700.68" x2="763.47" y2="706.21" gradientTransform="matrix(0.12, 0.99, -0.99, 0.12, 903.71, -735.35)" gradientUnits="userSpaceOnUse"><stop offset="0" stop-color="#d5b44e"></stop><stop offset="1" stop-color="#e7c400"></stop></linearGradient><linearGradient id="Unbenannter_Verlauf_208" x1="992.43" y1="649.95" x2="997.32" y2="659.63" gradientTransform="translate(-747.41 674.84) rotate(-62.42)" gradientUnits="userSpaceOnUse"><stop offset="0" stop-color="#150230"></stop><stop offset="1" stop-color="#313088"></stop></linearGradient><linearGradient id="Unbenannter_Verlauf_209" x1="995.91" y1="650.05" x2="999.03" y2="655.67" gradientTransform="matrix(-0.25, 0.98, -0.97, -0.26, 1179.09, -707.38)" gradientUnits="userSpaceOnUse"><stop offset="0" stop-color="#313088"></stop><stop offset="1" stop-color="#150230"></stop></linearGradient><linearGradient id="Unbenannter_Verlauf_208-2" x1="1121.13" y1="607.88" x2="1126.02" y2="617.57" gradientTransform="translate(-767.99 856.33) rotate(-62.42)" xlink:href="#Unbenannter_Verlauf_208"></linearGradient><linearGradient id="Unbenannter_Verlauf_209-2" x1="1122.9" y1="608.88" x2="1126.02" y2="614.5" gradientTransform="matrix(-0.38, 0.94, -0.92, -0.39, 1290.87, -668.76)" xlink:href="#Unbenannter_Verlauf_209"></linearGradient><linearGradient id="Unbenannter_Verlauf_173" x1="509.15" y1="613" x2="509.15" y2="622.3" gradientTransform="translate(-340.6 569.19) rotate(-89.21)" gradientUnits="userSpaceOnUse"><stop offset="0" stop-color="#e32a18"></stop><stop offset="1" stop-color="#91101c"></stop></linearGradient><linearGradient id="Unbenannter_Verlauf_175" x1="515.66" y1="606.84" x2="515.66" y2="613.46" gradientTransform="matrix(0.45, 0.91, -0.91, 0.45, 606.37, -673.19)" gradientUnits="userSpaceOnUse"><stop offset="0" stop-color="#91101c"></stop><stop offset="1" stop-color="#e32a18"></stop></linearGradient><linearGradient id="Unbenannter_Verlauf_5" x1="256.83" y1="66.73" x2="256.55" y2="63.92" gradientTransform="translate(7.08 -22.24)" gradientUnits="userSpaceOnUse"><stop offset="0.27" stop-color="#e8482a"></stop><stop offset="1" stop-color="#be1622"></stop></linearGradient><linearGradient id="Unbenannter_Verlauf_5-2" x1="1120.33" y1="-126.92" x2="1120.06" y2="-129.73" gradientTransform="translate(-860.68 166.95)" xlink:href="#Unbenannter_Verlauf_5"></linearGradient><linearGradient id="Unbenannter_Verlauf_5-3" x1="1046.9" y1="200.37" x2="1046.62" y2="197.56" gradientTransform="translate(-788.2 -158.21)" xlink:href="#Unbenannter_Verlauf_5"></linearGradient><linearGradient id="Unbenannter_Verlauf_5-4" x1="254.93" y1="-378.61" x2="254.65" y2="-381.42" gradientTransform="translate(9.96 420.91)" xlink:href="#Unbenannter_Verlauf_5"></linearGradient><linearGradient id="Unbenannter_Verlauf_5-5" x1="390.08" y1="247.85" x2="389.8" y2="245.04" gradientTransform="translate(-128.37 -202.55)" xlink:href="#Unbenannter_Verlauf_5"></linearGradient><linearGradient id="Unbenannter_Verlauf_5-6" x1="881.4" y1="-543.65" x2="881.12" y2="-546.46" gradientTransform="translate(-619.55 582.83)" xlink:href="#Unbenannter_Verlauf_5"></linearGradient><linearGradient id="Unbenannter_Verlauf_5-7" x1="526.33" y1="-527.27" x2="526.05" y2="-530.08" gradientTransform="translate(-262.32 567.4)" xlink:href="#Unbenannter_Verlauf_5"></linearGradient><linearGradient id="Unbenannter_Verlauf_5-8" x1="632.75" y1="336.23" x2="632.47" y2="333.42" gradientTransform="translate(-373.2 -291.85)" xlink:href="#Unbenannter_Verlauf_5"></linearGradient><linearGradient id="Unbenannter_Verlauf_7" x1="252.87" y1="63.06" x2="256.14" y2="63.06" gradientTransform="translate(8.68 -28.25) rotate(1.35)" gradientUnits="userSpaceOnUse"><stop offset="0" stop-color="#fcc45c"></stop><stop offset="1" stop-color="#fcea10"></stop></linearGradient><linearGradient id="Unbenannter_Verlauf_5-9" x1="291.45" y1="114.58" x2="291.09" y2="110.86" gradientTransform="translate(5.96 -21.44)" xlink:href="#Unbenannter_Verlauf_5"></linearGradient><linearGradient id="Unbenannter_Verlauf_5-10" x1="1087.21" y1="-172.4" x2="1086.84" y2="-176.12" gradientTransform="translate(-795.43 259.64)" xlink:href="#Unbenannter_Verlauf_5"></linearGradient><linearGradient id="Unbenannter_Verlauf_5-11" x1="1056.69" y1="144.61" x2="1056.32" y2="140.89" gradientTransform="translate(-766.17 -54.56)" xlink:href="#Unbenannter_Verlauf_5"></linearGradient><linearGradient id="Unbenannter_Verlauf_5-12" x1="246.65" y1="-320.48" x2="246.28" y2="-324.2" gradientTransform="translate(52.07 410.72)" xlink:href="#Unbenannter_Verlauf_5"></linearGradient><linearGradient id="Unbenannter_Verlauf_5-13" x1="447.77" y1="258.08" x2="447.4" y2="254.36" gradientTransform="translate(-153.27 -163.86)" xlink:href="#Unbenannter_Verlauf_5"></linearGradient><linearGradient id="Unbenannter_Verlauf_5-14" x1="825.21" y1="-551.5" x2="824.84" y2="-555.21" gradientTransform="translate(-530.51 637.61)" xlink:href="#Unbenannter_Verlauf_5"></linearGradient><linearGradient id="Unbenannter_Verlauf_5-15" x1="480.42" y1="-492.21" x2="480.05" y2="-495.93" gradientTransform="translate(-182.87 579.59)" xlink:href="#Unbenannter_Verlauf_5"></linearGradient><linearGradient id="Unbenannter_Verlauf_5-16" x1="680.17" y1="303.54" x2="679.8" y2="299.83" gradientTransform="translate(-388.52 -210.54)" xlink:href="#Unbenannter_Verlauf_5"></linearGradient><linearGradient id="Unbenannter_Verlauf_7-2" x1="286.21" y1="109.72" x2="290.54" y2="109.72" xlink:href="#Unbenannter_Verlauf_7"></linearGradient><linearGradient id="Unbenannter_Verlauf_5-17" x1="290.59" y1="141.59" x2="290.37" y2="139.4" gradientTransform="translate(5.3 -21.47)" xlink:href="#Unbenannter_Verlauf_5"></linearGradient><linearGradient id="Unbenannter_Verlauf_5-18" x1="1085.55" y1="-203.4" x2="1085.33" y2="-205.59" gradientTransform="translate(-792.98 320.04)" xlink:href="#Unbenannter_Verlauf_5"></linearGradient><linearGradient id="Unbenannter_Verlauf_5-19" x1="1075.67" y1="121.82" x2="1075.45" y2="119.62" gradientTransform="translate(-783.84 -3.51)" xlink:href="#Unbenannter_Verlauf_5"></linearGradient><linearGradient id="Unbenannter_Verlauf_5-20" x1="225.14" y1="-301.68" x2="224.92" y2="-303.87" gradientTransform="translate(71.53 420.09)" xlink:href="#Unbenannter_Verlauf_5"></linearGradient><linearGradient id="Unbenannter_Verlauf_5-21" x1="467.31" y1="276.33" x2="467.1" y2="274.13" gradientTransform="translate(-173.14 -155.56)" xlink:href="#Unbenannter_Verlauf_5"></linearGradient><linearGradient id="Unbenannter_Verlauf_5-22" x1="803.14" y1="-573.74" x2="802.93" y2="-575.94" gradientTransform="translate(-508.85 689.72)" xlink:href="#Unbenannter_Verlauf_5"></linearGradient><linearGradient id="Unbenannter_Verlauf_5-23" x1="450.15" y1="-493.81" x2="449.93" y2="-496" gradientTransform="translate(-154.18 610.53)" xlink:href="#Unbenannter_Verlauf_5"></linearGradient><linearGradient id="Unbenannter_Verlauf_5-24" x1="707.91" y1="301.15" x2="707.69" y2="298.96" gradientTransform="translate(-415.42 -181.11)" xlink:href="#Unbenannter_Verlauf_5"></linearGradient><linearGradient id="Unbenannter_Verlauf_7-3" x1="287.5" y1="138.73" x2="290.05" y2="138.73" xlink:href="#Unbenannter_Verlauf_7"></linearGradient><linearGradient id="Unbenannter_Verlauf_40" x1="270.03" y1="76.4" x2="269.65" y2="72.6" gradientTransform="translate(6.86 -21.93)" gradientUnits="userSpaceOnUse"><stop offset="0" stop-color="#e61a4f"></stop><stop offset="1" stop-color="#a3195b"></stop></linearGradient><linearGradient id="Unbenannter_Verlauf_40-2" x1="1108.77" y1="-134.01" x2="1108.4" y2="-137.81" gradientTransform="translate(-837.64 182.44)" xlink:href="#Unbenannter_Verlauf_40"></linearGradient><linearGradient id="Unbenannter_Verlauf_40-3" x1="1044.88" y1="186.99" x2="1044.51" y2="183.19" gradientTransform="translate(-775.04 -135.68)" xlink:href="#Unbenannter_Verlauf_40"></linearGradient><linearGradient id="Unbenannter_Verlauf_40-4" x1="258.59" y1="-362.64" x2="258.22" y2="-366.44" gradientTransform="translate(19.63 414.15)" xlink:href="#Unbenannter_Verlauf_40"></linearGradient><linearGradient id="Unbenannter_Verlauf_40-5" x1="405.57" y1="246.31" x2="405.19" y2="242.51" gradientTransform="translate(-131.65 -190.74)" xlink:href="#Unbenannter_Verlauf_40"></linearGradient><linearGradient id="Unbenannter_Verlauf_40-6" x1="867.55" y1="-539.51" x2="867.18" y2="-543.31" gradientTransform="translate(-593.44 586.8)" xlink:href="#Unbenannter_Verlauf_40"></linearGradient><linearGradient id="Unbenannter_Verlauf_40-7" x1="518.77" y1="-513.6" x2="518.4" y2="-517.4" gradientTransform="translate(-241.75 562.17)" xlink:href="#Unbenannter_Verlauf_40"></linearGradient><linearGradient id="Unbenannter_Verlauf_40-8" x1="641.95" y1="325.14" x2="641.57" y2="321.34" gradientTransform="translate(-370.95 -270.82)" xlink:href="#Unbenannter_Verlauf_40"></linearGradient><linearGradient id="Unbenannter_Verlauf_7-4" x1="264.67" y1="71.44" x2="269.09" y2="71.44" xlink:href="#Unbenannter_Verlauf_7"></linearGradient><linearGradient id="Unbenannter_Verlauf_40-9" x1="296.21" y1="136.65" x2="295.83" y2="132.74" gradientTransform="translate(5.44 -21.34)" xlink:href="#Unbenannter_Verlauf_40"></linearGradient><linearGradient id="Unbenannter_Verlauf_40-10" x1="1082.77" y1="-193.97" x2="1082.39" y2="-197.88" gradientTransform="translate(-787.04 303.07)" xlink:href="#Unbenannter_Verlauf_40"></linearGradient><linearGradient id="Unbenannter_Verlauf_40-11" x1="1069.02" y1="126.19" x2="1068.64" y2="122.27" gradientTransform="translate(-774.62 -14.12)" xlink:href="#Unbenannter_Verlauf_40"></linearGradient><linearGradient id="Unbenannter_Verlauf_40-12" x1="234.64" y1="-301.54" x2="234.25" y2="-305.46" gradientTransform="translate(68.39 413.81)" xlink:href="#Unbenannter_Verlauf_40"></linearGradient><linearGradient id="Unbenannter_Verlauf_40-13" x1="466.61" y1="270.5" x2="466.22" y2="266.59" gradientTransform="translate(-168.02 -154.05)" xlink:href="#Unbenannter_Verlauf_40"></linearGradient><linearGradient id="Unbenannter_Verlauf_40-14" x1="806.69" y1="-563.41" x2="806.31" y2="-567.33" gradientTransform="translate(-507.89 671.34)" xlink:href="#Unbenannter_Verlauf_40"></linearGradient><linearGradient id="Unbenannter_Verlauf_40-15" x1="458.76" y1="-487.36" x2="458.37" y2="-491.27" gradientTransform="translate(-156.96 596.61)" xlink:href="#Unbenannter_Verlauf_40"></linearGradient><linearGradient id="Unbenannter_Verlauf_40-16" x1="702.14" y1="299.2" x2="701.76" y2="295.28" gradientTransform="translate(-406.56 -184.02)" xlink:href="#Unbenannter_Verlauf_40"></linearGradient><linearGradient id="Unbenannter_Verlauf_7-5" x1="290.7" y1="131.54" x2="295.25" y2="131.54" xlink:href="#Unbenannter_Verlauf_7"></linearGradient><linearGradient id="Unbenannter_Verlauf_40-17" x1="295.22" y1="177.88" x2="294.83" y2="173.97" gradientTransform="translate(4.47 -21.37)" xlink:href="#Unbenannter_Verlauf_40"></linearGradient><linearGradient id="Unbenannter_Verlauf_40-18" x1="1083.77" y1="-235.19" x2="1083.38" y2="-239.11" gradientTransform="translate(-790 385.49)" xlink:href="#Unbenannter_Verlauf_40"></linearGradient><linearGradient id="Unbenannter_Verlauf_40-19" x1="1098.88" y1="97.74" x2="1098.49" y2="93.83" gradientTransform="translate(-806.44 55.52)" xlink:href="#Unbenannter_Verlauf_40"></linearGradient><linearGradient id="Unbenannter_Verlauf_40-20" x1="204.78" y1="-273.1" x2="204.4" y2="-277.01" gradientTransform="translate(96.28 426.56)" xlink:href="#Unbenannter_Verlauf_40"></linearGradient><linearGradient id="Unbenannter_Verlauf_40-21" x1="495.06" y1="300.36" x2="494.67" y2="296.45" gradientTransform="translate(-198.43 -142.71)" xlink:href="#Unbenannter_Verlauf_40"></linearGradient><linearGradient id="Unbenannter_Verlauf_40-22" x1="778.25" y1="-593.27" x2="777.86" y2="-597.18" gradientTransform="translate(-481.41 742.39)" xlink:href="#Unbenannter_Verlauf_40"></linearGradient><linearGradient id="Unbenannter_Verlauf_40-23" x1="417.53" y1="-488.36" x2="417.15" y2="-492.27" gradientTransform="translate(-117.7 638.8)" xlink:href="#Unbenannter_Verlauf_40"></linearGradient><linearGradient id="Unbenannter_Verlauf_40-24" x1="743.37" y1="300.19" x2="742.99" y2="296.28" gradientTransform="translate(-449.75 -143.83)" xlink:href="#Unbenannter_Verlauf_40"></linearGradient><linearGradient id="Unbenannter_Verlauf_7-6" x1="289.7" y1="172.77" x2="294.26" y2="172.77" xlink:href="#Unbenannter_Verlauf_7"></linearGradient><linearGradient id="Unbenannter_Verlauf_91" x1="287.9" y1="191.59" x2="287.61" y2="188.63" gradientTransform="translate(4.14 -21.54)" gradientUnits="userSpaceOnUse"><stop offset="0.27" stop-color="#f39200"></stop><stop offset="1" stop-color="#e94e1b"></stop></linearGradient><linearGradient id="Unbenannter_Verlauf_91-2" x1="1089.51" y1="-251.39" x2="1089.22" y2="-254.35" gradientTransform="translate(-801.95 416.74)" xlink:href="#Unbenannter_Verlauf_91"></linearGradient><linearGradient id="Unbenannter_Verlauf_91-3" x1="1113.29" y1="90.53" x2="1113" y2="87.57" gradientTransform="translate(-826.74 77.06)" xlink:href="#Unbenannter_Verlauf_91"></linearGradient><linearGradient id="Unbenannter_Verlauf_91-4" x1="188.79" y1="-268.38" x2="188.5" y2="-271.34" gradientTransform="translate(104.3 436.12)" xlink:href="#Unbenannter_Verlauf_91"></linearGradient><linearGradient id="Unbenannter_Verlauf_91-5" x1="500.24" y1="314.32" x2="499.95" y2="311.36" gradientTransform="translate(-210.51 -143.41)" xlink:href="#Unbenannter_Verlauf_91"></linearGradient><linearGradient id="Unbenannter_Verlauf_91-6" x1="771.49" y1="-609.72" x2="771.2" y2="-612.68" gradientTransform="translate(-481.61 774.17)" xlink:href="#Unbenannter_Verlauf_91"></linearGradient><linearGradient id="Unbenannter_Verlauf_91-7" x1="401.79" y1="-496.13" x2="401.5" y2="-499.09" gradientTransform="translate(-109.64 661.58)" xlink:href="#Unbenannter_Verlauf_91"></linearGradient><linearGradient id="Unbenannter_Verlauf_91-8" x1="757.54" y1="305.48" x2="757.25" y2="302.52" gradientTransform="translate(-470.09 -135.54)" xlink:href="#Unbenannter_Verlauf_91"></linearGradient><linearGradient id="Unbenannter_Verlauf_7-7" x1="283.73" y1="187.73" x2="287.18" y2="187.73" xlink:href="#Unbenannter_Verlauf_7"></linearGradient><linearGradient id="Unbenannter_Verlauf_91-9" x1="286.34" y1="101.31" x2="285.93" y2="97.19" gradientTransform="translate(6.27 -21.56)" xlink:href="#Unbenannter_Verlauf_91"></linearGradient><linearGradient id="Unbenannter_Verlauf_91-10" x1="1092.99" y1="-158.08" x2="1092.59" y2="-162.2" gradientTransform="translate(-806.62 231.3)" xlink:href="#Unbenannter_Verlauf_91"></linearGradient><linearGradient id="Unbenannter_Verlauf_91-11" x1="1051.12" y1="158.74" x2="1050.71" y2="154.63" gradientTransform="translate(-766.14 -82.42)" xlink:href="#Unbenannter_Verlauf_91"></linearGradient><linearGradient id="Unbenannter_Verlauf_91-12" x1="252.89" y1="-333.56" x2="252.48" y2="-337.68" gradientTransform="translate(41.17 410.1)" xlink:href="#Unbenannter_Verlauf_91"></linearGradient><linearGradient id="Unbenannter_Verlauf_91-13" x1="434.49" y1="252.7" x2="434.09" y2="248.58" gradientTransform="translate(-145.11 -171.75)" xlink:href="#Unbenannter_Verlauf_91"></linearGradient><linearGradient id="Unbenannter_Verlauf_91-14" x1="839.15" y1="-545.07" x2="838.75" y2="-549.18" gradientTransform="translate(-549.55 617.03)" xlink:href="#Unbenannter_Verlauf_91"></linearGradient><linearGradient id="Unbenannter_Verlauf_91-15" x1="494.54" y1="-497.14" x2="494.14" y2="-501.26" gradientTransform="translate(-201.78 570.5)" xlink:href="#Unbenannter_Verlauf_91"></linearGradient><linearGradient id="Unbenannter_Verlauf_91-16" x1="666.7" y1="309.52" x2="666.3" y2="305.4" gradientTransform="translate(-380.48 -229.91)" xlink:href="#Unbenannter_Verlauf_91"></linearGradient><linearGradient id="Unbenannter_Verlauf_7-8" x1="280.53" y1="95.93" x2="285.32" y2="95.93" xlink:href="#Unbenannter_Verlauf_7"></linearGradient><linearGradient id="Unbenannter_Verlauf_91-17" x1="294.65" y1="148.71" x2="294.39" y2="146.08" gradientTransform="translate(5.14 -21.37)" xlink:href="#Unbenannter_Verlauf_91"></linearGradient><linearGradient id="Unbenannter_Verlauf_91-18" x1="1082.22" y1="-209.38" x2="1081.96" y2="-212.01" gradientTransform="translate(-786.41 332.54)" xlink:href="#Unbenannter_Verlauf_91"></linearGradient><linearGradient id="Unbenannter_Verlauf_91-19" x1="1078.04" y1="115.15" x2="1077.78" y2="112.52" gradientTransform="translate(-783.13 10.01)" xlink:href="#Unbenannter_Verlauf_91"></linearGradient><linearGradient id="Unbenannter_Verlauf_91-20" x1="223.49" y1="-293.87" x2="223.23" y2="-296.49" gradientTransform="translate(77.22 419.15)" xlink:href="#Unbenannter_Verlauf_91"></linearGradient><linearGradient id="Unbenannter_Verlauf_91-21" x1="474.91" y1="278.91" x2="474.65" y2="276.28" gradientTransform="translate(-177.18 -150.81)" xlink:href="#Unbenannter_Verlauf_91"></linearGradient><linearGradient id="Unbenannter_Verlauf_91-22" x1="796.27" y1="-575.18" x2="796.01" y2="-577.81" gradientTransform="translate(-498.4 697.55)" xlink:href="#Unbenannter_Verlauf_91"></linearGradient><linearGradient id="Unbenannter_Verlauf_91-23" x1="443.96" y1="-489.54" x2="443.7" y2="-492.17" gradientTransform="translate(-144.08 612.8)" xlink:href="#Unbenannter_Verlauf_91"></linearGradient><linearGradient id="Unbenannter_Verlauf_91-24" x1="714.82" y1="298.03" x2="714.56" y2="295.4" gradientTransform="translate(-419.11 -170.79)" xlink:href="#Unbenannter_Verlauf_91"></linearGradient><linearGradient id="Unbenannter_Verlauf_7-9" x1="290.94" y1="145.28" x2="294" y2="145.28" xlink:href="#Unbenannter_Verlauf_7"></linearGradient><linearGradient id="Unbenannter_Verlauf_75" x1="272.57" y1="82.57" x2="272.22" y2="79.03" gradientTransform="translate(6.71 -21.88)" gradientUnits="userSpaceOnUse"><stop offset="0.27" stop-color="#a71680"></stop><stop offset="1" stop-color="#722283"></stop></linearGradient><linearGradient id="Unbenannter_Verlauf_75-2" x1="1105.79" y1="-140.87" x2="1105.44" y2="-144.4" gradientTransform="translate(-831.86 195.95)" xlink:href="#Unbenannter_Verlauf_75"></linearGradient><linearGradient id="Unbenannter_Verlauf_75-3" x1="1047.32" y1="180.08" x2="1046.97" y2="176.55" gradientTransform="translate(-774.58 -122.32)" xlink:href="#Unbenannter_Verlauf_75"></linearGradient><linearGradient id="Unbenannter_Verlauf_75-4" x1="255.72" y1="-356.43" x2="255.37" y2="-359.96" gradientTransform="translate(24.81 414.37)" xlink:href="#Unbenannter_Verlauf_75"></linearGradient><linearGradient id="Unbenannter_Verlauf_75-5" x1="411.91" y1="248.62" x2="411.56" y2="245.08" gradientTransform="translate(-135.39 -186.9)" xlink:href="#Unbenannter_Verlauf_75"></linearGradient><linearGradient id="Unbenannter_Verlauf_75-6" x1="860.77" y1="-542.52" x2="860.42" y2="-546.05" gradientTransform="translate(-584.07 596.53)" xlink:href="#Unbenannter_Verlauf_75"></linearGradient><linearGradient id="Unbenannter_Verlauf_75-7" x1="512.04" y1="-511.19" x2="511.69" y2="-514.72" gradientTransform="translate(-232.63 566.4)" xlink:href="#Unbenannter_Verlauf_75"></linearGradient><linearGradient id="Unbenannter_Verlauf_75-8" x1="648.24" y1="322.03" x2="647.89" y2="318.5" gradientTransform="translate(-374.44 -261.47)" xlink:href="#Unbenannter_Verlauf_75"></linearGradient><linearGradient id="Unbenannter_Verlauf_7-10" x1="267.59" y1="77.95" x2="271.7" y2="77.95" xlink:href="#Unbenannter_Verlauf_7"></linearGradient><linearGradient id="Unbenannter_Verlauf_75-9" x1="292.59" y1="184.63" x2="292.28" y2="181.42" gradientTransform="translate(4.31 -21.43)" xlink:href="#Unbenannter_Verlauf_75"></linearGradient><linearGradient id="Unbenannter_Verlauf_75-10" x1="1085.24" y1="-243.77" x2="1084.92" y2="-246.98" gradientTransform="translate(-793.21 401.86)" xlink:href="#Unbenannter_Verlauf_75"></linearGradient><linearGradient id="Unbenannter_Verlauf_75-11" x1="1105.18" y1="92.85" x2="1104.86" y2="89.64" gradientTransform="translate(-814.24 67.68)" xlink:href="#Unbenannter_Verlauf_75"></linearGradient><linearGradient id="Unbenannter_Verlauf_75-12" x1="197.33" y1="-270.04" x2="197.01" y2="-273.25" gradientTransform="translate(100.7 430.73)" xlink:href="#Unbenannter_Verlauf_75"></linearGradient><linearGradient id="Unbenannter_Verlauf_75-13" x1="498.46" y1="306.33" x2="498.14" y2="303.11" gradientTransform="translate(-204.08 -142.19)" xlink:href="#Unbenannter_Verlauf_75"></linearGradient><linearGradient id="Unbenannter_Verlauf_75-14" x1="773.69" y1="-601.06" x2="773.37" y2="-604.28" gradientTransform="translate(-479.14 758.19)" xlink:href="#Unbenannter_Verlauf_75"></linearGradient><linearGradient id="Unbenannter_Verlauf_75-15" x1="409.29" y1="-491.32" x2="408.97" y2="-494.53" gradientTransform="translate(-112.28 649.53)" xlink:href="#Unbenannter_Verlauf_75"></linearGradient><linearGradient id="Unbenannter_Verlauf_75-16" x1="750.46" y1="301.33" x2="750.14" y2="298.12" gradientTransform="translate(-458.55 -138.25)" xlink:href="#Unbenannter_Verlauf_75"></linearGradient><linearGradient id="Unbenannter_Verlauf_7-11" x1="288.06" y1="180.43" x2="291.8" y2="180.43" xlink:href="#Unbenannter_Verlauf_7"></linearGradient><linearGradient id="Unbenannter_Verlauf_23" x1="195.84" y1="207.29" x2="197.34" y2="10.41" gradientTransform="translate(6.65 -13.23) rotate(0.41)" gradientUnits="userSpaceOnUse"><stop offset="0.08" stop-color="#f1b72a"></stop><stop offset="0.63" stop-color="#37b18c"></stop><stop offset="0.79" stop-color="#37b18c"></stop></linearGradient><linearGradient id="Unbenannter_Verlauf_23-2" x1="64.04" y1="206.28" x2="65.54" y2="9.4" xlink:href="#Unbenannter_Verlauf_23"></linearGradient><linearGradient id="Unbenannter_Verlauf_23-3" x1="117.52" y1="206.69" x2="119.02" y2="9.81" xlink:href="#Unbenannter_Verlauf_23"></linearGradient><linearGradient id="Unbenannter_Verlauf_23-4" x1="71.58" y1="206.34" x2="73.07" y2="9.46" xlink:href="#Unbenannter_Verlauf_23"></linearGradient><linearGradient id="Unbenannter_Verlauf_53" x1="158.6" y1="36.07" x2="158.6" y2="237.06" gradientTransform="translate(6.65 -13.23) rotate(0.41)" gradientUnits="userSpaceOnUse"><stop offset="0" stop-color="#0087c2"></stop><stop offset="1" stop-color="#35357b"></stop></linearGradient><linearGradient id="Unbenannter_Verlauf_60" x1="149.07" y1="101.5" x2="183.76" y2="101.5" gradientTransform="translate(6.65 -13.23) rotate(0.41)" gradientUnits="userSpaceOnUse"><stop offset="0" stop-color="#4c7bbe"></stop><stop offset="1" stop-color="#036eab"></stop></linearGradient><linearGradient id="Unbenannter_Verlauf_216" x1="208.99" y1="2.12" x2="208.99" y2="35.1" gradientUnits="userSpaceOnUse"><stop offset="0.14" stop-color="#6796cf"></stop><stop offset="0.78" stop-color="#35357b"></stop></linearGradient><linearGradient id="Unbenannter_Verlauf_134-2" x1="829.68" y1="670.17" x2="829.68" y2="678.64" gradientTransform="translate(-405.16 937.45) rotate(-88.1)" xlink:href="#Unbenannter_Verlauf_134"></linearGradient><linearGradient id="Unbenannter_Verlauf_136-2" x1="830.88" y1="671.84" x2="830.88" y2="678.64" gradientTransform="translate(930.83 -731.14) rotate(87.21)" xlink:href="#Unbenannter_Verlauf_136"></linearGradient><linearGradient id="Unbenannter_Verlauf_173-2" x1="836.19" y1="669.36" x2="836.19" y2="679.99" gradientTransform="translate(-388.35 963.78) rotate(-89.21)" xlink:href="#Unbenannter_Verlauf_173"></linearGradient><linearGradient id="Unbenannter_Verlauf_175-2" x1="838.12" y1="662.68" x2="838.12" y2="670.23" gradientTransform="matrix(0.05, 1.01, -1.01, 0.05, 930.45, -743.93)" xlink:href="#Unbenannter_Verlauf_175"></linearGradient><linearGradient id="Unbenannter_Verlauf_208-3" x1="757.27" y1="680.68" x2="763.13" y2="692.29" gradientTransform="translate(-677.61 417.48) rotate(-62.42)" xlink:href="#Unbenannter_Verlauf_208"></linearGradient><linearGradient id="Unbenannter_Verlauf_209-3" x1="759.31" y1="681.92" x2="763.04" y2="688.65" gradientTransform="translate(930.83 -731.14) rotate(87.21)" xlink:href="#Unbenannter_Verlauf_209"></linearGradient><linearGradient id="Unbenannter_Verlauf_215" x1="264.8" y1="170.89" x2="273.63" y2="170.89" gradientTransform="matrix(-0.99, -0.15, 0.15, -0.99, 492.01, 223.91)" gradientUnits="userSpaceOnUse"><stop offset="0" stop-color="#6796cf"></stop><stop offset="1" stop-color="#35357b"></stop></linearGradient><linearGradient id="Unbenannter_Verlauf_215-2" x1="266.38" y1="171.13" x2="275.21" y2="171.13" gradientTransform="matrix(-0.99, -0.15, 0.15, -0.99, 495.03, 224.98)" xlink:href="#Unbenannter_Verlauf_215"></linearGradient><linearGradient id="Unbenannter_Verlauf_215-3" x1="596.96" y1="640.11" x2="604.1" y2="640.11" gradientTransform="matrix(-0.99, 0.15, 0.15, 0.99, 777.54, -625.28)" xlink:href="#Unbenannter_Verlauf_215"></linearGradient><linearGradient id="Unbenannter_Verlauf_215-4" x1="598.24" y1="640.3" x2="605.38" y2="640.3" gradientTransform="matrix(-0.99, 0.15, 0.15, 0.99, 779.27, -626.85)" xlink:href="#Unbenannter_Verlauf_215"></linearGradient><linearGradient id="Unbenannter_Verlauf_215-5" x1="1171.69" y1="585.04" x2="1180.89" y2="585.04" gradientTransform="matrix(-0.99, 0.15, 0.15, 0.99, 1381.81, -567.96)" xlink:href="#Unbenannter_Verlauf_215"></linearGradient><linearGradient id="Unbenannter_Verlauf_215-6" x1="1173.34" y1="585.28" x2="1182.54" y2="585.28" gradientTransform="matrix(-0.99, 0.15, 0.15, 0.99, 1382.41, -569.79)" xlink:href="#Unbenannter_Verlauf_215"></linearGradient><linearGradient id="Unbenannter_Verlauf_215-7" x1="1249.72" y1="543.4" x2="1253.62" y2="543.4" gradientTransform="matrix(-0.99, 0.15, 0.15, 0.99, 1463.6, -624.23)" xlink:href="#Unbenannter_Verlauf_215"></linearGradient><linearGradient id="Unbenannter_Verlauf_215-8" x1="1250.42" y1="543.5" x2="1254.32" y2="543.5" gradientTransform="matrix(-0.99, 0.15, 0.15, 0.99, 1463.85, -625)" xlink:href="#Unbenannter_Verlauf_215"></linearGradient><linearGradient id="Unbenannter_Verlauf_258" x1="63.63" y1="206.3" x2="65.13" y2="9.42" gradientTransform="translate(6.65 -13.23) rotate(0.41)" gradientUnits="userSpaceOnUse"><stop offset="0" stop-color="#ededed"></stop><stop offset="0.2" stop-color="#b1b1b0"></stop><stop offset="0.4" stop-color="#7c7c7b"></stop><stop offset="0.59" stop-color="#535351"></stop><stop offset="0.75" stop-color="#353534"></stop><stop offset="0.9" stop-color="#232321"></stop><stop offset="1" stop-color="#1d1d1b"></stop></linearGradient><linearGradient id="Unbenannter_Verlauf_258-2" x1="117.11" y1="206.71" x2="118.61" y2="9.83" xlink:href="#Unbenannter_Verlauf_258"></linearGradient><linearGradient id="Unbenannter_Verlauf_258-3" x1="71.17" y1="206.36" x2="72.67" y2="9.48" xlink:href="#Unbenannter_Verlauf_258"></linearGradient><linearGradient id="Unbenannter_Verlauf_241" x1="107.58" y1="24.02" x2="107.58" y2="224.97" gradientUnits="userSpaceOnUse"><stop offset="0" stop-color="#878787"></stop><stop offset="0.18" stop-color="#6e6e6e"></stop><stop offset="0.55" stop-color="#424241"></stop><stop offset="0.84" stop-color="#272725"></stop><stop offset="1" stop-color="#1d1d1b"></stop></linearGradient><linearGradient id="Unbenannter_Verlauf_258-4" x1="142" y1="193.84" x2="143.39" y2="11.39" gradientTransform="matrix(1, 0, 0, 1, 0, 0)" xlink:href="#Unbenannter_Verlauf_258"></linearGradient><linearGradient id="Unbenannter_Verlauf_241-2" x1="159.65" y1="67.35" x2="159.35" y2="116.1" xlink:href="#Unbenannter_Verlauf_241"></linearGradient></defs><polyline class="cls-1" points="55.33 163.32 26.11 176.57 26.87 176.84 35.09 179.48"></polyline><polyline class="cls-1" points="55.44 162.67 25.84 176.03 26.12 175.28 29.27 166.82"></polyline><polyline class="cls-1" points="71.46 156.11 42.23 169.36 42.99 169.62 49.41 171.55"></polyline><polyline class="cls-1" points="71.56 155.46 41.96 168.82 42.25 168.07 44.68 161.4"></polyline><line class="cls-1" x1="34.11" y1="172.55" x2="38.67" y2="161.16"></line><line class="cls-1" x1="34.12" y1="172.57" x2="45.51" y2="177.12"></line><polyline class="cls-2" points="48.71 130.98 1.84 131.94 2.71 132.73 12.23 141.01"></polyline><polyline class="cls-2" points="49.23 130.16 1.79 131.06 2.61 130.21 11.71 120.67"></polyline><polyline class="cls-2" points="74.52 130.57 27.65 131.53 28.52 132.33 36.04 138.61"></polyline><polyline class="cls-2" points="75.04 129.76 27.6 130.66 28.42 129.81 35.52 122.26"></polyline><path class="cls-3" d="M281.67,84.83h1.67a3.76,3.76,0,0,1,3.76,3.76v1.67a0,0,0,0,1,0,0h-1.67a3.76,3.76,0,0,1-3.76-3.76V84.83A0,0,0,0,1,281.67,84.83Z" transform="translate(510.13 281.38) rotate(-156.46)"></path><path class="cls-3" d="M284.41,105.65h1.38a3.12,3.12,0,0,1,3.12,3.12v1.38a0,0,0,0,1,0,0h-1.38a3.12,3.12,0,0,1-3.12-3.12v-1.38A0,0,0,0,1,284.41,105.65Z" transform="translate(464.16 357.53) rotate(-146.04)"></path><path class="cls-3" d="M286.47,118.49h1.29a2.91,2.91,0,0,1,2.91,2.91v1.29a0,0,0,0,1,0,0h-1.29a2.91,2.91,0,0,1-2.91-2.91v-1.29A0,0,0,0,1,286.47,118.49Z" transform="matrix(-0.83, -0.56, 0.56, -0.83, 460.57, 381.81)"></path><rect class="cls-4" x="297.48" y="111.55" width="9.29" height="37.01" transform="translate(426.92 -174.28) rotate(89)"></rect><circle class="cls-5" cx="327.75" cy="129.61" r="16.85"></circle><path class="cls-3" d="M285.92,131h1.74a3.94,3.94,0,0,1,3.94,3.94v1.74a0,0,0,0,1,0,0h-1.74a3.94,3.94,0,0,1-3.94-3.94V131A0,0,0,0,1,285.92,131Z" transform="translate(412.74 426.97) rotate(-137.79)"></path><rect class="cls-6" x="277.92" y="29.38" width="11.94" height="47.58" transform="translate(167.54 -211.19) rotate(55.64)"></rect><circle class="cls-7" cx="311.09" cy="34.58" r="21.66"></circle><path class="cls-3" d="M263,38.3l1.8,1.87L251.75,52.73,250,50.86Z"></path><path class="cls-3" d="M274.59,47.48l1.56,2.07L261.66,60.44l-1.56-2.07Z"></path><path class="cls-3" d="M279.15,53.59l1.41,2.18-15.24,9.82-1.4-2.18Z"></path><path class="cls-3" d="M283.06,59.9l1.28,2.26-15.78,8.92-1.28-2.25Z"></path><path class="cls-3" d="M286.6,66.45l1.15,2.32-16.27,8-1.14-2.33Z"></path><path class="cls-3" d="M289.75,73.16l1,2.39-16.7,7-1-2.39Z"></path><path class="cls-3" d="M294.89,87.07l.73,2.49-17.37,5.17-.74-2.49Z"></path><path class="cls-3" d="M296.7,94.29l.58,2.53-17.65,4.09L279,98.38Z"></path><path class="cls-3" d="M294.89,102.09l.5,2.55-17.79,3.47-.5-2.54Z"></path><path class="cls-3" d="M299.19,108.51l.36,2.56-17.94,2.54-.37-2.57Z"></path><path class="cls-3" d="M293.17,115.9l.27,2.58-18,1.89-.27-2.58Z"></path><path class="cls-3" d="M300.31,122l.33,2.58-18,2.34-.33-2.58Z"></path><path class="cls-3" d="M300.24,128.71l.3,2.57-18,2.11-.31-2.57Z"></path><path class="cls-3" d="M299.81,135.52l.25,2.59L282,139.8l-.24-2.58Z"></path><path class="cls-3" d="M299.06,142.7l.08,2.59-18.11.55-.08-2.59Z"></path><path class="cls-3" d="M298,149.8l-.11,2.59-18.11-.82.12-2.59Z"></path><path class="cls-3" d="M296.62,157.89l-.45,2.55-17.85-3.15.45-2.56Z"></path><path class="cls-3" d="M286.59,163.86l-.69,2.5-17.48-4.8.69-2.5Z"></path><path class="cls-8" d="M290.22,100.24h3.38a3.38,3.38,0,0,1,3.38,3.38v0a3.38,3.38,0,0,1-3.38,3.38h-3.38a0,0,0,0,1,0,0v-6.77A0,0,0,0,1,290.22,100.24Z" transform="translate(599.36 162.39) rotate(171.44)"></path><path class="cls-9" d="M297,103.34l-3.34.5a3.39,3.39,0,0,1-3.24-1.39,3.37,3.37,0,0,0-.14,1.62h0a3.42,3.42,0,0,0,3.85,2.9l3.34-.51Z"></path><path class="cls-10" d="M288.72,91.56h4.62A4.62,4.62,0,0,1,298,96.18v0a4.62,4.62,0,0,1-4.62,4.62h-4.62a0,0,0,0,1,0,0V91.56a0,0,0,0,1,0,0Z" transform="translate(600.64 125.51) rotate(167.3)"></path><path class="cls-11" d="M297.91,95.47l-4.5,1a4.59,4.59,0,0,1-4.56-1.57,4.75,4.75,0,0,0,0,2.22h0a4.65,4.65,0,0,0,5.53,3.55l4.51-1Z"></path><path class="cls-12" d="M290.44,139.49h4.62a4.62,4.62,0,0,1,4.62,4.62v0a4.62,4.62,0,0,1-4.62,4.62h-4.62a0,0,0,0,1,0,0v-9.24a0,0,0,0,1,0,0Z" transform="translate(601.59 261.88) rotate(174.99)"></path><path class="cls-13" d="M299.69,144l-4.6.4a4.61,4.61,0,0,1-4.31-2.16,4.7,4.7,0,0,0-.32,2.19h0a4.64,4.64,0,0,0,5,4.26l4.6-.4Z"></path><path class="cls-14" d="M279.37,64H284a4.62,4.62,0,0,1,4.62,4.62v0A4.62,4.62,0,0,1,284,73.22h-4.62a0,0,0,0,1,0,0V64A0,0,0,0,1,279.37,64Z" transform="translate(568.04 0.25) rotate(152.89)"></path><path class="cls-15" d="M288.28,66.81l-4.11,2.11a4.64,4.64,0,0,1-4.8-.36,4.52,4.52,0,0,0,.51,2.13h0a4.62,4.62,0,0,0,6.23,2l4.12-2.11Z"></path><path class="cls-16" d="M261.58,40.82h.94a3.42,3.42,0,0,1,3.42,3.42v0a.94.94,0,0,1-.94.94h0a3.42,3.42,0,0,1-3.42-3.42v-.94a0,0,0,0,1,0,0Z" transform="translate(1.08 -6.18) rotate(1.35)"></path><path class="cls-17" d="M257.32,36.36h.94a3.42,3.42,0,0,1,3.42,3.42v0a.94.94,0,0,1-.94.94h0a3.42,3.42,0,0,1-3.42-3.42v-.94A0,0,0,0,1,257.32,36.36Z" transform="translate(518.03 83.16) rotate(-178.65)"></path><path class="cls-18" d="M256.37,38.48h.94a3.42,3.42,0,0,1,3.42,3.42v0a.94.94,0,0,1-.94.94h0a3.42,3.42,0,0,1-3.42-3.42v-.94a0,0,0,0,1,0,0Z" transform="translate(473.69 -108.4) rotate(136.35)"></path><path class="cls-19" d="M262.57,38.63h.94A3.42,3.42,0,0,1,266.93,42v0A.94.94,0,0,1,266,43h0a3.42,3.42,0,0,1-3.42-3.42v-.94a0,0,0,0,1,0,0Z" transform="translate(45.03 194.04) rotate(-43.65)"></path><path class="cls-20" d="M259.38,41.64h.94a3.42,3.42,0,0,1,3.42,3.42v0a.94.94,0,0,1-.94.94h0a3.42,3.42,0,0,1-3.42-3.42v-.94A0,0,0,0,1,259.38,41.64Z" transform="translate(112.7 -175.67) rotate(46.35)"></path><path class="cls-21" d="M259.88,35.47h.24a3.77,3.77,0,0,1,3.77,3.77v0a.59.59,0,0,1-.59.59h0a3.77,3.77,0,0,1-3.77-3.77v-.24a.35.35,0,0,1,.35-.35Z" transform="translate(415.12 252.99) rotate(-133.65)"></path><path class="cls-22" d="M261.68,36.46h.94A3.42,3.42,0,0,1,266,39.88v0a.94.94,0,0,1-.94.94h0a3.42,3.42,0,0,1-3.42-3.42v-.94a0,0,0,0,1,0,0Z" transform="translate(219.04 301.52) rotate(-88.65)"></path><path class="cls-23" d="M257.22,40.72h.94a3.42,3.42,0,0,1,3.42,3.42v0a.94.94,0,0,1-.94.94h0a3.42,3.42,0,0,1-3.42-3.42v-.94a0,0,0,0,1,0,0Z" transform="translate(308.38 -215.43) rotate(91.35)"></path><circle class="cls-24" cx="261.63" cy="40.77" r="1.64"></circle><path class="cls-25" d="M294.33,88.28h1.25a4.52,4.52,0,0,1,4.52,4.52v0A1.25,1.25,0,0,1,298.85,94h0a4.52,4.52,0,0,1-4.52-4.52V88.28A0,0,0,0,1,294.33,88.28Z" transform="translate(2.22 -6.95) rotate(1.35)"></path><path class="cls-26" d="M288.7,82.38H290a4.52,4.52,0,0,1,4.52,4.52v0a1.25,1.25,0,0,1-1.25,1.25h0a4.52,4.52,0,0,1-4.52-4.52V82.38a0,0,0,0,1,0,0Z" transform="translate(581.09 177.35) rotate(-178.65)"></path><path class="cls-27" d="M287.44,85.19h1.25a4.52,4.52,0,0,1,4.52,4.52v0A1.25,1.25,0,0,1,292,91h0a4.52,4.52,0,0,1-4.52-4.52V85.19a0,0,0,0,1,0,0Z" transform="translate(561.18 -48.61) rotate(136.35)"></path><path class="cls-28" d="M295.64,85.39h1.25a4.52,4.52,0,0,1,4.52,4.52v0a1.25,1.25,0,0,1-1.25,1.25h0a4.52,4.52,0,0,1-4.52-4.52V85.39a0,0,0,0,1,0,0Z" transform="translate(21.6 230.48) rotate(-43.65)"></path><path class="cls-29" d="M291.42,89.37h1.25a4.52,4.52,0,0,1,4.52,4.52v0a1.25,1.25,0,0,1-1.25,1.25h0a4.52,4.52,0,0,1-4.52-4.52V89.37A0,0,0,0,1,291.42,89.37Z" transform="translate(157.89 -184.37) rotate(46.35)"></path><path class="cls-30" d="M292.08,81.21h.31a5,5,0,0,1,5,5v0a.78.78,0,0,1-.78.78h0a5,5,0,0,1-5-5v-.31A.47.47,0,0,1,292.08,81.21Z" transform="translate(436.95 355.22) rotate(-133.65)"></path><path class="cls-31" d="M294.47,82.52h1.25A4.52,4.52,0,0,1,300.24,87v0A1.25,1.25,0,0,1,299,88.28h0a4.52,4.52,0,0,1-4.52-4.52V82.52a0,0,0,0,1,0,0Z" transform="translate(204.99 380.66) rotate(-88.65)"></path><path class="cls-32" d="M288.57,88.15h1.25a4.52,4.52,0,0,1,4.52,4.52v0a1.25,1.25,0,0,1-1.25,1.25h0a4.52,4.52,0,0,1-4.52-4.52V88.15a0,0,0,0,1,0,0Z" transform="translate(389.3 -198.2) rotate(91.35)"></path><circle class="cls-33" cx="294.4" cy="88.22" r="2.16"></circle><path class="cls-34" d="M294.08,117.26h.74a2.67,2.67,0,0,1,2.67,2.67v0a.74.74,0,0,1-.74.74h0a2.67,2.67,0,0,1-2.67-2.67v-.74A0,0,0,0,1,294.08,117.26Z" transform="matrix(1, 0.02, -0.02, 1, 2.87, -6.91)"></path><path class="cls-35" d="M290.76,113.78h.74a2.67,2.67,0,0,1,2.67,2.67v0a.74.74,0,0,1-.74.74h0a2.67,2.67,0,0,1-2.67-2.67v-.74A0,0,0,0,1,290.76,113.78Z" transform="translate(582.12 237.8) rotate(-178.65)"></path><path class="cls-36" d="M290,115.44h.74a2.67,2.67,0,0,1,2.67,2.67v0a.74.74,0,0,1-.74.74h0a2.67,2.67,0,0,1-2.67-2.67v-.74A0,0,0,0,1,290,115.44Z" transform="translate(583.63 0.52) rotate(136.35)"></path><path class="cls-37" d="M294.85,115.55h.74a2.67,2.67,0,0,1,2.67,2.67v0a.74.74,0,0,1-.74.74h0a2.67,2.67,0,0,1-2.67-2.67v-.74A0,0,0,0,1,294.85,115.55Z" transform="translate(1.05 237.13) rotate(-43.65)"></path><path class="cls-38" d="M292.36,117.9h.74a2.67,2.67,0,0,1,2.67,2.67v0a.74.74,0,0,1-.74.74h0a2.67,2.67,0,0,1-2.67-2.67v-.74a0,0,0,0,1,0,0Z" transform="translate(177.6 -175.72) rotate(46.35)"></path><path class="cls-39" d="M292.75,113.09h.18a2.94,2.94,0,0,1,2.94,2.94v0a.46.46,0,0,1-.46.46h0a2.94,2.94,0,0,1-2.94-2.94v-.18a.28.28,0,0,1,.28-.28Z" transform="translate(414.2 406.87) rotate(-133.65)"></path><path class="cls-40" d="M294.16,113.86h.74a2.67,2.67,0,0,1,2.67,2.67v0a.74.74,0,0,1-.74.74h0a2.67,2.67,0,0,1-2.67-2.67v-.74a0,0,0,0,1,0,0Z" transform="translate(173.39 408.63) rotate(-88.65)"></path><path class="cls-41" d="M290.68,117.18h.74a2.67,2.67,0,0,1,2.67,2.67v0a.74.74,0,0,1-.74.74h0a2.67,2.67,0,0,1-2.67-2.67v-.74A0,0,0,0,1,290.68,117.18Z" transform="translate(418.09 -170.62) rotate(91.35)"></path><circle class="cls-42" cx="294.12" cy="117.22" r="1.28"></circle><path class="cls-43" d="M273.74,49.5H275a4.62,4.62,0,0,1,4.62,4.62v0a1.28,1.28,0,0,1-1.28,1.28h0a4.62,4.62,0,0,1-4.62-4.62V49.5a0,0,0,0,1,0,0Z" transform="translate(1.31 -6.48) rotate(1.35)"></path><path class="cls-44" d="M268,43.47h1.28a4.62,4.62,0,0,1,4.62,4.62v0a1.28,1.28,0,0,1-1.28,1.28h0A4.62,4.62,0,0,1,268,44.75V43.47a0,0,0,0,1,0,0Z" transform="translate(540.7 99.18) rotate(-178.65)"></path><path class="cls-45" d="M266.7,46.35H268A4.62,4.62,0,0,1,272.59,51v0a1.28,1.28,0,0,1-1.28,1.28h0a4.62,4.62,0,0,1-4.62-4.62V46.35A0,0,0,0,1,266.7,46.35Z" transform="translate(498.77 -101.18) rotate(136.35)"></path><path class="cls-46" d="M275.08,46.54h1.28A4.62,4.62,0,0,1,281,51.16v0a1.28,1.28,0,0,1-1.28,1.28h0a4.62,4.62,0,0,1-4.62-4.62V46.54a0,0,0,0,1,0,0Z" transform="translate(42.71 205.61) rotate(-43.65)"></path><path class="cls-47" d="M270.77,50.61H272a4.62,4.62,0,0,1,4.62,4.62v0a1.28,1.28,0,0,1-1.28,1.28h0a4.62,4.62,0,0,1-4.62-4.62V50.61A0,0,0,0,1,270.77,50.61Z" transform="translate(123.52 -181.45) rotate(46.35)"></path><path class="cls-48" d="M271.44,42.28h.32a5.1,5.1,0,0,1,5.1,5.1v0a.8.8,0,0,1-.8.8h0a5.1,5.1,0,0,1-5.1-5.1v-.32A.48.48,0,0,1,271.44,42.28Z" transform="translate(430.27 274.62) rotate(-133.65)"></path><path class="cls-49" d="M273.88,43.61h1.28a4.62,4.62,0,0,1,4.62,4.62v0a1.28,1.28,0,0,1-1.28,1.28h0a4.62,4.62,0,0,1-4.62-4.62V43.61a0,0,0,0,1,0,0Z" transform="translate(223.79 322.21) rotate(-88.65)"></path><path class="cls-50" d="M267.85,49.36h1.28A4.62,4.62,0,0,1,273.74,54v0a1.28,1.28,0,0,1-1.28,1.28h0a4.62,4.62,0,0,1-4.62-4.62V49.36A0,0,0,0,1,267.85,49.36Z" transform="translate(329.45 -217.18) rotate(91.35)"></path><circle class="cls-51" cx="273.81" cy="49.43" r="2.21"></circle><path class="cls-52" d="M298.42,110.21h1.31a4.75,4.75,0,0,1,4.75,4.75v0a1.31,1.31,0,0,1-1.31,1.31h0a4.75,4.75,0,0,1-4.75-4.75v-1.31A0,0,0,0,1,298.42,110.21Z" transform="translate(2.74 -7.05) rotate(1.35)"></path><path class="cls-53" d="M292.49,104h1.31a4.75,4.75,0,0,1,4.75,4.75v0a1.31,1.31,0,0,1-1.31,1.31h0a4.75,4.75,0,0,1-4.75-4.75V104a0,0,0,0,1,0,0Z" transform="translate(588.46 220.97) rotate(-178.65)"></path><path class="cls-54" d="M291.16,107h1.31a4.75,4.75,0,0,1,4.75,4.75v0a1.31,1.31,0,0,1-1.31,1.31h0a4.75,4.75,0,0,1-4.75-4.75V107a0,0,0,0,1,0,0Z" transform="translate(582.98 -13.52) rotate(136.35)"></path><path class="cls-55" d="M299.79,107.16h1.31a4.75,4.75,0,0,1,4.75,4.75v0a1.31,1.31,0,0,1-1.31,1.31h0a4.75,4.75,0,0,1-4.75-4.75v-1.31A0,0,0,0,1,299.79,107.16Z" transform="translate(7.66 239.51) rotate(-43.65)"></path><path class="cls-56" d="M295.35,111.35h1.31a4.75,4.75,0,0,1,4.75,4.75v0a1.31,1.31,0,0,1-1.31,1.31h0a4.75,4.75,0,0,1-4.75-4.75v-1.31A0,0,0,0,1,295.35,111.35Z" transform="translate(175.16 -180.47) rotate(46.35)"></path><path class="cls-57" d="M296,102.77h.33a5.25,5.25,0,0,1,5.25,5.25v0a.82.82,0,0,1-.82.82h0a5.25,5.25,0,0,1-5.25-5.25v-.33a.49.49,0,0,1,.49-.49Z" transform="translate(428.16 394.87) rotate(-133.65)"></path><path class="cls-58" d="M298.56,104.14h1.31a4.75,4.75,0,0,1,4.75,4.75v0a1.31,1.31,0,0,1-1.31,1.31h0a4.75,4.75,0,0,1-4.75-4.75v-1.31a0,0,0,0,1,0,0Z" transform="matrix(0.02, -1, 1, 0.02, 187.37, 406.17)"></path><path class="cls-59" d="M292.35,110.06h1.31a4.75,4.75,0,0,1,4.75,4.75v0a1.31,1.31,0,0,1-1.31,1.31h0a4.75,4.75,0,0,1-4.75-4.75v-1.31A0,0,0,0,1,292.35,110.06Z" transform="translate(415.38 -179.55) rotate(91.35)"></path><circle class="cls-60" cx="298.49" cy="110.13" r="2.28"></circle><path class="cls-61" d="M296.45,151.4h1.31a4.75,4.75,0,0,1,4.75,4.75v0a1.31,1.31,0,0,1-1.31,1.31h0a4.75,4.75,0,0,1-4.75-4.75V151.4A0,0,0,0,1,296.45,151.4Z" transform="translate(3.71 -6.99) rotate(1.35)"></path><path class="cls-62" d="M290.53,145.19h1.31a4.75,4.75,0,0,1,4.75,4.75v0a1.31,1.31,0,0,1-1.31,1.31h0a4.75,4.75,0,0,1-4.75-4.75v-1.31A0,0,0,0,1,290.53,145.19Z" transform="translate(583.56 303.3) rotate(-178.65)"></path><path class="cls-63" d="M289.2,148.15h1.31a4.75,4.75,0,0,1,4.75,4.75v0a1.31,1.31,0,0,1-1.31,1.31h0a4.75,4.75,0,0,1-4.75-4.75v-1.31A0,0,0,0,1,289.2,148.15Z" transform="translate(608.03 58.83) rotate(136.35)"></path><path class="cls-64" d="M297.82,148.35h1.31a4.75,4.75,0,0,1,4.75,4.75v0a1.31,1.31,0,0,1-1.31,1.31h0a4.75,4.75,0,0,1-4.75-4.75v-1.31a0,0,0,0,1,0,0Z" transform="translate(-21.32 249.54) rotate(-43.65)"></path><path class="cls-65" d="M293.39,152.54h1.31a4.75,4.75,0,0,1,4.75,4.75v0a1.31,1.31,0,0,1-1.31,1.31h0a4.75,4.75,0,0,1-4.75-4.75v-1.31a0,0,0,0,1,0,0Z" transform="translate(204.36 -166.29) rotate(46.35)"></path><path class="cls-66" d="M294.08,144h.33a5.25,5.25,0,0,1,5.25,5.25v0a.82.82,0,0,1-.82.82h0a5.25,5.25,0,0,1-5.25-5.25v-.33a.49.49,0,0,1,.49-.49Z" transform="translate(395.03 463.08) rotate(-133.65)"></path><path class="cls-67" d="M296.59,145.33h1.31a4.75,4.75,0,0,1,4.75,4.75v0a1.31,1.31,0,0,1-1.31,1.31h0a4.75,4.75,0,0,1-4.75-4.75v-1.31A0,0,0,0,1,296.59,145.33Z" transform="translate(144.27 444.43) rotate(-88.65)"></path><path class="cls-68" d="M290.38,151.26h1.31a4.75,4.75,0,0,1,4.75,4.75v0a1.31,1.31,0,0,1-1.31,1.31h0a4.75,4.75,0,0,1-4.75-4.75v-1.31a0,0,0,0,1,0,0Z" transform="translate(454.55 -135.42) rotate(91.35)"></path><circle class="cls-69" cx="296.52" cy="151.33" r="2.28"></circle><path class="cls-70" d="M289.59,166.18h1a3.6,3.6,0,0,1,3.6,3.6v0a1,1,0,0,1-1,1h0a3.6,3.6,0,0,1-3.6-3.6v-1a0,0,0,0,1,0,0Z" transform="translate(4.04 -6.81) rotate(1.35)"></path><path class="cls-71" d="M285.11,161.48h1a3.6,3.6,0,0,1,3.6,3.6v0a1,1,0,0,1-1,1h0a3.6,3.6,0,0,1-3.6-3.6v-1A0,0,0,0,1,285.11,161.48Z" transform="translate(570.88 334.26) rotate(-178.65)"></path><path class="cls-72" d="M284.1,163.72h1a3.6,3.6,0,0,1,3.6,3.6v0a1,1,0,0,1-1,1h0a3.6,3.6,0,0,1-3.6-3.6v-1A0,0,0,0,1,284.1,163.72Z" transform="translate(608.22 88.43) rotate(136.35)"></path><path class="cls-73" d="M290.63,163.87h1a3.6,3.6,0,0,1,3.6,3.6v0a1,1,0,0,1-1,1h0a3.6,3.6,0,0,1-3.6-3.6v-1a0,0,0,0,1,0,0Z" transform="translate(-33.72 248.16) rotate(-43.65)"></path><path class="cls-74" d="M287.27,167h1a3.6,3.6,0,0,1,3.6,3.6v0a1,1,0,0,1-1,1h0a3.6,3.6,0,0,1-3.6-3.6v-1a0,0,0,0,1,0,0Z" transform="translate(212.2 -157.06) rotate(46.35)"></path><path class="cls-75" d="M287.8,160.55H288a4,4,0,0,1,4,4v0a.62.62,0,0,1-.62.62h0a4,4,0,0,1-4-4v-.25a.37.37,0,0,1,.37-.37Z" transform="translate(371.9 484.88) rotate(-133.65)"></path><path class="cls-76" d="M289.7,161.59h1a3.6,3.6,0,0,1,3.6,3.6v0a1,1,0,0,1-1,1h0a3.6,3.6,0,0,1-3.6-3.6v-1A0,0,0,0,1,289.7,161.59Z" transform="translate(121.3 451.95) rotate(-88.65)"></path><path class="cls-77" d="M285,166.07h1a3.6,3.6,0,0,1,3.6,3.6v0a1,1,0,0,1-1,1h0a3.6,3.6,0,0,1-3.6-3.6v-1A0,0,0,0,1,285,166.07Z" transform="translate(462.37 -114.89) rotate(91.35)"></path><circle class="cls-78" cx="289.65" cy="166.13" r="1.72"></circle><path class="cls-79" d="M289.2,74.37h1.38a5,5,0,0,1,5,5v0a1.38,1.38,0,0,1-1.38,1.38h0a5,5,0,0,1-5-5V74.37A0,0,0,0,1,289.2,74.37Z" transform="translate(1.9 -6.84) rotate(1.35)"></path><path class="cls-80" d="M283,67.83h1.38a5,5,0,0,1,5,5v0A1.38,1.38,0,0,1,288,74.22h0a5,5,0,0,1-5-5V67.83A0,0,0,0,1,283,67.83Z" transform="translate(570.57 148.76) rotate(-178.65)"></path><path class="cls-81" d="M281.57,71h1.38a5,5,0,0,1,5,5v0a1.38,1.38,0,0,1-1.38,1.38h0a5,5,0,0,1-5-5V71a0,0,0,0,1,0,0Z" transform="translate(541.97 -68.78) rotate(136.35)"></path><path class="cls-82" d="M290.65,71.16H292a5,5,0,0,1,5,5v0a1.38,1.38,0,0,1-1.38,1.38h0a5,5,0,0,1-5-5V71.16A0,0,0,0,1,290.65,71.16Z" transform="translate(29.91 223.4) rotate(-43.65)"></path><path class="cls-83" d="M286,75.57h1.38a5,5,0,0,1,5,5v0A1.38,1.38,0,0,1,291,82h0a5,5,0,0,1-5-5V75.57A0,0,0,0,1,286,75.57Z" transform="translate(146.54 -184.83) rotate(46.35)"></path><path class="cls-84" d="M286.71,66.54h.35a5.52,5.52,0,0,1,5.52,5.52v0a.86.86,0,0,1-.86.86h0a5.52,5.52,0,0,1-5.52-5.52v-.35A.52.52,0,0,1,286.71,66.54Z" transform="translate(438.69 327.25) rotate(-133.65)"></path><path class="cls-85" d="M289.35,68h1.38a5,5,0,0,1,5,5v0a1.38,1.38,0,0,1-1.38,1.38h0a5,5,0,0,1-5-5V68A0,0,0,0,1,289.35,68Z" transform="translate(214.52 361.97) rotate(-88.65)"></path><path class="cls-86" d="M282.81,74.22h1.38a5,5,0,0,1,5,5v0a1.38,1.38,0,0,1-1.38,1.38h0a5,5,0,0,1-5-5V74.22a0,0,0,0,1,0,0Z" transform="translate(370.12 -206.7) rotate(91.35)"></path><circle class="cls-87" cx="289.28" cy="74.3" r="2.4"></circle><path class="cls-88" d="M297.61,123.9h.88a3.2,3.2,0,0,1,3.2,3.2v0a.88.88,0,0,1-.88.88h0a3.2,3.2,0,0,1-3.2-3.2v-.88a0,0,0,0,1,0,0Z" transform="translate(3.04 -7) rotate(1.35)"></path><path class="cls-89" d="M293.63,119.73h.88a3.2,3.2,0,0,1,3.2,3.2v0a.88.88,0,0,1-.88.88h0a3.2,3.2,0,0,1-3.2-3.2v-.88a0,0,0,0,1,0,0Z" transform="translate(588.39 250.44) rotate(-178.65)"></path><path class="cls-90" d="M292.74,121.72h.88a3.2,3.2,0,0,1,3.2,3.2v0a.88.88,0,0,1-.88.88h0a3.2,3.2,0,0,1-3.2-3.2v-.88A0,0,0,0,1,292.74,121.72Z" transform="translate(593.48 9.81) rotate(136.35)"></path><path class="cls-91" d="M298.53,121.85h.88a3.2,3.2,0,0,1,3.2,3.2v0a.88.88,0,0,1-.88.88h0a3.2,3.2,0,0,1-3.2-3.2v-.88A0,0,0,0,1,298.53,121.85Z" transform="translate(-2.42 241.74) rotate(-43.65)"></path><path class="cls-92" d="M295.55,124.67h.88a3.2,3.2,0,0,1,3.2,3.2v0a.88.88,0,0,1-.88.88h0a3.2,3.2,0,0,1-3.2-3.2v-.88a0,0,0,0,1,0,0Z" transform="translate(183.84 -176.07) rotate(46.35)"></path><path class="cls-93" d="M296,118.9h.22a3.53,3.53,0,0,1,3.53,3.53v0a.55.55,0,0,1-.55.55h0a3.53,3.53,0,0,1-3.53-3.53v-.22A.33.33,0,0,1,296,118.9Z" transform="translate(415.75 419.84) rotate(-133.65)"></path><path class="cls-94" d="M297.71,119.82h.88a3.2,3.2,0,0,1,3.2,3.2v0a.88.88,0,0,1-.88.88h0a3.2,3.2,0,0,1-3.2-3.2v-.88a0,0,0,0,1,0,0Z" transform="translate(170.88 418.66) rotate(-88.65)"></path><path class="cls-95" d="M293.53,123.81h.88a3.2,3.2,0,0,1,3.2,3.2v0a.88.88,0,0,1-.88.88h0a3.2,3.2,0,0,1-3.2-3.2v-.88A0,0,0,0,1,293.53,123.81Z" transform="translate(428.32 -166.69) rotate(91.35)"></path><circle class="cls-96" cx="297.66" cy="123.85" r="1.53"></circle><path class="cls-97" d="M276.36,56.08h1.19a4.3,4.3,0,0,1,4.3,4.3v0a1.19,1.19,0,0,1-1.19,1.19h0a4.3,4.3,0,0,1-4.3-4.3V56.08A0,0,0,0,1,276.36,56.08Z" transform="translate(1.46 -6.54) rotate(1.35)"></path><path class="cls-98" d="M271,50.47h1.19a4.3,4.3,0,0,1,4.3,4.3v0a1.19,1.19,0,0,1-1.19,1.19h0a4.3,4.3,0,0,1-4.3-4.3V50.47A0,0,0,0,1,271,50.47Z" transform="translate(546.17 112.83) rotate(-178.65)"></path><path class="cls-99" d="M269.81,53.14H271a4.3,4.3,0,0,1,4.3,4.3v0a1.19,1.19,0,0,1-1.19,1.19h0a4.3,4.3,0,0,1-4.3-4.3V53.14a0,0,0,0,1,0,0Z" transform="translate(508.31 -91.83) rotate(136.35)"></path><path class="cls-100" d="M277.6,53.32h1.19a4.3,4.3,0,0,1,4.3,4.3v0a1.19,1.19,0,0,1-1.19,1.19h0a4.3,4.3,0,0,1-4.3-4.3V53.32A0,0,0,0,1,277.6,53.32Z" transform="translate(38.81 209.02) rotate(-43.65)"></path><path class="cls-101" d="M273.59,57.11h1.19a4.3,4.3,0,0,1,4.3,4.3v0a1.19,1.19,0,0,1-1.19,1.19h0a4.3,4.3,0,0,1-4.3-4.3V57.11a0,0,0,0,1,0,0Z" transform="translate(128.88 -181.39) rotate(46.35)"></path><path class="cls-102" d="M274.22,49.36h.3a4.74,4.74,0,0,1,4.74,4.74v0a.74.74,0,0,1-.74.74h0a4.74,4.74,0,0,1-4.74-4.74v-.3A.44.44,0,0,1,274.22,49.36Z" transform="translate(429.7 288.12) rotate(-133.65)"></path><path class="cls-103" d="M276.48,50.6h1.19a4.3,4.3,0,0,1,4.3,4.3v0a1.19,1.19,0,0,1-1.19,1.19h0a4.3,4.3,0,0,1-4.3-4.3V50.6a0,0,0,0,1,0,0Z" transform="translate(219.35 331.23) rotate(-88.65)"></path><path class="cls-104" d="M270.88,55.95h1.19a4.3,4.3,0,0,1,4.3,4.3v0a1.19,1.19,0,0,1-1.19,1.19h0a4.3,4.3,0,0,1-4.3-4.3V55.95A0,0,0,0,1,270.88,55.95Z" transform="translate(338.71 -213.48) rotate(91.35)"></path><circle class="cls-105" cx="276.42" cy="56.01" r="2.06"></circle><path class="cls-106" d="M294.24,159h1.08a3.91,3.91,0,0,1,3.91,3.91v0a1.08,1.08,0,0,1-1.08,1.08h0a3.91,3.91,0,0,1-3.91-3.91V159a0,0,0,0,1,0,0Z" transform="translate(3.87 -6.92) rotate(1.35)"></path><path class="cls-107" d="M289.36,153.9h1.08a3.91,3.91,0,0,1,3.91,3.91v0a1.08,1.08,0,0,1-1.08,1.08h0a3.91,3.91,0,0,1-3.91-3.91V153.9a0,0,0,0,1,0,0Z" transform="translate(579.97 319.59) rotate(-178.65)"></path><path class="cls-108" d="M288.27,156.33h1.08a3.91,3.91,0,0,1,3.91,3.91v0a1.08,1.08,0,0,1-1.08,1.08h0a3.91,3.91,0,0,1-3.91-3.91v-1.08a0,0,0,0,1,0,0Z" transform="translate(610.78 73.01) rotate(136.35)"></path><path class="cls-109" d="M295.36,156.5h1.08a3.91,3.91,0,0,1,3.91,3.91v0a1.08,1.08,0,0,1-1.08,1.08h0a3.91,3.91,0,0,1-3.91-3.91V156.5a0,0,0,0,1,0,0Z" transform="translate(-27.4 249.57) rotate(-43.65)"></path><path class="cls-110" d="M291.72,159.94h1.08a3.91,3.91,0,0,1,3.91,3.91v0a1.08,1.08,0,0,1-1.08,1.08h0a3.91,3.91,0,0,1-3.91-3.91v-1.08A0,0,0,0,1,291.72,159.94Z" transform="translate(208.64 -162.56) rotate(46.35)"></path><path class="cls-111" d="M292.29,152.88h.27a4.31,4.31,0,0,1,4.31,4.31v0a.68.68,0,0,1-.68.68h0a4.31,4.31,0,0,1-4.31-4.31v-.27a.4.4,0,0,1,.4-.4Z" transform="translate(385.17 475.63) rotate(-133.65)"></path><path class="cls-112" d="M294.35,154h1.08a3.91,3.91,0,0,1,3.91,3.91v0a1.08,1.08,0,0,1-1.08,1.08h0a3.91,3.91,0,0,1-3.91-3.91V154A0,0,0,0,1,294.35,154Z" transform="translate(133.41 449.6) rotate(-88.65)"></path><path class="cls-113" d="M289.25,158.88h1.08a3.91,3.91,0,0,1,3.91,3.91v0a1.08,1.08,0,0,1-1.08,1.08h0a3.91,3.91,0,0,1-3.91-3.91v-1.08A0,0,0,0,1,289.25,158.88Z" transform="translate(459.92 -126.5) rotate(91.35)"></path><circle class="cls-114" cx="294.29" cy="158.94" r="1.87"></circle><path class="cls-115" d="M283.88,124.66c-.12-1.84.31-3.7-.22-5.52a1.86,1.86,0,0,0-.13-.46c-.76-1.69.17-3.56-.56-5.25-.88-2.54-.35-5.23-.84-7.8a116.88,116.88,0,0,0-23-51.39c-2.48-3.15-4.67-6.63-8.27-8.74-8.14.26-16.12,1.93-24.19,2.73-12.82,1.27-25.73,3.06-37.47-4.62a9.4,9.4,0,0,0-1.65-.55c-6.15-2.33-11.67-.42-16.87,2.73-4.62,2.8-8.86,5.85-8.85,12.3,0,3.23-3,4.37-5.72,2.58a45.28,45.28,0,0,1-4.38-3.43,3.6,3.6,0,0,0-4.2-.41c-3.63,1.62-4.38,3.55-2.7,7.2,3.07,6.68,3.09,6.7-3.28,10.74-2,1.27-3.45,3-3.39,5.33.16,5.48-2.11,9.58-6.46,12.75-1.3,1-2.3,2.3-3.55,3.34-7.21,6-9.14,13.85-6.93,22.62,2.57,10.19,6.65,13.79,16.11,13.24a38.39,38.39,0,0,1,5.57.14c2.42.2,4.82,1.05,5.84,3.28,3.48,7.65,6.76,15.65,4,24.09-3.4,10.55-1.62,20.46,2.42,30.13,3.25,7.78,10.49,9.12,17,3.71a32.13,32.13,0,0,0,6.91-8.69c2.57-4.31,5.38-8.42,9.42-11.52a8,8,0,0,0,3.4-7.56c-.76-8.12,2.35-14.19,9.71-18a19.53,19.53,0,0,0,2.29-1.59c3.92-2.81,6.51-6.24,5.61-11.46-.47-2.73.74-4.55,3.26-5.86,4.82-2.51,9.54-5.07,13-9.66,2.31-3.09,4.63-2.83,7.81-.46,4.61,3.41,6.27,8.49,7.89,13.6,1.2,3.77,2.29,7.58,5,10.64.65.73,1.24,2,2.47,1.54a3.19,3.19,0,0,0,2.37-2.74c.08-.69.08-1.4.19-2.08a13.45,13.45,0,0,1,11.3-11.26c1.35-.2,2.86-.56,3.92.71,6,7.17,11.72,13.85,6.66,23.24-2.23,4.15.64,11.65,4.1,13.27a95.33,95.33,0,0,0,3.87-14.28c.71-.93-.5-1.75-.14-2.66.07-.47.13-.94.2-1.42,1.64-1.08.4-3,1.31-4.34l.12-4.74c.41-1.27.57-2.61,1-3.9,0-1.77,0-3.54.06-5.31Z"></path><path class="cls-116" d="M85.57,136a21.61,21.61,0,0,0-2.72-1.55,23.13,23.13,0,0,1-10.63-9.63,38.16,38.16,0,0,0-21.33-16.89,104.9,104.9,0,0,0-.92,32.6,118.17,118.17,0,0,0,12.14,39.69c2.71-.27,4.15-2.21,5.39-4.28,2.92-4.9,5.81-9.76,11.54-12,2.64-1,4-3.28,4.85-6a25.16,25.16,0,0,1,4.16-8.35C92.7,143.78,91.94,139.89,85.57,136Z"></path><path class="cls-117" d="M144.56,28.76c2.24-3.81,1.13-6.17-3-7.5a16.79,16.79,0,0,0-6.14-.76A36.67,36.67,0,0,1,121.67,19c-6.31.09-10.92,4-16,7-.15.09,0,.64,0,1,2.27,1.77,1.15,3.62.19,5.54-2,4-1.87,7.55.45,9.62,2.86,2.56,5.88.81,8.4-.5A35.5,35.5,0,0,1,129,37.8C135.66,37.36,141.11,34.63,144.56,28.76Z"></path><path class="cls-118" d="M68.47,62.71a11.87,11.87,0,0,0,7.79-3.46A6.34,6.34,0,0,1,83.5,57.7c3.44,1.21,6.17-1.16,5.81-5a36.13,36.13,0,0,0-1.56-6C87.24,44.83,86.26,43,87,41c-.76-.86-1.2-.06-1.65.36A111.87,111.87,0,0,0,68.45,61.54C68.2,61.93,67.94,62.33,68.47,62.71Z"></path><path class="cls-119" d="M283.4,134.65l.21-5.61q.22-.49.51,0c0,2.59.47,5.22-.56,7.74C282.88,136.1,283.08,135.38,283.4,134.65Z"></path><path class="cls-120" d="M283.65,124.82c0-1.89,0-3.79,0-5.68,1,1.84.52,3.8.47,5.72Z"></path><path class="cls-121" d="M283.53,118.68c-1.12-1.65-.5-3.49-.56-5.25C283.94,115.09,283.56,116.9,283.53,118.68Z"></path><path class="cls-122" d="M281.4,147.2c.71-1.36.07-3.14,1.31-4.34C282.45,144.36,283.61,146.29,281.4,147.2Z"></path><path class="cls-123" d="M283.65,124.82l.48,0c0,1.39,0,2.77,0,4.15l-.51,0C283.62,127.63,283.64,126.23,283.65,124.82Z"></path><path class="cls-124" d="M283.4,134.65c.05.7.1,1.4.16,2.1s-.06,1.14-.73,1.37C282.83,136.93,282.52,135.69,283.4,134.65Z"></path><path class="cls-125" d="M281.34,151.28c.16-.9-1.34-1.71-.14-2.66C281.81,149.48,282.32,150.34,281.34,151.28Z"></path><path class="cls-126" d="M203,176.7c-.3,3-2.17,6-5.16,8.24-1,.73-1.94,1.77-3.36.67s-2.32-2.29-1.89-4.12a14.55,14.55,0,0,1,4.87-8.2c1.15-.94,2.32-2.18,4-1.31S203,174.39,203,176.7Z"></path><path class="cls-127" d="M275.31,149.22c1.58-3.49,1.06-7-.6-10.44a42,42,0,0,0-6.31-9.15,6.21,6.21,0,0,0-6.94-1.9c-5.78,1.66-9.28,5.47-10.77,11.24-.36,1.41-.14,3.45-1.9,3.79-2,.38-2.47-1.75-3.34-3a18.41,18.41,0,0,1-2.17-5.12c-.94-3-2-6-3.19-8.84a18.3,18.3,0,0,0-5.28-7.25c-3.92-3.2-6.68-3.35-10,.39a34.81,34.81,0,0,1-11.33,8.47c-3.58,1.7-5.31,4.34-4.88,8.32.37,3.45-1.13,6-3.68,8.21a25.38,25.38,0,0,1-4.39,3.41c-7.32,3.8-9.8,10.13-9.56,17.89a8.82,8.82,0,0,1-3.2,7.37,48.61,48.61,0,0,0-10,12.46,26.3,26.3,0,0,1-6.73,7.92c-5.85,4.42-11.76,3.42-14.71-3.14-4.16-9.25-6.41-18.93-2.87-29a19.48,19.48,0,0,0,.86-8.94,64.38,64.38,0,0,0-3.43-14.2,9.05,9.05,0,0,0-8.71-6.34c-2.43-.12-4.88,0-7.31-.14-3.2-.22-6.2-1-8.46-3.51-5.24-5.85-8.46-20.33.25-28.74,2.26-2.18,4.3-4.63,6.75-6.56A14.37,14.37,0,0,0,139,81.21a7,7,0,0,1,3-5.61c6.53-4.67,6.54-4.7,3.59-12.28-.7-1.8-.8-3.37.89-4.68a3.92,3.92,0,0,1,5.12-.23c1.05.73,2,1.62,3,2.34,4.23,2.87,7.35,1.55,8.16-3.55A10.89,10.89,0,0,1,164.6,52a21.88,21.88,0,0,1,25.56-7c1.84.74,3.61,1.61,5.41,2.41,4.61,2.05,9.33,3.41,14.5,3.08,12.86-.81,25.6-2.75,38.42-3.9.9-.08,1.92,0,2.34-1.12-2.61-2.49-5.09-5.12-7.84-7.42-25.14-21-54.06-30.46-86.78-27.77A102.1,102.1,0,0,0,121.67,19c.49,1.32,1.7,1.4,2.83,1.67a43.53,43.53,0,0,0,10.38.79,20.63,20.63,0,0,1,5.86.53c3.75,1.1,4.73,3.12,2.73,6.48-2.42,4-5.93,7-10.67,7.68-7.13,1.05-14.09,2.37-20.74,5.45-4.33,2-7.5-1.22-6.43-6,.36-1.59,1.32-3,1.75-4.53.49-1.75.8-3.53-1.69-4.08A106.07,106.07,0,0,0,87,41C85.35,42,86,43.56,86.28,45c.43,1.91,1.13,3.75,1.75,5.62,1.33,4-1.18,7.82-5.51,6a4.6,4.6,0,0,0-4.67.36c-2.89,2.33-6.19,3.92-9.38,5.73a122.35,122.35,0,0,0-17.58,45.22c.46,1.29,1.68,1.52,2.75,1.9a30.3,30.3,0,0,1,14.79,11.24c4.74,6.9,9.91,12.8,17.61,16.24a3.17,3.17,0,0,1,.59.39c3.84,2.83,4.52,6.44,1.64,10.22a28.49,28.49,0,0,0-5,9.11,10.75,10.75,0,0,1-5.92,6.9A18.91,18.91,0,0,0,69,172a22.83,22.83,0,0,1-6.85,8.21,110.15,110.15,0,0,0,19.84,28c22.32,23,49.62,35,81.55,36.22A108.92,108.92,0,0,0,207.83,237c33.94-13.29,57.26-37,69.64-71.42C273.8,160.51,272.6,155.19,275.31,149.22Z"></path><path class="cls-128" d="M166.31,84.85c-1.23-.31-2.14-1.75-3.29-2.52a28.57,28.57,0,0,0-3.63-2c-1.71-.84-2.91.14-3.88,1.38-1.33,1.68.47,2.16,1.3,2.92,1.28,1.18,2.7,2.19,4,3.37,5.25,4.81,10.58,9.25,18.42,8.94,2.33-.1,4.4,2,7.74,2a3,3,0,0,0,2.66-2.63c.24-2.36-1.54-2.09-3-2.39C179.24,92.34,173.65,86.66,166.31,84.85Z"></path><path class="cls-129" d="M232.35,182.42l10.41.07,0-2.44a9,9,0,0,0-8.92-9.05l-4.59,0,0,4.59A9,9,0,0,0,232.35,182.42Z"></path><path class="cls-129" d="M219.3,175.72l-7.15-.05V174a6.16,6.16,0,0,1,6.21-6.12l3.16,0,0,3.16A6.13,6.13,0,0,1,219.3,175.72Z"></path><path class="cls-129" d="M223.37,190.14l-5.71,0v-1.35a4.92,4.92,0,0,1,5-4.88h2.52v2.52A5,5,0,0,1,223.37,190.14Z"></path><path class="cls-130" d="M232.16,173.56h.8a2,2,0,0,1,2,2v.4a0,0,0,0,1,0,0h-.8a2,2,0,0,1-2-2v-.4A0,0,0,0,1,232.16,173.56Z" transform="translate(1.27 -1.68) rotate(0.41)"></path><path class="cls-130" d="M222.47,185.73h.42a0,0,0,0,1,0,0v.21a1.05,1.05,0,0,1-1.05,1.05h-.42a0,0,0,0,1,0,0v-.21A1.05,1.05,0,0,1,222.47,185.73Z" transform="translate(442.95 374.32) rotate(-179.59)"></path><path class="cls-130" d="M218.68,170.1h.56a0,0,0,0,1,0,0v.28a1.41,1.41,0,0,1-1.41,1.41h-.56a0,0,0,0,1,0,0v-.28A1.41,1.41,0,0,1,218.68,170.1Z" transform="translate(435.28 343.46) rotate(-179.59)"></path><path class="cls-3" d="M279,30.28h1.69a3.81,3.81,0,0,1,3.81,3.81v1.69a0,0,0,0,1,0,0h-1.69A3.81,3.81,0,0,1,279,32V30.28a0,0,0,0,1,0,0Z" transform="matrix(-0.67, 0.74, -0.74, -0.67, 495.45, -153.46)"></path><path class="cls-3" d="M325.39,57.22h1.69A3.81,3.81,0,0,1,330.89,61v1.69a0,0,0,0,1,0,0H329.2a3.81,3.81,0,0,1-3.81-3.81V57.22A0,0,0,0,1,325.39,57.22Z" transform="translate(593.01 -142.81) rotate(132.21)"></path><path class="cls-3" d="M314.13,106.52h1.39a3.13,3.13,0,0,1,3.13,3.13V111a0,0,0,0,1,0,0h-1.39a3.13,3.13,0,0,1-3.13-3.13v-1.39a0,0,0,0,1,0,0Z" transform="translate(409.61 -212.54) rotate(87.21)"></path><path class="cls-3" d="M341.95,106.29h1.66a3.75,3.75,0,0,1,3.75,3.75v1.66a0,0,0,0,1,0,0H345.7a3.75,3.75,0,0,1-3.75-3.75v-1.66A0,0,0,0,1,341.95,106.29Z" transform="translate(694.22 201.07) rotate(177.21)"></path><path class="cls-3" d="M329.71,152.14h1.41a3.17,3.17,0,0,1,3.17,3.17v1.41a0,0,0,0,1,0,0h-1.41a3.17,3.17,0,0,1-3.17-3.17v-1.41A0,0,0,0,1,329.71,152.14Z" transform="translate(671.13 292.5) rotate(177.21)"></path><path class="cls-3" d="M305.38,142.14h.86a1.95,1.95,0,0,1,1.95,1.95v.86a0,0,0,0,1,0,0h-.86a1.95,1.95,0,0,1-1.95-1.95v-.86A0,0,0,0,1,305.38,142.14Z" transform="translate(435.2 -169.88) rotate(87.21)"></path><path class="cls-3" d="M308.43,3.39h1.17A2.64,2.64,0,0,1,312.23,6V7.2a0,0,0,0,1,0,0h-1.17a2.64,2.64,0,0,1-2.64-2.64V3.39a0,0,0,0,1,0,0Z" transform="translate(536.64 217.7) rotate(-137.79)"></path><path class="cls-3" d="M252.19,41.75h1.27a2.87,2.87,0,0,1,2.87,2.87v1.27a0,0,0,0,1,0,0h-1.27A2.87,2.87,0,0,1,252.19,43V41.75A0,0,0,0,1,252.19,41.75Z" transform="translate(510.35 75.2) rotate(177.21)"></path><path class="cls-3" d="M273.49,66.56h1.6a3.62,3.62,0,0,1,3.62,3.62v1.6a0,0,0,0,1,0,0h-1.6a3.62,3.62,0,0,1-3.62-3.62v-1.6A0,0,0,0,1,273.49,66.56Z" transform="translate(535.89 185.48) rotate(-169.95)"></path><path class="cls-3" d="M265.85,56h1.36A3.06,3.06,0,0,1,270.27,59V60.4a0,0,0,0,1,0,0h-1.36a3.06,3.06,0,0,1-3.06-3.06V56a0,0,0,0,1,0,0Z" transform="translate(538.63 103.24) rotate(177.21)"></path><path class="cls-131" d="M302.52,160.38h.78a1.77,1.77,0,0,1,1.77,1.77v.78a0,0,0,0,1,0,0h-.78a1.77,1.77,0,0,1-1.77-1.77v-.78A0,0,0,0,1,302.52,160.38Z"></path><path class="cls-132" d="M298.89,77.79h.78a1.77,1.77,0,0,1,1.77,1.77v.78a0,0,0,0,1,0,0h-.78a1.77,1.77,0,0,1-1.77-1.77v-.78A0,0,0,0,1,298.89,77.79Z" transform="translate(379.23 -221.1) rotate(90)"></path><path class="cls-129" d="M228,3.32h1.14a2.57,2.57,0,0,1,2.57,2.57v0A1.14,1.14,0,0,1,230.55,7h0A2.57,2.57,0,0,1,228,4.46V3.32a0,0,0,0,1,0,0Z" transform="translate(27.41 114.16) rotate(-29.59)"></path><path class="cls-133" d="M207.16,23.92a24.54,24.54,0,0,1-.25,3.34,14.19,14.19,0,0,1,2.27-.16,7.89,7.89,0,0,1,.84,0,24.28,24.28,0,0,1-.19-3.21c.06-8.68,3.29-20.52,15.66-20.44C221.86,1.19,214-.19,209.38-.22c-4.91,0-13.07,1.4-16.88,3.94C203.87,5.07,207.22,15.54,207.16,23.92Z"></path><path class="cls-129" d="M186.31,3h1.14A2.57,2.57,0,0,1,190,5.59v0a1.14,1.14,0,0,1-1.14,1.14h0a2.57,2.57,0,0,1-2.57-2.57V3a0,0,0,0,1,0,0Z" transform="translate(279.81 -159.53) rotate(117.65)"></path><path class="cls-129" d="M189.24,8.14h1.31a3,3,0,0,1,3,3v0a1.31,1.31,0,0,1-1.31,1.31h0a3,3,0,0,1-3-3V8.14A0,0,0,0,1,189.24,8.14Z" transform="translate(142.73 -175.1) rotate(72.22)"></path><path class="cls-129" d="M223.86,8.39h1.31a3,3,0,0,1,3,3v0a1.31,1.31,0,0,1-1.31,1.31h0a3,3,0,0,1-3-3V8.39a0,0,0,0,1,0,0Z" transform="translate(10.59 -58.67) rotate(15.14)"></path><path class="cls-134" d="M227.35,36.81c-2.72-5.78-10.21-10-19.07-10s-16.4,4-19.21,9.77Z"></path><path class="cls-129" d="M194.37,33.16h.95a2.37,2.37,0,0,1,2.37,2.37V36a0,0,0,0,1,0,0h-.95a2.37,2.37,0,0,1-2.37-2.37v-.48A0,0,0,0,1,194.37,33.16Z" transform="translate(325.09 -116.97) rotate(120.41)"></path><path class="cls-135" d="M292.85,126.36H297a4.17,4.17,0,0,1,4.17,4.17v0a4.17,4.17,0,0,1-4.17,4.17h-4.17a0,0,0,0,1,0,0v-8.33A0,0,0,0,1,292.85,126.36Z" transform="translate(603.72 236.31) rotate(175.31)"></path><path class="cls-136" d="M301.19,130.46l-4.14.34a4.15,4.15,0,0,1-3.86-2,4.24,4.24,0,0,0-.31,2h0a4.19,4.19,0,0,0,4.49,3.88l4.14-.34Z"></path><path class="cls-137" d="M292.51,131.7h5.28a5.28,5.28,0,0,1,5.28,5.28v0a5.28,5.28,0,0,1-5.28,5.28h-5.28a0,0,0,0,1,0,0V131.7a0,0,0,0,1,0,0Z" transform="matrix(-1, 0.06, -0.06, -1, 603.55, 255.05)"></path><path class="cls-138" d="M303.09,137.06l-5.27.33a5.29,5.29,0,0,1-4.86-2.57,5.36,5.36,0,0,0-.44,2.47h0a5.28,5.28,0,0,0,5.6,5l5.27-.33Z"></path><path class="cls-139" d="M277,56h5.53A5.53,5.53,0,0,1,288,61.49v0A5.53,5.53,0,0,1,282.51,67H277a0,0,0,0,1,0,0V56A0,0,0,0,1,277,56Z" transform="translate(557.34 -28.32) rotate(149.62)"></path><path class="cls-140" d="M287.46,59l-4.78,2.8a5.52,5.52,0,0,1-5.75-.1,5.49,5.49,0,0,0,.75,2.51h0a5.53,5.53,0,0,0,7.57,2l4.78-2.8Z"></path><path class="cls-3" d="M310.54,67.38h1.17A2.64,2.64,0,0,1,314.34,70v1.17a0,0,0,0,1,0,0h-1.17a2.64,2.64,0,0,1-2.64-2.64V67.38A0,0,0,0,1,310.54,67.38Z" transform="translate(497.33 330.49) rotate(-137.79)"></path><path class="cls-134" d="M37.54,108.69h1.69A3.81,3.81,0,0,1,43,112.5v1.69a0,0,0,0,1,0,0H41.34a3.81,3.81,0,0,1-3.81-3.81v-1.69A0,0,0,0,1,37.54,108.69Z" transform="translate(72.14 225.57) rotate(-175.72)"></path><path class="cls-134" d="M29.81,150.86H31.5a3.81,3.81,0,0,1,3.81,3.81v1.69a0,0,0,0,1,0,0H33.62a3.81,3.81,0,0,1-3.81-3.81v-1.69A0,0,0,0,1,29.81,150.86Z" transform="translate(53.56 309.21) rotate(-175.72)"></path><path class="cls-134" d="M15.73,150.32H16.9A2.64,2.64,0,0,1,19.54,153v1.17a0,0,0,0,1,0,0H18.37a2.64,2.64,0,0,1-2.64-2.64v-1.17a0,0,0,0,1,0,0Z" transform="translate(-135.48 158.46) rotate(-85.72)"></path><path class="cls-134" d="M37.61,191.55H39.3a3.81,3.81,0,0,1,3.81,3.81V197a0,0,0,0,1,0,0H41.42a3.81,3.81,0,0,1-3.81-3.81v-1.69A0,0,0,0,1,37.61,191.55Z" transform="translate(-116.98 73.37) rotate(-40.72)"></path><path class="cls-134" d="M50,182.81h1.17a2.64,2.64,0,0,1,2.64,2.64v1.17a0,0,0,0,1,0,0H52.62A2.64,2.64,0,0,1,50,184v-1.17A0,0,0,0,1,50,182.81Z" transform="translate(158.03 24.89) rotate(49.28)"></path><path class="cls-141" d="M247.37,10.84h2.72a5.37,5.37,0,0,1,5.37,5.37v0a2.72,2.72,0,0,1-2.72,2.72h0a5.37,5.37,0,0,1-5.37-5.37V10.84A0,0,0,0,1,247.37,10.84Z" transform="translate(500.44 52.56) rotate(-174.78)"></path><path class="cls-132" d="M260.34,25.87h0a7.49,7.49,0,0,1-5.66.87,8.7,8.7,0,0,1-2.24-1,12.41,12.41,0,0,1-2.37-2.42l-2-3.24,3.24-2a8,8,0,0,1,2.15-.86,7.78,7.78,0,0,1,2.63-.17,7.35,7.35,0,0,1,.88.16,8.68,8.68,0,0,1,4.62,3.39h0A3.8,3.8,0,0,1,260.34,25.87Z"></path><path class="cls-134" d="M251.85,25.3a7.6,7.6,0,0,0,2.24-3.95,7.68,7.68,0,0,0-.25-4.14l2.28-.1a8.87,8.87,0,0,1,.32,4.74,9.09,9.09,0,0,1-2.61,4.63,6.36,6.36,0,0,1-1.14-.57A6.1,6.1,0,0,1,251.85,25.3Z"></path><path class="cls-134" d="M259.17,26.45a6.69,6.69,0,0,0,1.57-6.85,11.34,11.34,0,0,0-2-1.6,7.65,7.65,0,0,1,.29,4.63,7.75,7.75,0,0,1-2.93,4.31,7.66,7.66,0,0,0,1.65-.1A8.07,8.07,0,0,0,259.17,26.45Z"></path><path class="cls-142" d="M248.85,11.44h2.72a5.37,5.37,0,0,1,5.37,5.37v0a2.72,2.72,0,0,1-2.72,2.72h0a5.37,5.37,0,0,1-5.37-5.37V11.44A0,0,0,0,1,248.85,11.44Z" transform="translate(503.34 53.91) rotate(-174.78)"></path><path class="cls-134" d="M248.1,20.11l2.33-1.42a3.28,3.28,0,0,1,.12,2.15,3.35,3.35,0,0,1-1,1.6Z"></path><path class="cls-143" d="M280.18,93.78h0a2.2,2.2,0,0,1,2.2,2.2v0a4.34,4.34,0,0,1-4.34,4.34h-2.2a0,0,0,0,1,0,0v-2.2A4.34,4.34,0,0,1,280.18,93.78Z" transform="translate(531.7 -56.3) rotate(129.56)"></path><path class="cls-132" d="M277.89,85.67h0a6,6,0,0,0-3.72,2.76,6.84,6.84,0,0,0-.72,1.84,10,10,0,0,0,0,2.73l.74,3,3-.74a6.44,6.44,0,0,0,1.71-.74,6,6,0,0,0,1.6-1.42,4.74,4.74,0,0,0,.41-.6,6.94,6.94,0,0,0,.68-4.57h0A3.05,3.05,0,0,0,277.89,85.67Z"></path><path class="cls-134" d="M273.38,90.87a6.22,6.22,0,0,1,3.54,1,6.1,6.1,0,0,1,2.23,2.51l1.36-1.26a7.09,7.09,0,0,0-6.68-4,5.2,5.2,0,0,0-.33,1A4.49,4.49,0,0,0,273.38,90.87Z"></path><path class="cls-134" d="M276.89,86a5.44,5.44,0,0,1,2.88.85A5.31,5.31,0,0,1,281.71,89a9.18,9.18,0,0,1-.2,2,6.19,6.19,0,0,0-6.64-3.58,5.71,5.71,0,0,1,1-.88A6,6,0,0,1,276.89,86Z"></path><path class="cls-144" d="M280.68,92.58h0a2.2,2.2,0,0,1,2.2,2.2v0a4.34,4.34,0,0,1-4.34,4.34h-2.2a0,0,0,0,1,0,0v-2.2A4.34,4.34,0,0,1,280.68,92.58Z" transform="translate(531.59 -58.65) rotate(129.56)"></path><path class="cls-134" d="M274.22,96l2.15-.53a2.63,2.63,0,0,0-2.68-1.61Z"></path><path class="cls-145" d="M307.26,181.38h0a2.83,2.83,0,0,1,2.83,2.83v0a5.59,5.59,0,0,1-5.59,5.59h-2.83a0,0,0,0,1,0,0V187a5.59,5.59,0,0,1,5.59-5.59Z" transform="translate(377.51 -164.95) rotate(70.3)"></path><path class="cls-132" d="M292.49,179.45h0a7.77,7.77,0,0,0,.59,5.93,8.81,8.81,0,0,0,1.57,2,12.74,12.74,0,0,0,3.05,1.76l3.78,1.14,1.14-3.78a8.34,8.34,0,0,0,.3-2.39,7.94,7.94,0,0,0-.51-2.7,9.14,9.14,0,0,0-.39-.84,8.94,8.94,0,0,0-4.62-3.77h0A3.93,3.93,0,0,0,292.49,179.45Z"></path><path class="cls-134" d="M295.26,187.86a8.17,8.17,0,0,1,3.4-3.29,7.92,7.92,0,0,1,4.25-.81l-.5-2.34a9.15,9.15,0,0,0-8.84,4.76,7.12,7.12,0,0,0,.86,1A7.36,7.36,0,0,0,295.26,187.86Z"></path><path class="cls-134" d="M292.2,180.78a7,7,0,0,1,6.5-3.37,12.34,12.34,0,0,1,2.13,1.58,7.94,7.94,0,0,0-8.33,5,7.37,7.37,0,0,1-.32-1.69A8.22,8.22,0,0,1,292.2,180.78Z"></path><path class="cls-146" d="M306.26,180h0a2.83,2.83,0,0,1,2.83,2.83v0a5.59,5.59,0,0,1-5.59,5.59h-2.83a0,0,0,0,1,0,0v-2.83A5.59,5.59,0,0,1,306.26,180Z" transform="translate(375.59 -164.89) rotate(70.3)"></path><path class="cls-134" d="M301.48,190.29l.82-2.72a3.46,3.46,0,0,0-2.2.44,3.4,3.4,0,0,0-1.34,1.46Z"></path><path class="cls-147" d="M307.4,97.59h0a1.2,1.2,0,0,1,1.2,1.2v0a2.37,2.37,0,0,1-2.37,2.37H305a0,0,0,0,1,0,0V100a2.37,2.37,0,0,1,2.37-2.37Z" transform="translate(296.97 -222.98) rotate(70.3)"></path><path class="cls-132" d="M301.14,96.78h0a3.25,3.25,0,0,0,.25,2.51,3.67,3.67,0,0,0,.66.85,5.28,5.28,0,0,0,1.3.75l1.6.48.49-1.6a3.94,3.94,0,0,0,.13-1,3.58,3.58,0,0,0-.22-1.15,3.32,3.32,0,0,0-.17-.36,3.79,3.79,0,0,0-2-1.59h0A1.66,1.66,0,0,0,301.14,96.78Z"></path><path class="cls-134" d="M302.32,100.35a3.36,3.36,0,0,1,1.44-1.4,3.47,3.47,0,0,1,1.8-.35l-.21-1a3.88,3.88,0,0,0-3.75,2,3.15,3.15,0,0,0,.36.43Z"></path><path class="cls-134" d="M301,97.34a2.95,2.95,0,0,1,2.75-1.43,5.06,5.06,0,0,1,.91.67,3.37,3.37,0,0,0-3.54,2.12A3.11,3.11,0,0,1,301,98,3.33,3.33,0,0,1,301,97.34Z"></path><path class="cls-148" d="M307,97h0a1.2,1.2,0,0,1,1.2,1.2v0a2.37,2.37,0,0,1-2.37,2.37h-1.2a0,0,0,0,1,0,0V99.4A2.37,2.37,0,0,1,307,97Z" transform="translate(296.16 -222.96) rotate(70.3)"></path><path class="cls-134" d="M305,101.37l.35-1.15a1.46,1.46,0,0,0-.93.19,1.44,1.44,0,0,0-.57.62Z"></path><path class="cls-149" d="M85.16,136a22.93,22.93,0,0,0-2.72-1.55,23,23,0,0,1-10.63-9.63A38.14,38.14,0,0,0,50.48,108a105.19,105.19,0,0,0-.92,32.6A118.19,118.19,0,0,0,61.7,180.23c2.71-.27,4.15-2.2,5.39-4.28,2.92-4.9,5.81-9.75,11.54-12,2.64-1,4-3.28,4.85-6a25.16,25.16,0,0,1,4.16-8.35C92.3,143.79,91.53,139.91,85.16,136Z"></path><path class="cls-150" d="M144.15,28.77c2.24-3.81,1.13-6.17-3-7.5a16.78,16.78,0,0,0-6.14-.75A36.68,36.68,0,0,1,121.26,19c-6.31.09-10.92,4.05-16,7.05-.15.09,0,.64,0,1,2.27,1.78,1.15,3.62.19,5.55-2,4-1.87,7.54.45,9.62,2.86,2.55,5.88.8,8.4-.51a35.49,35.49,0,0,1,14.28-3.89C135.26,37.37,140.7,34.64,144.15,28.77Z"></path><path class="cls-151" d="M68.06,62.73a11.93,11.93,0,0,0,7.79-3.47,6.36,6.36,0,0,1,7.24-1.55c3.44,1.22,6.17-1.16,5.81-5a36.35,36.35,0,0,0-1.55-6c-.52-1.88-1.5-3.69-.72-5.73-.76-.87-1.2-.06-1.65.36A111.46,111.46,0,0,0,68,61.55C67.79,61.94,67.53,62.34,68.06,62.73Z"></path><path class="cls-152" d="M164.69,195.6c-3.6.41-6.79-1.49-8.72-5.77-4.16-9.25-6.41-18.93-2.87-29a19.32,19.32,0,0,0,.86-8.94,64.52,64.52,0,0,0-3.43-14.2,9.05,9.05,0,0,0-8.71-6.34c-2.43-.11-4.88,0-7.31-.14-3.2-.21-6.2-1-8.46-3.51-5.24-5.84-8.46-20.32.25-28.74,2.26-2.18,4.3-4.62,6.75-6.55a14.39,14.39,0,0,0,5.53-11.15,7,7,0,0,1,3-5.62c6.53-4.67,6.54-4.7,3.59-12.28-.7-1.8-.8-3.36.89-4.67a3.93,3.93,0,0,1,5.12-.24c1.05.73,2,1.62,3,2.34,4.23,2.88,7.35,1.55,8.16-3.54.3-1.86.76-2.28,1.94-3.83.16-.21.36-.58.36-2V9.89c-2.93,0-5.89.19-8.89.43A102.34,102.34,0,0,0,121.26,19c.49,1.32,1.7,1.4,2.83,1.68a44.08,44.08,0,0,0,10.38.78,21,21,0,0,1,5.86.53c3.75,1.1,4.73,3.12,2.73,6.48-2.41,4.05-5.93,7-10.67,7.69-7.13,1-14.09,2.36-20.74,5.44-4.33,2-7.5-1.22-6.43-5.95.36-1.6,1.32-3,1.75-4.54.49-1.74.8-3.52-1.69-4.08A106.62,106.62,0,0,0,86.63,41c-1.69,1-1.07,2.59-.76,4,.43,1.92,1.14,3.76,1.75,5.62,1.33,4-1.18,7.82-5.51,6a4.63,4.63,0,0,0-4.67.36c-2.89,2.33-6.19,3.93-9.38,5.74A122.39,122.39,0,0,0,50.48,108c.46,1.28,1.68,1.51,2.75,1.9A30.23,30.23,0,0,1,68,121.08c4.74,6.9,9.91,12.8,17.61,16.24a3.76,3.76,0,0,1,.59.39c3.84,2.83,4.52,6.44,1.64,10.22a28.43,28.43,0,0,0-5,9.12A10.77,10.77,0,0,1,77,164a18.8,18.8,0,0,0-8.4,8.08,22.72,22.72,0,0,1-6.85,8.2,109.8,109.8,0,0,0,19.84,28c22.32,23,49.62,35,81.55,36.23l1.6,0Z"></path><path class="cls-153" d="M164.69,52.1c-2,2-2.07,2.94-3.3,6.3-.92,2.53-1.86,2.63-5.35,2.2-1.83-.22-3.34-1.86-4.75-3.05a3.63,3.63,0,0,0-4.2-.4c-3.63,1.6-4.38,3.51-2.7,7.13,3.07,6.61,3.09,6.64-3.28,10.64-2,1.26-3.45,2.93-3.39,5.28.16,5.42-2.11,9.48-6.46,12.62-1.3.94-2.3,2.28-3.55,3.31-7.21,6-9.14,13.72-6.93,22.41,2.57,10.09,6.65,13.65,16.11,13.1a39.83,39.83,0,0,1,5.57.15c2.42.2,4.82,1,5.84,3.25,3.48,7.57,6.76,15.5,4,23.85-3.4,10.46-1.62,20.27,2.42,29.84,2.08,4.94,5.8,7.24,9.92,6.87Z"></path><path class="cls-154" d="M164.69,83.64c-.79-.58-1.5-1.48-2.33-2a28.72,28.72,0,0,0-3.63-2c-1.72-.84-2.91.14-3.88,1.38-1.33,1.68.47,2.16,1.29,2.92,1.28,1.18,2.71,2.19,4,3.36,1.49,1.37,3,2.71,4.56,3.92Z"></path><line class="cls-2" x1="14.91" y1="131.15" x2="27.58" y2="118.48"></line><line class="cls-2" x1="14.91" y1="131.17" x2="27.58" y2="143.84"></line><path class="cls-130" d="M112,67.78h.8a2,2,0,0,1,2,2v.4a0,0,0,0,1,0,0H114a2,2,0,0,1-2-2v-.4A0,0,0,0,1,112,67.78Z" transform="translate(0.5 -0.82) rotate(0.41)"></path><path class="cls-130" d="M98.54,64.32h.56a0,0,0,0,1,0,0v.28A1.41,1.41,0,0,1,97.69,66h-.56a0,0,0,0,1,0,0v-.28A1.41,1.41,0,0,1,98.54,64.32Z" transform="translate(195.76 131.03) rotate(-179.59)"></path><path class="cls-155" d="M120.51,68.41a9,9,0,0,0-6.79-3.19l-4.59,0,0,4.59a8.94,8.94,0,0,0,3.11,6.85h.09Z"></path><path class="cls-155" d="M98.23,62.08a6.15,6.15,0,0,0-4.83,2.29L99,69.94h.18a6.13,6.13,0,0,0,2.21-4.68l0-3.15Z"></path><path class="cls-156" d="M96.17,67.15l-4.5,4.5Z"></path><path class="cls-155" d="M95.16,68.16l2.15,2.51L97,71l-2.15-2.5Zm-.36.36,2.51,2.15L97,71l-2.5-2.15Z"></path><path class="cls-155" d="M94.45,68.87l-2.15-2.5.35-.36,2.15,2.51Zm.35-.35-2.5-2.15.35-.36,2.51,2.15Z"></path><path class="cls-155" d="M93.07,70.25,95,72.52l-.35.35-1.92-2.26Zm-.36.36L95,72.52l-.35.35L92.36,71Z"></path><path class="cls-155" d="M92.36,71l-1.91-2.27.35-.35,1.91,2.27Zm.35-.35-2.26-1.92.35-.35,2.27,1.91Z"></path><path class="cls-134" d="M98.67,63.55h.51a0,0,0,0,1,0,0v.24A1.25,1.25,0,0,1,97.93,65h-.51a0,0,0,0,1,0,0V64.8a1.25,1.25,0,0,1,1.25-1.25Z" transform="translate(196.13 129.3) rotate(-179.59)"></path><path class="cls-155" d="M113.79,65.13A9.12,9.12,0,0,1,121,68.52l-8.29,8.28h-.27a9.1,9.1,0,0,1-3.28-7l0-4.69Z"></path><path class="cls-157" d="M116.84,72.65l6.7,6.7Z"></path><path class="cls-155" d="M119.37,75.18l-3.71,3.21-.49-.49,3.7-3.21Zm-.5-.49-3.21,3.7-.49-.49,3.21-3.71Z"></path><path class="cls-155" d="M118.38,74.19,122.09,71l.49.49-3.71,3.22Zm.49.5L122.09,71l.49.49-3.21,3.71Z"></path><path class="cls-155" d="M122.48,78.29l-3.36,2.86-.49-.49L122,77.79Zm-.5-.5-2.86,3.36-.49-.49,2.86-3.36Z"></path><path class="cls-155" d="M121.49,77.3l3.35-2.86.5.49L122,77.79Zm.49.49,2.86-3.35.5.49-2.86,3.36Z"></path><path class="cls-134" d="M112.37,67.31h.76A1.85,1.85,0,0,1,115,69.16v.35a0,0,0,0,1,0,0h-.76a1.85,1.85,0,0,1-1.85-1.85v-.35A0,0,0,0,1,112.37,67.31Z" transform="translate(-0.49 0.82) rotate(-0.41)"></path><path class="cls-155" d="M83,107.93a4.16,4.16,0,0,0-3.26,1.54l3.76,3.76h.12a4.16,4.16,0,0,0,1.49-3.15V108Z"></path><path class="cls-158" d="M81.57,111.35l-3,3Z"></path><path class="cls-155" d="M80.83,112.09l1.48,1.66-.18.18-1.48-1.66Zm-.18.18,1.66,1.48-.18.18-1.66-1.48Z"></path><path class="cls-155" d="M80.47,112.45,79,110.79l.18-.18,1.48,1.66Zm.18-.18L79,110.79l.18-.18,1.66,1.48Z"></path><path class="cls-155" d="M79.42,113.5l1.32,1.5-.18.18-1.32-1.5Zm-.18.18,1.5,1.32-.18.18-1.5-1.32Z"></path><path class="cls-155" d="M79.06,113.86l-1.32-1.5.18-.18,1.32,1.5Zm.18-.18-1.5-1.32.18-.18,1.5,1.32Z"></path><path class="cls-134" d="M83.25,108.92h.34a0,0,0,0,1,0,0v.16a.84.84,0,0,1-.84.84h-.34a0,0,0,0,1,0,0v-.16A.84.84,0,0,1,83.25,108.92Z" transform="translate(165.22 219.45) rotate(-179.59)"></path><rect class="cls-155" x="97.16" y="158.67" width="6.49" height="13.9" rx="1.46" transform="matrix(0.85, 0.53, -0.53, 0.85, 103.9, -28.03)"></rect><rect class="cls-155" x="103.42" y="157.42" width="3.11" height="1.92" rx="0.46" transform="translate(100.74 -31.58) rotate(32.26)"></rect><rect x="100.15" y="164" width="0.77" height="2.82" transform="translate(-34.01 26.24) rotate(-12.74)"></rect><rect x="100.15" y="164" width="0.77" height="2.82" transform="translate(239.7 30.88) rotate(77.26)"></rect><rect class="cls-155" x="122.94" y="176.08" width="12.4" height="12.4" rx="2.16" transform="translate(-59.77 63.04) rotate(-22.42)"></rect><rect class="cls-155" x="122.14" y="176.01" width="2.44" height="1.24" rx="0.26" transform="translate(-58.05 60.41) rotate(-22.42)"></rect><rect class="cls-159" x="130.44" y="176.44" width="2.77" height="9.47" rx="1.38" transform="translate(-59.14 63.98) rotate(-22.42)"></rect><rect x="126.85" y="181.65" width="0.77" height="2.82" transform="translate(-90.65 230.27) rotate(-67.42)"></rect><rect x="126.85" y="181.65" width="0.77" height="2.82" transform="translate(80.03 -34.82) rotate(22.58)"></rect></svg>