<svg id="Ebene_1" data-name="Ebene 1" xmlns="http://www.w3.org/2000/svg" viewBox="0 0 1871 1334"><defs><style>.cls-1{fill:#08a59d;}.cls-2{fill:#005c58;}.cls-3{fill:#569cfe;}.cls-4{fill:#e299a4;}.cls-5{fill:#be413c;}.cls-6{fill:#ef9854;}.cls-7{fill:#073380;}.cls-8{fill:#6d61d7;}.cls-9{fill:#f13b7a;}.cls-10{fill:#882d30;}.cls-11{fill:#6c92fe;}.cls-12{fill:#2a4c6a;}.cls-13{fill:#b98c8e;}.cls-14{fill:#250000;}.cls-15{fill:#1f1972;}.cls-16{fill:#ca5a4e;}.cls-17{fill:#6a93fd;}.cls-18{fill:#d3ccc8;}.cls-19{fill:#d2ccc8;}.cls-20{fill:#c36b79;}.cls-21{fill:#6a92fd;}.cls-22{fill:#589cfa;}.cls-23{fill:#6c93fa;}.cls-24{fill:#6792f6;}.cls-25{fill:#d5ad96;}.cls-26{fill:#893134;}.cls-27{fill:#005d59;}.cls-28{fill:#c0998a;}.cls-29{fill:#1ea0b3;}.cls-30{fill:#073d83;}.cls-31{fill:#77728c;}.cls-32{fill:#073381;}.cls-33{fill:#bd403b;}.cls-34{fill:#531371;}.cls-35{fill:#09a59f;}.cls-36{fill:#c46b79;}.cls-37{fill:#bc403d;}.cls-38{fill:#0e9e9c;}.cls-39{fill:#6893fa;}.cls-40{fill:#6793fa;}.cls-41{fill:#459df1;}.cls-42{fill:#6593f9;}.cls-43{fill:#ebf1f1;}.cls-44{fill:#892d30;}.cls-45{fill:#dab59a;}.cls-46{fill:#dab59b;}.cls-47{fill:#260101;}.cls-48{fill:#d8ebea;}.cls-49{fill:#6b93fd;}.cls-50{fill:#0da59d;}.cls-51{fill:#bf433c;}.cls-52{fill:#d97149;}.cls-53{fill:#df7b4b;}.cls-54{fill:#cd5c43;}.cls-55{fill:#7f9ad0;}.cls-56{fill:#4ba187;}.cls-57{fill:#0ba49d;}.cls-58{fill:#f14077;}.cls-59{fill:#f14177;}.cls-60{fill:#f14276;}.cls-61{fill:#f13e78;}.cls-62{fill:#f14774;}.cls-63{fill:#f14176;}.cls-64{fill:#f04d71;}.cls-65{fill:#6b60d6;}.cls-66{fill:#6a60d5;}.cls-67{fill:#665dd1;}.cls-68{fill:#0a3483;}.cls-69{fill:#0e3686;}.cls-70{fill:#113788;}.cls-71{fill:#ebeeef;}.cls-72{fill:#ebe8eb;}.cls-73{fill:#ece3e8;}.cls-74{fill:#eeb0c7;}.cls-75{fill:#5499fa;}.cls-76{fill:#559bfd;}.cls-77{fill:#c46a79;}.cls-78{fill:#259998;}.cls-79{fill:#bc413d;}.cls-80{fill:#be443f;}.cls-81{fill:#290404;}.cls-82{fill:#2c0607;}.cls-83{fill:#421b1d;}.cls-84{fill:#967e81;}.cls-85{fill:#68a7fe;}.cls-86{fill:#d1a78f;}.cls-87{fill:#e98d50;}.cls-88{fill:#e07d4c;}.cls-89{fill:#dd784b;}.cls-90{fill:#da7249;}</style></defs><path class="cls-1" d="M72.12,1333.9c20.13-44.44,42.24-87.92,64.79-131.15q21.92-42,45.62-83,17.15-29.76,35.45-58.89c8.52-13.57,16.93-27.24,25.64-40.69,11.29-17.44,23.33-34.4,35.21-51.45,9.74-14,19.5-28,29.64-41.65,8.43-11.37,17.7-22.12,26.11-33.5,8.14-11,17-21.4,25.59-32.06,8.69-10.83,18.13-21.06,27.24-31.55,1.41-5.89,6.58-8.87,10.21-13,3.05-3.44,6.14-6.83,8.89-10.53,23.08-24,46.25-47.86,70.65-70.48,11.3-10.48,22.79-20.79,34.81-30.54,12.64-10.27,25.1-20.74,38.08-30.57,4.77-3.61,9.71-7,14.27-10.86,1.55-1.28,3.56-1.88,5-3.39a12.64,12.64,0,0,1,1-.93c11.43-7.49,22.31-15.8,33.94-23,1.56-1,3-2,4.93-2.06,2.45.74,3.68,2.82,4.77,4.8,8.09,14.78,19.26,27.26,29.71,40.28,4.84,6,11.57,9.16,18.6,11.8a7.5,7.5,0,0,1,2.62,2.63c2.89,4.11,4.18,8.44,2.93,13.58-1.78,7.31-.81,10.56,2.8,11.65,3.82,1.15,11.36-2.56,13.2-7,3.54-8.57,5.15-17.21-1.08-25.45a14.67,14.67,0,0,1-2-3.43c-.45-1.48.07-3,0-4.45.93-6.47-3.38-10.77-6.45-15.6s-8.09-8.39-9.6-14.29a1.59,1.59,0,0,1,1.27-1.56c4.28.89,6.2,4.68,9,7.38,3.56,3.43,6.56,7.38,10.37,10.63a11.18,11.18,0,0,0,9,3,2.21,2.21,0,0,1,1.36,1.62c.81,6.92,4.83,9.85,12.88,9.54,2.56-.09,5.16-1.58,7.7.1a8.54,8.54,0,0,1,1.26,3.22c1.92,5.86,6.36,8.14,12.08,6.2,6.82-2.3,15.6-14.08,15.24-21.24-.21-4.27-1-8.54-1.67-12.8-.7-4.66-.94-9.23.88-13.71,3.83-10.38,4.11-21.12,3.09-31.93-.44-4.63-.47-9.3-1.29-13.9a4.54,4.54,0,0,1,2-5,35.54,35.54,0,0,1,4.43,12.79c.79,6,3.24,11.31,5.82,16.78,3,6.47,5.83,12.95,10.6,18.37,2.22,5,2.9,10.56,5.59,15.43,1.14,2,.06,4.2-.32,6.31-1.17,6.59-1.15,12.87,4,18.14,4.27,4.34,8.78,5.51,14.48,3.27,4.54-1.79,7-5.8,7.14-11.46a9,9,0,0,0-.86-4.87c-6.93-11.23-7.09-23.55-6-36.1,0-.49,0-1,0-1.5,3.18-13.77-1.34-26.75-3.71-40-1.88-10.57-5.68-20.69-6.72-31.4a8.36,8.36,0,0,1,6-5.46c10.9-2.64,21.79-5.39,32.62-8.32,8.79-2.38,17.84-3.33,26.64-5.51a3.15,3.15,0,0,1,2.37.54c1.84,4.58-.16,9.13-.19,13.69-.09,10.76-.12,21.41,2,32.12,1.74,8.82,3.17,17.72,6.94,25.85,4.57,9.88,8.31,20.22,14.75,29.16.44,7,.81,13.64-4.51,19.54a27.69,27.69,0,0,0-7.41,16.57c-.4,5.55,2.46,8,8,6.85a13.33,13.33,0,0,0,6.14-3.18c2.85-2.53,5.67-5.13,8.58-7.59,7.07-6,8.06-13.78,7.06-22.16-.49-4.1-.24-8.32-1.69-12.29,2.59-9.42,7.43-18.09,9.3-27.76,1.19-6.19,2.35-12.37,2.2-18.71a7.68,7.68,0,0,1,.12-2c.36-1.44.56-3.3,2.18-3.6s2,1.51,2.51,2.66a67.39,67.39,0,0,0,16.66,22.72,9.91,9.91,0,0,1,2.87,4c2.56,7.32,7.48,12.84,13.27,17.71,1.14,1.21,2.53,2.34,3,3.94,3.25,11.74,13.23,18.83,19.66,28.36,2.34,3.48,6.5,5.11,10.79,5.57,5.67.61,8.7-2.94,6.81-8.24-3.43-9.59-7.19-19-16.34-24.88a9.83,9.83,0,0,1-4.78-9.27c.15-2.86-1.06-5.54-1-8.39,1.1-9.65-.76-19.16-1.7-28.67A157.57,157.57,0,0,0,938.7,533.2c-.72-1.41-1.72-2.94-.44-4.62,4.15-1.79,8.48-.92,12.75-.8a9.13,9.13,0,0,1,4.25,2.14c2.85,2.31,4.8,5.84,8.88,6.46,5.28,2.13,7.43,1.37,10-3.54a18.17,18.17,0,0,1,1.76-3.53,4.67,4.67,0,0,1,2-1.3,24.07,24.07,0,0,1,12.76.75,13,13,0,0,0,4.9.73c11.16-.41,22,2.63,33,3.21a7.06,7.06,0,0,1,3.72,1.26c2.2,2.06.52,4-.32,5.86-4.47,9.64-9.36,19.07-12.7,29.21-1.72,5.2-3.09,10.53-5.23,15.59a7.5,7.5,0,0,0,.36,6.29,22.6,22.6,0,0,1,2.34,6,119.45,119.45,0,0,1-1.3,20.78c-1.13,8,.62,15.86,1.94,23.7a32.44,32.44,0,0,0-4.65,9.84,27.71,27.71,0,0,1-4.69,9.29c-1.93,2.37-3.25,5.17-1.07,8.22,1.37,1.92,2.88,4.09,5.62,3.19,3.35-1.1,7.21-1.49,8.55-5.89,2.5-8.17,3.51-16.58,4.62-25a190.19,190.19,0,0,0,8.42-25.81,5,5,0,0,1,1.49-2.52c4.12-.7,6.37-3.55,8.59-6.81A211.17,211.17,0,0,0,1056.76,585c.66-1.26,1.33-3.29,3-2.92,1.87.42,1.84,2.5,1.74,4.2-.23,3.65,0,7.31-.17,11-.46,9.84,1.76,18.13,12.22,21.86,1.59,3.55.85,7.45,1.67,11.16,1.56,7.07,4.4,13.77,5.7,20.88-.1,2.83-.71,5.6-.94,8.42-.67,8.17,3.53,14.45,8.53,20.06,3,3.41,11,.85,13.08-3.8a13.48,13.48,0,0,0-2.08-14.58,43.58,43.58,0,0,1-8-14.74c.91-7.58,2.53-15.09,1.62-22.81a6.13,6.13,0,0,1,1.92-5.47c2.33-1.74,5.13-2.37,7.81-3.24,3.86-1.27,5.55-3.83,5.64-7.84a335.8,335.8,0,0,0-1.45-37.39c-.51-5.73-2.21-11.47-.72-17.3.93-1.38,2.28-1.23,3.55-.83,7.71,2.42,15.73,3.87,23,7.61,2.74,4.19,5.11,8.83,11.07,9.15,1.88,1.21,2.66,3.32,4,5,4.09,5.3,5.23,5.72,11.8,3.79a10.5,10.5,0,0,1,2.88-.67,2.64,2.64,0,0,1,1.79.66c2.25,2.74,4.49,2.54,6.94.27a5.08,5.08,0,0,1,3.11-1.29,30.94,30.94,0,0,1,12.69,5.57c.23,4.52-2.91,7.6-5,11-7.29,12-14.91,23.9-22.36,35.85-2,3.24-3.63,6.69-5.36,10.08-1.57,3.07-1.28,5.56.15,8.43s3.93,5.42,3.69,9c-3.85,6.83-7.17,13.91-8.79,21.62-.6,2.9-2,4.87-4.63,6-4.5,1.88-7.51,5.47-10.26,9.24s-2.81,8.24-.45,10.57c2.87,2.83,9.18,3.23,12.41.41a50.4,50.4,0,0,0,11.16-13.19c3.5-6.16,6.44-12.75,10.87-18.39.91-1.17,1.65-2.54,3.27-2.92,5.48,2.24,10.62,5,14.51,9.63a144,144,0,0,0-9.25,29.38c-1.21,5.78-2.32,12.52,1.25,18.36,1.39,2.28,3.17,4.56,6.3,4.16s5.38-2.53,6.63-5.45a23,23,0,0,0,1.56-11.78,19.26,19.26,0,0,1,2.3-11.49c2.61-5.18,4.85-10.55,7.65-15.65,2.57-1.46,5.18-.68,7.77-.1,11.61,2.61,19.87-.77,25.81-10.94A207.27,207.27,0,0,0,1255,632.1c1.2-3.87,1.8-8.23,5.72-10.74,3-.3,5,1.31,6.57,3.54.11,3.66-.92,7.18-1.75,10.66s-.82,6.82,1,10a6.08,6.08,0,0,1-.27,4.36c-1.26,3.23-.29,6.22,1.11,9.07,2.09,4.26,4.83,5,8.88,2.6,5.46-3.29,8-8.65,9.86-14.4a26.93,26.93,0,0,0,1.07-4.84,3.22,3.22,0,0,1,2.73-3c5.26,1.45,9.3,5.06,13.58,8.09,16.94,11.95,33.77,24,49.8,37.25,10.35,8.53,20.87,16.85,30.91,25.75,8.4,8.66,18.86,14.53,28.62,21.36a191.37,191.37,0,0,1,53.14,56c5.92,9.49,14.86,16.07,20.78,25.3,5.66,4.73,9.69,10.94,14.77,16.19,1.22,1.27,1.53,2.91,2.36,4.32,8.44,10.17,17,20.21,25.26,30.57,9.3,11.73,18.26,23.74,27.33,35.66,7.53,9.91,15.22,19.72,22.45,29.85,10,14,19.68,28.28,29.4,42.5,6.58,9.63,13.13,19.28,19.45,29.08q13.83,21.45,27.26,43.15c6.77,11,13.19,22.2,19.72,33.34q38.3,65.36,72.15,133.11c13.74,27.56,27.4,55.16,40.32,83.12,6.09,13.19,11.79,26.56,17.67,39.85h-138a14.43,14.43,0,0,1-3.57-5.35c-11-23.55-24.08-46-35.84-69.11-3.24-6.37-6-13-9.38-19.3-1.23-2.31-2.19-4.86-5-6.66-1.11,2.62.37,4.59,1.07,6.58,10.53,29.68,24.21,58,35.84,87.28.82,2.06,2.45,4.12.89,6.56H1137c-2.15-2.63-2.22-5.83-2.46-9-1.91-24.86-5.32-49.56-8.49-74.28-.08-.66.12.14-.09-.48-.66-1.89,0-5.16-3-4.87-3.2.31-1.88,3.34-1.71,5.28.69,7.94.68,15.93,1,23.88.8,17.75,1.88,35.51,1.26,53.3-.07,2.15.07,4.36-1.51,6.14h-98c-2.75-5.58-1.28-11.71-2.28-17.54-1-6-1.77-12.13-3-18.15-.33-1.68-.33-3.65-2.38-4.91-1.14,1.72-.92,3.54-.56,5.25,2.08,10.13,1.06,20.51,2.44,30.69a5.49,5.49,0,0,1-1.25,4.66H912c-2.66-4.53-1.5-9.41-1.1-14.13,1.07-12.6,1.43-25.23,2.09-37.85.11-2-.35-3.77-2.71-4-2.93-.31-4.26,1.48-4.61,4.11-.85,6.26-1.43,12.56-2,18.86-.83,9.45-3.07,18.73-3.34,28.25a6.23,6.23,0,0,1-2.34,4.78H715c-1.72-2.24-.46-4.5,0-6.69,3.26-14.31,7.57-28.33,12-42.3a57.34,57.34,0,0,0,2.11-7.7c.58-3.38,1.14-6.82-3.22-8.27-3.55-1.18-8.57.89-10.28,4.2a19.86,19.86,0,0,0-1.39,3.75c-4.89,17.48-11.42,34.5-14.7,52.43-.33,1.81-.7,3.64-2.59,4.58h-252c-1.52-2.34.27-4.12,1.11-6,3.6-7.85,7.41-15.6,10.75-23.57a25.39,25.39,0,0,0,1.86-6.19c.25-1.79.83-3.77-1.05-5a5.13,5.13,0,0,0-6.1.42,27,27,0,0,0-8.34,9.73c-4.16,8.51-7.85,17.23-12.3,25.6-1,1.91-1.85,3.93-3.92,5h-136c-1.63-2-.37-3.8.43-5.57,9.36-20.63,20.24-40.47,30.81-60.49,11-20.89,23.09-41.29,32.35-63.07,4.94-11.6,7.62-24,12.56-35.76-7.59,5.54-12.05,13.41-16.46,21.32-13.32,23.86-24,49.06-36.72,73.2-11.44,21.67-21.62,43.88-31.06,66.46-.65,1.56-1.31,3.07-2.91,3.91h-126c-.88-2.58.86-4.47,1.88-6.45,9.21-17.8,16.81-36.35,24.9-53.42.5-1.74-.6-1.21.06-1.25.25,0,.34.15.2.45-3.7,8-7.65,15.81-12,23.46-6.25,11-11.85,22.27-18.11,33.22a14.39,14.39,0,0,1-2.93,4h-32c-.88-2.29.78-3.8,1.78-5.42,9-14.62,18.16-29.09,28-43.13,12.17-17.33,22.07-36.06,32.77-54.29,4.3-7.33,8.7-14.61,15.25-21.3-7.18,4.16-12.07,9.64-16.53,15.51-25.12,33-48.56,67.2-68.82,103.48-1.15,2.06-2.22,4.09-4.48,5.15Z"/><path class="cls-2" d="M280.09,1333.9c9.36-22.72,19.38-45.09,30.8-66.89,11.64-22.21,22-45.06,33.44-67.4,5.48-10.75,10.8-21.76,19.82-30.26,1.53-1.44,2.9-3.17,5.91-3-8.78,20.22-13.24,41.83-24.66,60.72-3.78,6.24-7.2,12.72-10.38,19.29-10.81,22.27-24.08,43.25-34.47,65.73-3.32,7.19-7.5,14-9.46,21.82Z"/><path class="cls-2" d="M104.11,1333.9c10-16.28,18.94-33.13,29.48-49.05,13.72-20.73,28.18-40.94,43.12-60.8,5.08-6.76,11-12.86,18.75-16.66a1.72,1.72,0,0,1-.12,2.7c-9.45,9.16-15.48,20.72-21.64,32-12.71,23.35-27.84,45.12-42.46,67.23-5.3,8-10.1,16.35-15.13,24.55Z"/><path class="cls-2" d="M697.05,1333.9a427.41,427.41,0,0,1,12-43.9c1.84-5.48,3.26-11.09,5.07-16.58,2-6.19,11.2-8.76,15.84-4.21,2.39,2.36,1.4,5.91.54,8.87-3.05,10.47-6.42,20.85-9.36,31.34-2.26,8.09-4.05,16.32-6.05,24.48Z"/><path class="cls-2" d="M1650.93,1333.9c-4.08-13-9.92-25.23-15.35-37.65-8.55-19.57-16.44-39.39-24.06-59.34-.73-1.92-1.42-4.25.7-5.36s3,1.29,3.94,2.72c5.6,8.67,9.2,18.37,14.07,27.42,9.43,17.52,18.65,35.15,27.91,52.77a164,164,0,0,1,8.79,19.44Z"/><path class="cls-2" d="M1122,1333.9c0-11.15.37-22.32-.09-33.45-.67-16-1.81-32.09-2-48.17,0-1.62-.73-3.22-.9-4.86-.23-2.34.14-4.37,3.21-4.5,2.58-.11,4.41.22,4.79,3.51,1.88,16.38,3.74,32.76,6,49.08,1.79,12.76,2.54,25.6,3.91,38.39Z"/><path class="cls-2" d="M427.08,1333.9c4.38-9.12,9-18.14,13.05-27.38a46.86,46.86,0,0,1,8.95-12.89,7.8,7.8,0,0,1,9.07-2.12c3.81,1.55,2.4,4.73,1.84,7.27-2,9.16-7.29,17-10.71,25.61-1.28,3.23-3.57,6-4.21,9.51Z"/><path class="cls-2" d="M898,1333.9c1.34-10.46,2.76-20.9,4-31.37.85-7.37,1.27-14.79,2.16-22.16.49-4.07,3.67-4.9,7.08-4.37,3.67.57,4.23,3.21,3.45,6.39a12,12,0,0,0-.62,2.89c.48,16.26-2.35,32.37-2,48.62Z"/><path class="cls-2" d="M1017,1333.9c-1.43-11.82-.45-23.81-2.75-35.6-.47-2.4-2.3-6.9,2-7.57,4-.64,3.17,4,3.69,6.29,2.67,12.13,4.48,24.39,4.1,36.88Z"/><path class="cls-2" d="M148.11,1333.9c3.79-9.21,9.14-17.62,13.77-26.39,6.56-12.43,13.38-24.72,20.61-36.83-8.12,21.68-17.91,42.6-28.38,63.22Z"/><path class="cls-3" d="M1383.88,711.2c-3.83-1.45-6.33-4.81-9.18-7.35-10.61-9.44-21.8-18.18-33-26.9-15.38-12-31-23.72-47.61-34.13-1.39-.88-2.62-2-3.92-3-.48-1,0-1.92.42-2.83A459.23,459.23,0,0,0,1314,564.52c3-12.75,4.87-25.71,3-39-1.15-8.16-5.91-14.37-9.65-21.09-2.68-4.83-6.33-9-4.84-15.06.22-.92-.52-1.9-.78-2.86,0-.16-.11-.4,0-.48,5-5.12,8.52-11.25,12.06-17.38,3.23.35,5.2-1.15,6.76-3.95,2-3.67,3.06-7.72,4.73-11.52.71-1.63.08-3.19-.84-4.71-5.56-9.12-20.71-15.31-31-12.64-2.9.75-5.32,2.17-6.49,5-2,4.9-6.32,9.37-3.23,15.37-1.67,6-1.92,12.19-3.09,18.26-3.9-.79-5,3.5-8,4.4-2.15.12-3.79-1.07-5.46-2.15-12.57-8.15-25.91-14.89-39.19-21.77-5.89-3.05-11.75-2.94-17.86-1a6.14,6.14,0,0,0-4.74,6.18c-.46,10-6.69,17.45-11.72,25.4a5.61,5.61,0,0,1-2.71,2.15c-12.11,4.64-23.06,11.85-35.35,16.1a25.22,25.22,0,0,1-10.28,1.51c-2-.15-4-.58-5.31-2.31-2.43-5.94-1.45-12.43-3.11-18.56a43.44,43.44,0,0,1-1.31-13.87,6.48,6.48,0,0,1,0-2c3.28-8.9-2.85-14.85-6.73-21.47-4-6.9-8.7-13.28-15-18.41a16.08,16.08,0,0,0-8-3.74,13.52,13.52,0,0,1-3.74-2.24c-4.68-3.35-4.47-5.19.93-8.15a2.81,2.81,0,0,1,1,.11c9.93,4.15,9.26.6,10.09-6.88a47.72,47.72,0,0,0-4.18-25.54c-1.21-2.62-3.46-4.38-5.68-6.13-1.5-1.19-3.59-1.92-3.64-4.35,1.24-2.5,3.63-1.94,5.69-2a123.37,123.37,0,0,1,24.37,1.28c5.11.78,10.3.41,15.38,1.41a5.54,5.54,0,0,0,6.1-2.5c5.64-9.23,13.24-17.07,18.63-26.47a46.52,46.52,0,0,0,4.4-10c1.79-6.12-.69-9.34-7.13-8.84-5,.38-9.89,1.25-14.84,1.81-15.52,1.74-30.86,4.86-46.48,5.78-3.38.2-5.79,1.87-8,4.37-4.56,5.06-9.35,9.92-14.26,14.65-6.48,6.26-4.54,14.22,4.17,17,2,.63,4.49,0,5.65,2.46-2.47,2.52-5.76,3.14-9,3.55a17.11,17.11,0,0,0-13.77,9.35,63.43,63.43,0,0,0-6.84,18.07c-1.75,9,.4,11,9.2,9.08,6.27,5.54,6,8.25-1.47,12.31-5.76,1.31-11.9.42-17.42,3.09-9.24,4.46-18.26,9.2-25,17.32-1.33,1.63-1.59,3.61-2.25,5.46a8.46,8.46,0,0,1-2.46,3.09c-9.54,7.53-17.09,17-25.67,25.53-1.33,1.32-2.73,2.44-4.73,2.44-11.65-1.27-23.12.35-34.57,2.22-2.12.35-4.19,1-6.38.85-2.58-.35-3.39-2.54-4.14-4.46-3.51-9.06-8.49-17.41-12.23-26.35a25.42,25.42,0,0,1,.79-3.32c.88-4.62-.5-6.62-5.23-7.47-1.44-.26-3-.15-4.22-1.06-5.45-8.41-9.17-17.62-12.7-26.94a65.94,65.94,0,0,0-6.72-12.76c-5-7.65-11.76-13.9-17-21.43-11.36-16.28-33.72-10.12-38.23,4.27-3.26,10.41-8.89,19.77-11.3,30.5-2.89,12.92-3.94,25.92-4.32,39.06-7.79,11.3-11.18,24.6-16.7,36.93-3.4,7.6-4.66,15.84-7.14,23.71-3.68,2-5.22,6.25-8.67,8.52a3.73,3.73,0,0,1-1-1c-2.91-4-3.28-9-5.49-13.25-4.61-8.85-10.89-16.56-17.15-24.26-3.75-4.61-8.28-8.58-11.34-13.77-1.64-5.17.5-10.17,1-15.19,1.2-12.65-4.68-18.15-17.59-19.54-3.47-.38-7-.25-10.22-1.72a8.05,8.05,0,0,0-5.16-6.47c-4.56-2.1-6.35-7.67-7.05-12.51-.83-5.78-4.35-9.53-7.89-13.41-2.1-2.31-4.77-1.81-7.3-.43-1.46.79-2.43,2.28-4.05,2.85-5.58.59-11.32.44-16.3,3.73a2.21,2.21,0,0,1-2.78-.19c-1.73-11.37.3-22.74,0-34.11-.44-14.62-3.67-28.4-12.52-40.38-4.74-6.42-10.85-10.75-19.14-11.21a21.77,21.77,0,0,1-5.34-1.27c-1.45-.46-3.18-1-4.39-.2-5.44,3.42-12.34,4-17,8.87-1.62,1.68-3.65,2.95-5.21,4.66-7.36,8-17.42,5.84-24.49.21-12.12-9.67-26.06-13.51-41.62-11.7-15.88,1.84-31.67,4.29-47.49,6.53a181.48,181.48,0,0,0-19.5,4.32,8.35,8.35,0,0,0-6.51,6.14c-1.89,6.22-5.95,10.12-12.56,11.44-4.9,1-9.56,2.91-14.4,4.15-1.78.45-3.77,1.16-5.17-.43-1.24-1.42-.34-3.2.21-4.74,1-2.67,1.87-5.35,2.78-8,1.48-4.31,1.76-8.43-1.22-12.26,10.67-16.88,22.94-32.59,35.59-48a573.54,573.54,0,0,1,46.7-49.9A580.16,580.16,0,0,1,673,137a572,572,0,0,1,62.05-28.27c2-.77,4.1-1.31,6.15-1.95-3.52,5.91-3.25,12.15-2,18.63.57,2.91,0,5.94-.61,8.91-1,4.66-3.52,7.86-8.15,9.16-20.38,5.73-39,15.4-57,26.2a145.59,145.59,0,0,0-31.51,26c-7.37,7.9-15.72,14.83-22.57,23.27a61.83,61.83,0,0,0-7.33,12.4c-1.81,3.76.4,7.31,5,8.57,5.64,1.55,11.49,1.95,17.26,2.65q43.57,5.28,87.29,9.34c2.65.25,5.25.83,7.93,1,2.16.1,4.68.2,5.48,2.61s-1.12,4-2.65,5.52a6,6,0,0,1-2.09,1.34,2.74,2.74,0,0,1-1.53,0c-1.57-.75-3.09-1.13-4.64.17-3.8,3.21-7.87,6.09-10.45,10.57-2.82,4.9-2.18,8.05,3.11,9.65a11,11,0,0,1,7.22,6.21c4.46,9.11,12.21,14.91,20.83,19.48,20.37,10.81,42,18.55,63.9,25.65a37.86,37.86,0,0,0,7.83,1.56c8,.83,12.91-2,16.76-9,5.67-10.28,8.17-21.42,9.31-32.94.35-3.48,1-6.91,1.36-10.4.42-4.19,2.51-7.37,5.84-10,9-7.2,18.86-13.13,28.33-19.63,5.13-3.51,11.65-2,17.52-2.74,5.43-.68,11,.2,16.46-.57,3.13-.44,4.54,1.36,5.15,4.17.89,4.07,1.8,8.11,4,11.75,4,6.52,5.54,7,11.81,2.83,14-9.29,27.92-18.78,42-27.95,18.29-11.9,36.23-24.32,54.86-35.69,8.45-5.16,13-16.74,10.89-26.44-1.72-7.79-3.86-15.51-5.83-23.21-2.08-8.12-7.19-15.33-12.07-22.29-6.47-9.24-12.23-19-21.64-26-3.69-2.71-7.31-5.16-11.78-6.18-1.86-.42-3.67-1-4.5-2.8-4.17-8.94-7.52-18.11-7.1-28.21a579.23,579.23,0,0,1,231.91,61.8,581.41,581.41,0,0,1,117,78.22c25.77,22.2,49.7,46.17,71,72.69a3.16,3.16,0,0,1-2.5,1.46c-12.7,1.15-21.67,8.6-29.61,17.67-4.51,5.15-9.57,9.74-14.27,14.68-10.09,10.6-18,22.82-20.2,37.24-3.49,22.65.51,43.53,19.79,58.87,6.26,5,13.9,6,21.39,7.69,17.32,4,33.23-1,49.12-6.89,11.9-4.43,24.07-7.79,36.9-8a11.79,11.79,0,0,1,5.84,1c6.32,3.24,7.8,7,4.81,13.47-3.32,7.23-8.82,12.85-14.38,18.38-4.9,4.87-9.12,10.11-10.66,17.12-2,9,5.46,21.19,14.43,23.36a31.05,31.05,0,0,0,11.43.53c11-1.47,22.11-2.71,33.22-3.58,7.7,22.45,13.24,45.46,17.65,68.74,1.9,10.08,3.25,20.27,4.85,30.41-4.71,1.08-7-2.2-9.07-5.37-8.24-12.49-19.78-20.3-33.83-25-14.57-4.9-28.49-2.77-41.51,4.16-22.23,11.83-41.73,27.25-57.54,47.07a63.86,63.86,0,0,0-9.2,15.94,14.59,14.59,0,0,1-5.06,6.6c-6.21,4.57-12.21,9.84-15.68,16.56-5.9,11.44-8.41,22.82,2.33,34.18,9.7,10.24,20.67,19.32,29,30.82,2.7,3.71,6.13,7,7,11.83-2.27,1.67-4.19,0-6.21-.67C1385.29,711,1384.59,709.63,1383.88,711.2Z"/><path class="cls-4" d="M1556.2,839.83c10.16,9,20.18,18.2,31.07,26.43a85.3,85.3,0,0,1,18.55,20.07c9.13,13.29,21,24.4,30.14,37.66,15.3,22.22,29.84,45,44.41,67.67,20.86,32.52,37.27,67.26,52.72,102.54,13.36,30.49,23.26,62.29,35.79,93.08,3.68,9,7.76,17.92,11.68,26.87.76,1.75,2,3.41.38,6.16a206.4,206.4,0,0,1-14.56-21.45c-21.74-36.95-38.37-76.51-58.22-114.43-12.15-23.19-22.29-47.45-36.35-69.63q-23.67-37.34-48.81-73.74c-6.72-9.71-15.35-17.81-22.61-27.08s-14.05-19.4-23.21-27.22-19.24-14.17-27.18-23.22a43.3,43.3,0,0,1-4.49-5.31c-2.54-4.05-6-7.11-9.78-10.19-5.24-4.31-8.8-10-8.1-17.84,1.29-14.24,7.28-27.07,11.06-40.55,6.64-23.68,12.5-47.51,16.32-71.83,2.74-17.46,4.91-35,6.1-52.6,1.21-17.91,2.61-35.83,1.66-53.72-1-18.46-2.3-36.91-4.64-55.31a568,568,0,0,0-26.69-114,543.49,543.49,0,0,0-84.5-156.78c-12.08-15.62-24.92-30.55-38.13-45.23-16.85-18.74-35.27-35.79-54.43-52a593.39,593.39,0,0,0-99.17-67.62c-49.4-27-101.52-46.72-156.06-60.21a651.43,651.43,0,0,0-68-13.06c-11.59-1.59-23.3-2.61-35-3.38-18.91-1.22-37.83-2.53-56.74-1.67-17.67.8-35.34,1.53-53,3.59-21.14,2.48-42.13,5.72-63.09,9.24-12.67,2.13-25.48,3.57-38,6.28-7.2,1.56-13.15,6.61-20.33,9.06a687,687,0,0,0-100,42.67c-29.65,15.69-57.46,34.18-84.13,54.51a688.3,688.3,0,0,0-78.44,70.6,610.39,610.39,0,0,0-58.53,71.47,591.06,591.06,0,0,0-54.72,95.21A531.77,531.77,0,0,0,351,523.55c-3.44,17.49-6,35.06-8,52.76a470.48,470.48,0,0,0-2.63,75.58c1.92,44.32,9.32,87.88,21.2,130.65A134.39,134.39,0,0,1,365,798c1.5,9.66-3.4,16.9-9.77,23.33-6.21,6.26-12.87,12.1-19,18.42-10.47,10.82-20.63,21.93-29.73,34.08-21.13,28.23-42.4,56.32-61.44,86.07-20,31.29-38.29,63.6-56.37,96-12.92,23.16-25.72,46.41-37.89,70-8.6,16.64-15.9,34-24.47,50.63-3.71,7.21-8.49,13.86-11.36,21.51-.42,1.11-1.19,2.28-2.59,1.42-1.63-1-2.63-2.22-1.74-4.54,2.71-7.1,5-14.38,7.76-21.44,8.11-20.47,14.61-41.57,23.67-61.65,5.93-13.15,12.69-25.93,18.6-39.09,15.53-34.55,34-67.56,52.85-100.33,17.09-29.7,35-59,56.19-86,17.38-22.14,32.8-46,54.25-64.76,7.49-6.56,14.58-13.62,22.74-19.34,2.16-1.52,1.93-2.79,1.23-4.47-11-26-17.3-53.36-22.54-80.95-2.68-14.11-4.15-28.43-5.46-42.78a514.63,514.63,0,0,1-1.79-55.79c.31-16.92,1.9-33.74,3.8-50.57,4.93-43.77,15.37-86.22,30.12-127.62a629.26,629.26,0,0,1,93-171.58c14.1-18.49,29.17-36.12,45-53.16,22.46-24.16,47-45.84,73.06-66.06,26.63-20.71,55-38.71,84.46-55C681,75.75,715.73,60.14,752.19,48.6c7.71-2.44,15.41-5.16,23.55-5.77,13.32-1,25.6-6.64,38.86-8.21,16-1.89,31.91-4.82,47.81-7.58,17.77-3.09,35.73-4.48,53.66-5.76a562.31,562.31,0,0,1,60.34-1.08c14.71.53,29.44,1.48,44.07,3,25.09,2.6,50,6.05,74.74,11.43a623.17,623.17,0,0,1,103.94,32.44,689.53,689.53,0,0,1,98.73,50.27,615.61,615.61,0,0,1,71.2,50.59,619.75,619.75,0,0,1,128.73,145.62,595.26,595.26,0,0,1,55.55,113.18c11.68,31.69,20.1,64.23,26.29,97.35,2.41,12.94,4.1,26,5.38,39.18,1.51,15.5,2.48,31,3.18,46.55.41,9.14,1,18.3.59,27.39-.89,19-1.64,38-3.67,57a569.73,569.73,0,0,1-27.26,122.43c-1.09,3.22-1.91,6.62-4.07,9.39-1.41,2.13-3.73,2.61-5.93,3.28-2.92.88-3.63,2.61-2.07,5.25.76,1.28,1.67,2.46,2.44,3.74C1550.34,841.73,1553.08,841.66,1556.2,839.83Z"/><path class="cls-1" d="M729,262a3,3,0,0,0,.87-.45c1.73-1.91,5.25-3.5,4.23-6.14-.9-2.31-4.49-1.14-6.93-1.41-11.14-1.25-22.26-2.66-33.4-3.85C683,249,672.08,248.29,661.26,247c-14.88-1.76-29.87-2.81-44.58-5.93-6.31-1.33-8.08-5.92-5.34-11.78,5.36-11.43,14.45-19.73,23.32-28.16,6.12-5.82,11.82-12,18.18-17.67,9.9-8.77,21-15.43,32.33-22a204.34,204.34,0,0,1,43.21-18.63c7.32-2.24,9.18-5.18,9.71-13,.28-4.05-.64-7.93-1.17-11.84-.64-4.72.56-8.39,4.31-11.27,32.88-13.1,67-21.87,101.72-28.14a570.41,570.41,0,0,1,65.71-7.83A690.91,690.91,0,0,1,978,70.34c1.95,2.2,1.16,5.12,1.67,7.63a115.48,115.48,0,0,0,5.26,17.52c1.11,2.92,2.42,4.3,5.89,4.78,7.44,1,12.41,6.75,17.36,11.66,9.83,9.77,16.73,21.76,23.66,33.66,6.62,11.35,8.41,24.29,10.75,36.74,1.7,9-2.36,18-10.72,23.35-33.52,21.33-66.45,43.56-99.54,65.54-5.55,3.69-7.62,3-11.12-2.46a36.11,36.11,0,0,1-5.13-14.35c-.42-2.8-1.46-3.76-4.34-2.84a14.89,14.89,0,0,1-5.42.45c-8-.55-15.9,1-23.86,1-1.69,0-2.79.92-4,1.82-8.82,6.72-18.53,12.14-27.3,19-4.11,3.22-5.64,6.83-6.21,11.68-1.49,12.6-2.71,25.25-8.1,37.08-5.48,12-9.8,17.71-26.15,13.12-24.85-7-49.1-16-71.54-29.17a42.38,42.38,0,0,1-17.48-19.2c-.72-1.57-1.39-2.5-3.84-2.75-6.83-.68-9-6.29-5.43-12.14,2.81-4.63,6.9-7.94,11.05-11.17,1.84-1.43,4.17-2.52,5.6.78-.54.36-1.09.71-1.66,1C728.08,262.94,728.5,262.39,729,262Z"/><path class="cls-1" d="M460.09,329c4.67,1.26,4.58,4.87,3.7,8.36-1.09,4.31-2.76,8.47-4.16,12.7-.4,1.18-1.45,2.56-.56,3.58.75.86,2.12.11,3.26-.23,6.33-1.87,12.75-3.44,19-5.51a11.52,11.52,0,0,0,7.64-9c.89-4.33,3.24-6.54,7.34-7.57A351,351,0,0,1,538.18,324c11.62-1.45,23.14-4.17,34.89-3.83a53.73,53.73,0,0,1,35.57,14.25c3.42,3.12,13,3.72,16.72.86s6.95-7.19,10.82-9.24c5.71-3,11.27-8,18-7.78,16.31.6,27.8,8.65,34.4,23.91,6.39,14.77,7,30.2,6.31,45.83-.16,3.43-1.67,6.54-.06,10.27,1.28,3-.21,6.51-1.15,9.7-.76,4.66-4.38,7.67-6.62,11.49-6.68,4.76-14.67,6.16-22.21,8.68-1.73.58-3.51,1-5.24,1.63-6.57,2.43-10.15,6.15-9.46,14.09.71,8.31-1.44,16.51-5.13,24.17-4.1,8.53-11,12.77-20.39,12.25-7.55-.41-14.88,6.48-15.27,14.18-.16,3.05,1,6.38-1.58,9-5.26.07-10.39-1.32-15.71-1.08-4.48.2-8.6,2.67-13.17,1.77-2.3-.46-3-2.4-3.87-4.19a11.23,11.23,0,0,0-3.21-4.37c-1.25-1.78-3.2-3.2-3.08-5.71a6.79,6.79,0,0,0-.56-7.53,20.51,20.51,0,0,1-2.51-5.41,16.26,16.26,0,0,0-24.2-8.07,45.75,45.75,0,0,0-13.13,13.56c-4.49,6.91-1.2,17.88,6.36,22.14a58,58,0,0,0,6.35,2.93c1.79,1.5,3.67,2.93,4.61,5.19,0,2.57,1.69,4,3.44,5.49,2,1.76,4.56,3.28,4.38,6.56a8.37,8.37,0,0,1-1.12,3.27c-9.08,14-9,29.32-6.52,45a7.15,7.15,0,0,1-.05,3c-2.86,5.17-4.07,5.5-9.51,4.27-8.46-1.9-16.38-5.31-24.53-8-19.26-6.37-38.2-5.84-56.89,4.12-18.91,10.08-37.59,20.67-57,29.76-6.5,3-13,6-20.5,5.21-7-.72-12.47-5.64-13.43-12.4,1.93-27.39,6.8-54.31,13.17-81A579,579,0,0,1,458.58,331C459,330.32,459.58,329.7,460.09,329Z"/><path class="cls-3" d="M363.93,598.91c4.92,11.85,15.64,13.58,26.47,9,21.39-9,41.08-21.46,61.94-31.58,9.1-4.42,18.35-8.35,28.38-10.05,6.86-1.16,13.43,1,20.06,2.17s13.44,2.38,19.63,6c5.65,3.36,12.75,2.83,18.91,5.32,3,1.22,4-2.07,5.58-3.88,1.29-.44,1.88.49,2.11,1.38,1,3.79,3,7.18,4,11-.58,5.69,3,9.49,6.16,13.49,4.08,4.74,6,10.73,9.27,15.94,1.48,2.36.43,4.76-.55,7.15-2.45,6-1.86,10.15,1.63,12.76,2.92,2.18,6.14,3,9.25.73s5.07-6.32,3.51-9.69c-4.7-10.12-4.37-21.08-6.43-31.61-2-4.18-3.73-8.48-8-11,0-2,.12-4,.11-5.94,0-1.17.15-2.62,1.36-3s2,1,2.57,1.92c4.57,6.91,9,13.91,14,20.5a93.65,93.65,0,0,1,8.32,12.35c3.14,5.83,6.92,10.94,14.59,10.66-.65,4.37,3,7.92,2.35,12.31l-39,26.26c-5.08-.89-9.44,1.11-13.52,3.69-10.59,6.69-20,15-29.34,23.2-4.5,4-9.2,7.67-13.61,11.74a14.26,14.26,0,0,1-6.51,3.55c-9.36,3.67-17.64,9.32-26.2,14.41-17,10.12-34.26,19.86-50.89,30.63-3.72,2.41-5.82,5.92-7.86,9.49-3.14,5.48-5.76,11.26-8.52,17-3.56,7.34-3.82,15.06-3.1,23-.88,4-4,6.58-6.09,9.81-.57.34.23.69-.12.13,0,0,.18-.06.32-.27a1.45,1.45,0,0,1,2.42-.38c-2.59,5.26-7,9-11,13.08-3.1,3.14-6,6.44-8.74,9.83-4.93-17.87-10.13-35.66-13.82-53.85q-6.33-31.18-9.67-62.82a598.7,598.7,0,0,1-2.76-74.18C361.43,625.65,361.9,612.22,363.93,598.91Z"/><path class="cls-1" d="M1391.85,712a136.89,136.89,0,0,0-23.31-28.2c-7-6.51-13.79-13.43-18.85-21.74-2.55-4.18-3.88-8.63-1.47-13.18,1.79-3.38.1-7.12,2-10.48,4.48-8.17,10.8-14.65,18-20.35a16.37,16.37,0,0,0,5.32-6.78c6-14.23,16.38-25,27.56-35.39,10.66-9.87,22.66-17.68,34.8-25.47,30.12-19.35,65.09-6.41,81.21,18,2.2,3.33,4.81,5.79,8.71,6.76,4.86,33.14,5.87,66.47,5.14,99.89-.1,4.64-.68,9.27-1,13.91-1.84,9.74-6.39,18.49-10.36,27.42-3.84,8.66-7.74,17.31-12.14,25.71-1.52,2.9-3.23,5.39-6.56,6.41-2.38.73-3.61,2.59-4.81,4.73-5.1,9.1-9.82,18.49-18.23,25.22-2.12,1.7-2.44,4.73-4.43,6.58-2.69.74-3.46-1.54-4.46-3.07a182.19,182.19,0,0,0-24.15-29.66c-14-13.94-29.19-26.55-47-35.62C1395.51,715.54,1392.44,715.26,1391.85,712Z"/><path class="cls-4" d="M1638,591c0,10.14,1.27,20.2,1,30.37-1.34,46.43-6.42,92.23-21.88,136.4a206.77,206.77,0,0,1-16.58,35.48,82.38,82.38,0,0,0-4.34,8.4c-.91,2.1-1.09,4.86-4.43,3.67-2.82-1-5.65-6.68-4.31-8.59,5.45-7.72,7.21-16.82,9.9-25.59,5.1-16.57,10.45-33.07,14-50.07,2.87-13.73,5-27.56,6.75-41.48,3.52-27.14,3.31-54.38,2.65-81.59-.4-16.64-2.46-33.26-4.58-49.84a631.39,631.39,0,0,0-18.72-90.07,734,734,0,0,0-35.54-98.45,654.58,654.58,0,0,0-60-107.47,697.81,697.81,0,0,0-45.64-59.46c-13.14-15.27-26.64-30.19-41.28-44-27.46-25.9-57.17-48.73-90.44-66.94A356.85,356.85,0,0,0,1233,47.05c-8.2-1.9-15.82-4.91-20.33-12.88-3.15-5.55-2.19-8.43,3.86-10.31,11.56-3.57,23.29-2.46,34.82-.43,30.56,5.37,59.13,16.55,86.42,31.08a433,433,0,0,1,66.53,44.21,520.09,520.09,0,0,1,54.24,50.66,555.53,555.53,0,0,1,51.6,64.3A683.3,683.3,0,0,1,1561.85,302c26.33,53.67,46.6,109.58,59.75,167.94q7.38,32.79,11.52,66.23Q1636.53,563.53,1638,591Z"/><path class="cls-4" d="M284.32,653.79c-1.27-13.93.16-27.74,1-41.46,1.35-21.39,3.59-42.74,6.57-64,7.24-51.66,18.63-102.24,36.1-151.44a740.77,740.77,0,0,1,44.46-101.45A697.18,697.18,0,0,1,437,196.49a609.66,609.66,0,0,1,63.46-70.2,579.44,579.44,0,0,1,106.83-79.9,432.07,432.07,0,0,1,47.86-24.24c5.2-2.21,10.69-4.84,16.63-1.9,4.28,2.12,5.1,6.83,3.63,12-2.66,9.29-9.42,14-17.26,18.39C625,69.42,593.11,90.1,563.38,114.08q-21.9,17.65-42.65,36.59c-10.35,9.44-20.28,19.28-30,29.34a684.59,684.59,0,0,0-65.72,79,735,735,0,0,0-62.49,106.06c-21.14,43.82-36.68,89.63-48.46,136.77a606.08,606.08,0,0,0-12.81,67c-2,15.21-3.4,30.52-4.37,45.88-1.32,21.07-2.18,42.13-1.75,63.22.33,16.75.72,33.53,2.11,50.22,1.1,13.11,2.09,26.31,4.71,39.28a27.62,27.62,0,0,1,.11,5c0,2.17.07,4.94-2.44,5.26-2.75.35-3.91-2.55-4.34-4.71-1.3-6.45-2.29-13-3.19-19.49-1.7-12.24-3.36-24.49-4.83-36.76a226.37,226.37,0,0,1-2.08-23.2C285,680.25,283.09,667,284.32,653.79Z"/><path class="cls-4" d="M1643.84,323.07c1.85,12.2-2.63,24.35-8.56,36.2-3.17,6.34-6.4,7.15-11.84,2.82-10.45-8.33-15.31-20-17.34-32.47-6.6-40.61-17.64-79.74-37.07-116.19-8.9-16.69-19.85-32.09-31.37-47.05a398.57,398.57,0,0,0-36.94-41.11C1481,105.88,1459,89.4,1435.51,74.91a494.33,494.33,0,0,0-58.18-30.36c-5.12-2.28-10-5.21-12.51-10.8-2-4.39-1.11-6.49,3.36-7.69,10.06-2.7,19.78.12,29.32,2.44,40.71,9.89,76.79,29.28,109.93,54.53a363.31,363.31,0,0,1,42.13,37.21A376.82,376.82,0,0,1,1609,200.88c13.66,25,24.26,51.12,30.32,79C1642.26,293.64,1644.47,307.5,1643.84,323.07Z"/><path class="cls-1" d="M1503.25,476c-.39,1.22-1.1,2.1-2.49,2-12.15-.77-23.9,2.92-36,3.15-10.11.2-15.94-5.09-20.28-13.25s-1.92-15.42,2.6-22.37,11.34-11.65,16.2-18.22a40.14,40.14,0,0,0,4.79-7.53c3.12-7.16-.47-12.67-8.36-12.73-12.93-.09-25.13,3.52-37.13,7.81-10.75,3.83-21.57,8.94-32.88,8.64-13.77-.37-28.11-.74-40.06-10-11.73-9.09-17.25-21.28-19.72-35.5-4.56-26.22,5.53-47.09,23.61-64.81,8.36-8.2,15-18.19,25.47-24.3,6-3.48,12-6.05,19-5.83,47.14,57,81.85,120.77,104.88,191A18.3,18.3,0,0,1,1503.25,476Z"/><path class="cls-4" d="M568.06,26.19c-2.61,9.19-4.57,20.44-15.67,27.36C535.12,64.3,518.09,75.46,502.1,88.1c-12.48,9.87-24.58,20.18-36.45,30.78-11.56,10.33-22.37,21.41-33.24,32.42a722.59,722.59,0,0,0-77.22,93.33,531.59,531.59,0,0,0-36,60.05c-1.07,2.05-2.22,4.07-3.42,6.05-3.33,5.52-7.36,5.68-11.08.3-4.62-6.65-6.37-13.63-4.23-21.94,6.16-23.84,17-45.5,29.57-66.42a489.79,489.79,0,0,1,45.09-62.9A706.69,706.69,0,0,1,437.44,94C460.39,72.81,484.37,53,510.2,35.54c9-6.13,18.23-12.13,28.44-16.2a66.93,66.93,0,0,1,19.27-4.15C563.18,14.75,568.05,19.44,568.06,26.19Z"/><path class="cls-4" d="M232.17,594.69c-1.08-12.16.27-26,1.17-39.7a742.46,742.46,0,0,1,10.59-86.45c4-21.41,8.42-42.72,12.59-64.09,4.54-23.23,15.42-43.13,28.9-62,4.69-6.56,11.5-8.74,19.19-8.36,6,.3,8.22,5.27,5.84,12.08-2.65,7.58-7,14.22-11.32,20.87-7.33,11.19-10.75,24.17-16.29,36.16A305.42,305.42,0,0,0,261.63,465c-3.91,17.53-7.26,35.16-9.62,53-2.53,19.16-4.35,38.36-6.13,57.6-2.5,27.07-1.68,54.14-1.5,81.21,0,5.26-.13,10.89,1.5,16.22.79,2.55-1.1,4.77-2.36,6.87-1,1.63-2.14.75-3.27-.21-2.76-2.35-3.54-5.72-3.93-8.89-1-8.19-1.6-16.44-2.2-24.68C232.91,629.53,231.76,613,232.17,594.69Z"/><path class="cls-4" d="M1689.9,589.11a271.24,271.24,0,0,1-7,68.54,72.79,72.79,0,0,1-4.89,13.44c-3.62,8-5.94,8.79-12.7,3.62-5.12-3.92-10.1-17.05-8-22.4a121.68,121.68,0,0,0,4.84-15.59c2.65-10.79,3.75-21.75,4.87-32.78,1.47-14.48.93-29,.72-43.39-.25-17.2-2.26-34.29-4.71-51.34a621.94,621.94,0,0,0-12-61.12c-4.61-18.61-10.48-36.84-16.52-55-.82-2.48-4.13-5.79.73-8,4.08-1.86,6.73-.61,9.41,4.44,12.93,24.38,22.29,50.15,29.16,76.82A513.76,513.76,0,0,1,1685.05,522C1688.18,544,1690.36,566,1689.9,589.11Z"/><path class="cls-3" d="M1472.88,784.72c1.09-4.8,5.27-7.16,8-10.64,5.3-6.67,10.69-13.55,13.93-21.6,1-2.54,2.58-4.83,4.87-5.14,4.17-.56,5.33-3.56,6.82-6.45,8.67-16.92,15.91-34.48,23.31-52,.13,16-2.12,31.75-4.3,47.5a559,559,0,0,1-21.33,94.28,13.77,13.77,0,0,0-.31,3L1486.11,814c-2.13-8.68-7.47-15.76-11.59-23.46C1473.56,788.71,1471.38,787.22,1472.88,784.72Z"/><path class="cls-5" d="M1556.2,839.83c-2.41,3.89-4.64,4.21-7.59,1.07-.11-.12-.2-.27-.31-.39-7.59-8.91-7-10.41,5.51-14.53C1559.44,830,1559.55,830.65,1556.2,839.83Z"/><path class="cls-6" d="M1272.78,478.11c2.39-1.45,2.39-7.38,7.39-3.93,3.59-.51,5.64,2.41,8.23,3.93,4.5,2.65,9.58,4.34,13.54,7.92,2.13,1.29,2.94,3,1.9,5.43-1.3,3,0,5.39,1.75,7.79,4.48,6.13,8.59,12.62,11.07,19.72,4,11.37,2.66,23.2.77,34.82-3.54,21.9-10.64,42.82-17.93,63.69-2.66,7.64-4.61,15.54-9.3,22.33a6.26,6.26,0,0,0-2.5,3.16c-2.87,4.86-7.46,6.7-12.79,7.29-3.85.43-6.67-1.35-9.1-4.06a8,8,0,0,1-2-8.46c1.27-4.15,2-8.48,2.89-12.73a13.32,13.32,0,0,1,.82-7.31c2.53-7.18,4.4-14.54,6.36-21.88a38.9,38.9,0,0,1,3.23-7.21c1.1-2.54,2.39-5,3.53-7.53-1.12,2.12-2.13,4.29-3.12,6.48-5.63,9.67-8.71,20.51-14,30.35-.78,1.47-1.26,3.1-2.82,4-4.2,6.47-5.48,14.07-8,21.15a188.53,188.53,0,0,1-14.83,32.39c-7.14,12-15.07,15.2-28.69,12.25-2.09-.45-4.13-1.32-6.33-.66-6.08-1.65-12.17-3.26-16.75-8l-14.31-9.33A28.75,28.75,0,0,1,1158,655.86c-8.73-15.94-8.49-11.32.83-27.76,8.31-14.65,17.7-28.69,26.58-43a28.72,28.72,0,0,0,1.5-3.11c.15-2.91,2.35-4.92,3.25-7.5,6.45-9.18,11.87-19.06,19.13-27.68.73-.74,1.15-1.71,1.51-2-.15.31-.8,1-1.35,1.71-8.44,8.59-16.44,17.64-26,25.06-3.1,1.55-4.88,5.41-9,5.22-.39.28-.81.54-1.19.84-5.4,4.32-5.4,4.32-10.09-.5-2-7.26-4.82-14.38-3.77-22.15,1.86-5.73,6.11-9.87,9.88-14.23,15.29-17.71,31-35,48.6-50.52,12.56-11.07,27-15.92,43.74-12.79C1265.22,478.11,1269,479.54,1272.78,478.11Z"/><path class="cls-6" d="M938.23,529.22a155.7,155.7,0,0,1,15.52,42c3.09,14,3.74,28.3,5,42.52.15,1.73-.56,3.54-.87,5.32a2.7,2.7,0,0,0-.35,1.91c1.2,5.18-.46,9.52-5,11.88-4.72,2.45-9.88,2.7-14.49-.95a27,27,0,0,1-10.86-12,47.88,47.88,0,0,0-10.53-14.68c-6-5.88-10-13.07-13.25-21.17-1.86,5.66-1,11.22-1.95,16.61-1.44,8-2.63,15.93-6.56,23.17-2.11,3.87-1.32,8.91-4.92,12.19-1.77,5.21-3.78,6.66-9,5.73-2.73-.49-6.08.41-7.92-2.76a8.59,8.59,0,0,1-4.87-5.34c-3.16-10.5-10.28-19.2-13.14-29.85-3.77-14-7-28-6.73-42.8.15-7.7.74-15.35,1-23-.9-4.77.24-8.79,4.3-11.75,3.2-1,6.3.06,9.25.94,19.68,5.86,37.86,2.34,55-8.39,1.82-1.14,3.63-2.33,5.87-2.48,5.8-1.89,8.12,2.63,11.08,6C936.35,524.47,938.06,526.46,938.23,529.22Z"/><path class="cls-7" d="M783.07,556.29c1.6,6.23,3.91,12.39,4.62,18.72,1,9.29,5.32,17.84,5.48,27.31.06,3.54,1.79,6.91,2,10.63.31,5.14.44,10.14-1.17,15.07-1.67,10.68-11,16.2-21.11,14-2-.43-3.84-1.09-4.88-3-4.34-4.48-8.52-8.8-9.6-15.62-.61-3.84-4.46-6.73-5.64-10.91-1-3.55-1.43-7.1-2.1-10.66-.63-3.35-2.6-6.36-3.65-9.77.5,5.66,1,11.32,1.49,17,.9,11.19,1.19,22.34-3.41,33-4.36,10.42-14.89,15.65-26,9.23-8-7.34-14.32-15.22-13.38-27.2.58-7.52.69-15.16-1.17-22.72-1.5-6.09-1.4-12.48-2-18.75-.27-5.51-1.66-11-.73-16.54.9-3.76.58-7.5.2-11.32-.61-6.07-.3-12.12,2.08-17.87a2.51,2.51,0,0,1,2.38-.33c12.07,5.87,24.47,3.56,36.24,0A32.71,32.71,0,0,0,760.81,523c2.28-3.53,5.73-5.94,10.44-5.16,2.22,3.59.93,7.75,1.9,11.61,1.93,7.64,5.74,14.44,8.66,21.62C782.5,552.79,783.32,554.39,783.07,556.29Z"/><path class="cls-8" d="M1072.79,619.14c-7.58.44-12.06-7.75-12.6-15.34-.5-6.89-.11-13.85-.11-22.09-5.06,8.81-8.75,17-14.22,24.13-2.51,3.25-3.67,8.59-9.69,7.29-9-2.48-15.14-8.44-20-16-8.24-9.8-.72-18.75,1.8-27.76,3.4-12.1,9.66-23.08,15-34.4-.76-2.41-.81-4.67,1.28-6.52a4.72,4.72,0,0,1,1.43-.42c7.07,1.65,13.72,4.62,20.78,6.4,9.5,2.4,19.16,3.66,28.79,5.13,6,.91,11.77-1.12,17.42-3.08,4.23,1.51,2.4,5.54,3.5,8.37,0,2.43,1.22,4.72.85,7.2q1.27,15.09,2.57,30.19c.82,9.45.43,18.91.25,28.37,0,2.56-1.71,4.2-4.19,5-3.63,1.15-7.25,2.37-10.87,3.57C1087.44,622.18,1080.11,623.21,1072.79,619.14Z"/><path class="cls-9" d="M609.15,634.84c-1-2-2-4-3-6s-1-4,1-5.53a2,2,0,0,1,1.91-1.34c10.39-.32,17.95-6,24.86-13,7.35-7.48,14.69-14.91,16.7-25.81,3.06-1,4.62,1.3,6,3.12,3.87,5.19,8.63,9.55,13,14.32C680.1,617.12,692.77,632,704,648c2.12,3,5.12,6.11,2,10.25-3.16,4.43-6.61,8.55-11.9,10.58-2.76,1.9-5,1.16-7.55-.81-7.65-5.88-13-14.08-20.38-20.16-1.14-.16-1.5-1.49-3.23-2,2,.72,1.48,2.21,2.23,3,4.14,7.07,10.29,12.68,14.36,19.82,1.85,3.23,3.24,6.42,2.43,10.22a5.43,5.43,0,0,1-2.37,3.61c-5.8,3.08-10.9,7.5-17.45,9.15-8.36-.66-14.28-5.57-19.5-11.47C630.09,666.13,619.24,650.77,609.15,634.84Z"/><path class="cls-2" d="M1521.92,1076.71c-2.83-2.45-4.41-5.81-5.87-9-13.06-28.13-27.27-55.74-37.35-85.18-5.86-17.13-13.81-33.39-21.29-49.85-6.66-14.64-13.2-29.36-19-44.35-5.52-14.3-13.14-27.56-19.11-41.61-10.39-24.42-20.36-49-32.72-72.58a1.4,1.4,0,0,1,.22-2c2.12.63,3.14,2.46,4.4,4.19a268.63,268.63,0,0,1,17.59,28.3c12.56,22.8,25.49,45.42,37.64,68.44,9.6,18.21,17.73,37.2,27.44,55.35,24.47,45.75,37.8,95.15,48.87,145.35a5.67,5.67,0,0,1,0,2C1522.72,1076.05,1522.36,1076.25,1521.92,1076.71Z"/><path class="cls-2" d="M1760.79,1299.67c.58,5.69-2,9.15-3.8,12.78-1.32,2.59-3.41,1.31-5.14.35-3.64-2-5.38-5.82-7.88-8.86-9.77-11.86-16.47-25.67-24-39-18.24-32.41-35.77-65.21-53.07-98.13-7.65-14.55-15.52-29-23.21-43.51-1.24-2.34-3.69-5,0-7.31s5.89.17,7.6,3c9.17,15.18,19.2,29.79,29.3,44.36,23.73,34.22,46.06,69.34,67.88,104.79,5.54,9,8.63,19,12.19,28.76A5.61,5.61,0,0,1,1760.79,1299.67Z"/><path class="cls-2" d="M139.16,1231.93a124.2,124.2,0,0,1,8.4-25.92c11.57-25.42,25.24-49.71,39.78-73.52,9.85-16.11,18.72-32.82,29.65-48.28a630.2,630.2,0,0,1,39.23-50A214.81,214.81,0,0,1,272,1017.61c1-.92,2-3.18,3.44-2,1.66,1.32-.19,3-1,4.35-8.3,13.78-16.78,27.45-25,41.28q-25.47,43-53,84.71c-15.52,23.52-30.23,47.53-45,71.52-3,4.92-4.95,10.5-7.51,15.72-.59,1.21-1,3.16-3.11,2.48C139.12,1235.09,139.05,1233.49,139.16,1231.93Z"/><path class="cls-2" d="M552.43,1299c1.38-9.49,4.11-18.2,7.09-26.76,7.57-21.74,12.47-44.25,19.58-66.1,9.22-28.35,21.42-55.34,38.47-79.94,2-2.83,4.77-5.09,7.23-7.57.67-.67,1.43-1.84,2.46-1.26,1.39.77.51,2,0,3-2.75,6-5.79,12-8.2,18.13-7.75,19.91-13.64,40.43-19.66,60.91-8.31,28.29-17,56.43-29.27,83.33-2.82,6.17-5.2,12.55-8,18.73-1,2.19-1.52,5.89-5.13,4.72C553.72,1305.12,553,1301.66,552.43,1299Z"/><path class="cls-10" d="M1136.43,469l4.53,34c2,3.54,2.64,7.68,3,11.47.81,9.58,4.17,18.87,3.26,28.62a3.48,3.48,0,0,0,1.91,3.76c4.34,2,5.22,5.63,4.82,9.91-.55,7.88-2.52,10.23-10.26,12.24-6.48.48-9.17-3.77-11.14-8.92-1.74-2.4-2-5.14-1.92-8a16.1,16.1,0,0,0-1.49-6.26c-6.43-14.55-7.83-30.36-11.52-45.6-.66-4.82-2.26-9.54-1.51-14.51,4.59-5.09,8.94-10.41,13.93-15.14C1131.7,469,1133.65,467,1136.43,469Z"/><path class="cls-2" d="M1687.69,1309.94c-4.11-1.62-5.32-5-7.14-7.85-16.42-25.55-28-53.38-37.61-82-6-17.75-16.27-33.33-24.39-50a14.78,14.78,0,0,1-.87-1.79c-.66-2-3.4-4.29-.59-6,2.52-1.56,4.82.53,6.24,2.69,13.83,21,27.63,42,37.19,65.56,7.34,18.1,15.26,36,21,54.65C1684,1293.13,1686.39,1301.13,1687.69,1309.94Z"/><path class="cls-11" d="M407.14,807c-2.38-.18-2.39,3-4.86,3.35,2-4.79,5.15-8.52,7.69-12.61-.74-3.25,1.65-5.25,3.22-7.42a234.51,234.51,0,0,1,19.17-23.53c21.46-22.71,43.94-44.33,70-61.88,1.51-1,3.2-1.75,4.64-2.89,3.57-.45,5.66-3.18,8.18-5.28,13.7-11.44,26.57-23.88,41.61-33.7,3.31-2.16,7.2-2.18,10.6-3.87,1.38-.69,2.54.28,2.77,1.93l0,0c-1.61,1.14-3.72,1.51-5,3.19-2,3.68-5.86,5.39-8.94,7.63-14.72,10.68-28.49,22.5-42.67,33.84-25.22,20.17-47.73,43.21-71.16,65.27-10.65,10-20.36,21-30.52,31.57C410.36,804.12,408.72,805.53,407.14,807Z"/><path class="cls-10" d="M995.93,479.11c5.46-5.5,11.21-10.74,16.28-16.58a87.67,87.67,0,0,1,15.08-13.42c1.81-1.19,3,.1,3.55,1.37,2,4.5,3.44,9.2,5,13.88.36,1.09-.25,2.26-.73,3.31-3,5.66-8.28,9.28-12.41,13.94-9.36,10.58-19.5,20.41-29.47,30.41-4.08,4.09-9.31,7.05-12.28,12.26-1.12,1.65-2,3.48-3.56,4.81l-1.62,1.1c-.46.22-1.15.44-1.38.12-3.07-4.29-6.92-8-8.85-13.1,7.72-5.71,11.39-14.4,16.54-22.07C986,489.31,990.06,483.37,995.93,479.11Z"/><path class="cls-2" d="M235.07,1316c.93-6.45,3.57-12.44,6.32-18.21,7.06-14.85,12.45-30.46,20.28-44.93,8.75-16.21,17.77-32.27,29-46.92a62.92,62.92,0,0,1,5.2-5.39c.68-.7,1.43-1.85,2.45-1.21,1.3.81.38,2,0,3.07-3.19,8-6.3,16-9.54,24-5.31,13-10.06,26.38-16.24,39-6.28,12.8-12.61,25.64-20.24,37.74-3.19,5-6.19,10.22-9.3,15.32-1.12,1.82-2.13,4.11-4.9,3.18S234.82,1318.62,235.07,1316Z"/><path class="cls-2" d="M400,913.14c-.22-3.37,2.1-5.67,3.68-8,10.46-15.75,22.34-30.43,34.57-44.83,9.75-11.49,19.12-23.3,28-35.49a20.92,20.92,0,0,1,1.89-2.31c.54-.56,1.14-1.4,2.07-.73.77.56.58,1.35.38,2.23A69,69,0,0,1,462,844.52c-1.13,1.86-2,3.26.12,5.1,1.88,1.66.68,3.66-.09,5.51-2.63,6.26-7.47,10.93-11.71,16-8.52,10.15-15.93,21.2-25.16,30.76-5.55,5.74-11.08,11.5-16.75,17.12-1,1-2.65,2.65-4.33,1.26A10.66,10.66,0,0,1,400,913.14Z"/><path class="cls-2" d="M1474.52,1251.18a32.72,32.72,0,0,1-7.45-11.44c-9.86-25.19-16.64-51.27-22-77.71a545.15,545.15,0,0,0-23.85-83.39c-4.13-11-7-22.43-10.29-33.72-.87-3-2.09-5.93-3-8.93-.28-.91-1.64-2.18.29-2.85a2.16,2.16,0,0,1,2.9,1.25,65.76,65.76,0,0,1,3.37,7.73c8.33,27.47,21,53.36,29.35,80.8,7.85,25.79,13.73,52.07,19.18,78.45C1466.43,1218,1469.57,1234.69,1474.52,1251.18Z"/><path class="cls-2" d="M1322,956.27c-.24-8.78-1.63-17.26-5.9-25.14-6.12-11.34-4-23-1.09-34.72.85-3.4,3.92-3.94,6.63-4.31s4.71,1.19,5.85,3.74a191.7,191.7,0,0,1,6.7,18.16c.41,1.24.19,3.49,2,3.52,1.65,0,2-2,2.64-3.32,2.47-5.24,5-10.49,7.11-15.87,1.32-3.32,3.43-5.1,6.82-4.18,3.65,1,3.18,3.7,2.4,6.81-2.45,9.87-8.61,17.81-13.12,26.62-2.83,5.54-7,10.12-10.17,15.41-3.84,6.4-2.2,12.42-2.87,18.59-.33,3,.64,7.73-3.16,7.71-3.64,0-4-4.57-3.89-8C1322,959.6,1322,957.93,1322,956.27Z"/><path class="cls-2" d="M269.67,1163.61c-3,5.68-6.13,11.27-8.87,17.06-13,27.33-28.48,53.33-42.06,80.33-9.23,18.35-18.76,36.66-25.05,56.37-.57,1.78-.88,5.15-3.42,4.68-2.77-.5-2.28-3.68-2.14-6,.48-7.89,3.43-15.18,6.25-22.38,7-17.75,14.23-35.41,23-52.38,9.62-18.59,21.42-35.87,32.45-53.61,5.09-8.18,10.12-16.39,17.11-23.15.57-.55,1.19-1,1.78-1.57Z"/><path class="cls-2" d="M1426.25,1293.41c-3.13-2.73-4.71-6.36-6-10-5.59-16.13-9.07-32.83-12.15-49.54a785.65,785.65,0,0,0-20.23-82.77c-.47-1.56-1.46-3.1-.52-4.78,1.23-2.2,4.48-1.74,5.76,1.19,3,7,6,14,8.58,21.18,6.74,19.18,14.15,38.2,17.65,58.34,1.69,9.74,2.67,19.63,3.53,29.48,1,11.18,1.24,22.43,3.9,33.41A3.5,3.5,0,0,1,1426.25,1293.41Z"/><path class="cls-2" d="M582.29,779.84c-4.64,4.41-9.18,8.93-13.94,13.21A522.05,522.05,0,0,0,529.2,832.2c-7.67,8.51-15.67,16.74-23.16,25.41-5.29,6.13-10,12.78-14.93,19.19a23.11,23.11,0,0,1-2.87,3.42c-1.52,1.33-3,3.65-5.46,1.84s-1.89-4.37-.43-6.63c4.61-7.09,9-14.36,14-21.16,21.59-29.26,46.78-54.71,78.77-72.73C577,780.46,578.5,778.29,582.29,779.84Z"/><path class="cls-2" d="M1681.48,1132.75c-10-5.66-16.39-14.26-21.92-23.62-10.55-17.83-18.74-37-31.28-53.72-6.65-8.87-14-17.29-19.38-27.05-.32-.58-.73-1.12-1-1.71-.92-1.81-1.94-4,.09-5.34,1.76-1.15,3.82-.27,5.3,1.46,14.1,16.48,29.73,31.73,40.7,50.72,5.35,9.24,8.64,19.38,12.7,29.17,3.7,8.92,7.47,17.71,13.63,25.28A4.72,4.72,0,0,1,1681.48,1132.75Z"/><path class="cls-3" d="M854,526.89c-3.35,3-3.06,7.42-4.57,11.14-9.58,2.68-19.52,3.56-29.11,6.42-7.47,2.24-15.29,3.54-22.85,5.67-3.32.94-6.5,2.4-10.07,2a3.43,3.43,0,0,1,.28-2.84,16.42,16.42,0,0,0,2.19-12.19,5.38,5.38,0,0,1,.89-4.21,4.89,4.89,0,0,1,4.46-.79,4.26,4.26,0,0,1,1.68.95c6.77,6.51,7.2,6.55,14.8,1.37,4.1-2.33,7.33-5.38,8.47-10.18a56.52,56.52,0,0,0,22.39-21.94c.83-1.42,1.83-3,3.81-2.64s2.59,2,3.08,3.6c1.5,4.73,1.22,9.76,2.53,14.6C852.71,520.78,853.85,523.76,854,526.89Z"/><path class="cls-12" d="M768,639c12.91,5.3,20.34,1,26-11,.83,5.25-.51,10.45-.32,15.75A41.3,41.3,0,0,0,799.29,663c3.25,5.89,2.13,11.78-1.36,17-2.72,4-13,6.83-18.84,1.67-4.67-4.09-8.55-9-7-15.55,2-8-.35-15-3.08-22.21A31.88,31.88,0,0,1,768,639Z"/><path class="cls-2" d="M844.87,1283.39c1.77-4.24-1.25-7-2.68-10.4-2.7-6.46-.11-13,1.18-19.42,4.19-20.83,8.64-41.61,11.59-62.66.64-4.53,4.16-4.56,6.94-4.67,3-.13,4.64,2.3,4.11,5.51-1.41,8.61-2.64,17.27-4.38,25.81-3.53,17.28-6.77,34.59-8.67,52.14-.8,7.36-2,14.68-2.93,22-.16,1.21-.3,2.53-1.64,2.71s-2-1.22-2.13-2.3C845.8,1289.21,844.45,1286.4,844.87,1283.39Z"/><path class="cls-11" d="M1472.88,784.72c4.3,8,8.66,15.9,12.85,23.91.83,1.58,2.69,3.39.38,5.32-5.41-7.18-13.11-12.6-17.74-20.1a213.13,213.13,0,0,0-18.21-25.46c-14.83-17.68-31.63-32.93-51.92-44.45a43.44,43.44,0,0,1-14.36-12.74c.06-.81-1.28-2.63,1.24-1.64,2.22.87,4.49,1.64,6.73,2.45,10.91,6,21.76,12,31.61,19.8a219.57,219.57,0,0,1,46.84,50C1471,782.9,1471.4,784.32,1472.88,784.72Z"/><path class="cls-2" d="M1316.84,1301.69a46.58,46.58,0,0,0,3.3,20.48c.42,1,1.36,2.19.25,3.19-1.3,1.17-2.59,0-3.6-.63-6.32-4.16-9.34-10.68-11.76-17.43a49.79,49.79,0,0,1-3.09-18,299.36,299.36,0,0,0-1.8-41.68c-.35-2.94-2.24-7.72,3.12-8.5,4.56-.67,5.64,3.44,6.54,6.73,3.1,11.31,4.43,23,6.21,34.52C1317,1286.48,1317.09,1292.59,1316.84,1301.69Z"/><path class="cls-2" d="M957.56,1252.1c-3.42-3.3-3.32-7.67-3.4-11.55-.33-16-1-32,.05-48,1.67-25.85,3.14-51.68,2.84-77.59,0-2.13-.08-4.7,2.92-4.9s2.33,2.7,2.5,4.07a160.43,160.43,0,0,1,1.48,18.3c.18,16.66.56,33.34-.09,50-.54,13.68-2.15,27.33-3.55,41C959.33,1232.92,957.36,1242.39,957.56,1252.1Z"/><path class="cls-13" d="M873.09,639.05c3.35.63,6.69,1.42,10.07,1.87,3.64.48,4.77-2.91,6.84-4.84,3.41,5.9,3,12.53,2.75,18.83-.44,14-11.21,20.5-21.22,27.29-3.09,2.1-6.64,1.3-9.47-.55s-2.43-5.31-1.92-8.23a34.34,34.34,0,0,1,8.16-16.83c2.9-3.32,4.87-6.68,3.8-11.21C871.57,643.13,873.06,641.2,873.09,639.05Z"/><path class="cls-13" d="M938.07,632a39.17,39.17,0,0,0,5.28,1.06c9.78.61,12.81-2.13,13.77-12.18a6,6,0,0,1,.78-1.73c.1,8.77,3.39,15.27,10.86,20.76,7.25,5.32,9.19,14.75,12.19,23,1.64,4.52-4,8.36-9.21,7.69-7.79-1-12.43-6.47-16.64-12.31a77.1,77.1,0,0,0-6-7.87c-4-4.22-7.68-8.6-8.6-14.7C940.29,634.32,938.91,633.17,938.07,632Z"/><path class="cls-12" d="M1158,655.86l13.86,13.81c-5.23,8-9.82,16.24-14.35,24.61-2.71,5-7.31,9-12.13,12.3-3.31,2.24-10.85.41-13.16-3-2.64-3.86-1-7.87,1.12-11.09,3-4.51,6.77-8.62,12.19-10.49a3.34,3.34,0,0,0,2.56-3.21c.71-7.77,5.26-14.22,7.46-21.49C1155.82,656.31,1156.93,656,1158,655.86Z"/><path class="cls-12" d="M1186.13,679l16.75,8c-.17,4.15-2.47,7.52-4.38,10.92a34.33,34.33,0,0,0-4.52,20.58,15.34,15.34,0,0,1-.88,5.85c-1.41,4.77-5.7,8.67-9.27,8.34s-8.63-5.54-8.68-9.7c-.1-8.17.06-16.25,3.13-24.19,2-5.17,3-10.77,5.17-16C1184.07,681.37,1184.12,679.52,1186.13,679Z"/><path class="cls-2" d="M562.08,1029.2c-.2-5.79,1.41-10.53,2.56-15.34a7,7,0,0,0-.19-4.81q-5-11.07-10-22.18c-1-2.32-3.12-4.88.85-6.59,3.74-1.6,6.84-1,8.74,2.84s3.72,8.13,5.66,12.15c.41.86-.08,2.84,1.84,2.22,1.74-.56.58-1.87.35-2.9C570.26,987,579.3,975.3,587,974.92c3.52-.18,5.3.87,5.08,4.74-.28,5.17-2.61,9.48-5.07,13.82-3.47,6.15-8.79,10.76-13.41,15.9-4,4.48-3.39,9.88-4.36,14.91a62.63,62.63,0,0,0-1.17,8.81c-.09,2-.53,4.24-2.54,4.15s-3.34-2-3.45-4.31C562,1031.45,562.08,1030,562.08,1029.2Z"/><path class="cls-12" d="M720,650.1c9.56,5.51,17.28,2.56,25.15-8.13-2.34,7.85-.32,15.49,1.06,23.17a16.26,16.26,0,0,1-2.31,12.22,53.4,53.4,0,0,1-10,10.95,11.69,11.69,0,0,1-12.49,2c-3.91-1.68-6-5.57-5.35-10.28,1-3.28,4-5,5.78-7.73,2-3.11,3.08-6,1-9.47C722.48,658.44,719.17,654.74,720,650.1Z"/><path class="cls-2" d="M1114.15,924.85c0-2.3-.07-4.59,0-6.88a1.67,1.67,0,0,1,1.61-1.62c1.17-.05,1,1,1.32,1.74.82,1.82-.14,3.58-.17,5.37-.27,19.07,1.42,38.07,2.34,57.08.23,4.83-.17,9.93,1.4,14.74a4,4,0,0,1-2.09,5.08c-2.27.85-3.72-1.5-4.2-3.22a72.57,72.57,0,0,1-2.3-12.12c-1.68-16.89-3.9-33.73-5.3-50.66-.38-4.53-.17-9.24-1.61-13.74a7.29,7.29,0,0,1,.28-4.85c.83-1.83,2.94-1.95,4.82-1.74,2,.24,2.71,1.64,2.7,3.52,0,2.47,0,4.94,0,7.41Z"/><path class="cls-2" d="M793.05,958.75c-.92,3.22-2.18,7-3.08,10.85q-7.05,30.15-14,60.33c-.49,2.11-.78,4.66-3.45,4.82s-2.77-2.5-3.64-4.19c-2.3-4.43-.19-8.91.56-13.12,3.4-19.24,9.08-37.94,14.75-56.61a20.22,20.22,0,0,1,2.46-4.89A3.72,3.72,0,0,1,791,954.1C793.18,954.65,793,956.44,793.05,958.75Z"/><path class="cls-2" d="M453.11,939.41c-.35,3.27-1.89,5.68-3.73,8.12-11,14.5-20.89,29.75-32.33,43.89-1.15,1.43-1.86,5-4.63,2.83-2.15-1.69-4.34-4-2.67-7.69,3.25-7.15,7.7-13.54,12.26-19.82,6.4-8.83,13.2-17.37,19.89-26,1.53-2,3.29-3.86,5.84-4.47C450.51,935.61,452.66,936.3,453.11,939.41Z"/><path class="cls-10" d="M1016.14,597.12c4.72,1.74,6,7,10,9.7,3.3,2.17,7.31,3.25,10,6.31a208.13,208.13,0,0,1-9.38,29c-3.26,2.62-6.46,3.07-9.56-.25-3.82-7.12-3.67-14.88-3.26-22.55C1014.37,611.93,1015.39,604.53,1016.14,597.12Z"/><path class="cls-14" d="M680.87,682.82C689.23,690.5,690.81,706,684,715c-2.62,3.46-6.54,5.08-10.58,5.83-5.46,1-7.75-1.25-8.13-7.15a6.46,6.46,0,0,1,.27-2.92c2.47-5.76,1.61-11.12-1.67-16.26a2.59,2.59,0,0,1,1.65-2.3c3.89-2,7.15-4.79,10.55-7.45C677.36,683.74,678.67,681.83,680.87,682.82Z"/><path class="cls-15" d="M1092.23,647c.85.17,1.81.45,1.79,1.42-.08,4.94,3.35,7.81,6.07,11.27a16.92,16.92,0,0,1,3.72,13.49c-.83,4.86-3.51,8-8.6,9s-8.38-.37-10.69-5.37c-1.64-3.53-4.58-6.49-5.38-10.49-1-4.87-1-9.71,1.17-14.34C1084.49,650.77,1088.06,648.12,1092.23,647Z"/><path class="cls-2" d="M1324,786.82a9.79,9.79,0,0,1-.31,2.45c-.75,2-.84,4.73-3.22,5.25s-3.82-1.95-4.85-3.62c-7.51-12.25-16.17-23.81-22.22-36.94-1-2.23-2.92-4.51,1.51-5.37,1.63-.32,1-2.25,1-3.48.1-1.69,0-3.42,2.14-4,1.88-.49,3.18.46,4.31,1.79,2.75,3.23,4.06,7.18,5.54,11,3.84,9.93,9.41,18.95,14.51,28.23C1323.25,783.63,1324.19,785,1324,786.82Z"/><path class="cls-10" d="M1092.23,647c-3.46,2.89-6.83,6-11.92,5-4-10.6-7.62-21.26-7.52-32.79,7.32,2,14.65.42,22,0-1.37,6,1.14,12.09-.53,18.11C1093.37,640.44,1092.89,643.73,1092.23,647Z"/><path class="cls-2" d="M476.76,1248.15c-.22-7.27,1.82-14,3.7-20.74a710.68,710.68,0,0,1,27.76-79.56c.52-1.25.85-3.41,2.89-2.55,1.69.72,1.09,2.66.67,4-5.3,17-9.4,34.43-16,51.07-6,15.22-11.92,30.49-17.89,45.74A17.14,17.14,0,0,1,476.76,1248.15Z"/><path class="cls-2" d="M1240.49,1277.33c-6.51-4.93-7.89-12.32-9.42-19.49a148,148,0,0,1-3.11-35.51c.16-5,.32-10-1.59-14.74-.57-1.43-.72-2.86,1-3.89,2-1.22,3.1.15,4.25,1.33,2.46,2.55,2.67,6,3.35,9.18a149.72,149.72,0,0,1,3,36.52A98.9,98.9,0,0,0,1240.49,1277.33Z"/><path class="cls-2" d="M1541,967.46c-6.89-9.34-12.4-19.48-18-29.54-7.77-13.89-15.5-27.8-22.84-41.92-3.59-6.88-6.26-14.24-9.34-21.4-.3-.7-1.1-1.49-.18-2.2s1.92-.28,2.65.47a13.51,13.51,0,0,1,2.56,3c9.32,18.69,21.68,35.71,30.08,54.92C1531.21,942.9,1536.79,954.86,1541,967.46Z"/><path class="cls-2" d="M518.59,1307.87c-1.38-7.19.09-13.94.78-20.46,1.86-17.71,7.72-34.44,14.8-50.72.81-1.85,1.24-4.7,4.25-3.63s1.41,3.48.87,5.44q-8.77,32-17.62,64C521.19,1304.26,521,1306.41,518.59,1307.87Z"/><path class="cls-2" d="M340.05,1097.13c-.35,2.85-2.39,6.25-4.77,9.44-6.75,9-11.91,19-18.14,28.39-1.46,2.2-2.85,4.45-4.4,6.59-.61.84-1.19,2.25-2.66,1.58-1-.48-.93-1.64-1-2.64-.17-2.58.83-4.88,1.88-7.12,5.74-12.3,11.55-24.57,17.29-36.87,1.26-2.69,3-4.81,6-5.47C338.41,1090.13,340.2,1091.63,340.05,1097.13Z"/><path class="cls-16" d="M791.13,533c.67,6.75,1.1,13.46-3.77,19.12-2.12.68-2.39,3.26-4.29,4.16-5.89-12.07-13.05-23.73-12.1-38-.9-1.34-1.38-2.87,0-4s2.76,0,3.93.86a18.39,18.39,0,0,1,4.28,4.73,28.17,28.17,0,0,0,9.54,9.1C790.13,529.81,792.26,530.5,791.13,533Z"/><path class="cls-2" d="M1346.1,1079.89c-.42,3.9,1,8.36-2.86,9s-4.62-3.83-5.65-6.82a275.08,275.08,0,0,1-8.16-27.56c-1.09-4.78,2-8.06,2.11-12.25,0-1.48,2.24-1.74,3.67-.58a9.12,9.12,0,0,1,3.27,4.32C1341.89,1057.43,1345.48,1068.78,1346.1,1079.89Z"/><path class="cls-15" d="M1017.23,641.91a13.2,13.2,0,0,0,9.56.25,114.94,114.94,0,0,1-4.74,25.05c-.94,2.9-6.84,6.9-10.63,6.49-4-.41-6-3.7-7.17-6.82-.86-2.22.86-5.1,2.42-6.73,4.16-4.33,5-10,7-15.21C1014.45,643,1014.92,641.63,1017.23,641.91Z"/><path class="cls-2" d="M1553.44,1331.92c-6.11-5.62-7.57-13.3-9.4-20.7-4.22-17.11-6.12-34.65-9.12-52-.7-4-1.88-8-2.76-12-.27-1.26-.8-3.09.42-3.69,1.74-.86,2.63,1,3.26,2.26,3.93,7.93,5.63,16.55,7,25.16,2.87,17.53,5.32,35.12,8.09,52.66C1551.41,1326.43,1552.59,1329.15,1553.44,1331.92Z"/><path class="cls-14" d="M724,663c2.08,2.55,1.8,5.14.14,7.77-2.21,3.52-4.51,7-8.12,9.26-5,.33-9.94,1.65-15,.14-4.59-1.38-7.52-6.23-6-10.23,3.91-3.41,6.53-8.41,12.12-9.73a31.29,31.29,0,0,0,10.75,1.4C720.05,661.53,722.26,661.39,724,663Z"/><path class="cls-2" d="M1137.49,1166.41c4.4,6.17,5.83,57.85,2.16,69C1131,1212.68,1134.83,1189.53,1137.49,1166.41Z"/><path class="cls-2" d="M622.65,1227.24c.19,5.33-2.4,10.3-1.33,15.89,2.9-7,2.13-14.32,3.58-21.22.38-1.79-1.25-2.57-2-3.77-1.14-1.75-1.38-3.67.6-4.73,1.78-1,4.2-1.19,5.18,1.13a15.25,15.25,0,0,1,1.61,5.94c.24,11.93-1.29,23.45-6.08,34.42-1,2.3-1.54,6-4.67,5.47-3.62-.58-3.42-4.23-3.47-7.32a66.14,66.14,0,0,1,4.07-22.8C620.51,1229.08,620.68,1227.65,622.65,1227.24Z"/><path class="cls-2" d="M245.15,1124.38c-9.52,15.59-16,32.25-25.45,47.3-1.3,2.08-2.35,5.81-5.4,4.41-2.71-1.25-1.05-4.54-.13-6.74,6.49-15.57,14.31-30.32,26.43-42.37C241.69,1125.9,242.43,1124.12,245.15,1124.38Z"/><path class="cls-2" d="M409.75,1278.71c1.2-8.13,2.32-16.27,3.66-24.38.59-3.58,3.08-4.88,6.57-4.3s3.44,3.26,3,5.74c-1.59,9.39-3.24,18.79-5.16,28.12-.37,1.79-.31,4.94-3.31,4.79-2.69-.14-3.4-3-4.22-5-.57-1.42-.11-3.27-.11-4.93Z"/><path class="cls-17" d="M977.35,529.09c.68-1.85,1.14-3.81,2.54-5.32a16.48,16.48,0,0,1,8.76-1.23c13.2,1.11,26.44,1.89,39.54,4,2.13.34,4.33.53,5.7,2.56-.7,1.89.43,4.06-.93,5.84C1014.49,532.38,996,530.32,977.35,529.09Z"/><path class="cls-2" d="M470,1067.05c2.21-11,7.1-20.89,13.68-29.93,1.56-2.14,3.79-1.8,4.88,1.08,1.23,3.24.71,5.94-1.06,9.13-3.87,6.93-7,14.3-10.32,21.5-.83,1.79-.55,4.92-3.61,4.24C470.83,1072.46,470.2,1069.76,470,1067.05Z"/><path class="cls-18" d="M1143.65,569c4.83-2.79,9.25-5.87,9-12.34,1.94-3.28,4.42-3.79,7.46-1.48.93,6.67.14,13.7,4.46,19.64.58.8-.67,1.69-1.49,2.25C1153.86,581.93,1149.49,580.12,1143.65,569Z"/><path class="cls-2" d="M1561,1169.28c0,2.14-.19,4.78-2.45,4.84s-4.89.68-6.66-2.08c-3.71-5.77-4.2-12.45-5.93-18.79-.34-1.26-.44-2.59-.8-3.85-.77-2.66.5-4.06,2.78-5s4.37-.61,5.16,1.48C1556,1153.59,1559.45,1161.14,1561,1169.28Z"/><path class="cls-19" d="M1265.81,646.2c6.42,3.74,12.63,4,18.57-1.05a32.18,32.18,0,0,1,3.32-2.18c.43,7.12-3.24,12.56-7.73,17.39-2.66,2.86-6,5.56-10.44,3.14-3.51-1.9-6-8.56-4.79-12.57C1265.21,649.38,1266.23,648,1265.81,646.2Z"/><path class="cls-20" d="M966.09,517.24q4.83,6.46,9.64,13c-1.14,7.95-6,10.9-11.82,7.2-.44-6.53-2.14-7.77-8.88-6.44L952.16,529c-2.1-2.44-1.26-4.51.81-6.43,3.67-2.06,7.93-3.05,11.12-6A1.7,1.7,0,0,1,966.09,517.24Z"/><path class="cls-2" d="M1061,1250.86c-.94,6.84,1.12,13.53,1,20.32,0,1.78.38,4.1-2,4.48s-2.72-2-3-3.71c-1.39-10.43-2.77-20.87-4-31.32-.3-2.65,5.4-7.16,7.9-6.51,1,.25,1.87.78,1.17,2.11C1059.67,1240.94,1061.74,1246,1061,1250.86Z"/><path class="cls-2" d="M765.85,1260.88c2.2-4.68,4.18-9.77,9.1-12.84,3.09-1.92,6.15-.3,8.23,1.36,2.27,1.82.56,4.66-.91,6.64-2.95,4-6.15,7.73-9.17,11.64-1.38,1.79-3,1.6-4.2.27A12.85,12.85,0,0,1,765.85,1260.88Z"/><path class="cls-2" d="M671.05,1033.83c-1.42,1.9-.48,3.75-.1,5.69a7.42,7.42,0,0,1-2,6.9,75.69,75.69,0,0,0-9.06,11.75c-1,1.47-2.2,3.72-4.17,2.27-1.65-1.21-3.55-3-2-5.91a106.53,106.53,0,0,1,9.79-15.47c1.64-2.07,3.62-3.84,4.67-6.35.32-.74.89-1.57,1.84-1.36C671.47,1031.67,670.76,1033,671.05,1033.83Z"/><path class="cls-2" d="M325.11,989.34c-.14-4.46,2.76-6.67,4.6-9.3,3.32-4.73,7.13-9.11,10.65-13.71,1.47-1.92,3.44-3.26,5.53-2.07,2.49,1.41,1.31,4,.12,5.64-5.36,7.53-10.54,15.26-18.19,20.8-.66.48-1.44,1.4-2.1.68A3.9,3.9,0,0,1,325.11,989.34Z"/><path class="cls-2" d="M1388.64,1294.12c-7.42-5.67-9.1-14.38-11.46-22.53-2.53-8.69-4.1-17.67-6-26.54-.26-1.21-.86-3,.58-3.59,1.69-.69,2.1,1.23,2.64,2.32,3.76,7.69,4.51,16.19,6.4,24.37C1382.82,1277,1383.34,1286.16,1388.64,1294.12Z"/><path class="cls-21" d="M1131.72,552.19q.39,4,.79,7.93L1107,552a9.39,9.39,0,0,1-1.86-7.22,2.24,2.24,0,0,1,1.82-.61,170.12,170.12,0,0,1,23.74,6.9C1131.15,551.29,1131.42,551.79,1131.72,552.19Z"/><path class="cls-2" d="M1194,1296.94c1.35,4.72-2.46,10.07-.08,15.49a1.41,1.41,0,0,1-.79,2c-1,.25-1.43-.59-1.93-1.23-3.85-4.94-4.39-10.92-5.08-16.78a28.85,28.85,0,0,1,.41-8.39,3.63,3.63,0,0,1,4.35-3.14c2.35.29,2.93,2,3.07,3.88C1194.09,1291.28,1194,1293.78,1194,1296.94Z"/><path class="cls-22" d="M1260.78,621.91c5.41-11.63,9.32-23.95,16.27-34.86.92-.21,1.42,0,1,1.06q-5.67,18.45-11.33,36.9C1264.62,624.23,1263.23,622.06,1260.78,621.91Z"/><path class="cls-2" d="M437.06,1145.1c-1,1.79-2,3.7-3.21,5.46-1.4,2-3.12,3.83-4.49,5.87-1.22,1.83-2.23,3.93-4.89,3.34-2.92-.65-3.22-3.57-4.17-5.72-1.12-2.53,1.24-3.54,2.82-4.5,3.52-2.14,7.18-4,10.8-6C435.49,1142.69,436.77,1142.66,437.06,1145.1Z"/><path class="cls-2" d="M1487.41,1306.18c-4.64-3.2-8.15-5.58-11.62-8a4.17,4.17,0,0,1-1.7-4.8c.57-2,2.39-1.42,3.76-1.4,2.11,0,4.21-.24,6.35.56,3.84,1.42,5.12,3.93,2.67,7.13C1485.28,1301.72,1486.05,1303.13,1487.41,1306.18Z"/><path class="cls-23" d="M1174.4,576.78c3.08-1.53,5.08-4.61,8.38-5.82,3.63-.49,6.17,1.26,8.27,4a18.63,18.63,0,0,1-4.18,7.06Z"/><path class="cls-24" d="M953.74,523.26c-2.28,1.45-1.75,3.66-1.58,5.78l-13.94.17-3.84-6c3.66-3.15,8-1.1,12-1.61,2,.09,4.08-.15,6.06.49A2.48,2.48,0,0,1,953.74,523.26Z"/><path class="cls-2" d="M1579.75,1069.74c.31-1.17.54-2.29.91-3.37s.38-2.52,2.09-2.18c1.31.26,1.18,1.45,1.16,2.4a12.42,12.42,0,0,0,3.11,9.1,4.2,4.2,0,0,1,.34,5.11c-.54,1-1.4,2.2-2.69,1.8-1.92-.59-2.62-2.31-3-4.2C1581.09,1075.51,1580.4,1072.64,1579.75,1069.74Z"/><path class="cls-2" d="M805.91,1152c4-.28,5.55,1,5,3.7s-.36,5.88-3.52,7c-1.78.61-5.55-4.87-5.35-7.48C802.32,1151.91,804.9,1152.16,805.91,1152Z"/><path class="cls-2" d="M1326,1195.21c-1,2.36-2.59,4.74-5.43,4.5a5.66,5.66,0,0,1-5.12-5.74c.15-2.76,3.34-3,5.87-3C1324,1191,1325.6,1192.27,1326,1195.21Z"/><path class="cls-2" d="M532.89,913c3.18-.09,5.43-.2,5.17,3.1-.23,2.91-1,6.44-4,6.34s-4.49-3.7-4.77-6.61C529,912.69,531.75,913,532.89,913Z"/><path class="cls-25" d="M680.87,682.82c-3.46,1.08-5.49,4.11-8.09,6.27s-5.94,3.51-8.85,5.36l-1.83-2.72c4.62-2.84,9.15-5.86,13.92-8.42a25,25,0,0,0,5.91-4.34C682.94,680.63,681.28,681.55,680.87,682.82Z"/><path class="cls-2" d="M657.06,1292c3.42-.27,5.15.59,5,3.46-.14,2.23-.59,4.48-3.51,4.39s-5.15-1.91-5.29-4.8S655.83,1292.2,657.06,1292Z"/><path class="cls-26" d="M955,531c2.11-3.57,5.11-2.52,7.4-.78s4.8,4.06,1.48,7.22C959.5,537.24,957.37,534,955,531Z"/><path class="cls-2" d="M1226,1086.21c-.63,1.76-.72,4.47-3.46,4.53-2.51,0-3.85-2.31-4.09-4.36-.28-2.29,1.63-3.36,3.91-3.43C1224.42,1082.89,1225.89,1083.57,1226,1086.21Z"/><path class="cls-27" d="M355.21,908.22c1.75,1.07,5.06.26,5.39,3.12.21,1.76-1.23,3.67-3.8,3.63s-4.14-1.09-4.62-3.52C351.75,909.27,353.34,908.65,355.21,908.22Z"/><path class="cls-28" d="M706.28,660.53c-3.87,3-6.55,7.38-11.23,9.4l-1-1.08c3.55-3.68,7.94-6.52,10.93-10.79A1.68,1.68,0,0,1,706.28,660.53Z"/><path class="cls-2" d="M1366.33,748.1c-.49-2.66-4.9-4-2.44-7.35a1.84,1.84,0,0,1,2.69-.32C1369.49,742.91,1367.32,745.55,1366.33,748.1Z"/><path class="cls-29" d="M1419.36,743.3a34.88,34.88,0,0,1,7.7,7.92Z"/><path class="cls-30" d="M1382.86,926.66a2.58,2.58,0,0,1-1.93-2.71c0-1.06.34-2,1.63-1.87s2.26.78,2,2.13A2.75,2.75,0,0,1,1382.86,926.66Z"/><path class="cls-31" d="M665.13,648.93l-3.93-4.71a5.49,5.49,0,0,1,4.93,3.66Z"/><path class="cls-3" d="M565.15,664.25c.81-2.4,2.84-2.89,5-3.19C569.05,663,567,663.47,565.15,664.25Z"/><path class="cls-9" d="M953.74,523.26a1.65,1.65,0,0,1-.68-.25c-1.85-1.06-3.87-.25-5.79-.52-4-.1-6.93-2.17-9.06-5.29-2.51-3.68-5.33-7.18-7.09-11.31-1.24-1.56-1.5-.11-1.81.67-1.1,2.74-1.38,5.73-2.58,8.45a4.4,4.4,0,0,1-2,2c-6.64,2.16-11.88,6.91-18.47,9.44A72,72,0,0,1,874.16,531c-7-.55-13.25-3.91-20.21-4.13-4.1-5.2-3.64-11.69-4.78-17.68-.62-3.21-.06-7.65-3-8.75-2.08-.79-3.57,3.76-4.94,6-5.19,8.43-12,14.78-21.1,18.69-6.94-2.8-8.79-6.09-6.31-11.19,2.22-13.79,7.85-26.45,13-39.3,3-7.48,5.25-15.29,11-21.34a78.46,78.46,0,0,1,15.42-13.93c3.3-2.3,5.14-4.71,4.68-9-.42-4.06.17-8.09,4.93-9.76a4.25,4.25,0,0,1,3.23,1c5.69,4.52,11.35,3.27,17.13.17,2.62-1.41,4.83-3.51,7.74-4.4,4.64.43,6.71,2.18,7.15,7.71.36,4.56,2.26,5.82,6.61,5.88,8.88.11,17.09,2.48,23.47,9.22a12.5,12.5,0,0,0,2.94,1.84,18.23,18.23,0,0,1,7.24,9.94c5.9,9.55,9.65,20.14,14.59,30.15,4.55,9,12,16.68,12.17,27.58,0,2.45.8,4.94-.93,7.14C962.36,521.74,957.3,521.29,953.74,523.26Z"/><path class="cls-7" d="M1033.91,468.16c1.07-4.35-3.37-17.15-6.62-19.05a7.44,7.44,0,0,1,2.19-7.17A65.63,65.63,0,0,1,1064,422.29c2.62-.56,5.5.1,8.26.2,5.6,1.83,10.84,4.73,16.81,5.5s11.82.38,16.81-3.66c3.34-.48,5.72.92,8.37,3,11,8.71,16.87,21,23.56,32.68,1.73,3-1.23,5.93-1.33,9-4.13-.47-5.83,3-8.36,5.13-3.94,3.36-5.69,9-11.09,10.82-2.73,4.61-1.91,10.11-3.74,14.95a312.9,312.9,0,0,1-8.12,32.21c-.5,1.69-.6,3.66-2.34,4.78-6.21,4.38-13.33,4.74-20.36,3.66-15.56-2.4-31.21-4.67-45.69-11.47a7.25,7.25,0,0,0-2-.28c-2-1.23-1.47-3.15-1.35-5a353.07,353.07,0,0,1,5.07-38.08c.13-4.47,1.55-8.78,2-13.32C1034.75,473.7,1034,473.18,1033.91,468.16Z"/><path class="cls-8" d="M791.13,533c-.81-3.09-4-3.1-6-4.61-4.19-3.12-6.47-7.82-10.05-11.42-.89-.9-1.58-2.5-3.07-2s-.26,2.34-1,3.37a18.47,18.47,0,0,0-10.47,7.16c-5.36,7-12.9,11.39-21.67,13.74-9,2.4-18,.94-27,1.72-3.6.31-3.73-4.28-6.94-3.95-1.71-.72-2.13-2.45-3-3.81s-1.93-2.78-3.88-2.62c-2.11.16-2.5,1.86-2.94,3.48a137.05,137.05,0,0,1-5.2,15c-1.63,2.74-2.9,5.68-4.81,8.26-6,1.16-11.51.92-14.91-5.29a51.42,51.42,0,0,1,0-33.59c2.36-7.07,4.36-14.24,6.85-21.27a34.4,34.4,0,0,1,5.34-10,10.09,10.09,0,0,0,3.8-4.5c.42-1.16.92-2.89,2.6-2.44,1.48.4,1.41,2.11,1.52,3.41a69.44,69.44,0,0,0,1.43,7.85c.87,4.45,3.4,7.83,7,11.81-.91-9.29-1.55-17.63-2.4-25.94-.62-6.09-.5-11.42,6.4-13.89,1.13-.4,2.24-1.26,2-2.56-.71-4.31,2.32-5,5.31-5.73a27.65,27.65,0,0,1,5.45-.43c5.42-.21,7.07-1.76,7.47-7.12.09-1.32-.08-2.67.91-3.77,2.38-.9,3.38.68,4.31,2.39,3.65,9.13,3.65,9.13,14.07,9.12,6,0,6,0,5.8,5.69-.68,17,5,31.78,15.48,44.95-3-11.69-5-23.62-8.33-35.21-.7-2.43-.54-4.95-.6-7.44s1.62-3.84,3.32-2c4,4.31,10,5,14.27,8.75,7.39,8.86,15,17.47,22,26.68,5.6,7.4,8.09,16.06,11.69,24.3-1.65,3.24-3,6.68-5.48,9.41-1.21,1.3-2.14,3.08-4.4,2.64Z"/><path class="cls-1" d="M1144.68,262.05c2.44,0,4.44-.1,6.43,0,9.06.58,15.73-2.43,20.35-10.91,5.24-9.6,15.15-10.55,23.18-2.79,2.37,2.3,3.85,2.46,6.62.75a64.11,64.11,0,0,1,20.82-7.86c17.18-3.52,37.9,15.82,34.67,32.93-1.84,9.72-7.43,18-14.76,24.83a93.11,93.11,0,0,1-16.85,12.31c-2.79,1.61-5.71,3-8.87,1.32-2.3-1.21-3.82.21-5.52,1.09-5.61,2.88-11.28,5.45-17.65,6.35-11.13,1.57-18.5-4.73-25.53-11.8-4.81-4.85-10.46-7-17.33-7.49-5-.37-9.87-2.58-14.76-4.09a74.58,74.58,0,0,0-25.41-3.6c-3.07.14-5.88-.91-8.84-1.21-2.35-.24-3.69-1.94-4.19-4.31s.81-3.7,2.7-4.71c8.48-4.53,18-8.06,24.53-14.93S1137.72,262.29,1144.68,262.05Z"/><path class="cls-1" d="M1160.15,555.22c-2.61-.16-5.21-.23-7.46,1.48.66-4.58-.62-7.89-5.61-9-1.45-.32-1.95-1.28-1.69-3,1.1-7.15-.73-14.06-1.62-21.1-.86-6.86-3.4-13.53-2.81-20.58,8.59,3.2,16-1,23.25-4.25,8.62-3.86,16.79-8.7,25.73-11.87a3.69,3.69,0,0,0,1.65-1.05c5.39-7,10.54-14.3,12.18-23,1.73-9.17,3-11,12.68-11.82a20.87,20.87,0,0,1,11.51,2.47c13.86,7.12,27.76,14.15,40.83,22.69a34.94,34.94,0,0,0,4,1.93c-1.33,2.94-3.91,2.28-6,1.68-23-6.52-40.22,3.1-56.18,18.7-15.35,15-29.62,30.93-43.78,47A64.47,64.47,0,0,0,1160.15,555.22Z"/><path class="cls-1" d="M1094,370.8c-6.11-.8-11.32-2.84-14.52-8.76-1.9-3.52-1.62-6.26,1.08-8.94,6.6-6.54,13.19-13.08,19.36-20.06,2.89-3.26,7.75-2.83,11.72-2.86,12.47-.11,24.48-3.63,36.85-4.45,6.39-.43,12.69-2,19.08-2.62,8.65-.84,11.69,3,8.88,11.17-3.79,11-11,19.89-18.07,28.87-1.3,1.67-2.86,3-3.64,5.19-1.86,5.27-4.84,6-10.63,5.4-14-1.51-27.92-3.59-42-2.56a4.2,4.2,0,0,0-1.34.6C1098.17,373.43,1096,372.69,1094,370.8Z"/><path class="cls-15" d="M931.19,443.48c-4.55-1.91-7.48-6.05-12-8.23a32.55,32.55,0,0,0-15.27-2.9c-5.5.16-7-1.74-7-6.7-.05-3.72-1.07-7.33-5.91-7.66-2-3.65-1.92-7.58-1.55-11.56.87-9.29-1.61-11.69-10.68-9.6-4.49,1-9.08,1.93-13.28,4-5.11,2.56-6.11,5-4.09,10.4,1.18,3.17,3.59,6.1,2,9.84-3.14,1.49-5,3.77-4.32,7.44,1,5.63-.55,9.38-6,12.32-4.4,2.36-7.81,6.58-11.57,10.08-1.11,1-2,2.2-3.66,2.35-1.75-4.53.11-9,.31-13.52.67-14.56,2.38-29,9.72-42a21.16,21.16,0,0,0,2.91-9c1-10.93,12.91-19,20.62-20,12.84-1.65,19.86,5,25.53,14.79,2.7,4.64,7.1,7.71,10.42,11.81,8.12,10,11.64,22.23,16.61,33.69,1.63,3.78,5.32,6.49,5.43,10.94C930.2,441,932,441.56,931.19,443.48Z"/><path class="cls-16" d="M772.25,470c-6.19-1.36-11.88-3.65-16.29-8.85,1.42,16.51,6.63,32,9.28,48-13.72-14.91-20.31-32.29-17.94-52.9a21.28,21.28,0,0,0-8.26.15c-8.85,2.46-9.62-4-11.76-9.23.51-.87,1.65-1.43,1.86-2.27,1.18-4.68,2.92-7.95,8.74-5.58,1.29.53,2.49-1.26,3.34-2.54s1.29-3.09,3-3.72c6.47.78,13.11.08,19.36,2.76,7.32,3.14,11.21,9.23,9.83,17-.82,4.65.57,9.63-2.17,14C770.9,467.48,771.9,469,772.25,470Z"/><path class="cls-14" d="M1094,370.8l6.73,1c6.82,4.3,11.9,9.88,13.41,18.13,1.43,7.82,2.6,15.68.55,23.54-1.37,5.29-2.54,5.72-7.6,3.76-1.52-.58-3.23-.83-4.27-2.31-2.93-1.77-1.51-4.4-1.28-6.75.76-8-3.42-14.44-10.71-16.42-8.51-2.32-13.19,1-13.84,9.85-.25,3.47-.09,7.05-3,9.69-3.11,2.91-6.44,1.93-9.63.32s-1.66-4.6-1.42-7c.79-8.16,4-15.53,8-22.58,3-5.38,7.49-8.57,13.93-9C1087.91,372.75,1090.92,371.55,1094,370.8Z"/><path class="cls-32" d="M687.33,418c1.1-4,4.17-6.74,6.37-10A22.17,22.17,0,0,1,713,402.89c2.74-.2,4,2.15,5.65,3.56,5.16,4.26,6.72,10.55,8.35,16.52,1.28,4.66-1.3,7.23-7.43,9.15a72.6,72.6,0,0,0-23.3,9.68,40.42,40.42,0,0,1-9.1,4c-4.76,1.21-8.4-.24-10.77-4-2.47-3.93-.29-6.92,1.81-10a5.17,5.17,0,0,1,1.33-1.46C684.06,427.4,687.53,423.84,687.33,418Z"/><path class="cls-10" d="M1074,411.27c2-4.75.93-10.06,2.76-14.89,2-5.23,5-6.74,10.47-6.57,11.8.37,17.73,11,15,20.76a6.21,6.21,0,0,0,.53,4.33c-3.08,2.35-4.49,4.61.1,6.93a16,16,0,0,1,2.94,2.5c0,1.37-.08,2.47-1.67,3.17-9.68,4.28-23.89,1.62-32-5a2.19,2.19,0,0,1,.39-.29C1078.63,419.26,1076.62,415.3,1074,411.27Z"/><path class="cls-33" d="M1283,456.1c-2.3-2.2-3-4.51-1.08-7.44a19.77,19.77,0,0,0,2-5c2.46-7.74,7.5-10.58,16.06-9.45,9.94,1.31,19.45,3.59,25.33,13.15,1.37,2.24,2,4.32,1.13,6.44-2,4.5-3.23,9.27-6.07,13.48-2,2.88-3.67,3.35-6.44,1.91a17,17,0,0,0-14.66-14.52C1293.89,453.82,1288.22,453.34,1283,456.1Z"/><path class="cls-1" d="M964.14,516.87c.44-10.12-2.63-19.12-8.4-27.37a15.83,15.83,0,0,1-2.84-7.35A170.4,170.4,0,0,1,988.13,478a22.38,22.38,0,0,1,7.8,1.11c-6.54,9.43-15,17.48-19.66,28.31-1.87,4.33-6,7.36-10.18,9.82Z"/><path class="cls-18" d="M1283,456.1c.67-.86,1.16-2.13,2-2.5,8.14-3.48,22.29.48,27.51,7.82,1.56,2.19,4.11,4.6,1.44,7.75-2.57,6.65-5.48,13.05-12,16.86-8-2.65-14.81-7.37-21.77-11.85C1279.73,467.94,1280.35,461.86,1283,456.1Z"/><path class="cls-34" d="M718.89,431.14c8-2.92,8.48-5.18,5.32-13.2A36,36,0,0,0,713,402.89c3.65-5.92,9.17-6.36,13.53-1.26a33.74,33.74,0,0,1,7.11,13.77c1.17,4.32,1.3,11.53,9.74,11.19,2.34-.09,1.4,4.13.88,6.52-3.4,8.59-4.62,9.22-12.34,6.08-.23,3.46.35,7.53-4.65,8-.36-1.74-1.06-3.13-3.16-3.1A17.06,17.06,0,0,1,718.89,431.14Z"/><path class="cls-35" d="M643.08,292.33c5,2.58,10.63,1.46,16.26-.13.72-.21,1.9-1.27,2.53.12.49,1.09-.36,1.87-1.15,2.49a22.93,22.93,0,0,1-2.84,2c-2.6,1.46-4.54,3.16-3.87,6.62a3.93,3.93,0,0,1-1.75,4.33c-1.67.9-3-.55-4.46-1.29-3.9-1.94-5.85-5.63-8.48-8.72-1-1.22-1.69-2.62-.74-4S640.89,291.88,643.08,292.33Z"/><path class="cls-36" d="M813.84,513.94c-1.3,3.88.54,6.54,3.49,8.66,1,.76,2.37,1.14,2.82,2.53.3,5.7-3.64,8-8,9.9-2.42-4.17-7.52-7.1-6-13.08C807.94,518.53,809.36,514.77,813.84,513.94Z"/><path class="cls-37" d="M806.17,522c.45,5.07,5.24,8.15,6,13.08-6.33,6.44-12.12,5.74-16.07-2a27.63,27.63,0,0,0,7.29-9.48c.54-1.16,1-2.48,2.59-2.57A2.73,2.73,0,0,0,806.17,522Z"/><path class="cls-38" d="M931.19,443.48,929.32,440l2.45.06c8,.22,10.45,4.7,6.54,12C935.64,449.4,934.29,445.7,931.19,443.48Z"/><path class="cls-39" d="M1004.44,160.86c-1-2.87.43-4.52,1.75-6.3C1010.66,158.25,1006,158.86,1004.44,160.86Z"/><path class="cls-40" d="M811.5,265.05c-1.14-.08-2.54,0-2.28-1.73s1.72-1.24,2.77-1.23c.84,0,2.25-.52,2.28,1C814.29,264.81,813,265.16,811.5,265.05Z"/><path class="cls-41" d="M729,262c0,.15-.06.36-.17.45-1.28,1-1.32,3.43-3.56,3.41-.28,0-.87-.75-.79-1,.76-2.11,2.58-2.63,4.56-2.85Z"/><path class="cls-42" d="M733.94,279.51l4.45,2.22c-.3.37-.56,1-.92,1.06C735.82,283.08,735.25,281.78,733.94,279.51Z"/><path class="cls-43" d="M651,583.36c.94,5.45-2,9.73-4.86,13.63a113,113,0,0,1-18.39,19.36c-6.06,5-13,6.63-20.59,7-7.3,1.15-11.49-2.73-14.78-8.68-7.19-13-17.64-23.82-24.6-37.24-1.84,2.88,1.11,5.9-1.27,8.24a2.81,2.81,0,0,1-2.36,2.23c-4.67.37-9.23,2.23-14,1.07l-5.25-13a85.31,85.31,0,0,1,.07-35.15c1.34-6.47,5.73-11.37,8.26-17.2,4.5-.81,8.89,2.11,13.49.36.68-.26,1.28,1.32,1.89,2.07s1,1.3,1.65,1.94c-.58-1.75-2.67-2.62-2.44-4.69,7.53-4.56,8.66-12.35,10-20,7.53-.49,14.81-3.64,22.53-2.11,2.52.5,5,1,7.56,1.45,3.49-.76,6,1.37,8.56,3.08a133.12,133.12,0,0,0,13,8.2c4.83,2.53,7.38,7,10,11.36,1.12,1.89.33,3.86-.27,5.76-2.37,5.35-7.07,9.11-9.71,14.27a3.76,3.76,0,0,1-1.32.52c-1.76.23-2.93-1.06-4.34-1.73-.9-.11-1.26-1.52-2.38-1a21.58,21.58,0,0,0,2.54,2.68c9.37,10.37,17.59,21.63,25.78,32.91A5.94,5.94,0,0,1,651,583.36Z"/><path class="cls-3" d="M638.23,530.7c1.9-5.46-1.65-9.61-4.94-12.11-7.93-6-16.12-11.88-25.33-16a7,7,0,0,0,.06-2c-2.42-9.8,3.7-15.71,9.77-21.67,1.12-1.1,2.39-.94,3.72-.7,11.51,2.09,18.87-1.95,23.24-12.59A60,60,0,0,0,648.86,438c-.2-2.71.68-3.65,2.51-5.1,7.29-5.81,16.52-6.49,24.8-9.64A54.17,54.17,0,0,0,687.32,418c2.11,5.16.56,8.69-4.42,11.27-1.93,1-3.5,3.06-4.75,4.95s-2.94,3.7-1.16,6.27,3.72,4.82,7.55,4.5c4.31-.36,7.63-3.06,11.58-4.17,2.35,1.43,2.27,3.56,1.7,5.84-2.36,3.52-6.68,4-9.87,6.38-6.25,4.59-7.9,8.39-5.75,15.62a39.42,39.42,0,0,1,.87,18.6c-6.44,11.91-9.65,25-13.28,37.86-2.49,8.81-1.11,18.08,1.3,27a4.46,4.46,0,0,1-4.24,3.46c-5.89-5-12.13-9.57-17.49-15.17-.26-4.47-3.23-6.66-7-8.17C641,531.62,639.43,531.74,638.23,530.7Z"/><path class="cls-10" d="M540.68,507.8c-11-.2-19.41-14.91-14.25-24.42,4.26-7.83,10.24-14.76,19.26-17.8,6.72-2.27,15.42.32,18.85,6.31,2.79,4.89,5.93,9.83,6.48,15.73.12,1.29.06,2.37-1.6,2.44A5,5,0,0,1,566,488.3c-5-4.84-10.7-4.63-16.61-2.26-5.06,2-7.76,5.68-8.07,11.37C541.1,500.87,543.2,504.5,540.68,507.8Z"/><path class="cls-44" d="M577.87,503.26c.22,5.92.38,11.76-4.22,16.54a30.58,30.58,0,0,1-5.46,4c.48,1.16.85,2.3-.28,3.33-1.2-.27-.19-3.22-2.43-2.11-4.43,2.18-8.28,0-12.25-1.42-2.22-2-4.45-4-6.65-6-1.34-1.22-3-2.39-1.5-4.56a8.65,8.65,0,0,0,5.69-6.1c1.83-6,9.13-10.28,16.41-9.63,2.68.24,3.86-.61,4.9-2.6C576.39,496,576.3,500.18,577.87,503.26Z"/><path class="cls-45" d="M572.08,494.73v4.87a17.54,17.54,0,0,0-13.06.47c-4.06,1.7-7.54,4.48-7.76,8.84-.26,5-2.87,4.65-6.18,4.15l-4.4-5.26c-.23-3.12-.54-6.24-.66-9.36-.27-6.83,2.62-11.24,8.9-13.81,7.29-3,13.23-2.14,17.77,2.57.92.95,1.82,1.91,2.73,2.86C570.31,491.62,571.19,493.18,572.08,494.73Z"/><path class="cls-29" d="M633.06,432.36v11.36h-.65V432.15Z"/><path class="cls-1" d="M507,702c-9.38,7.37-19,14.5-28.09,22.15-25.17,21.11-48.62,43.9-67.54,71a24.15,24.15,0,0,0-1.4,2.61c-2.45-8.92-.49-17.27,3.38-25.33,2.09-4.33,4.76-8.44,6.41-12.93,3.31-9,11-13.43,18.42-17.9C459,729,480.09,716.8,501.11,704.52,502.93,703.46,504.75,702.17,507,702Z"/><path class="cls-46" d="M574.54,596c1.86,4.31,2,9,2.36,13.51.49,5.84,1.36,11.37,4.18,16.62,2.27,4.22,0,11.48-3.85,13.77-4.09,2.45-9.46,1.34-12.77-3.21-2.94-4.05-1.78-8.64.32-12.57,1.5-2.81,1.26-4.68-.32-7.23-3.05-4.91-5.68-10.08-8.49-15.14.09-.73.49-1.43,1.17-1.39C563.41,600.75,569.06,598.73,574.54,596Z"/><path class="cls-47" d="M574.54,596c-4.55,4.84-10.1,6.43-16.54,5-.92-.21-1.6-.15-2,.77-3.56-3.53-6.63-7.29-5.82-12.8,3.51-1.06,6.9-2.53,10.77-1.93a7.07,7.07,0,0,0,5.6-1.37C572,586.91,572,592.46,574.54,596Z"/><path class="cls-48" d="M1510.63,574.1c1.51.68,3.25.82,3.21,2.76s-1,3.2-3,3.13-2.17-1.66-2.22-3.2A2.4,2.4,0,0,1,1510.63,574.1Z"/><path class="cls-49" d="M1479.94,656.59c-1.64-3.17.46-4.76.52-6.7A8.43,8.43,0,0,1,1479.94,656.59Z"/><path class="cls-33" d="M1268,525l4.91-5.52c-2.86,6.38-5.31,12.83-8.19,19.09C1254.77,560,1242,579.89,1229.79,600c-11.19,18.51-21.41,37.58-32.84,56-1.75,0-1.65-.83-1-2l7-15c.5-4.06,3-7.24,4.78-10.72a46.77,46.77,0,0,0,2.77-4.59c-1.24,1.9-1.72,3.16-2.52,4.22-2.22,2.89-3,6.74-6,9.09-4.38,4.82-6.86,10.91-10.72,16.08-1.18,1.57-2.71,2.89-5,5.28-.71-6.18,1.08-10.62,3.65-14.7,4.39-7,9.24-13.71,13.6-20.73,9.66-15.57,18.32-31.73,27.51-47.58,10.27-17.71,20.65-35.37,32.76-52,3.65-5,6.54-10.56,11-15.06-1.39,5.86-4.78,10.69-7.85,15.67a31.22,31.22,0,0,1-4.29,8.05C1264.91,529.66,1265.25,526.46,1268,525Z"/><path class="cls-50" d="M1191.05,574.92l-8.27-4c9.07-8,17.44-16.65,26-25.17,1-.18,1.45.11,1.17,1.16Q1200.5,560.94,1191.05,574.92Z"/><path class="cls-51" d="M1255.72,514.37c-.88,1.75-2.42,3.08-4.32,2.58-4.49-1.17-8.75-3-12.11-6.38a3.33,3.33,0,0,1-.8-2.68c.31-1.16,1.63-1.05,2.55-.7,4.18,1.59,8.71,2.23,12.62,4.59C1254.69,512.4,1255.72,512.89,1255.72,514.37Z"/><path class="cls-52" d="M1268,525c-2,3.21-3.45,6.7-7.06,10.34,1.4-5,3.84-8.11,6.09-11.31Z"/><path class="cls-53" d="M1202,637c1.62-3.26,3-6.7,6-9l.06,0c-.71,4.11-3.3,7.36-5,11A2.07,2.07,0,0,0,1202,637Z"/><path class="cls-54" d="M1196,654a2.08,2.08,0,0,0,1,2c-.79,2.88-2.49,5.2-4.93,8.48C1192.44,659.76,1194.58,657,1196,654Z"/><path class="cls-55" d="M1278.07,588.11l-1-1.06,3.84-8.66A14.18,14.18,0,0,1,1278.07,588.11Z"/><path class="cls-56" d="M1209.93,547l-1.17-1.16q2-2.31,4.06-4.64C1213.27,544,1211.46,545.41,1209.93,547Z"/><path class="cls-57" d="M924.77,517l1.18-2c1.84-2.8,2-6.18,3.21-9.19.64-1.57,1.17-3.05,2.82-.79,2.31,3.74,4.54,7.52,6.94,11.2A13.74,13.74,0,0,0,947.1,522a2.13,2.13,0,0,1,.54.93l-13.27.3c-1.31-1.43-2.73-2.78-3.92-4.3C928.94,517,927,516.7,924.77,517Z"/><path class="cls-58" d="M920,529.13c-4.3,5-7.78,9.68-13.87,11.36-1.38.39-2.65.6-3.55-.71s-.94-2.57.33-3.54C907.75,532.54,912.85,529.41,920,529.13Z"/><path class="cls-58" d="M953.92,621.24c-2.17,6.42-6.35,8.14-10.6,9.39-2.61.76-4.57-1.1-5.08-3.54-.57-2.7,2-1.84,3.36-2.26C945.35,623.73,949.45,624.3,953.92,621.24Z"/><path class="cls-59" d="M886.52,634.66c-3.86,3.51-8.11,4.71-12.92,2.6-1-.45-2.35-.93-2.09-2.36.23-1.26,1.6-.79,2.46-1.1C878.22,632.27,882.24,634.81,886.52,634.66Z"/><path class="cls-60" d="M869.42,539c-5.68,1.23-11.43,2.5-16.71-3.72C859.2,535,864.31,536.87,869.42,539Z"/><path class="cls-61" d="M889,541.87c0-1.74,0-3.65,2.05-3.52,2.31.14,4,1.44,4,4.19,0,1.85-.76,3.79-2.51,3.78C889.93,546.31,889.34,543.89,889,541.87Z"/><path class="cls-62" d="M886.36,538.47c-3.9,2.72-6.88,4.67-10.94,2.74-.81-.39-1.42-.91-1.22-1.9a1.28,1.28,0,0,1,1.85-1C879.12,540,882.2,537.79,886.36,538.47Z"/><path class="cls-60" d="M900.05,559.49a11.51,11.51,0,0,1-4-7.93c-.07-1,0-2.13,1.34-2.25s1.61,1,1.61,2A25.47,25.47,0,0,0,900.05,559.49Z"/><path class="cls-63" d="M929.08,524.24c-1.68,1.76-3.34,3.52-5.05,5.25-.68.7-1.44,1.6-2.42.41s-.18-1.95.6-2.55c1.9-1.47,3.9-2.81,5.86-4.21C928.41,523.51,928.74,523.88,929.08,524.24Z"/><path class="cls-64" d="M901.43,572.21c-2.55-2.36-4.11-4.41-3.14-7,.77-2.1,2.43-.28,2.74,3.44C901.11,569.56,901.24,570.51,901.43,572.21Z"/><path class="cls-3" d="M651,583.36c-8-13.37-18.11-25.23-28-37.19a14.4,14.4,0,0,0-3.15-4.07c-1.29-2-.5-2.49,1.31-1.59a14.38,14.38,0,0,1,2.93,2.67c1.5.3,1.61,3.36,4,2l1-.17c4,2.16,6.82,6,11.45,7.12,6.82,6,15.79,8.67,22.32,15.26,4,4.07,10.08,3.7,14.54.73,4.95-2,5.47-7,7.52-11,.27-3.3,2-5.84,4.2-8.16.17,0,.45-.11.48-.05,3.51,6.39,9.57,10.75,13.45,16.85q.32,8.71.64,17.42a3.13,3.13,0,0,1-2.11,3C691.3,590.75,681.4,596,671.38,601c-.88.44-1.83.84-2.79.13-4.33-4.6-9.38-8.5-12.65-14.13C655,585.36,652.69,584.54,651,583.36Z"/><path class="cls-1" d="M668.59,601.11c11-5.65,21.77-11.75,33.33-16.26.69-.27,1.16-1.11,1.72-1.68,1.23,9,2.32,18.05,3.74,27a34.09,34.09,0,0,1-.27,12.22c-2.09,9.33,3,15.53,7.31,22.23,1.39,2.14,2.5,4.85,5.53,5.44A51.19,51.19,0,0,1,724,663c-4.22,0-8.46-.09-12.68.11-2.32.12-3.41-1.67-5.07-2.57L705,658.06c2.66-2.91.87-5.64-1-7.66-6.87-7.65-10.9-17.34-18.08-24.75S674.56,609.17,668.59,601.11Z"/><path class="cls-16" d="M703,565.75c-5.83-4.61-11.28-9.55-13.93-16.8,1.16-6.29,4.35-12,5.51-18.27.45-2.41,5-2.43,7.1-.26,1.77,1.84,2.15,4.36,3.2,6.56-.83,6.16-2.31,12.25-1.3,18.58C704.12,558.93,704.82,562.45,703,565.75Z"/><path class="cls-65" d="M733,556.61c.08-1.15.11-2.31.23-3.46.17-1.55-.91-4,1.13-4.33,2.51-.35,2.68,2.45,3.16,4.27.76,2.85,1,5.84,1.48,8.74.9,5.63,2.35,10.89,5.63,15.61.57.82,1.86,2,.76,3s-2.43.63-3.64-.19c-4.36-3-7.85-6.36-7.88-12.32C733.83,564.19,732.79,560.44,733,556.61Z"/><path class="cls-66" d="M742.46,548.47c3.84-4.58,7.7-7.85,12.79-9.5.85-.27,2.39-.22,2.84.32,2.54,3.11,6.18,4.29,9.56,6,1,.5,2.23,1.28,2,2.56-.23,1.53-1.73,1.86-3,2.08-3.74.63-6.61-1.47-8.69-3.9-2.33-2.72-4.06-2.07-6.64-.77S746.83,549.25,742.46,548.47Z"/><path class="cls-67" d="M708.07,561.66c1.53-3.88,3.21-7.49,3.62-11.53.22-2.08,2.48-1.45,4.15-1,3.44,1,6.89,2,11.2,1.08-1.74,3.31-4.34,3.72-6.77,3.72-3.8,0-6.73.64-8,4.9A3.89,3.89,0,0,1,708.07,561.66Z"/><path class="cls-1" d="M1039.75,485c-1.38,9.91-2.86,19.8-4.07,29.73-.57,4.69-.62,9.44-.9,14.16-.3.08-.6.18-.89.28-17.85-3.28-35.91-4.53-54-5.35,2.48-4.24,6.22-7.26,9.91-10.37,11.71-9.88,21.3-21.88,32.31-32.46A27,27,0,0,1,1039.75,485Z"/><path class="cls-1" d="M1102.78,536.92q3.66-14.43,7.32-28.85c.76-3,1.42-6.07,2.13-9.11,2.58-1.75,4.76-1,6.74,1.06,3.77,16,5.38,32.57,12.33,47.77.58,1.27.3,2.92.42,4.4l-26.57-7.36C1103.66,542.4,1105.21,539.06,1102.78,536.92Z"/><path class="cls-68" d="M1061.7,575.94c-4-1.33-5-3.88-4.58-6.87q1.52-11,3.46-21.92c.19-1.06,0-3.25,1.85-3,2.49.33.84,2.23.86,3.53.13,7.23-.92,14.33-2,21.45C1060.93,571.14,1061.5,573.3,1061.7,575.94Z"/><path class="cls-69" d="M1103.08,562.05a8.79,8.79,0,0,1-12.89-8.84c.21-2.22-1.51-6.36,1.45-6.7,2.42-.27,1.75,3.87,2.44,6.09C1095.43,556.94,1098.66,559.71,1103.08,562.05Z"/><path class="cls-70" d="M1033.59,549.34c2.47-.32,3.72-2.38,5.53-3.72,1.61-1.19,2.69-3.44,5.63-3.08-1,4.13-3,7.37-6.69,9.22C1036.26,552.68,1034.51,551.78,1033.59,549.34Z"/><path class="cls-71" d="M641.67,615a19.57,19.57,0,0,1,3.16,2.4c4.57,5.21,9.07,10.5,13.55,15.8.78.92,2.22,1.71.88,3.32a3.52,3.52,0,0,1-4.44,1.16,10.27,10.27,0,0,1-2.87-1.93c-4.92-4.6-7.7-10.75-11.46-16.18C639.58,618.21,639.07,616.11,641.67,615Z"/><path class="cls-72" d="M668.25,608.94c-3.88.32-6.43-1.52-8.46-3.77s-3.4-1.67-5,.41a28.85,28.85,0,0,1-4.93,4.95,23.16,23.16,0,0,1,6.22-10.93,2.17,2.17,0,0,1,3.17-.06C662.35,602.57,665.27,605.79,668.25,608.94Z"/><path class="cls-73" d="M625.05,638c-2.4-2.47-4.82-4.91-7.18-7.41-1-1-1.25-3.4-.07-3.08,3.25.89,5.51-1.2,8.25-1.56a2.19,2.19,0,0,1,1.59.91c.51.69-.12,1.32-.69,1.56-4.75,2-3,4.75-.87,7.54C626.73,637.15,626.77,638,625.05,638Z"/><path class="cls-74" d="M625.05,638a2.31,2.31,0,0,0,1-2c1.17,1.14,2.26,2.3,1.7,4.19C626,640.48,625.73,639,625.05,638Z"/><path class="cls-75" d="M1119,500l-6.74-1.06c.91-4.28,2-8.53,2.67-12.84.29-1.7.71-2,2.08-1.14A83.76,83.76,0,0,0,1119,500Z"/><path class="cls-76" d="M1039.75,485l-17.64-4c3.26-4.89,8.16-8.25,11.8-12.78,1.16,2.74,1.74,7.18,5.61,1.89.4-.54.88-1,1.63-.73,1,.39.87,1.32.75,2.08C1041.22,475.92,1040.47,480.44,1039.75,485Z"/><path class="cls-20" d="M947.64,522.94l-.54-.93c2,.21,4.22-.82,6,1Z"/><path class="cls-77" d="M863.36,421.11c-.56-5.25-4.71-9.39-4.46-15,.12-2.63.55-4.13,3.2-5.27,7-3,14-5.52,21.8-6,4.9-.28,7,1.53,7,6.32,0,5.59,0,11.19.08,16.79-5.16,3.76-10.12,7.51-17.09,7.86C869.14,426.08,866.71,423,863.36,421.11Z"/><path class="cls-78" d="M932,505c-3.76.41-2.31,4.1-3.68,6.06-.84,1.19-.42,3.25-2.35,3.92.88-3.44,1.72-6.89,2.65-10.32.24-.86.32-2.22,1.56-2.12S932,503.72,932,505Z"/><path class="cls-16" d="M683.07,487.22c-2.67-4.73,1.27-10.11-1.41-14.87-.19-.32.42-1.11.23-1.39-3.16-4.81-3-9.5.06-14.31s8.29-6.12,12.74-8.71a19.46,19.46,0,0,1,2.24-1c.67-.3,1.54-.26,1.77.32,2.13,5.22,6.7,7.19,11.52,8.88-2.55.92-6.39.75-3.74,5.52.72,1.3-1.38,2.27-2.77,2.92-6.22,2.88-7.06,4.72-6.17,11.52,1.18,9,.84,18.19,3.11,27.08a2.07,2.07,0,0,1-.51,1.76c-1.14.88-1.75-.34-2.41-.92-5.73-5-7.91-11.63-8.55-18.93-.13-1.4-.18-2.81-.27-4.32C685.78,482.17,688.79,488.52,683.07,487.22Z"/><path class="cls-33" d="M710.22,456.16c-5.74.37-10.11-1.29-11.54-7.57-.15-.65-1.15-1.09-1.75-1.63a14.77,14.77,0,0,0-.81-6.18c6.71-5.29,14.67-7.65,22.78-9.64l5.22,13c-1,2.21,1.49,4.14.27,6.58-1.88,3.76-4.32,5.94-8.77,5.37A34.84,34.84,0,0,0,710.22,456.16Z"/><path class="cls-79" d="M684.87,557.11c.42,5.7-1.87,9.72-7.33,11.76-7,.67-11.36-5-10.31-13.44l3.86-3.37c3.14,3.44,6.64,5.79,11.64,4.14C683.29,556,684.15,556.78,684.87,557.11Z"/><path class="cls-11" d="M1138.63,344.05c3.19,0,5.07,0,6.94,0,.88,0,2.27-.22,2.07,1.26a1.91,1.91,0,0,1-2.6,1.55C1143.25,346.28,1141.58,345.38,1138.63,344.05Z"/><path class="cls-42" d="M1094.81,356.05c-.4-.28-1.55.24-1.1-.95a1.81,1.81,0,0,1,1.08-.88,1.08,1.08,0,0,1,1.41,1C1096.33,356.24,1095.38,355.89,1094.81,356.05Z"/><path class="cls-80" d="M1294.27,468c2.39.05,7.93,6.85,7.63,9a1.8,1.8,0,0,1-1.65,1.59,3,3,0,0,1-3.39-1.58c-1.3-3.33-3.46-4.52-6.9-3.9a2,2,0,0,1-2.33-1.46,2.11,2.11,0,0,1,1.62-2.25C1291,468.81,1292.73,468.39,1294.27,468Z"/><path class="cls-81" d="M599.74,572c0-3.3-5.07-10-8.92-11.4-3.35-1.19-5.72-2.74-4.16-6.85.2-.53.18-1.58-.13-1.78-4.52-2.91-4.8-9.73-10.91-11.4a4.15,4.15,0,0,1-2.76-5.85c1-2.48,3-2.9,5.09-2.26,2.69.82,4.3,2.59,2.8,5.62-.74,1.49-.09,2.37.89,3.42,3.77,4,5.32,10.37,12.19,11.15a3,3,0,0,1,2.31,2.92c-.17,6.83,3.65,10.53,9.65,12.82,2.76,1,2.47,4,1.9,6a4.68,4.68,0,0,1-4.82,3.48C599.48,577.45,600,574.39,599.74,572Z"/><path class="cls-47" d="M640.1,552.86c-5.22-.45-8.23-4-11.06-7.85,1.05-6.06,6.91-9,9.19-14.3,6.61-1,12.24,3.55,11.67,9.38-3.68,2.59-6.75,5.62-7.76,10.24A3,3,0,0,1,640.1,552.86Z"/><path class="cls-82" d="M625,604.09c-6.37-6.59-13-13-17.35-21.19-.62-1.17-2.54-2.44-.52-3.67,1.55-.94,2.57.51,3.57,1.74,5.48,6.75,11.34,13.22,15.51,20.94C626.64,603.1,626.75,604.11,625,604.09Z"/><path class="cls-83" d="M567.91,527.11c.09-1.11.19-2.22.28-3.33a11.53,11.53,0,0,1,1.9,1.46c1.41,1.61,3.56,4.1,2.09,5.41C571,531.69,568.81,529.1,567.91,527.11Z"/><path class="cls-84" d="M625,604.09c1.22-.28,1-1.36,1.21-2.18.8,1.09,2.32,2.32,1,3.57C626.27,606.45,625.28,605.37,625,604.09Z"/><path class="cls-85" d="M628,545.18c-2.68,2-3-.7-4-2C625.86,542.91,626.41,545.1,628,545.18Z"/><path class="cls-85" d="M619.83,542.1c1.9.69,3.19,1.87,3.15,4.07A7.68,7.68,0,0,1,619.83,542.1Z"/><path class="cls-45" d="M640.1,552.86a24.85,24.85,0,0,1,6-11.9c1.44-1.53,2.46-.88,3.77-.87,4.53,3.93,9.66,7.09,13.85,11.5,1.18,1.24,2.2,2.68,3.48,3.84.58,2,1.23,4,1.74,6,1.12,4.51,4.35,6.53,8.57,7.43-2.78,3.13-8,3.61-12.71,1.48s-7.1-7.22-12-9.17A34.2,34.2,0,0,1,640.1,552.86Z"/><path class="cls-86" d="M567.6,504.23c-2.55,4.06-5.62,5.84-8.78,7.52a1.83,1.83,0,0,1-2.29-.06c-.74-.77-.08-1.53.43-2.13A13.75,13.75,0,0,1,567.6,504.23Z"/><path class="cls-87" d="M1226,595c8.94-16.55,18.21-32.92,28-49,.92-.22,1.42,0,1.06,1L1227,597C1225.17,597.08,1225.33,596.17,1226,595Z"/><path class="cls-88" d="M1226,595a2,2,0,0,0,1,2l-6,10q-.51.63-1,0A64.24,64.24,0,0,1,1226,595Z"/><path class="cls-89" d="M1255,547.06l-1.06-1c1.13-2.88,2.44-5.65,5.08-7.6A21.58,21.58,0,0,1,1255,547.06Z"/><path class="cls-52" d="M1219.91,607h1c-1.35,2.54-2,5.6-4.94,7h0C1216,610.94,1217.73,608.84,1219.91,607Z"/><path class="cls-90" d="M1208,628c.4-2.52,1.77-4.51,4-7.51-.41,4-1.7,6-3.89,7.55Z"/><path class="cls-52" d="M1216,614c.15,1.94-.38,3.51-2.9,4.58A9.9,9.9,0,0,1,1216,614Z"/></svg>