<svg id="Ebene_1" data-name="Ebene 1" xmlns="http://www.w3.org/2000/svg" viewBox="0 0 1871 1334"><defs><style>.cls-1{fill:#08a49c;}.cls-2{fill:#005c58;}.cls-3{fill:#fefefe;}.cls-4{fill:#f07b60;}.cls-5{fill:#1f1972;}.cls-6{fill:#f13b7a;}.cls-7{fill:#e79071;}.cls-8{fill:#073380;}.cls-9{fill:#2a4c6a;}.cls-10{fill:#b98c8e;}.cls-11{fill:#b7b396;}.cls-12{fill:#50beb8;}.cls-13{fill:#d0edeb;}.cls-14{fill:#bbe5e3;}.cls-15{fill:#f85a6b;}.cls-16{fill:#ca5a4e;}.cls-17{fill:#073381;}.cls-18{fill:#581a75;}.cls-19{fill:#903133;}.cls-20{fill:#e79171;}.cls-21{fill:#11a8a0;}.cls-22{fill:#d07570;}.cls-23{fill:#ecc077;}.cls-24{fill:#57c1ba;}.cls-25{fill:#913133;}.cls-26{fill:#705fdb;}.cls-27{fill:#c46b79;}.cls-28{fill:#b8b396;}.cls-29{fill:#b5b194;}.cls-30{fill:#e3886c;}.cls-31{fill:#bbb193;}.cls-32{fill:#1c675f;}.cls-33{fill:#c95a4f;}</style></defs><path class="cls-1" d="M912,.08h855.91c7.7,3.83,13.72,9.91,19.7,15.75,22.59,22,45,44.28,65.68,68.17,4.77,5.51,9.78,10.82,14.34,16.52,1.39,1.74,2,3.79,3.27,5.55V1262.88a7.37,7.37,0,0,1-5.72,2.66c-6.48.29-12.81,1.92-19.19,2.24-8.62.43-17,2.82-25.65,2.64-9.76-.2-19.36,2-29.08,2.81-8,.68-16.08,1.86-24.18,2.2-.65,0-1.28.43-1.95.38-11.49-.89-22.83,1.49-34.12,2.63-11,1.12-22.15.73-33.12,2.42a110.29,110.29,0,0,0-24.9.25,7.6,7.6,0,0,1-1.49.19c-17.16-1-34.1,3.31-51.29,2.12-3.63-.25-7.33-.05-10.69,1.76-3,1.19-6.24.8-9.39.79-27.27-.06-54.52,1.64-81.74,2.63q-30.42,1.11-60.82,1.31c-51.32.26-102.66,1-153.94-.3-23.59-.58-47.29-.16-70.77-2.12-14.82-1.25-29.59-.42-44.3-1.68-11.32-1-22.76.47-33.89-1.13-11.79-1.69-23.65-.43-35.26-2-17-2.33-34.26-1-51.17-3-11.52-1.42-23.2-.43-34.62-3.21-6.59-1.61-13.61-.7-20.39-.88-10.16-.26-20.11-2.21-30.22-2.59-9.6-.37-19.08-2.48-28.73-2.47-1.29,0-2.63-.39-4-.42a228.9,228.9,0,0,1-33.53-3.74c-4.93-.85-10-.56-14.93-.73a192.72,192.72,0,0,1-25.17-2.89c-12.29-2.07-24.73-2-37-4.11a287.4,287.4,0,0,0-30.11-3.64,137.31,137.31,0,0,1-23.06-3.45c-3.75-.91-7.61-.55-11.42-.94-14.19-1.44-28.22-4.09-42.33-6-12.91-1.75-25.89-3.61-38.75-6-8-1.49-16.1-2.4-24.08-3.77-11.75-2-23.53-3.91-35.24-6.14-7-1.33-14.11-2-21.09-3.57-10.64-2.48-21.45-4.27-32.18-6.34-10.91-2.1-21.72-4.68-32.64-6.69-11.75-2.17-23.29-5.27-35-7.72-10.06-2.11-20-4.81-29.92-7.46-9.76-2.6-19.68-4.58-29.31-7.79-6.74-2.24-13.68-4-20.55-5.88-15.38-4.19-30.43-9.36-45.6-14.19-13.95-4.44-26.67-11.38-39.25-18.42a112.15,112.15,0,0,1-29.17-23.2c-4.43-5-4.56-11.87-3-18.52,2-8.55,4.91-16.85,7-25.37,5-14.68,8.43-29.87,14-44.39,2.92-13.35,7.65-26.17,11.65-39.19q7.08-23.1,14.8-46c5.27-15.58,10.31-31.25,15.73-46.78,10.08-28.88,20.05-57.79,30.74-86.46,3.89-10.43,7.82-20.86,11.66-31.32,1-2.74,1.4-6.47,5.63-6.72a4.18,4.18,0,0,1,2.6,3.43c.82,5.78,3,11.26,3.88,17,.65,4.34,1.49,8.44,3.6,12.26a21.49,21.49,0,0,1-.23,6.41c-1.12,8.73,3.7,13.58,10.71,17.13,4,2,7.58.51,10.5-2.08a10.74,10.74,0,0,0,3.3-9.93c-.33-2.19-2.18-2.5-4.2-2.56-7.07-.2-8.19-1.52-7.71-8.74,3.14-8.51,1.81-17.14,1.32-25.9-.81-14.42-5.6-27.46-11.59-40.27a7.36,7.36,0,0,1-.89-3.83c1.21-2.24,2.89-4.22,3.73-6.69,1.39-1.82,3.43-2.47,5.49-3.15,3.61-1.18,7.23-2.3,10.35-4.63a9.74,9.74,0,0,1,5.58-1.83c4.11-.13,6.87,2.16,5.8,6-2.29,8.26.29,16,1.26,24-.11,3.81-.78,7.58-1.15,11.37-.43,4.38,1.78,7,6.08,7.36a19.88,19.88,0,0,0,20.05-11.64c1.5-3.21,1.11-5.8-1.53-8-2.93-2.42-4.4.39-6.21,1.9-1.64,1.37-3.34,3.39-5.63,2-2.6-1.58-.56-4.26-.8-6.44,1.81-9,6.36-17.14,8-26.19.65-3.59,1.54-7.12,1.55-10.82,0-6.15-2-9-7.95-10.84-6.45-2-12.84-.5-19.22.56-2.59.42-5.19,1.4-7.79,0-2-2.39-.71-4.81.19-7,6-14.6,12-29.17,18.28-43.65q11.64-27,23.81-53.73c10.63-23.45,21.42-46.83,33-69.82,1-2,2.17-3.79,4.68-4a4.68,4.68,0,0,1,4.16,3.5c.1,5,.3,10-.54,14.87-1,5.91.12,11.55.7,17.31.93,9.38,8.25,14.46,13.74,20.7s12.35,11.09,17.24,17.89c.18,4.25-2.5,7.82-2.86,11.95-.24,2.72-1.82,6.56,1,7.68s4.31-2.73,5.7-5.05c3.89-6.47,5-13.61,4.92-21,0-1.66-.94-2.77-1.67-4-4-9.66-6.89-19.72-11.57-29.11-1.43-2.87-1.3-6.24-.55-9.32,2.09-8.56,1.67-17.09.23-25.66-.41-2.47-1-5.26,1.47-6.85,2.28-1.46,4.54.19,6.44,1.43,3.18,2.08,6.8,2.64,10.37,3.22,3.21.52,4.84,2.27,4.91,5.25.2,9.57,4.63,16.71,12.25,22.12.18.27.47.61.39.88-2.51,8.66,5.07,11.45,9.43,16.05.94,1,2.42,2,4,.91,1.39-1,1.17-2.65,1.06-4.11-.16-2.23-1.42-4-2.56-5.83-2.36-3.78-5.38-7.13-7.44-11.11-.86-2.32-.22-4.6.24-6.86,2.69-13.11-.08-25.32-6.18-36.94a16.78,16.78,0,0,0-6.55-6.68c-5.44-3.11-10.53-6.93-16.59-8.9a72.77,72.77,0,0,0-11.17-19.75,15.15,15.15,0,0,1-.26-8.07q16.27-31.22,33.4-62a30.44,30.44,0,0,1,2.69-4.16,8,8,0,0,0,2.43-4.19c10.36-18.95,20.87-37.82,32.5-56a6.81,6.81,0,0,0,2.38-3.94c4.82-8.85,10.5-17.16,16.09-25.53a11.6,11.6,0,0,0,1.88-4,84.91,84.91,0,0,1,10.83-13.53c10.83-11.42,22.75-21.71,33.89-32.82,1.51-1.51,3-3.09,5.4-3.25,1.62.07,2.59,1.24,3.78,2.12,1.37,1,1.16,4.4,4.19,2.91,3.53-1.72,5.87-5.66,4.91-8.82-1.29-4.26-3.07-8.38-4.28-12.68-.28-5.75,1-11.55-.57-17.25-.28-2.56,1.18-4.41,2.56-6.3,13.18-18.19,26.81-36,40.6-53.77q20.39-26.2,42.08-51.29c11-12.72,22-25.45,33.92-37.29s22.61-24.93,35.18-36.14c12.06-10.76,23-22.66,35.19-33.3C908.16,1.89,910.26,1.32,912,.08Z"/><path class="cls-2" d="M293.13,1154.93c20,15,42.89,24.71,65.92,33.84,27.59,11,55.89,19.86,84.39,28,31.55,9.07,63.39,17,95.43,24.2,25,5.59,50,10.72,75.13,15.72,21.08,4.2,42.34,7.52,63.54,11.16,21.53,3.69,43.06,7.46,64.64,10.87,14.7,2.32,29.49,4,44.23,6.12,13.43,1.9,26.84,4,40.28,5.84,9.1,1.24,18.26,2,27.38,3.17,9.75,1.2,19.46,2.69,29.22,3.83,10.11,1.19,20.27,2,30.39,3.16,10.75,1.2,21.48,2.63,32.23,3.81,7.68.85,15.4,1.41,23.09,2.18,12.58,1.27,25.13,2.92,37.73,3.82,8.38.6,16.74,1.42,25.1,2.17,14.75,1.33,29.49,2.7,44.24,3.93,4.76.4,9.53.43,14.32.91,11.66,1.16,23.42,1.25,35.11,2.22,15.81,1.32,31.63,2.24,47.46,3.07,12.22.65,24.43,1.37,36.65,2,14.56.77,29.12,1.3,43.68,2,19.07.9,38.16,1.14,57.2,2.1,14.32.72,28.6.19,42.88.78,53.61,2.2,107.24.81,160.85.68,15.26,0,30.64.28,45.87-.92,10.82-.85,21.61-.15,32.37-.86,16.72-1.1,33.47-1.29,50.2-2.06,13.06-.6,26.12-1.31,39.17-2q23.75-1.28,47.49-3c12.66-.9,25.35-1.68,38-3,15.35-1.62,30.78-2.5,46.09-4.74,10.07-1.47,20.3-1.83,30.39-3.21,9-1.24,18.23-1.72,27.15-3.92,0,8.17-.1,16.34.06,24.5,0,2.15-.41,3-2.57,2.52a10.16,10.16,0,0,0-2,0H623.05c-10.16-3.75-20.86-5.38-31.32-7.89-45.07-10.86-89.71-23.22-133.81-37.46-43.24-14-85.51-30.32-125.74-51.62A329.13,329.13,0,0,1,280.57,1203c-13.23-10.59-26-21.59-34.69-36.33-6.16-10.47-12.5-20.9-15.91-32.84-4.95-17.35,0-32.11,11.09-45.24a76.69,76.69,0,0,1,22.87-18.69c2.14,2,1.15,4.31.72,6.52-1.6,8.3-4.27,16.39-4.61,24.92-.06,3.41-4.55,2.38-5.21,5.2a15.1,15.1,0,0,1-1.23,5.3c-3.16,6.06-.37,10.51,3.94,14.37,2.25,2,3.76,4.13,3.66,7.23a6,6,0,0,0,.82,2.83c3.34,6.74,3.19,7.46-2,12.94-3,3.21-6.39,6.22-7.66,11.31,3.22,0,4.92-2.29,7.05-3.5,5.46-3.1,8-1.85,8.56,4.33.18,2.14-.23,4.33.61,6.4a.83.83,0,0,0,.9.53c1.73-3.65-.87-8.33,2.47-11.65,3.27-.31,4.17,2.28,5.09,4.48,1.49,3.53,3.85,5.28,7.69,4.63a7.05,7.05,0,0,0,6.33-6.55C291.3,1157.57,291.45,1155.88,293.13,1154.93Z"/><path class="cls-3" d="M427.88,782.71c-4,6.25-5.68,13.47-8.33,20.26-5.52,14.1-10.4,28.46-15.48,42.74-7.08,19.9-14.23,39.77-21.14,59.74-6.65,19.24-13.19,38.52-19.49,57.89-5.38,16.58-10.25,33.34-15.54,50-2.81,8.8-5.92,17.51-8.14,26.49a18.4,18.4,0,0,1-8.29,4.3,261.47,261.47,0,0,0-50,18.38c-2,1-4.21,2.19-6.59.67-1.45-2.35-.81-4.85-.37-7.28a1063.42,1063.42,0,0,1,29.34-120.13,1549.78,1549.78,0,0,1,63.52-171.17c1.18-2.7,2.08-5.66,5.16-7,2.76.44,3.1,2.7,3.5,4.82,2.84,15.16,12,24,27,27.06,5.4.75,12.07-4.15,14.39-10.56.91-2.5,1.16-5.18,2.08-7.68.62-1.68.88-3.6,2.75-4.54C426,769.1,428.89,777.37,427.88,782.71Z"/><path class="cls-4" d="M579.2,491.77c1.37-.64,2.59-1.09,4.16-.1,4.7,2.94,9.74,5.38,14.27,8.55,7.83,5.5,9.93,14.43,12.3,22.89,2.68,9.58.93,19.27-.83,28.84-.49,3.53-2,5.55-5.93,4.1-7.54-2.44-13.67-10.66-14.11-18.93-.06-1.16-.13-2.32-.13-3.49,0-2.68-.57-4.17-4-4.14-5.75.06-10.64-3-15.46-6.25-1.36,4.15.19,7.9.83,11.38,1.36,7.38.4,14.37-1,21.49-.93,4.53.66,8.42,2.69,12.54,4,8.05,6.7,16.64,9.22,25.27a10.65,10.65,0,0,1-3.52,10.17c-1.59,1.43-3.44,2.64-5.68,1-6.41-4.05-10.7-10.43-16.55-15.1-4-3.18-6.23-7.85-10.44-11-3.24-2.44-4.38-7.06-5.32-11.37-2.45-11.27-1.1-22.4.53-33.56.93-2.74,3.16-4.17,5.53-5.45s4.74-3.08,7.15-4.49c11.43-6.68,16.5-18.32,23.07-28.8C576.8,493.89,577.36,492.24,579.2,491.77Z"/><path class="cls-5" d="M513.82,505l-3.66-4.11c-3-1.3-3.09-4-3.06-6.64,0-1.79.29-3.58.29-5.38-.19-6.7-2.94-12.33-7.11-17.42a3.19,3.19,0,0,0-1.65-1.34c-8.9-3.09-12.18-13.42-6.21-20.8,5.63-7,12.55-11.66,22.29-8.44,3,1,5.78-1,8.73-.88,5.59.23,11.11,1.63,16.75,1,9.16-1.74,16.33,2.25,22.93,7.92,4.28,4.26,7.78,8.83,6.06,15.44l.1,8.58a12.58,12.58,0,0,1,.82,9.63,53.68,53.68,0,0,1-6.29,15.62c-6.93,10.82-15.64,12.31-25.31,4-7.23-6.19-11.28-14.3-8.81-23.91,1.76-6.84-1.09-11.41-5-16-3.12-2.2-6.27-4.34-9.36-6.58-2.12-1.53-3.47-1.47-4.56,1.09-.9,2.13-2,4.17-3.11,6.23-2.92,5.61-2.69,6.09,3.5,8.19,3,1,6.19,1.33,8.88,3.15,5.21,5.16,5.88,8.75,2.7,15.06a117.18,117.18,0,0,0-5.45,11.7C516.64,502.8,515.85,504.49,513.82,505Z"/><path class="cls-2" d="M682,659.09a162.69,162.69,0,0,1,6.88-29.79c11.53-34.2,24.85-67.63,42.91-99,5.78-10.07,9.86-21.09,16.81-30.53.49-.67.84-1.44,1.38-2.07.75-.89,1.62-1.86,3-1.31s1.11,2,.83,3c-4,15.72-6.27,31.83-10.54,47.51-6.74,24.79-19,47.11-30.72,69.64-7.67,14.77-14.63,29.83-21.53,45-1.07,2.32-1.64,5.93-5,5.12S682.06,662.46,682,659.09Z"/><path class="cls-6" d="M525.17,460.59c.48-.06,1.31-.3,1.37-.17,2.69,5.69,8.56,10,5.08,18.07-3.11,7.24,2.21,18,8.65,22.54,4.28,3,8.37,7.09,14.16,3.66a21.55,21.55,0,0,0,8.9-9.6c3.19-7.06,6-14.23,5.95-22.17,5,5.4,10.46,10.54,9.92,18.85-6.05,11.36-10.71,23.5-22.06,31.41-5.54,3.85-11.3,7.26-17,10.85l-3.35-3.47a45.94,45.94,0,0,1-7-16.63c-7.72,13.5-12.25,28.21-16.85,43-2.13,6.82-3.34,14.17-7.92,20.1-1.38,1.79-2.52,4.64-5.18,3.73-2.94-1-3.85-4.13-3.47-7,.59-4.33,1-8.78,3.2-12.74.24-.42.72-1,.62-1.3-2.44-8.89,1-17,3.94-24.9,3.66-9.81,5.34-20.22,9.68-29.78a82.94,82.94,0,0,1,8.26-18.63c2.82-4.74-1.13-7.81-3.13-11.32C520.42,470,521,464.5,525.17,460.59Z"/><path class="cls-2" d="M275.26,1062.89c12.32-5.41,24.44-11.23,37.32-15.34,9-2.87,18.09-5.31,27.18-7.76-3.24,10.64-6.38,21.32-9.78,31.91-1.17,3.64-1.29,7.81-4.5,10.61-15.31,7.5-30.85,14.62-44.26,25.45a1.25,1.25,0,0,1-1.35.37c-4-3.42-5.68-8.75-10-11.85-1.27-3.08-.54-6.14-.13-9.28.74-5.74,1.7-11.45,2.41-17.19C272.43,1067.23,272.62,1064.47,275.26,1062.89Z"/><path class="cls-3" d="M569.18,464.34A27.49,27.49,0,0,0,561.84,450a5.15,5.15,0,0,1-.05-4.78c5.42-9.94,6.93-20.87,8.18-31.87a14.19,14.19,0,0,1,2.4-6.43c7-8.44,13.12-17.49,19.89-26.09,17.58-22.32,35.51-44.34,54.88-65.16,2.71-2.92,5-6.27,8-8.84,1.44-1.2,2.82-3,5.14-1.61-2,6-6.36,10.56-9.21,16.05-2.52,4.85-5.91,9.25-8.91,13.86-1,1-.84,2.84-2.26,3.65q-16.4,28.15-32.78,56.33c-1,1.17-.95,2.86-2.12,3.92q-17.32,32-34.68,63.9A9.34,9.34,0,0,1,569.18,464.34Z"/><path class="cls-2" d="M656.58,942c-1.3-8-.29-15.18,1-22.27,5.87-31.31,16.64-61.07,28.23-90.61,5.82-14.84,10.51-30.11,15.73-45.17.76-2.2,1.64-4.36,2.47-6.53,1.16-3.06,3.67-3.74,6.49-3.31,3.08.47,2.58,3,2.48,5.15-.47,10.69-3.89,20.81-6.31,31.11a477.62,477.62,0,0,1-37.85,105.19c-3.33,6.67-5.85,13.75-8.71,20.65C659.39,938,658.91,940,656.58,942Z"/><path class="cls-2" d="M1790.87,888.85c-.14-22.81,3.57-42.08,6.21-61.45.6-4.38,4.74-6.83,10.33-6.39,4.37.35,6.24,2.3,6.7,7.26,1.74,18.81,0,37.58-.59,56.29s-5.5,37.33-10.9,55.48c-.43,1.46-.76,3.66-3,3.42-1.81-.19-1.94-2.22-2.21-3.56-2.33-11.52-4.62-23-5.61-34.79C1791.28,898.64,1790.74,892.2,1790.87,888.85Z"/><path class="cls-2" d="M1843.91,1139.05c-1.51,36.06-5.86,71.6-19.11,105.52a107,107,0,0,1-5.47,11.18c-.6,1.12-1.69,2.32-3.22,1.79s-1.2-2.23-1.11-3.46c1.29-17.49,2.33-35,4-52.45,1.63-16.64,5.58-32.93,8.32-49.41,1.22-7.33,2.64-14.64,2.64-22.15,0-6.27,2.38-8.35,8.06-8.16,4,.13,6.14,1.84,5.89,6.16C1843.74,1131.72,1843.91,1135.39,1843.91,1139.05Z"/><path class="cls-7" d="M660.32,305.2c-7.46,4.69-12.16,12.15-18,18.4-9.37,10-17.84,20.88-26.72,31.36-13.56,16-26.29,32.63-38.85,49.41a7.66,7.66,0,0,1-2.75,2.79c-2.87-2.55-1.4-6-1.86-9,.53-3.33,2.62-5.69,4.89-7.94,10.49-12.95,20.89-26,31.5-38.83,6.64-8,13.38-16,20.46-23.67,13.07-14.14,25.89-28.53,39.79-41.88,4.67-4.47,9.42-8.86,14.13-13.29a17.61,17.61,0,0,1,1.85-2.95c4.92-4.8,9-10.55,15.45-13.75-1.46.31-2.77.3-3.52-1.1s.22-2.47,1.13-3.45a24.14,24.14,0,0,1,5.53-4.9,20.75,20.75,0,0,0,3.26-2.4c-.5.52-1.42,1.13-2.28,1.82-2.18.47-3.19,3.86-6.12,2.43-2.11,1.07-3.77.51-5.11-1.34-2.44-3.35-.34-6.22,1.64-10.15-2.72,1.91-4.75,2.3-5.48-.45-.56-2.13-.79-4.51,2.69-4.33a6.46,6.46,0,0,1,1.48-2.58,119.71,119.71,0,0,0,15.5-15.45c1.63-1.37,3.67-2.35,5.26-.65,2.23,2.39.1,4.89-.66,7.31,1.38.83,2.89.29,4.35.38,1.6,1.17,2.65,2.78,2.1,4.71-1.23,4.41.8,9.05-1.11,13.36.34,4.89-2.92,8-6.06,10.74a12.37,12.37,0,0,0-3.81,6.11C692.67,272.22,674.5,286.75,660.32,305.2Z"/><path class="cls-2" d="M1837.91,568.4c-1,20.69-1.57,42.41-3.15,64.06-1.8,24.66-8.09,48.6-13.15,72.72-.27,1.28-.2,3.7-1.87,3.66-2.09-.06-1.56-2.39-1.84-3.93-3.31-18.48-2.41-37.16-1.69-55.69.6-15.14,3.74-30.18,5.49-45.29,1.56-13.47,2.93-27,5.22-40.34.4-2.28.6-4.69,2.37-6.39,1.92-1.84,4.41-1.44,6.63-.89s1.95,2.79,2,4.59C1837.94,563.06,1837.91,565.23,1837.91,568.4Z"/><path class="cls-2" d="M1418.6,1272c-2.43-6.32-2.25-12.38-2.47-18.19-.5-13-.63-26,0-39,.55-11.54,2.24-23,3.51-34.55,1.06-9.54,2.26-19.06,3.33-28.59s2-19.08,3-28.63c.3-2.8,1.92-4,4.65-4.18s4.58,1.23,5,3.78a74.15,74.15,0,0,1,.34,8.45c.64,17.14-.48,34.24-1.12,51.34-1,28.22-6.12,55.88-12.84,83.26A12.28,12.28,0,0,1,1418.6,1272Z"/><path class="cls-2" d="M1620.91,216.36c.8,15.14-1.11,30.1-3,45.07-.16,1.33-.16,2.94-1.78,3.14-2,.25-2.46-1.68-2.8-3q-3.55-13.7-6.83-27.46c-5.14-21.64-9.83-43.32-8.65-65.81a100.48,100.48,0,0,1,1.22-10.86c.65-3.9,5.81-7.08,10.54-6.17,3.71.7,6.15,2.4,6.51,7.25.87,11.85,2.56,23.65,4.25,35.42C1621.45,201.45,1620.47,208.91,1620.91,216.36Z"/><path class="cls-2" d="M607,958.83c-4.19,22.1-6.5,46.13-16.58,68.38-5.9,13-12.16,25.86-19.25,38.29a8.25,8.25,0,0,1-1.37,2c-.76.71-1.33,2.23-2.75,1.39-1-.57-.74-1.66-.65-2.71A313.73,313.73,0,0,1,582,992.49c3.57-10.7,6.61-21.59,10.22-32.28,1.22-3.63,2.15-7.91,6.86-9.09C605.08,949.62,607.16,951.26,607,958.83Z"/><path class="cls-2" d="M1452.84,771.76c1.57,13.6,1.24,27.25,1.07,40.87-.24,18.36-4.32,36.13-8.9,53.8-.2.75,0,1.85-1.08,2s-1.58-.93-2.1-1.78c-2.6-4.26-3-9.21-3.55-13.87-1.74-13.81-3.93-27.67-3.2-41.62.87-16.71,2.55-33.38,3.79-50.07.26-3.48-.06-7,.16-10.49.27-4.13,1.6-7.54,6.67-7.6,2.85,0,4.79.9,5.28,4A171.08,171.08,0,0,1,1452.84,771.76Z"/><path class="cls-8" d="M451.14,709.93l6.2-2.06c7.12-1.51,14.21-2.91,21.57-3,5.79-.06,10.7,1.93,14,6.2,3,3.86,1.19,8.91.65,13.36-1.18,9.6-5,18.5-8.07,27.59-.53,1.56-.87,3.18-1.29,4.77a22.85,22.85,0,0,1-3.41,4.16c-3.4,3.62-7.61,3.14-10.6-1-1.71-8.08-5-16-1.51-24.47.52-1.24.8-2.86-.21-3.77a4.75,4.75,0,0,0-5.62-.42c-5.6,4.43-12.65,5.4-18.8,8.45a1,1,0,0,1-1.44.3c-1.73-1.3-1.76-3.17-1.36-5,1.48-6.59,2.46-13.3,4.43-19.77C446.51,712.74,447.42,709.82,451.14,709.93Z"/><path class="cls-2" d="M1389.67,1243.54c-5.85-6.51-6.79-13.41-8.24-19.94a212.63,212.63,0,0,1-5.27-46.3c0-16.71,2.52-33.31,5.88-49.72,1-5,5-4.62,8.62-4.62,3.9,0,4.36,2.53,4.34,5.74-.1,13,.53,26-.18,38.94-.92,16.67-1.39,33.4-3.68,50-.88,6.38-.82,12.89-1.18,19.34C1389.87,1238.73,1389.8,1240.49,1389.67,1243.54Z"/><path class="cls-2" d="M363,1058.74a135.66,135.66,0,0,1,7.53-28.49c7-18.92,15.23-37.2,28.76-52.54,4.6-5.21,9.11-10.58,15.08-14.37.88-.56,2-1.64,3.13-.71s.15,2.18-.27,3.2c-4.52,11-9.23,22-13.6,33.14-6,15.19-14.64,29.09-21,44.06-2.74,6.4-5,13-7.76,19.39-1.09,2.56-1.27,6.55-5.24,6.3-3.76-.23-4.49-4-5.84-6.78A13,13,0,0,1,363,1058.74Z"/><path class="cls-8" d="M427.88,782.71q-2.82-7.89-5.63-15.79c-4.63-3.35-3.42-7.85-2.44-12.31,6.64-3.87,13.21-7.86,18.64-13.47a3.16,3.16,0,0,1,3.76-.37c1.21,2.34-1,3.12-2,4.41,6.42,12.32,12.28,24.68,13.11,39,.43,7.47,1.6,14.92,1.77,22.46.09,3.6-1.54,6.35-3.08,9.25-4.93,5.49-11,5.5-14.73,0-3-2.94-3.83-6.45-4.37-10.64C431.87,797.69,429.61,790.23,427.88,782.71Z"/><path class="cls-2" d="M1780.7,347.31c-3-6.56-4-12.95-5.41-19.12-4.54-19.18-9.58-38.25-12.79-57.73a210.58,210.58,0,0,1-2.59-24.16c-.57-11.59-1.39-23.17-1.91-34.75-.11-2.54-1.26-6,3.28-6.47,4-.4,5,2.13,5.72,5.36,2.69,12.12,3.82,24.49,5.94,36.71,2.14,12.38,4.16,24.78,5.52,37.27,2.19,20.28,4.43,40.56,3.31,61C1781.76,345.72,1781.47,346,1780.7,347.31Z"/><path class="cls-2" d="M1044.81,1252.34a9.22,9.22,0,0,1-6.74-6.81c-2.86-9.21-3.93-18.74-5.16-28.28-1.46-11.31-.77-22.53.15-33.76,1.34-16.33,3.07-32.63,6.22-48.73a9.78,9.78,0,0,1,1.67-4.1c1.47-1.89,3.44-3.17,6.06-2.16s2.15,3.21,1.9,5.11c-2.07,15.81-2.32,31.72-3.17,47.61-.62,11.64.06,23.29-.88,34.87a278,278,0,0,0-.84,30.26C1044.07,1248.12,1044.48,1249.88,1044.81,1252.34Z"/><path class="cls-2" d="M800,746.64c3-1.88,5.35-2.91,5.14-6a2.32,2.32,0,0,1,.77-1.75,81.39,81.39,0,0,1,21.77-10.66c3.84-1.27,6.36,2.38,5.08,6.71a19.35,19.35,0,0,1-6,9.59c-8.71,7.18-17.48,14.29-26.23,21.41-.64.52-1.61.78-2,1.41-1.52,2.3-5.41.22-6.35,3.76-1.58,6-4.84,11.71-2.87,18.27.18.59.26,1.21.58,2.71a8.76,8.76,0,0,1-3.79-7.62c-.1-5.82,0-11.6,1.76-17.25.69-2.18,1-4.41-.38-6.71s-1.45-4.7-1.4-7.26c.11-5.64.11-11.21-1.79-16.74-1.62-4.74-.15-6.2,5.77-7.32,4.77-.9,8.49,1.15,9,4.94.29,2,.78,3.91.94,5.88S800,743.9,800,746.64Z"/><path class="cls-2" d="M1483,830.2c1.2,14.59-3.06,31.79-5.1,49.2-.1.78.09,1.88-1,2-1.34.17-2-1-2.64-1.93-3-4.9-4.22-10.51-5.13-16-2-12.26-4-24.6-3.14-37.08.51-7.79,1.1-15.56.94-23.38-.11-5.6,4.21-5.61,8-6,4-.39,6.44,1.13,7.08,5.67C1483.17,810.81,1482.83,818.93,1483,830.2Z"/><path class="cls-2" d="M868.32,840.93c3.85.31,5.87,2.23,5.45,5.87-3.2,27.86-8.32,55.32-17.85,81.8a83.28,83.28,0,0,1-3.6,7.66c-.42.89-.82,2.17-2,1.9-1.38-.32-1.54-1.82-1.24-2.91,1.16-4.24.74-8.58,1.07-12.87.58-7.42,1.61-14.82,1.78-22.25.43-19.08,5.24-37.32,10.14-55.56C863,841.23,866.13,841.69,868.32,840.93Z"/><path class="cls-2" d="M1090.19,405.44a134.72,134.72,0,0,1,12.61-53c1.19-2.56,2.08-5.25,3.2-7.83a8.33,8.33,0,0,1,9.51-4.27c4.45,1.44,3.71,4.86,3.08,8.2-2.84,15-9.07,28.75-14.85,42.67-3.78,9.1-6,18.55-7.92,28.17-.42,2.19-.36,6.12-3.25,5.81-2.69-.29-1.49-3.94-1.5-6.09C1091.05,414,1091,408.85,1090.19,405.44Z"/><path class="cls-2" d="M803,951c-.12-14.71,4-27.65,9.15-40.32,1.62-4,7.69-6.53,11.71-5.09,2.53.91,4.62,2.24,4.18,5.74-1.74,13.89-4.73,27.44-10.41,40.3-2.08,4.71-3.78,9.61-6.75,13.87-.8,1.16-1.13,3.19-3,3-2.11-.25-2.8-2.19-3.23-4C803.58,959.81,802.61,955.09,803,951Z"/><path class="cls-2" d="M1638.87,1247.1c-3.22-6.78-3.08-13.46-3.82-19.88-1-8.88-1.33-17.83-2-26.75-.63-7.84.7-15.57,1.2-23.34.32-5.11,1.34-10.17,1.68-15.28.26-3.81,2.6-4.73,5.64-4.89,2.85-.15,5,.36,5.51,4.1,2,13.45.68,26.81-.78,40.15-1.25,11.51-2.85,23-4.34,34.45C1641.44,1239.33,1641.11,1243.07,1638.87,1247.1Z"/><path class="cls-2" d="M824.26,1085.36a18.12,18.12,0,0,1-2.24-8.19,426.59,426.59,0,0,1,8.67-93.83c2.15-10.71,4.2-21.43,6.33-32.14a24.59,24.59,0,0,1,1.2-4.31c.72-1.83,2-3.2,4.18-2.73s1.74,2.34,1.57,3.71c-1,7.38-2,14.74-3.13,22.1Q837,995.71,833,1021.44q-3.88,25.23-7.8,50.47C824.57,1076,825.63,1080.13,824.26,1085.36Z"/><path class="cls-2" d="M1610.45,399c-2.3-7.16-3-14.35-3.46-21.56-.13-2.25-.43-3.65-2.77-5.08-7.77-4.73-10-13.36-13-21.12-1.54-4,6.31-7.81,11.6-5.69a7.31,7.31,0,0,1,3.57,2.56c2.34,4.15,4.67,2.94,7.88.95,3-1.89,5.69-4.49,9.46-5.33,2.55-.56,4.76-.55,6.37,1.37s.94,4,.18,6.13c-1.9,5.3-4.86,10.19-9.48,13.1-6.07,3.83-6.79,9.35-6.83,15.39A62.79,62.79,0,0,1,1610.45,399Z"/><path class="cls-2" d="M1082.83,348.92c1.59-6.37,2.93-12.81,4.83-19.09a416.4,416.4,0,0,1,27.86-69.27c5.75-11.26,11.65-22.45,17.56-33.62.85-1.6,1.31-4.6,4-3.34,1.9.89.78,3.19.26,4.94-3.91,13.11-10,25.33-15.54,37.76-11.36,25.68-23.91,50.83-34.41,76.9-.85,2.11-2,4.08-3,6.12Z"/><path class="cls-2" d="M476.18,1154.67c-4.57-5-3.38-10.68-2.9-15.93,1.19-12.84,2.84-25.65,4.84-38.4a361.34,361.34,0,0,1,18.36-70.15c.28-.77.72-1.49,1.08-2.25.82-1.72,1.82-3.55,4.06-2.75s1.6,3.19,1.19,4.76c-1.84,7.07-4.09,14-5.91,21.1-8.26,32.1-13.76,64.78-20.66,97.17C475.8,1150.28,476.18,1152.51,476.18,1154.67Z"/><path class="cls-2" d="M427.22,825.35c-2.19,14.67-4,28.06-6.23,41.36-3.89,22.86-11.41,44.63-20.78,65.78-.69,1.55-.84,4.64-3.69,3.44-2.43-1-2.7-3.41-2-6,7-24.56,13.9-49.15,20.93-73.7,2.33-8.13,5-16.17,7.48-24.25A11.77,11.77,0,0,1,427.22,825.35Z"/><path class="cls-2" d="M404.08,1132.3c1.27-9.92,1.32-22.28,6-33.87a11.83,11.83,0,0,1,2.08-3.91c1.93-2,4.42-3.13,7.21-2.15,3,1.05,3.16,3.85,2.61,6.29-2.73,12.15-1.92,24.47-1.81,36.73.06,6.42-2.07,12-4.7,17.6-1.71,3.61-3.63,3.64-6.27.45C406.2,1149.84,404.08,1142,404.08,1132.3Z"/><path class="cls-2" d="M348.64,1135.42c-10.54-6.29-15.77-15.34-16.58-27.23-1.3-19.28,6.22-36.41,12.89-53.75a8,8,0,0,1,1.31-2.11c1.32-1.6,2.9-3.1,5.11-2s1.86,3.28,1.22,5.24a236,236,0,0,0-6.79,26q-2.71,13.37-4.63,26.88c-1.1,7.91,1.29,15.12,5.64,21.71C347.79,1131.56,349.19,1132.87,348.64,1135.42Z"/><path class="cls-2" d="M656.1,848.82a56.18,56.18,0,0,1,1.29-26c5.16-19.1,10.94-38,20.53-55.45a46,46,0,0,1,3.65-5.93c1.8-2.38,4.52-3.36,7.06-1.83,2.76,1.66.87,4.1,0,6.18-9.83,23.77-21,47-29.17,71.42C658.18,841,657.21,844.94,656.1,848.82Z"/><path class="cls-2" d="M739.33,1096.41c-4-4.25-4.57-9.5-5.23-14.64-1.45-11.24-.88-22.57-1.1-33.86-.19-9.83,1.67-19.48,2.07-29.25.11-2.85,2-3.54,4.39-3.7s4.11.24,4.61,3.21c1.06,6.28.81,12.46.38,18.81-.68,9.92-1.17,19.85-2.44,29.71S739.44,1086.3,739.33,1096.41Z"/><path class="cls-2" d="M1716.21,695.33c-4.16-5.88-5.36-12.58-6.18-19.25q-1.93-15.76-2.92-31.64a45,45,0,0,1,1.16-13.33c1-3.87,5-4.17,8.26-3.9,2.94.23,4.18,2.21,4.5,5.47,1.44,14.65-1.33,29-2.82,43.39C1717.56,682.44,1716.32,688.75,1716.21,695.33Z"/><path class="cls-2" d="M746.48,211.34c2.37-10.16,7.2-19.13,12.62-27.81a194.32,194.32,0,0,1,40.76-46.75,16.33,16.33,0,0,1,2.88-1.94c1.87-1,4-1.44,5.52.31s.52,3.44-.63,5a30.07,30.07,0,0,1-3.09,3.88c-21.13,20.32-41.12,41.61-57.16,66.32A9.52,9.52,0,0,1,746.48,211.34Z"/><path class="cls-2" d="M754.91,585.44A153.88,153.88,0,0,1,761.22,559a469.35,469.35,0,0,1,20.46-51.31c1.88-4.07,3.42-8.29,5.26-12.37,1.06-2.35,2-5.92,5.26-4.85s1.76,4.42,1.15,6.94a139.65,139.65,0,0,1-8.8,25.36c-9,19.77-18.42,39.4-26.71,59.52A4.4,4.4,0,0,1,754.91,585.44Z"/><path class="cls-2" d="M1779.13,1150.85c-2.32-4.2-.71-7.74-.85-11-.44-10.75-1-21.54.4-32.33,1-7.54,0-15.23,1.18-22.83,1-6.52,1.45-13.13,2.11-19.71.21-2,1.33-2.91,3.29-3,2.17-.06,3.22.85,3.67,3.1,2,10.1.89,20.17-.31,30.19-1.67,13.93-3.69,27.82-5.75,41.7C1782.2,1141.44,1781.92,1146.1,1779.13,1150.85Z"/><path class="cls-2" d="M1436,1256.81c-.45-6.48,1.39-12.87,3-19.28,1.33-5.36,5.76-4.59,9.67-4.57s4.95,2.86,5.26,6c1.29,13.18-2.55,25.23-8.59,36.68-.83,1.58-1.86,4.15-4.1,3.79s-2.6-2.89-3.09-4.73A60.66,60.66,0,0,1,1436,1256.81Z"/><path class="cls-2" d="M1458.49,1129.63c-2.9-5.66-3.92-11.72-4.41-17.73-1.33-16.35-2.6-32.73-2.08-49.16.15-4.8.64-9.58,1-14.36.22-2.88,2.34-3.39,4.62-3.38s4.38.78,4.27,3.68c-.4,11.44.83,22.89-.71,34.33a126.38,126.38,0,0,0-1.14,19.82C1460.27,1111.82,1458.24,1120.65,1458.49,1129.63Z"/><path class="cls-2" d="M738,294.71c2.25-9.29,4.64-18,8.28-26.31,9.33-21.34,22.9-40,36.58-58.62a12.25,12.25,0,0,1,1.67-1.85c1-.86,1.94-2.21,3.4-1.49,1.72.85,1.24,2.72.91,4-1.08,4.25-3.77,7.73-6.1,11.34-9.15,14.24-18.54,28.32-27.58,42.63a178.14,178.14,0,0,0-14.38,27.86A3.14,3.14,0,0,1,738,294.71Z"/><path class="cls-2" d="M1078.87,1228.6c.88,6.74-.84,13.31-2.88,19.84-.34,1.09-1,2.35-.74,3.32.55,2.09.5,3.68-1.83,4.31s-3.58-.8-4.65-2.7c-3.64-6.51-5.1-13.62-5.73-20.93-.51-6,.3-11.93,1-17.86.44-3.71,3.65-5.89,8.57-5.62,3.41.18,5.24,1.68,5.53,5.57C1078.47,1219.15,1079.29,1223.73,1078.87,1228.6Z"/><path class="cls-2" d="M1010,1218.47c1,12.43-2,24.29-5,36.17-.64,2.56-1.85,2.59-3.42,1.16-2-1.84-2.85-4.4-3.7-6.93-4.65-13.82-2.09-27.42,1.31-41,1-3.89,4.24-4.2,7.58-4,3.82.26,3.16,3.16,3.21,5.56C1010.05,1212.49,1010,1215.48,1010,1218.47Z"/><path class="cls-2" d="M1197.17,1256.23a40.14,40.14,0,0,1-1.78,11c-.25.86-.32,2.24-1.6,2.15a2.66,2.66,0,0,1-1.7-1.56c-4.58-12-10.51-23.64-11-36.85-.18-4.44,2.3-6.64,6.63-7s7.65.5,8.22,5.53,2.49,9.63,2.1,14.68c-.15,1.84.79,3.12,2,4.32,1.79,1.73,3.52,3.52,5.27,5.29,1.54,1.55,2.51,3.35.79,5.22-1.55,1.68-3.3.84-4.91-.27C1200.1,1257.94,1199,1257.31,1197.17,1256.23Z"/><path class="cls-2" d="M1137.12,1239.32a63,63,0,0,1,2.16-21.42c.36-1.37.7-3.43,2.39-3.46,1.92,0,1.84,2.28,2,3.5,2.11,14.93,6.18,29.41,9.84,44a7.56,7.56,0,0,1,.23,3.9c-.7,2.25-.61,5.44-3.75,5.83-2.68.33-4.53-1.55-6-3.72C1138,1259.19,1136.2,1249.43,1137.12,1239.32Z"/><path class="cls-2" d="M1684.44,1001.89c-.5-3.06-1.34-6.11-1.43-9.18-.47-15.75-1.64-31.48-1-47.25.2-5.34-.72-10.54-1.6-15.75-.3-1.75-1.28-3.92,1.25-4.57s5.05-.89,6.42,2.12a33,33,0,0,1,2.86,12.49c.73,17.92-1,35.68-3.82,53.35-.38,2.44.37,5-.89,7.35-.28.53-.52,1.09-.78,1.64Z"/><path class="cls-2" d="M1348.14,376.83c-4.16-2.68-5.36-6.32-5.82-9.71a150.44,150.44,0,0,1-.65-36.24c.73-6.91,1.38-13.83,2.2-20.74.44-3.67,2.33-5.06,5.51-4.94,3.35.12,3.56,2.63,3.62,5.37.31,14.18-2.59,28-4.48,41.95C1347.45,360.37,1346,368.14,1348.14,376.83Z"/><path class="cls-9" d="M470.22,760c3.64,2.57,7,2.35,10.24-.83a20,20,0,0,1,3.77-2.35c0,.45.18,1,0,1.33-.65,1.12-1.94,2.4-.29,3.35,1.09.63,1.94-.92,2.76-1.67A6.85,6.85,0,0,0,488.3,758c1.58-3.16,4.63-4.11,7-2.45,2.63,1.81,5.54,4.39,4.48,8.6-2.61,10.39-15.26,18.22-25.71,15.66a7.26,7.26,0,0,1-5.85-8.1C468.56,767.74,469.54,763.88,470.22,760Z"/><path class="cls-9" d="M437.23,816c4.91,3.8,9.82,1.38,14.73,0,.38,6.71.39,6.78,7,6.05,3.75-.41,6,1.33,5.95,4.84-.12,5.14-1,10.17-6.26,13.1-4.68,2.6-8.51,2-13.32-.62C436.15,834.33,434.35,826.61,437.23,816Z"/><path class="cls-2" d="M1242,829.1c0-3.18,0-5.17,0-7.16-.07-4.6,3.49-5.54,6.71-5.72s5.39,2,5.29,5.7c-.35,13.45-3.49,26.46-6.08,39.56-.17.89-.59,1.75-1.47,1.72s-1.25-.9-1.38-1.8c-.65-4.4-1.57-8.77-2-13.2C1242.53,841.46,1242.31,834.68,1242,829.1Z"/><path class="cls-2" d="M380.48,968.46c-4.28,10.28-6.66,21.07-9.93,31.59-2.7,8.73-5.1,17.54-9.41,25.67a15.8,15.8,0,0,1-2,3.43c-1,1.1-1.8,3.29-3.91,2.08-1.69-1-.81-2.54-.48-4,3.8-17,10.44-32.89,17.54-48.63A23.24,23.24,0,0,1,380.48,968.46Z"/><path class="cls-2" d="M361,1097.53c-1.84,4.2-.47,9.78-1.58,15.19-1.23,6,.43,11.83,2.4,17.52.45,1.31,2.16,3,.55,4s-3.12-.63-4.21-1.84a37.6,37.6,0,0,1-9-19.62,31.72,31.72,0,0,1,1.78-17,6.91,6.91,0,0,1,5.86-4.72C361.06,1090.45,361.23,1093.39,361,1097.53Z"/><path class="cls-2" d="M1838.81,168.14c-4.23-1.68-5.39-4.71-6.52-7.54-3.45-8.65-5-17.77-6.21-26.93-.43-3.21,1.53-5,4.52-5.45,3.67-.52,6.27,1.36,7,4.85.92,4.51,2,9.13,1.27,13.76A61.92,61.92,0,0,0,1838.81,168.14Z"/><path class="cls-2" d="M1600.59,1232.47c-4-4.71-3.65-9.39-4-13.6-.82-8.5-2.85-17-.67-25.64.91-3.61,3.19-5.19,6.32-5.1,3.48.09,3.78,3,3.77,5.87C1605.91,1206.66,1602.23,1218.76,1600.59,1232.47Z"/><path class="cls-2" d="M652,1162.6c.39,7.68-2,14.76-2,22.05,0,1.95-.45,4,1,5.75.54.66,1,1.59.05,2.07a3,3,0,0,1-2.33-.24c-4.12-2.08-4.57-6.34-5.41-10.11-1.83-8.15-1.35-16.48-1.25-24.76,0-3.48,1.92-5.95,5.37-5.94s4.23,3.18,4.52,6.06A46.57,46.57,0,0,1,652,1162.6Z"/><path class="cls-2" d="M1514.38,853.31c-5.72-4.81-6.94-11.55-8.26-18.11a131.33,131.33,0,0,1-1.91-15.74,12,12,0,0,1,1.08-5.3c.91-2.2,3.08-2.46,5.11-2,2.83.56,3.44,2.95,3.49,5.34.11,6.32,0,12.64.06,19C1514,842,1513.59,847.62,1514.38,853.31Z"/><path class="cls-10" d="M572,605.09c6.56-.86,6.65-7,9.2-11.17,2.87,1.22,1.76,3.81,1.84,5.84a37.48,37.48,0,0,1-7.44,24.09c-1.38,1.92-3.14,4.28-6.13,3.11-2.68-1-2.59-3.66-2.33-5.92C567.75,615.45,567.54,609.55,572,605.09Z"/><path class="cls-2" d="M373.05,1113.12c-.37-5.25.19-10.27,2.89-14.95a7.72,7.72,0,0,1,4.87-4c3.05-.75,5.18-.1,5.28,3.77.25,9.73-3.81,18.09-8.28,26.28-1.43,2.62-2.94,1.17-3.91-.79C372.26,1120.12,373.56,1116.54,373.05,1113.12Z"/><path class="cls-10" d="M603.17,556.05c2.79-.18,3.82-2.92,5.93-4.1,4.94,5.49,10.61,10.65,10.88,18.74.17,5-2.67,6.53-7,3.92s-7.2-6.49-10.91-9.6C599.78,563.06,599.88,558.72,603.17,556.05Z"/><path class="cls-2" d="M951,1032.63a19.92,19.92,0,0,1-2,11.31c-1.78,3.22-3.85,3.79-6.6.87-4.65-4.94-6.11-14.74-2.6-20.2,1.86-2.89,5-2.94,8-2.51s3.35,2.72,3.21,5.24C950.94,1028.83,951,1030.33,951,1032.63Z"/><path class="cls-2" d="M857.47,1014.29a6.58,6.58,0,0,1-2.31-5.14c-.36-12.9-.68-25.82,3.73-38.28.74-2.1,1.25-4.38,4.2-3.79S865,970.26,865,972c-.53,10.43-3.82,20.4-5.35,30.67C859,1006.38,858.25,1010.08,857.47,1014.29Z"/><path class="cls-2" d="M846.07,453.71c.08,4.32-2.43,8.17-5.35,11.87-1.33,1.69-2.54,1.2-3.69-.11-4.2-4.8-6-10.66-6.81-16.77-.36-2.75,4.94-5.28,8.71-4.55C843,445,846.13,448.79,846.07,453.71Z"/><path class="cls-2" d="M737.69,748.27c0-14.08,5.21-26.44,11.78-38.37a3.18,3.18,0,0,1,4.17-1.68c1.94.65,1.37,2.47,1.34,3.85-.09,3.6-1.8,6.7-3.4,9.78C747,730.67,742.32,739.47,737.69,748.27Z"/><path class="cls-2" d="M1482.13,1230c-2.18,7.58-3.7,14.64-3.22,22,.24,3.58,1.52,7.12.09,10.79-.78,2-.83,4.72-3.39,4.93s-3.48-2.56-3.87-4.5c-2.09-10.35-.68-20.16,5.52-28.92C1478.25,1232.84,1478.8,1230.82,1482.13,1230Z"/><path class="cls-2" d="M1416,496.92c1.08,4.59-1.83,10-.09,15.4.22.68.22,1.81-.78,2.1-1.21.35-1.63-.74-2.2-1.54-4.33-6.15-5.39-13.43-6.82-20.51-.74-3.67-2.39-8.35,3.8-9.26,4.41-.65,6.08,1.95,6.09,9Z"/><path class="cls-2" d="M1835.48,722.88c-1.57-8.64.09-16.6.84-24.54a55,55,0,0,1,3.62-15.88c.8-2,1.85-4,4.26-3.08,2.13.77,1.5,2.83,1.28,4.72-1.36,11.7-4.7,22.94-7.46,34.32C1837.66,719.88,1837.52,721.35,1835.48,722.88Z"/><path class="cls-2" d="M1276.5,1193.91c6.17.07,8.65,3.58,6.83,8.95a32.19,32.19,0,0,1-1.75,4.63c-1.1,2.11-1.48,5.15-4.63,5.23-2.83.06-4.11-2.48-5.66-4.35a16.39,16.39,0,0,1-1.43-2.61c-1.42-2.55-3.72-5-2.07-8.17C1269.73,1193.92,1273.85,1194.94,1276.5,1193.91Z"/><path class="cls-11" d="M709,255.88c-2.4-3.3-.36-4.69,2.12-6.89,3.1-2.74,5.21-6.59,7.75-10,2.67,4.22,3.55,9.16,5.49,13.68,1.21,2.83-1.22,4.21-2.5,5.86-1.59,2.06-4.23,3-5.89,5.23-1.43,1.92-2.42-.45-2.53-1.2C713,259.59,711.07,257.73,709,255.88Z"/><path class="cls-2" d="M1642.91,1088.44c-.46,2.8-2.12,6.4-4,9.8-1.38,2.44-3.73,1.75-5.58.29a17.16,17.16,0,0,1-6.27-10.9c-.66-4,2.88-6.43,9-6.67C1640.31,1080.8,1643,1083.24,1642.91,1088.44Z"/><path class="cls-2" d="M1225.94,829.7c0,4.58-4,7.39-10.09,7.23-3.47-.1-9.14-6.52-8.43-10.21,1-5.07,5.57-4.44,9.17-4.67C1221.11,821.76,1226,826,1225.94,829.7Z"/><path class="cls-2" d="M1768.28,64a11.22,11.22,0,0,1-8.34-4.86A86.8,86.8,0,0,1,1749.8,39.8c-.69-1.78-1.49-3.43.59-4.82s4-.82,5.8.88a12.14,12.14,0,0,1,2.86,5.15C1761.67,48.79,1762.93,57.13,1768.28,64Z"/><path class="cls-2" d="M1569.1,790.38c-4.92-6.44-5.85-14.14-7-21.68-.5-3.23-1.48-6.43-1.16-9.81.23-2.3.85-3.71,3.43-3.93s3.71,1.06,4.14,3.22a31,31,0,0,1,.45,4.92C1569.25,772.15,1568.24,781.22,1569.1,790.38Z"/><path class="cls-2" d="M877.69,68.05c-4.9,9-9.2,18.22-16.06,25.9-.66.74-1.35,1.47-2,2.21-.92,1-1.29,3.19-3.24,2.3s-1.73-3-1.11-4.44C860,83.07,866.85,73.86,877.69,68.05Z"/><path class="cls-2" d="M934.62,106.12c3.16.37,2.65,2.47,1.71,4.31-2.1,4.13-4.42,8.14-6.68,12.19-1.21,2.17-2.39,4.35-3.73,6.44-1.12,1.75-1.55,5.28-4.76,3.29-2.43-1.5-3.86-4.08-2.6-7.31.81-2.09,2.5-3.48,3.9-5.1a86.94,86.94,0,0,0,8.35-11C931.63,107.59,932.48,105.91,934.62,106.12Z"/><path class="cls-2" d="M770,313.37c-1.57-1.13-.86-2.25-.49-3.23,3.63-9.57,9.28-17.9,15.66-25.8,1.48-1.84,3.43-3.19,5.58-1.75,2.31,1.56.4,3.72-.3,5.34-1.78,4.16-4.87,7.56-7.85,10.82A191.52,191.52,0,0,0,770,313.37Z"/><path class="cls-2" d="M617.23,1082.74c1.26-12.62,3.91-23.31,8.95-33.33,1.07-2.12,3.26-3.23,5.47-2.17,2.38,1.15,1.41,3.34.58,5.16q-6.29,13.74-12.66,27.46A20.91,20.91,0,0,1,617.23,1082.74Z"/><path class="cls-2" d="M1523.92,29c.15,4.55-1.35,8.82-2.2,13.2-.17.93-.53,2.1-1.64,2.25s-1.62-1.13-2-1.9a40.18,40.18,0,0,1-4-16.75c-.12-2.88.77-5.7,4.7-5.74,3.77,0,4.79,2.39,5.13,5.45A33.84,33.84,0,0,1,1523.92,29Z"/><path class="cls-2" d="M1711.93,493.31c0,4-3.69,10.7-6.33,10.6-2.95-.12-8.86-7.68-8.44-11.41.62-5.48,5.62-4.51,9-4.94C1709.05,487.2,1712.14,488.47,1711.93,493.31Z"/><path class="cls-2" d="M832.42,1218.87c3.68.41,5.93,1.92,5.58,5.77s-1.38,7.75-1.25,11.79c.1,2.81-2.34,2.59-3.91,1.29a21,21,0,0,1-7.35-14.24C825.11,1219.61,829.62,1219.55,832.42,1218.87Z"/><path class="cls-2" d="M1812.65,431.49c-.82,2.23-.41,6.92-5.14,8.26-2.42.69-7.93-7.21-7.43-10.71.58-4.14,3.89-5,7.39-4.94C1811.15,424.2,1813.46,425.93,1812.65,431.49Z"/><path class="cls-2" d="M386.11,1139.22c-.12-1.94.24-3.54,2.3-4.44,1.79-.77,3.42-1.2,5.08.17s1.45,3,1.11,4.91c-.74,4.29-2.35,8.64-.09,13,.45.86.86,2-.34,2.54-.88.42-1.46-.5-2.08-1C388.54,1151.57,386.19,1145.61,386.11,1139.22Z"/><path class="cls-2" d="M1765.91,1215c-.5,2.57-.18,6.57-4.44,7.68-2.42.63-6.48-6.11-6.57-10.09s2.34-4.64,5.48-4.64C1764.73,1207.91,1766,1209.31,1765.91,1215Z"/><path class="cls-2" d="M1389.94,500.22c0,1.73-.26,3.5-1.83,4.36s-2.67-.76-3.81-1.65c-2.87-2.24-5.78-4.44-8.59-6.76-1.34-1.11-2.32-2.7-1.28-4.38.93-1.51,2.51-1.73,4.39-1.29C1383.62,491.62,1389.89,496.93,1389.94,500.22Z"/><path class="cls-12" d="M1698.07,1279a4.46,4.46,0,0,1-1.42.4c-14.79-.78-29.48,1.32-44.19,2-12.56.62-25.13,1-37.71,1.4a42.21,42.21,0,0,0-5.82,1,3.57,3.57,0,0,1,3.26-1.94,25.45,25.45,0,0,1,3.49-.12c18.11,1.34,36-2.06,54.11-2.23C1679.18,1279.47,1688.62,1278.61,1698.07,1279Z"/><path class="cls-2" d="M1688,1245.31c0-6.48,0-13,0-19.45,0-1.72.13-3.62,2.35-3.69s2.64,1.75,2.58,3.5c-.24,6.77-.49,13.56-3.45,19.77Z"/><path class="cls-2" d="M512.47,1169.79c-.5-6.93-1-14,1.15-20.81.28-.89.79-1.91,2.06-1.82s1.58,1.17,1.94,2a7.58,7.58,0,0,1,.13,4.89C516.38,1159.36,515.33,1164.72,512.47,1169.79Z"/><path class="cls-2" d="M607.06,629.22c-.33-4.37,2.21-7.41,3.91-10.76a1.87,1.87,0,0,1,2.45-1.1A2.36,2.36,0,0,1,615,619.7c0,4-.55,7.92-3.29,11.09-.92,1.06-1.93,2.64-3.67,1.76C606.56,631.83,607.22,630.2,607.06,629.22Z"/><path class="cls-2" d="M1843.1,1249.76c.68-6.35,1.21-12.73,2.16-19,.22-1.5.19-4.44,2.54-4.14,2,.25,1,2.78,1.07,4.3A29.25,29.25,0,0,1,1843.1,1249.76Z"/><path class="cls-2" d="M1031.69,1260c-4.6-3.38-7.2-7.9-9.22-12.75-.61-1.46-1.21-3.4,1-4.18,2.06-.72,3.61.23,4.2,2.3C1029.08,1250.27,1030.36,1255.16,1031.69,1260Z"/><path class="cls-2" d="M1226.15,1261.28c-4.41-2-5.56-5.86-6.07-10-.2-1.57.45-3.06,2.31-3.17s2.44,1.29,2.55,2.92C1225.15,1254.44,1224.32,1257.94,1226.15,1261.28Z"/><path class="cls-13" d="M440.16,745.18c-.23-1.73,2.8-2.09,1.76-4.16-.11-.9.22-1.37,1.19-1.22l1,0C442.64,741.48,443.91,745.16,440.16,745.18Z"/><path class="cls-14" d="M639.94,338.76c.3-1.5.71-2.93,2.26-3.65C641.85,336.57,641.85,338.26,639.94,338.76Z"/><path class="cls-15" d="M734,203.15c1,.23,1,.87,1,1.5s-.1,1.38-1,.72a2.76,2.76,0,0,1-.8-1.54C733.18,203.65,733.79,203.32,734,203.15Z"/><path class="cls-7" d="M275.26,1062.89c-1.31,8.85-2.69,17.7-3.9,26.56a67.45,67.45,0,0,0-.21,7.4c-2.78,4.9-7.45,6.88-12.14,5.16-2.61-4.35,0-8.6.57-12.76.89-6.52,2.85-12.9,4.35-19.34,3-7.74,3.48-16,5-24.08,5.69-30.62,13.14-60.81,21.63-90.76C306.41,899,326.3,844.31,348.42,790.43c3.14-7.64,6.48-15.2,9.74-22.8.91-2.11,2.15-4.13,1.86-6.59,3.71-1.59,7.65-2.75,9.29-7.19.55-1.49,1.71-3.74,3.92-2.6,1.75.9,1.72,3,1.25,4.87A2.86,2.86,0,0,1,373,758c-4.89,7.87-7.85,16.63-11.41,25.08q-19.32,45.79-35.95,92.64a1286.09,1286.09,0,0,0-40.29,136.89c-3.72,16-7.23,32.1-9.43,48.43A8.24,8.24,0,0,1,275.26,1062.89Z"/><path class="cls-16" d="M373,758v-6.88c-3.63,5.42-4.4,13.27-13,9.91-2.42-1.86-3.13-3.59,0-5.65,2.66-1.77,2.9-5.33,5-7.56,2-1.24,5.54,1,6.28-2.27.58-2.56-2.48-3.45-4-5.06a13.75,13.75,0,0,1-1.12-1.59c-1.41-2.77-3-5.48-4.21-8.33-3.84-8.91-.51-19.48,7.06-22.75,3.63-1.57,7.26-.73,9.06,2.11,1.39,2.21.84,4.12-1,5.75-1.13,1-2.72,1.2-4.37,2.43a19,19,0,0,0,10,2.64c3.06.1,4.55-2.09,5-4.69.77-4.81.16-9.27-4.16-12.51-2.66-2-5.47-4-5.42-7.89.62-3.26,3.44-4,5.9-5.17,2.16-.77,4.32-.33,6.48,0a12.52,12.52,0,0,1,5,1.83c2.09,1.63,4.1,1.44,6.06-.26,1.58-.82,3.09-1.87,5-1.7,2.92.06,5.82-1,8.75-.25,4.5,1.1,8.18,3.21,9.68,8-.06,4.22-2.53,4.06-5.49,3-4.4-1.27-8.83,0-13.25-.06C404,701,404,703,403.85,704.72c-.3,4.1.61,8.29-.78,12.32-5,7.62-9.38,15.78-17.09,21.26-1.62,1.15-3,2.59-5.53,3.65,8.95-3.05,16.51-6.7,19.21-16.13a4.3,4.3,0,0,1,2.82-3.28c6.57,1.21,9.26,5.56,9.58,11.82a45.48,45.48,0,0,0,1.41,6.53c.82,3.19,2.49,6.09,3.14,9.34,4,12.23-.11,23.29-5.14,34.13a10.65,10.65,0,0,1-8.37,6.44c-10.5.49-22.85-9.06-27.16-20.43C374.41,766.31,374.82,761.93,373,758Z"/><path class="cls-7" d="M507.39,488.89c3.14,3.49.43,8.34,2.77,12-14.36,21.61-27.56,43.93-40.65,66.3-14.69,25.1-28.56,50.67-42.13,76.39a8.72,8.72,0,0,0-.46,1.42c-4.74-1.68-6.39-3.92-5.91-8,6.73-12.7,13.24-25.52,20.23-38.07Q472.44,542.77,507.39,488.89Z"/><path class="cls-6" d="M573.12,397.92c2.68,2.85.09,6.21.88,9.24-3,5.54-2.57,11.67-3.25,17.64-1,9.05-5.22,17-8.91,25.18a33.31,33.31,0,0,0-19-8c-1-.1-2-.12-2.64-1a135.73,135.73,0,0,0,16.6-30.05c1.29-3.25,3.8-6.1,6.15-8.78a9.82,9.82,0,0,0,2.28-4.11C567.82,395.54,570.45,395.34,573.12,397.92Z"/><path class="cls-17" d="M391,692l-6.93.14c-6.66,1.11-7.39-4.3-9.29-8.44a4.38,4.38,0,0,1,.15-3.77c.08-5.13-.3-11,5-13.57,6.24-3,6.52-8.66,8.17-13.93,1.17-3.71,2.77-7.28,3.92-11,.93-3,2.91-3.81,5.68-3.42s3.37,2.15,3.45,4.86c.22,8.13-.36,16-4.92,23.1.85,2.45-.75,4.16-1.85,6-3.4,4.18-3.26,9-2.78,14C391.81,688,392.91,690.16,391,692Z"/><path class="cls-18" d="M375,679.93l1.23,3.08c-.77,4.68,1.74,8.66,2.75,13a13.62,13.62,0,0,0,5.28,5.75c4.9,3.23,7.43,10.37,5.52,15.83-1.34,3.82-3.81,6.2-8.23,5.39-3.57-.66-7.11-1.4-10.67-2-1.62-.29-1.84-1.2-1.3-2.5a5.35,5.35,0,0,1,2-2.71c2.07-1.35,7.11.31,6-3.94-.84-3.15-5.06-3.75-8.46-3.93a35,35,0,0,1-6.15-9.37C358.12,686.81,362.4,680.1,375,679.93Z"/><path class="cls-11" d="M708.93,213.92c.54,2.5-1.3,3.91-2.53,5.61-3.84,5.28-8.95,9.07-14.45,12.42a92.26,92.26,0,0,0-5.94-7.22c-2.49-2.52-2-4.75-.47-7.52,3.58-6.27,9-10.3,15.28-13.45,1.74-.88,2.44-.09,3.13,1.13C705.64,207.89,707.28,210.91,708.93,213.92Z"/><path class="cls-19" d="M393.21,670.94l3-5c3.18-.47,5.77,1.63,8.76,2,4.6-.78,6.37,2.8,8.66,5.58a10.89,10.89,0,0,1,1.71,9.92,16,16,0,0,1-9.29,8.41,6.81,6.81,0,0,0-4,2c-.81.83-1.8.54-2.76.46,1.67-4.63-1.58-7.31-4.19-10.07C391.28,680.21,392.32,675.6,393.21,670.94Z"/><path class="cls-19" d="M421,637c.73,3.59,5,4.6,5.91,8-.28,1.61,1.52,3.15.15,4.8-.87,5-2.05,5.82-7.79,5.49-2.82-1.19-4.73-3-4.35-6.39-1.17-3.16-2.24-6.36-.53-9.63C415.83,636.54,417.82,634.92,421,637Z"/><path class="cls-20" d="M414.93,648.92a16.37,16.37,0,0,0,4.14,4.89,13.24,13.24,0,0,1,.54,8.84c-1.06,2.57-2.71,4.85-3.62,7.52-.63,1.86-1.74,3.59-4.06,3.84-1.41-3-4.63-4-6.93-6A140.58,140.58,0,0,1,414.93,648.92Z"/><path class="cls-21" d="M698.21,248.22q2.91-1.62,5.83-3.23a1.25,1.25,0,0,1,0,1.89,35.7,35.7,0,0,0-7.13,7.38c2.38,1.65,4.31-1.39,6.63.31q-9.19,7.74-18.36,15.42a1.24,1.24,0,0,1-.16-2Q691.62,258.13,698.21,248.22Z"/><path class="cls-22" d="M573.12,397.92l-7.9.12c-.37-7.19.38-8,7.41-8,1.47,0,2.93.1,4.4.16C577.78,393.8,574.63,395.44,573.12,397.92Z"/><path class="cls-23" d="M366.22,738.91c3.95-.35,5.46,3.26,8,5.06,1.29.91.16,2.06-.63,2.9-1.58,1.67-3,3.8-5.78,2.87a13.53,13.53,0,0,1-2.85-1.91C365,744.79,364.47,741.7,366.22,738.91Z"/><path class="cls-24" d="M685,268c.05.66.1,1.32.16,2-.76.84-1.51,1.68-2.26,2.53C682.66,270.57,684.15,269.44,685,268Z"/><path class="cls-7" d="M280.15,1107.79l1.07,0c7.43.21,6.62,7.25,8.85,11.37,2.42,4.47,3.63,9.84-.17,14.7-.51.65-.85,1.4.2,2,4.92,3,3,6.49.82,10-2.21,4.86-6.92,5.81-11.33,6.81-3,.68-5.61,1.56-7.44,4.12-.15,4.3-.12,8.61-.59,12.88-.09.88.21,3.32-2.29,3-1.69-.22-1.76-1.49-2.32-2.72-1.47-3.21-.57-6.53-.87-9.78-.12-1.27.54-2.9-.84-3.66s-2.41.45-3.45,1.15c-2.19,1.48-4.28,3.1-6.52,4.47-1.16.71-1.52,3.45-3.78,1.64a4.17,4.17,0,0,1-1.06-5.4,58.09,58.09,0,0,1,5.37-7.67,17.43,17.43,0,0,1,2.81-2.82c3.86-3.23,7.13-6.48,1.34-10.89a.61.61,0,0,1-.25-.42c.48-7.72-6.27-11.06-9.91-16.27-.88-1.26-.23-2,.12-3.12,1.2-3.72,2.24-7.49,3.35-11.25,3.31-2.16,5,.3,6.22,2.59A22,22,0,0,1,262,1119c0,.74.14,1.4,1,1.66,4.13.21,8.28.86,12.25-.81,2.91-1.22,4.84-2.48,2.26-6.2S276,1108,280.15,1107.79Z"/><path class="cls-11" d="M272.15,1156.83c-.52-3.81,0-6.06,5-5.65s9.35-3,13.77-5.28q1.09,4.51,2.21,9c-.3,4.08,1,8.34-3.74,11.34-5.3,3.38-11.71,2.07-14-3.71C274.59,1160.48,274.46,1158.05,272.15,1156.83Z"/><path class="cls-11" d="M280.15,1107.79c-4.62,1.37-2.79,4-.63,5.61,4.17,3,2.47,4.84-.64,7-5.56,3.9-11.8,2.15-17.8,2.4-.47-1-1.84-1.64-1.06-3,.59-6.67-2.16-12.28-6.76-13.81-.48-4.8,4.44-1.75,5.75-4,4.55-.55,8.13-3.35,12.14-5.16,2.88-.15,4.78.2,5.31,4C276.79,1103.14,280.32,1104.64,280.15,1107.79Z"/><path class="cls-25" d="M403.1,790.8c6.4-4.62,8.62-11.59,11-18.65a39.94,39.94,0,0,0,.87-22c3.41-.75,5.59.57,6.56,3.91-1.29,4.38,0,8.61.72,12.87-.8,3.85-1.39,7.75-2.43,11.53-1.92,7-7.57,10.37-13.6,13.28C404.87,792.38,404.08,791.33,403.1,790.8Z"/><path class="cls-26" d="M421.53,754.05c-2.09-1.46-4.86-1.79-6.56-3.91-1-2.91-3.31-5.42-2.84-8.82a14.1,14.1,0,0,1,6.28-8.65,23.33,23.33,0,0,0,5.88-5.62A74.76,74.76,0,0,1,410.24,735c1.48-6.8-4.59-8.55-8.05-12-2.56-1.86-2.38-3.86-.28-5.94-.19-4.4.35-8.8-.4-13.2-.47-2.78,1.1-5.27,3.74-5.14,4.13.21,8.15.57,12.2-.54,1.28-.35,2.08.73,2.64,1.81.22,2.55,2,4.09,3.68,5.7s3,3.1,3.24,5.43c.09,1.52.05,3,0,4.56,0-1.6,0-3.21,0-4.81a4.09,4.09,0,0,1,.57-1.83c3.31-5.68,3.31-5.68-2.46-8.91a7.51,7.51,0,0,1-1.13-.91c-2.81-4.8-6.62-7.8-12.57-7.2a46.75,46.75,0,0,1-5.42-.06,40.09,40.09,0,0,1,7.61-7.62c2.07-1.74,2.54-4.08,2.35-6.6A39.69,39.69,0,0,1,417.91,663c.76-3-.93-6.32,1.16-9.17,3.76.86,6.19-.95,8-4,4.32,3.31,5.31,8.53,5.73,13.14.91,9.9,2.34,19.73,3.23,29.62.17,1.93.45,3.83,2.09,4.85,4.71,2.92,6.64,9,12.32,10.81.37.12.47,1.11.7,1.69-3.76,3-4.29,7.49-4.85,11.58-.84,6.15-4,11.88-3.18,18.29L441.92,741a15.62,15.62,0,0,0-7.44,6.21C431.26,751.85,426.7,753.39,421.53,754.05Z"/><path class="cls-27" d="M525.17,460.59c-1.49,5.08-1.65,10.73-6.22,14.48a68.78,68.78,0,0,1-14-4.37c-3.44-1.57-2.48-2.74-1.17-5,2.81-4.84,5.34-9.85,8.05-14.9Z"/><path class="cls-28" d="M699.31,241.61c.87-3.79.49-5.83-2.89-6,4.21-3.66,7.91-6.93,11.68-10.11.94-.8,1.8-3,3.4-.64,1,1.51,3.53,2.79,1.16,5C708.65,233.51,704.52,237,699.31,241.61Z"/><path class="cls-29" d="M704,246.88V245l6.59-5.68A17.77,17.77,0,0,1,704,246.88Z"/><path class="cls-25" d="M401.91,717c-1.5,2,.53,3.94.28,5.94-2.28,11.6-12.15,20.75-23.27,21.65-1.15.09-2-.14-2.47-1.13s.08-1.6,1.19-2.13c9.8-4.62,16.18-12.68,21.58-21.7C399.89,718.51,400.28,717.11,401.91,717Z"/><path class="cls-18" d="M393.21,670.94c.19.27.55.56.53.82-.64,6.25,1.69,11.32,6.38,15.26,3.61,3,1.56,4.83-1.05,6.71-1.2,1.42-2.57,1-4,.38L391,692C389,684.69,387.58,677.45,393.21,670.94Z"/><path class="cls-17" d="M410.24,735a6.57,6.57,0,0,1,5-4.68c4.58-1.19,7.86-4.57,11.19-8,.9,3.58.22,6.44-2.55,8.39-4.37,3.07-7.84,7.08-11.71,10.68A8.07,8.07,0,0,1,410.24,735Z"/><path class="cls-19" d="M426,711.09c-1.5-1.75-2.43-3.77-4.84-5-2.09-1-3.19-3.7-1.09-6.22,1.51.66,3,1.31,4-.77,2.9-.19,6.28-1.09,7.67,2.48,1.57,4-.18,7.2-3.83,9.34A1.31,1.31,0,0,1,426,711.09Z"/><path class="cls-30" d="M395.11,694.11l4-.38,3,.17C399.78,694.86,397.53,697.17,395.11,694.11Z"/><path class="cls-11" d="M286.15,1127.85c-5.09,5.16-11.78,6.15-18.49,7-1.74.21-3.39-.46-3.46-2.63s1.81-1.24,2.9-1.49c1.28-.29,2.61-.87,3.85-.73,6.69.79,10.81-2.86,14.19-7.91C286,1123.9,287.64,1125.6,286.15,1127.85Z"/><path class="cls-31" d="M271.84,1142.4c1.32-2.08,3.11-1.42,6.23-1.26C275.26,1142.22,273.92,1143.37,271.84,1142.4Z"/><path class="cls-3" d="M286.15,1127.85c-.34-1.93-.67-3.86-1-5.79C287.12,1123.7,289.85,1125.22,286.15,1127.85Z"/><path class="cls-28" d="M283.58,1139.89a6.58,6.58,0,0,1,4.71-2.48C287.44,1139.68,285.8,1139.44,283.58,1139.89Z"/><path class="cls-32" d="M260,1119.77c.35,1,.71,2,1.06,3-1.24-.45-2.51-.89-2.74-2.4C258.32,1120.29,259.44,1120,260,1119.77Z"/><path class="cls-33" d="M426,711.09l1.89-.13c.64,3.25-.41,6.23-1.89,9.24Z"/></svg>