<svg id="Ebene_1" data-name="Ebene 1" xmlns="http://www.w3.org/2000/svg" viewBox="0 0 1687.17 1077.66"><defs><style>.cls-1{fill:#08a59d;}.cls-2{fill:#ebf1f1;}.cls-3{fill:#005c58;}.cls-4{fill:#bbccdc;}.cls-5{fill:#254665;}.cls-6{fill:#09a69e;}.cls-7{fill:#fefefe;}.cls-8{fill:#073381;}.cls-9{fill:#b0ddda;}.cls-10{fill:#ca5a4e;}.cls-11{fill:#715fd9;}.cls-12{fill:#2b4c6a;}.cls-13{fill:#581a75;}.cls-14{fill:#7bc6c5;}.cls-15{fill:#0a3481;}.cls-16{fill:#2a4c6a;}.cls-17{fill:#913133;}.cls-18{fill:#963a3c;}.cls-19{fill:#ce6459;}.cls-20{fill:#c35958;}.cls-21{fill:#e9b680;}.cls-22{fill:#f3dbda;}.cls-23{fill:#073380;}.cls-24{fill:#09a59e;}.cls-25{fill:#01605b;}.cls-26{fill:#005d59;}.cls-27{fill:#00625e;}.cls-28{fill:#005e5a;}.cls-29{fill:#00615d;}.cls-30{fill:#5db8ba;}.cls-31{fill:#725cd2;}.cls-32{fill:#5ab7b9;}.cls-33{fill:#12a8a0;}.cls-34{fill:#40b4af;}.cls-35{fill:#358380;}.cls-36{fill:#fdfdfd;}.cls-37{fill:#f5f6f9;}.cls-38{fill:#e9f0f0;}.cls-39{fill:#b8c9d9;}.cls-40{fill:#eef0f3;}.cls-41{fill:#b2c3d4;}.cls-42{fill:#f2f4f6;}.cls-43{fill:#eff1f4;}.cls-44{fill:#b6c7d8;}.cls-45{fill:#b0c2d3;}.cls-46{fill:#b3c5d6;}.cls-47{fill:#b7c8d9;}.cls-48{fill:#a8bacc;}.cls-49{fill:#dfe5ec;}.cls-50{fill:#889cb2;}.cls-51{fill:#5ec1bb;}.cls-52{fill:#943538;}.cls-53{fill:#b15866;}.cls-54{fill:#715dd5;}.cls-55{fill:#e9e2ec;}.cls-56{fill:#923234;}.cls-57{fill:#581a74;}.cls-58{fill:#903237;}.cls-59{fill:#173780;}.cls-60{fill:#8c343c;}.cls-61{fill:#b0c1d3;}.cls-62{fill:#b3c4d5;}.cls-63{fill:#b4c5d6;}.cls-64{fill:#a5b5c6;}.cls-65{fill:#8a9eb3;}.cls-66{fill:#a3b5c8;}.cls-67{fill:#b5c6d7;}.cls-68{fill:#a6b8cb;}.cls-69{fill:#ebedf1;}</style></defs><path class="cls-1" d="M290.83,849c7.18-25.48,15.35-50.66,23.66-75.79,16-48.46,33.44-96.41,52.85-143.61A1642.68,1642.68,0,0,1,439.71,475.5c8-14.87,16.23-29.63,24.35-44.44.81-2.06,2.65-2.34,4.5-2.54a58.48,58.48,0,0,1,6.49-.16H808.73a48.84,48.84,0,0,1,9,.42,27.08,27.08,0,0,0,5.9.83c31.53,1.34,63.09.92,94.64,1,7.81,0,15.63-.13,23.44,0,14.28.29,28.49-1.22,42.75-1.42,3.76-1,7.6-.82,11.43-.82,81.1,0,162.2.21,243.29-.13,26.62-.11,53.22-2,79.85-1.86,2.81,0,5.69-.37,8.35,1A1.33,1.33,0,0,1,1328,429c15,27.27,29.4,54.86,42.8,82.94q29.07,60.93,53.22,124,21.81,56.71,40.06,114.64c4.75,15.07,9.2,30.23,13.79,45.35-3.47,4.23-8.79,5.74-13.13,8.71-15.9,10.88-26.94,25.35-34.17,43.07-3,7.23-5.88,14.46-8.7,21.73-1.18,3-.57,4.87,2.21,7.09a82.43,82.43,0,0,1,24.24,30.57c.55,1.21,1.17,2.41.83,3.82a6.22,6.22,0,0,1-5.21,2.41c-2.49-1-3.81-3.16-5-5.28a51.1,51.1,0,0,0-6.9-9,127.23,127.23,0,0,0-52-41.36c-10.19-4.48-20.82-6.68-31.64-8.5-1.46-.24-3.59.27-3.59-2.33,1.22-1.13,2.33-2.17,2.07-4.18-1.53-11.5-5.5-22.16-10.81-32.38-.22-.42-.66-.76-1.65-.49-1.2,1.89,0,3.9.65,5.78,2.57,7.88,5.09,15.78,8,23.53,1,2.54,2.61,5.15,1,8.08-2.07,1.51-4.47,1.07-6.77,1.09-31.45.26-60.09,8.89-85,28.58a132.74,132.74,0,0,0-22.56,22.51c-1.5,1.94-2.62,4.34-5.28,5.09-3-.12-3.53-2.76-4.5-4.74-8.61-17.54-20.42-33.17-29.82-50.23a1.72,1.72,0,0,0-2-1,49.27,49.27,0,0,0,4.5,12c6.51,13.13,13.17,26.18,18.05,40,.5,1.41,1.34,2.68,1.95,4,1.5,3.35,3.5,5.77,7.68,4.73.7,2.58-1,4.43-2,6.45-8.41,15.75-16.24,31.73-19.14,49.61-.31,1.87-.86,3.57-2.77,4.44-5.31.45-10.54,2.39-15.95.89-2.2-1.45-2.34-3.88-2.84-6.12a113.93,113.93,0,0,0-3.89-14.41c-.67-1.82-1.17-3.8-3.17-4.85-1.76,1.44-.9,3.13-.67,4.66.83,5.45,2.88,10.54,4.75,15.69.74,2.05,2.24,4.39-.61,6.19-12,2.34-24.17,2.49-36.26,3.6-18.89,1.73-37.85,2.46-56.77,3.83-7.8.57-15.65.86-23.44,1-15.64.31-31.26,2-46.92,1.19-5-.25-9.88,1.95-14.86.31-4.23-5.54-3-12.32-4.16-18.55-.38-2,.28-4.18-1.25-7.19.32,8.05,1.91,14.8,3.13,21.6.25,1.35,1.51,2.8-.26,4-6.66,1.19-13.32,1.48-19.95-.13-1.7-1.48-1.7-3.55-1.74-5.5-.28-13.3-1.73-26.49-3.28-39.68-.3-2.57-.24-5.31-2-7.84-2.28,1.26-1.72,3.4-1.76,5.17a127.7,127.7,0,0,0,6.06,41.7c.61,2,2,4,.16,6.06-2.14,1.26-4.52,1-6.83,1-30,0-60,.68-89.93-.2-24.26-.71-48.55-1.18-72.8-2.51-16.27-.9-32.58-1.47-48.85-2.41-21.42-1.22-42.82-2.79-64.21-4.55q-51-4.2-101.84-10.34c-15.37-1.87-30.78-3.45-46-6.51-3.47-2.52,0-3.27,1.28-3.93,4.6-2.31,9.4-4.22,14.16-6.19,6-2.49,12-4.87,18.05-7.25,1.84-.73,3.65-1.69,5.75-1.17,1.85,2.39-.58,3.5-1.62,4.87-2.86,3.74-4.77,7.66-3.37,12.54,4.28-5.16,4.23-11.83,6.31-17.75,8.17-4.12,16.44-8,25.78-8.56,1.49,2.42-.74,3.55-1.84,5a39.62,39.62,0,0,0-7.88,15.3,9,9,0,0,0,0,5.38c.36,1,.84,2,1.93,2.05s1.7-.91,2-1.88c2.06-8.17,4.6-16.21,6.71-24.37.12-.43-.3-.92-.62-1.31,1.62-3.72,5.11-6,7.32-9.3a73.44,73.44,0,0,0,7.73-15c.92-2.5,1.78-5.07,3.47-7.16,4.15-5.11,4-10.63,2.06-16.51a179.87,179.87,0,0,0-24.14-48.52,18.16,18.16,0,0,1-2.1-3.38c-.47-1.71-1.81-2.72-3.1-3.77-11.16-12.68-23.1-24.52-37.71-33.22-17.46-10.4-35.89-18.19-56.38-20.5-7.25-.81-14.39-2.74-21.75-1.95-21.2,2.26-42.17,5.22-62,14-11.36,5.06-21.75,11.51-32.1,18.17a13.88,13.88,0,0,0-5.61,4.15c-10.86,10.92-22.24,21.34-31.2,34-3.15,4.47-5,9.77-9,13.69-2.67,1.84-1.37,3.36.12,5.3,4.71,6.16,11.28,10.35,16.47,16,1.44,1.58,3.31,2.86,3.72,5.18a4.52,4.52,0,0,1-.17,1.37c-1.43,3-4,5.4-4.42,8.91a2.63,2.63,0,0,1-1.34.35c-5.17-4.76-10.8-9.09-14.18-15.48.64-2.64,1.75-5.23.81-8.38-2.72,1-2.55,4.05-4.29,5.51a24,24,0,0,1-12.6-8.08c2.53-6.09,4.1-12.56,7-18.47a41.36,41.36,0,0,0-7.16,12c-.65,1.67-.84,3.6-2.45,4.8-2.15.69-3.89-.46-5.61-1.37A84.82,84.82,0,0,0,296,852.7C293.9,852.26,291.23,852,290.83,849Z"/><path class="cls-2" d="M1117.93,173.13c8.33,6.78,16.75,13.46,25,20.37,7.62,6.39,15.36,12.68,22.46,19.62,13.79,13.5,27.66,26.95,40.49,41.4,4.17,4.7,8,9.68,12,14.53-.85,2.19-2.91,2.62-4.81,3.11-24.51,6.4-49.17,12.08-74.16,16.26-2.94.49-5.87,1-8.82,1.41a55.57,55.57,0,0,1-11.44.86H611.45a65.4,65.4,0,0,1-12.43-.94c-8.56-1.74-17.18-3.27-25.61-5.64-2-.57-4.28-.78-5.62-2.77-.73-2.05,1.5-3.21,1.55-5.08-1.18-1.36-2.78-.81-4.18-.82-12-.05-24,.13-35.95-.1-4.84-.1-8.27,1.51-10.93,5.51-2.12,3.18-4.49,6.19-6.91,9.16-3.42,4.38-6.29,9.13-9.4,13.73-1.11,1.62-2.14,3.29-4,4.25-1.86,2.7-3.78,5.37-5.58,8.11-1.62,2.48-3.15,6.08-6.59,4.48-2.9-1.34-4.41-4.75-4-8.32A27.39,27.39,0,0,1,483,308c.45-6.94,4.11-12.46,7.92-17.92a72.14,72.14,0,0,0,8.68-16h-6.39q-220.3,0-440.62,0c-4,0-7.89-.24-11.57-1.95,1.42-1.55,3.29-1.54,5.11-1.27,6.13.89,12.3.56,18.46.57q212.57,0,425.15.16c7.37,0,12.43-1.74,15.46-8.7,1.37-3.15,3.2-6.29,6.75-7.72a429.53,429.53,0,0,1,37.13-47.9c10.48-11.88,22.54-22.16,32.89-34.12,2.71-4.76,7.41-7.51,11.27-11.12a51.24,51.24,0,0,0,5-4.65c-1.64-1.27-3.48-.75-5.14-.75q-57,0-113.92-.06c-2.76,0-5.72.66-8.13-1.45,1.62-1.78,3.75-1,5.65-1,38.73-.05,77.46-.4,116.18.23,9.25.15,16.23-2.57,22.7-8.35,1.47-1.32,3-2.63,4.44-3.94.74-2.9,3.38-4,5.45-5.55,4.59-3.52,9.32-6.85,14.78-10.55a23.28,23.28,0,0,0-5.48-.3c-45.74,0-91.49-.46-137.23.18-22.94.33-45.87.78-68.82.78-2.59,0-5.37.54-7.63-1.43,1.06-1.55,2.69-1.11,4.12-1.08,36.79.71,73.55-1.41,110.34-1.1,35.49.31,71,0,106.48.14A17.66,17.66,0,0,0,652.18,120a487.69,487.69,0,0,1,116-55.79A376.56,376.56,0,0,1,835,49.14c11.9-1.59,23.89-1.18,35.86-1,6.89.1,9.8,4.61,7.52,11a3.13,3.13,0,0,0-.21.46c-1.76,9.3-8.07,12.28-16.77,12.47-33.67.74-66,8.45-97.44,19.89-22.5,8.19-44.5,17.5-65,30.09-1,2.32-3.26,3.22-5.25,4.4-7.43,4.39-14.94,8.67-22.77,13.85a52.59,52.59,0,0,0,6.35.14l383.75,0a47.07,47.07,0,0,1,8.47.35c5.29,2,9.84,5.28,14.55,8.29,1.22.78,3.71,2.1.63,3.93a16.82,16.82,0,0,1-5.94.61c-57.28-.68-114.55,1.38-171.83,1.08-61.46-.31-122.93-.42-184.38.11-23.95.21-47.92.7-71.86,1.83a14.67,14.67,0,0,0-8.26,3.06c-5.76,4.25-11.32,8.77-17.28,12.72C610,184.13,596,197,582,210c-16,14.76-30.55,30.85-44.61,47.43-3.3,4.37-7.18,8.27-10.32,13.06,1.87,1.44,3.74.94,5.44.94,80,0,160,.9,239.92-.21,94.13-1.3,188.26.24,282.37-1,27-.35,54-.37,80.93-.78,6.34-.09,8.32-1.79,9.79-7.69.84-3.36-.41-5.12-3.65-5.7a47.09,47.09,0,0,0-8.48-.32l-529.34,0a58.08,58.08,0,0,1-10-.34c-4.14-1.32-2-3.48-.42-5.06,4.11-4.13,7.71-8.73,11.79-12.86a664.55,664.55,0,0,1,71.47-62.85c1.59-1.21,3.12-2.53,5.22-2.83a54.8,54.8,0,0,1,8.49-.32q208.64,0,417.27,0C1111.27,171.44,1114.94,170.48,1117.93,173.13Z"/><path class="cls-3" d="M1539,968c-1.41,10.72-6.68,19.86-12.41,28.62-9.82,15-25.77,21.42-41.61,27.12-27.09,9.76-55.14,16.08-83.47,21.35-17,3.16-34,5.93-51.08,8.7-13.89,2.25-28,3.45-41.93,5.15-13.49,1.64-27,3.45-40.48,4.92-8.67.94-17.4,1.33-26.1,2.09-14.41,1.26-28.8,2.67-43.22,3.89-5.26.45-10.53.33-15.83.93-8.37,1-16.87.61-25.29,1.21-20.47,1.46-41,2.42-61.47,3.11-16.56.56-33.11,1.55-49.68,1.91-40.43.87-80.86,2.32-121.29,1.74-24.48-.35-49-.18-73.42-1.07-11.46-.41-22.94-.08-34.37-.8-16.71-1.07-33.44-1.24-50.14-2.09-12.37-.62-24.76-1.15-37.12-1.94-15.63-1-31.26-1.94-46.88-3-12.29-.88-24.59-1.92-36.88-2.92-17.51-1.42-35-3.12-52.49-5-16.77-1.8-33.55-3.6-50.23-6.05-21-3.08-42-6.1-62.87-9.74-35.44-6.18-70.67-13.16-105-24.2a221.7,221.7,0,0,1-44.2-19.5c-5.66-3.31-10.3-8-16.31-10.63-.72-.35-1.86-.16-2.14-1s.56-1.51,1.37-1.69a68.69,68.69,0,0,1,9.35-1.5c12.33-1.13,24.15-4.55,35.94-8.07,2.69-.8,4.78-3.87,8.12-1.9,25.7,5.17,51.84,6.77,77.81,9.68q32.26,3.62,64.6,6.56c18.73,1.69,37.48,3.1,56.23,4.56,17.92,1.39,35.85,2.51,53.78,3.62,14.45.89,28.91,1.62,43.36,2.38,19.6,1,39.23,1.39,58.82,2.72,10.46.72,21,.72,31.43.92,17.14.33,34.27,1,51.41,1.38,53.12,1.15,106.24,1.14,159.36.82,34.11-.21,68.23-1.06,102.33-2.08,24.43-.73,48.89-1.57,73.29-3,25.08-1.45,50.19-2.36,75.21-4.7,2.83-.26,5.66,0,8.48,0,3.48-.21,6.57,1,9.55,2.63,6.7,8.34,16.53,7.21,25.56,8.35,15.65,2,31.43,1.87,47.16,2.32a16.82,16.82,0,0,0,9.61.17c22.92-1.81,45.65-4.89,67.94-10.73q11.34-3,22.66-6.09c11.91-3.29,21.66-10,30.32-18.55,2.24-2.22,4.24-4.71,7-6.37,7.52-1.91,14.85-4.58,22.63-5.45,17.79,7.09,36,4.64,54.13,2.15,4.12-.56,8.2-1.39,12.32-2C1535,966.63,1537.17,966.16,1539,968Z"/><path class="cls-4" d="M1448.79,910.63c-6.6-13.83-14.89-26.31-28.1-34.79a2.14,2.14,0,0,1-1-2.89c10-32.79,24.57-62,58.13-77,12.08-6.45,25.08-10.14,38.41-12.91,30-6.26,59.28-3.8,87.5,8.48,17.73,7.71,32.62,19.5,46.2,33.07.94.94,2,1.83,1.88,3.35,5.82,6.1,6.64,14,7.29,21.72,1.75,20.68-7.88,36.2-23,49-18.85,16-40.94,26-63.86,34.4-33.48,12.28-68.35,18.62-103.48,23.74a17,17,0,0,1-9.29-.81c-1.86-3.2-.87-6.8-1.4-10.2a120.08,120.08,0,0,0-8.24-29.52C1449.12,914.49,1447.82,912.76,1448.79,910.63Z"/><path class="cls-4" d="M1327.5,428.09c-22.47.33-44.94.58-67.41,1-83.63,1.58-167.26.2-250.89.79-8.11.06-16.29-.68-24.35,1-6.46-.83-13-.48-19.4-.31-39.55,1.05-79.11.39-118.67.27-9.75,0-19.57.4-29.32-.76q-173.38-.13-346.76-.26c-2.27,0-4.71-.64-6.64,1.25C463,429.54,461.39,430,460,430c-18.93-.3-37.77-2.86-56.75-2-5,.24-9.61-3.8-11-8.62-.69-2.42-.15-4.25,2.4-5.17a32.42,32.42,0,0,1,11.15-2.14c14.82,0,29.65-.24,44.46.1,8.68.2,17.22-1.34,25.87-1.17,2.81-1.92,6-1.61,9.17-1.6,42.69.12,85.39-.29,128.09.21,3.15,0,6.31.09,9.47-.1a82.69,82.69,0,0,1,8.48-.1c32.61.09,65.2-1.63,97.82-1.05,16.81.3,33.62.34,50.44.27a23.08,23.08,0,0,0,7.4-.79,51.73,51.73,0,0,1,9.47-.44q84.19,0,168.38.05,24,0,47.92-1.29c9.78,1,19.58.41,29.37.35,39.88-.25,79.76,0,119.64-.1,4.32,0,8.64-.11,13-.24,4.62.79,9.27.29,13.91.28q62.77-.07,125.54,0a3,3,0,0,1,1.85.56c1.76,2,4.08,1,6.11,1q170.79.08,341.59.05c1.49,0,3-.1,4.49,0,5.86.51,8.37,4.9,5.72,10.17a7.37,7.37,0,0,0-1.14,3.72c-1.72,3.89-4.46,5.69-9,5.62-54.61-.8-109.2,1.45-163.81,1-34.65-.29-69.29-.08-103.94,0-5.46,0-10.92-.46-16.36,1-4.78,1.25-9.5-1-14.32-1-11,.07-22,0-33,0C1330.78,428.48,1329.09,428.87,1327.5,428.09Z"/><path class="cls-4" d="M488.16,391.05c-10.81,0-21.7.78-32.41-.3-16.4-1.66-32.79-1.57-49.2-1.76-4.61-.06-9.16-4.26-10.36-8.77-.66-2.48.07-4.18,2.56-5.1a38,38,0,0,1,9.65-2.05,37.37,37.37,0,0,1,4.49,0c29.25.76,58.47-1.13,87.71-1.06a15.74,15.74,0,0,1,7.27-1.39q74.13,0,148.27,0c1.66,0,3.39-.23,4.94.45,2.74,1.21-.52-2,1.17-1.51a5.42,5.42,0,0,1,3.35-.85c14.47.73,28.92-.46,43.4-.42,84.94.19,169.88,0,254.82.12,33,0,65.9-1.52,98.87-1.26a107.23,107.23,0,0,0,19.37,1.5q70-.12,140,0c2.49,0,5,.19,7.43-.63a12.82,12.82,0,0,1,4-.38c5,.16,10-.24,15-.24,39.12,0,78.21,1.44,117.34,1.31,101.24-.35,202.48-.12,303.71-.09,1.79,0,3.67-.53,5.37.52,4.84,3.35,4.67,5.24,2.7,11.16-2.23,6.69-6.3,8-12.73,7.89-24-.33-48-.66-71.9,0-68.37,2-136.75.25-205.12.95-5.62.06-11.21,1.27-16.87.89l-1,.12c-13.94.7-27.9.16-41.85.3-7.64.08-15.28,0-22.92,0-22.86.06-45.68,1.41-68.51,2.36-4.81-.83-9.64-.17-14.45-.15-28.13.07-56.25-.28-84.38.2-6.81-.92-13.64-.19-20.45-.19q-244.88,0-489.74,0c-8.83,0-17.65-.32-26.48-.11-21.56.16-43.12.24-64.68-.06a41.69,41.69,0,0,0-8.43.37c-10.94-.44-21.88-.13-32.82-.26C492.81,392.56,490.21,393,488.16,391.05Z"/><path class="cls-4" d="M1117.93,173.13c-13.48,0-27-.08-40.45-.07q-198.78,0-397.57,0a12.3,12.3,0,0,1-6.67,1.59c-14.73,0-29.47,0-44.21,0-2.12,0-4.36.12-6-1.65,6.67-6.75,14.93-11.47,22.25-17.38a4.58,4.58,0,0,1,2.86-.55c12,.67,23.89-1,35.86-1.16,99.87-1.74,199.77.16,299.64-1.13,34.1-.44,68.2-.1,102.3-.77,2.37-2.16,5.33-1.58,8.08-1.58,22.27,0,44.54-.16,66.81.08,12.79-.22,25.58-.06,38.38-.08a14.42,14.42,0,0,1,6.72,1.59c2.33,0,4.66.07,7,.07h416.42a36,36,0,0,1,5,.09c6.29.88,7.78,4,4.75,9.6a12.8,12.8,0,0,0-1.28,3.23c-.87,3.95-3.28,5.53-7.23,5.12a31.39,31.39,0,0,0-4,0c-127.06,2.79-254.15,1.5-381.23,2-5.8,0-11.6.63-17.4,1-1.54,1.62-3.59,1.54-5.55,1.56-9.1.09-18.2,0-27.29,0a12.42,12.42,0,0,1-6.18-1.55Z"/><path class="cls-4" d="M1070.93,142.08,734.09,142q-31.49,0-63-.08c-1.4,0-2.91.5-4.76-.74,10.93-6.69,21.24-13.77,32.58-19.14l73,0a37.19,37.19,0,0,1,12.27-1.64q102.79,0,205.58.07c8,0,15.89-1.26,23.9-1.17,4.14,0,8.16,1.24,12.3.83a7.48,7.48,0,0,0,.82,0,4.15,4.15,0,0,0,1.93.42c24.81,0,49.66.84,74.42-.31,15.3-.7,30.57-1,45.83-.76,165.82,2.54,331.65.32,497.47,1.09,1.46,0,3-.44,4.36.56,5,3.76,4,4.78,2.22,10.66-2.38,7.83-7.47,7.36-13.44,7.33-21.65-.12-43.3-.43-64.94.06-96.54,2.15-193.09,0-289.63,1.13-30,.36-60.08,1.92-90.15,1.71-2.18,2.12-5,1.61-7.57,1.62q-20.2.1-40.41,0c-22.91.19-45.83.06-68.74.08A19.67,19.67,0,0,1,1070.93,142.08Z"/><path class="cls-4" d="M366,978.83c-.64-.31-1.56-1.06-1.88-.86-10.17,6.4-21.83,7.84-33.27,9.92-5.3,1-10.75,1.18-16,2.19-2.12.4.72,1,.38,1.68-8.77-.11-17.57,1.08-26.29-.67,4.24-2.78,9-1.11,13.52-1.56,2.27-.22,4.63.46,7-.89-8.09-1.31-15.51-4.7-23.27-7-18.33-5.49-34.69-14.64-48.23-28-6.35-6.29-12.36-13.17-15.39-22.3-4.87-14.67-11.72-28.59-18.27-42.59-1.26-2.71-3.35-4.95-4.31-7.82.31-2.88,2.28-4.7,4.24-6.48a96.18,96.18,0,0,1,42.93-22.33c2.06,1.39,1.88,3.67,2.26,5.72.4,2.23,1.64,3.68,4,3.5,2.54-.19,2.3-2.27,2.37-4.08.11-2.57-.62-5.28,1.16-7.6,2.43-1.32,5.1-1.1,7.72-1.22a4.55,4.55,0,0,1,2.7,1.42,5.26,5.26,0,0,1,.82,2.31c.89,6.16,3.25,7.79,9.23,6.39.8-.19,1.76-.27,2-1.21s-.68-1.46-1.4-1.8c-2.42-1.12-4.31-2.56-4-5.61.27-1,.58-2,1.92-2,4.87,1.84,9.91,1.45,14.94,1.12a2.79,2.79,0,0,0,2.28,1.71c11,1.77,20.77,6.92,30.77,11.43,1.43-.06,2.27.85,3.06,1.84l11.9,8.11c1.6.68,3.17,1.39,3.93,3.12q7.07,7.41,14.15,14.81c6.52,5.11,9.41,12.71,13.16,19.65a57.93,57.93,0,0,1,5.2,13.46c3.67,9,4.1,18.7,5.78,28.08S374.35,974.53,366,978.83Z"/><path class="cls-2" d="M1063,368.17a13.83,13.83,0,0,1-5.38.84c-33.58.34-67.17.95-100.76,1-90.55.14-181.1,0-271.66.14-7.75,0-15.49,1.07-23.24-.07a2.92,2.92,0,0,1-2.39.65,766.89,766.89,0,0,1-128.77-26.18c-1.91-.56-3.79-1.31-5.85-1.08a5.47,5.47,0,0,1-4-1.45c5.64-7.82,10.8-16,17.37-23.12,2.15-1.25,4.22-.37,6.27.26,42.44,12.86,86,19.42,130,24.43,25.81,2.94,51.69,5,77.59,6.65,17.59,1.14,35.24,1.68,52.86,2.39,40,1.63,79.94.82,119.9.7,23.61-.06,47.22-1.24,70.82-2.59,27.26-1.55,54.48-3.47,81.62-6.31,53.24-5.59,106.15-13.1,157.6-28.59,3.51-1.06,7-2.3,10.39-3.59,2-.76,4.09-1.61,6.24-.33,3.88,2.81,6.32,6.72,8.36,10.94-1.08,2.26-3.41,2.54-5.39,3.22-36.33,12.53-73.22,23.08-110.92,30.63-22.79,4.57-45.73,8.29-68.74,11.53A36.84,36.84,0,0,1,1063,368.17Z"/><path class="cls-2" d="M1227.16,280a144.57,144.57,0,0,1,15.75,19.82c-1.45,2.67-4.27,3-6.73,3.86-24.08,8.06-48.82,13.37-73.78,17.84-36.92,6.62-74.13,10.91-111.48,14.19-24.37,2.15-48.76,3.91-73.21,5-17.29.75-34.59,1.23-51.87,2-33.14,1.56-66.29,1-99.42.57q-39.15-.45-78.31-2.88c-53.69-3.31-107.23-8.32-160.35-17.08-12.49-2.06-24.93-4.47-37.33-7-2.71-.55-5.72-.67-7.48-3.41-.06-2.25,2.24-3.05,3-4.82,1.82-2,4.25-1.7,6.53-1.7q45.38-.07,90.75,0c3.84,0,7.59.88,11.41,1,20.93,2.82,41.89,5.45,62.92,7.44,16.73,1.59,33.49,2.69,50.26,3.73,39.22,2.43,78.48,3.52,117.74,2.71,23.43-.48,46.88-1.15,70.3-2.58,20.25-1.23,40.5-2.52,60.73-4.17,20.57-1.67,41.07-4,61.57-6.45,7.09-.83,14.13-2.08,21.26-2.54,10.35-1.73,20.79-.89,31.2-1,4.14,0,7.91-.28,10.45-4.18,1-1.46,2.82-1.63,4.32-2.28,17.36-3.93,34.87-7.21,52.2-11.32,7.78-1.85,15.42-4.19,23.21-6C1222.88,280.35,1225,279.68,1227.16,280Z"/><path class="cls-4" d="M655,309c-34.2-2.05-68.42-.42-102.63-.93-2.16,0-4.32.05-6.48.08L498,308a163.7,163.7,0,0,1,12-18c2.5-1.66,5.34-1.61,8.16-1.56,14.9.31,29.74-.94,44.61-1.59,11.68.91,23.41.55,35.1,1.24,19.41,1.94,38.88.84,58.31.85q224.58.18,449.14,0c8.62,0,17.27.58,25.85-.81,3,1.18,6.07-.63,9.11,0,3.94,1.3,6.29,3.63,5.26,8.15a6,6,0,0,0,.41,2.93c-2.26.91-4.41,1.74-5.46,4.39-.92,2.32-3.27,2.42-5.54,2.4-7-.07-14,.13-20.91-.08-4.83-.14-9.54.77-14.31,1-3.14-1.13-6.26,0-9.36.15-36.49,2-73,1.67-109.53,1.51-6.64,0-13.19,1.92-19.86.64-2.57-.86-5.24-.77-7.9-.77-32.63,0-65.26.25-97.9.24-24.3,0-48.61-.15-72.91-.19-2,0-4-.13-5.72,1.21-4.87,1.7-10,1.29-14.84.76-11.81-1.29-23.61-.66-35.42-.78-18.3-.18-36.61.09-54.92-.13C665.9,309.49,660.52,307.92,655,309Z"/><path class="cls-2" d="M933.45.11c16.62-.47,33.22.64,49.73,2.12a544.31,544.31,0,0,1,111.9,21.64,454.29,454.29,0,0,1,82.15,34.49c19.15,10.31,37.59,21.87,53.94,36.44,1.48,1.32,3.21,2.36,4.64,3.73,4.91,4.69,5.27,8.63,1.22,14-2.09,2.81-4.3,1.37-6.45-.12-9.84-6.79-19.5-13.84-29.57-20.26-24-15.33-49.69-27.55-76.18-38-31.42-12.44-64-20.75-97.16-26.83-16.25-3-32.68-4.89-49.17-6.39-23.18-2.11-46.38-3.55-69.61-2.71C892,18.84,875.2,20,858.38,21.82a622.9,622.9,0,0,0-92.12,17.23,555.42,555.42,0,0,0-78.55,27.08c-16.5,7.13-32.75,14.75-48.09,24.15-3.69,2.26-5.69,1.09-7.64-2.11s-1.74-5,1.79-7.15A517.42,517.42,0,0,1,734.83,32.89,581.36,581.36,0,0,1,834,8,544.13,544.13,0,0,1,888.2,2C903.28,1.06,918.33-.11,933.45.11Z"/><path class="cls-1" d="M543,313c19.28,4.5,38.76,8,58.32,11,42.47,6.46,85.18,10.87,128,13.68,23.43,1.54,46.89,2.57,70.36,3.35,48.12,1.6,96.25,1.7,144.37-.12,67.44-2.55,134.68-7.43,201.39-18,33-5.23,65.85-11.68,97.48-23,3.12,3.86,6.76,7.35,8.67,12.08a537.42,537.42,0,0,1-67.86,18.37c-41.68,8.48-83.78,13.81-126.1,17.62-79.1,7.11-158.37,8.68-237.72,6.76-57.81-1.39-115.49-5.12-172.83-12.84-36.29-4.89-72.41-10.91-107.26-22.76a6.52,6.52,0,0,0-1.48-.17C539.78,316.84,540.74,314.41,543,313Z"/><path class="cls-4" d="M511.92,255.14c-3,4.79-6.08,9.51-8.88,14.4-1.51,2.63-3.36,3.78-6.42,3.55-3.32-.24-6.66,0-10,0q-213.39,0-426.77.07c-6.33,0-12.57-.82-18.87-1-8.83,0-17.66,0-26.49-.08-5.34-.07-8.84-2.8-10.25-7.55-.82-2.75-.07-4.84,2.8-5.24,3.1-.43,6.1-1.37,9.33-1.33,14,.16,28,.78,42-.06,63.06-3.76,126.18-.37,189.25-1.81C335.71,254,423.82,255.67,511.92,255.14Z"/><path class="cls-4" d="M490.89,290.09,483,308q-217.62,0-435.22-.2c-12.42,0-24.9-.73-37.36-.78a10.61,10.61,0,0,1-7.56-3.33C1,301.88-.56,299.33.2,296.5c.7-2.6,3.48-1.87,5.33-2.71,5-2.24,10.1-1.61,15.21-1.64,11.33-.07,22.67.31,34-.08,63.42-2.16,126.85-.33,190.27-1.06,1.54-1.11,3.52.19,5.06-.93Z"/><path class="cls-5" d="M1460,956.08c5.45-1.52,11.12-1.08,16.69-1.89a574.43,574.43,0,0,0,62.56-12.33c28.27-7.42,55.71-17.15,80.55-33,13.89-8.83,26.83-18.86,33.89-34.38,6.84-15,5.58-30-1.18-44.73a19.17,19.17,0,0,1-.63-1.85c5.58.12,7.79,4.89,10.24,8.4a121.52,121.52,0,0,1,16.24,34.73c4.62,15.31,10.18,30.47,8.55,47-.52,5.35-2.29,8.8-6.94,12-17.3,12.07-37.56,15.94-57.12,21.8-15.28,4.57-31,7.33-46.56,10.66-10.51,2.25-21.34,3-32,4.28A26.33,26.33,0,0,0,1539,968c-8.6.17-16.87,2.68-25.36,3.54-13.12,1.33-26.23,2.52-39.33-.46-3-.67-5.3-2.73-8.29-3.16-3-1.56-5.6-3.49-6.72-6.83C1458.66,959.34,1458.33,957.54,1460,956.08Z"/><path class="cls-2" d="M1650.82,121.15c-2.5,0-5-.08-7.5-.08q-304.89,0-609.77,0c-2.24,0-4.68.82-6.74-.88h78l.34-.88c-5.55-2.63-11-5.46-16.68-7.86A618.59,618.59,0,0,0,987.22,78.7c-22.39-5.21-45-9.18-67.74-12.68-3.55-.55-7.24-1-9.14-5-2-4.24-1.19-6.6,3.41-6.8,7.48-.34,15.06-.73,22.46.09,9.37,1,18.78,1.44,28.14,2.57,12.65,1.53,25.25,3.29,37.77,5.48a497.06,497.06,0,0,1,78.31,20.43c27.37,9.55,53.83,21.07,78.77,35.92,2.64,1.57,5.42,1.36,8.22,1.36q238.63,0,477.27,0C1646.73,120.11,1649.06,119.19,1650.82,121.15Z"/><path class="cls-2" d="M1026,120.13a3.44,3.44,0,0,1-2.75.91c-8.63.06-17.28.79-25.87.82-75.15.32-150.29.18-225.43.18,4.95-3.51,10.85-4.9,16.42-6.86a377.26,377.26,0,0,1,69.75-17.32,312.65,312.65,0,0,1,63.57-2.54,289.15,289.15,0,0,1,89.39,19.28C1016,116.52,1021,118.29,1026,120.13Z"/><path class="cls-5" d="M200,880.86c3.29,1.23,4,4.48,5.3,7.13,7.73,16.1,14.18,32.77,21.28,49.13,3.9,9,11.72,16.38,19.94,22.46,12.91,9.55,26.65,17.4,42.4,21.51,7.15,1.86,13.86,5.37,21.39,6,.87.07,2.2-.16,1.81,1.5a2.65,2.65,0,0,1-2.79,2.3c-4.8,0-9.59,0-14.38,0-2,0-4,.12-6,.18-18.13.32-35.36-4.51-52.66-9.1-7.58-2-13-7.4-19.28-11.45-12.75-8.17-23-19.29-34.72-28.65-11.07-8.84-12-19.37-5.65-31.54A149.69,149.69,0,0,1,193.44,885C195.26,882.76,197.72,882.12,200,880.86Z"/><path class="cls-4" d="M421,125.16c74.32-.7,148.63-1.76,224.25-.93L620,142c-49.05,0-98.11.22-147.16-.18-16.39-.13-32.73-2.35-49.19-1.82a9.49,9.49,0,0,1-9.28-5.55c-2.59-5.34-1.52-7.37,4.49-8.42A12.22,12.22,0,0,0,421,125.16Z"/><path class="cls-1" d="M1232.62,369l-2.77.14c-1.76.75-3.62.38-5.42.38q-69.65,0-139.27,0c-3.4-1.95-.09-2.53.82-2.82a53.74,53.74,0,0,1,8.75-1.62,848.58,848.58,0,0,0,102.52-21.29,68,68,0,0,0,7.16-2.05,8.37,8.37,0,0,1,1.47-.55,126,126,0,0,0,16.33-4.76,5.13,5.13,0,0,1,1.45-.35c11.84-3.45,23.48-7.49,35.09-11.63a2.83,2.83,0,0,1,2.21.43c6.91,6.82,11.32,15.47,17,23.17.67.91,1.23,1.91,1.85,2.87-.5,1.61-1.87,2.26-3.25,2.82C1262.19,359.58,1248,366,1232.62,369Z"/><path class="cls-4" d="M471,155.09H603.53c-8,6.44-14.06,13.06-21.59,18-26.46,0-52.92-.35-79.37,0-30.6.41-61.16-1.22-91.74-1.16a12.39,12.39,0,0,1-11.32-7.82c-1.62-3.84.26-6,3.44-6.72a39.14,39.14,0,0,1,9.29-1.42c17.3.14,34.61.07,51.91.05C466.47,156.06,468.84,156.3,471,155.09Z"/><path class="cls-2" d="M1289,242.05c-1.87,7.67,1.73,12.74,7,17.86,9.91,9.58,20.64,18.53,28.77,29.72,9.32,12.84,16.23,27,17.65,43.13.22,2.51-.85,5.19-1.59,7.72-.56,1.88-1.45,4.14-3.6,4.27s-4-1.44-5.18-3.41c-2.6-4.32-3.88-9.13-5.16-13.95a90.18,90.18,0,0,0-20.4-37.16c-8.51-9.53-17.54-18.6-26-28.21a22.19,22.19,0,0,1-5.76-14.47c-.48-20.29-2.37-40.36-11.62-59-1.15-2.32-3-5.33.66-6.78,3.08-1.23,6.81-2.34,9.29,1.66,8.24,13.3,14,27.43,14.82,43.29C1288.21,231.88,1289.4,237,1289,242.05Z"/><path class="cls-2" d="M1188.89,173.13l39,0c7,9.62,14.4,19,20.09,29.52,7,13.09,9.66,27.05,8.7,41.69-.21,3.18-1.84,6.37-3.28,9.33-2,4.06-4.82,4.19-8.35,1.18-3.31-2.82-5.29-6.67-6.7-10.36-10.4-27.24-27.18-50-48.29-69.73A11.07,11.07,0,0,1,1188.89,173.13Z"/><path class="cls-2" d="M1316.81,350a16.83,16.83,0,0,1,0,3.48c-.5,2.36-1,3.81-4.23,2.05-13.3-7.16-21.66-18.59-27.18-32-7.47-18.15-18.22-34.21-29.44-50.08-2.2-3.11-4.2-6.38-6.1-9.69-1.8-3.15-.5-4.67,2.94-4.76,6.25-.15,10.88,3.68,14.77,7.44,10.86,10.51,22.21,20.61,31.25,32.88,9.54,12.93,16.32,26.91,17.15,43.29C1316.05,345.12,1317.35,347.46,1316.81,350Z"/><path class="cls-6" d="M521,342l3.91.1c21.84,6.41,43.84,12.25,66.13,16.89,19,4,38.08,7.32,57.35,9.61,1.94.23,4.66-.57,5.49,2.44-1.4.81-2.94.43-4.4.43q-71.7,0-143.39,0c-1.47,0-3,.37-4.4-.47C507.36,360.87,514.6,351.75,521,342Z"/><path class="cls-6" d="M488.16,391.05c13.31,0,26.63-1.25,39.9.76,9.28-.48,18.05,2.45,26.94,4.32,20.19,4.25,40.46,8.05,60.74,11.8,2.44.45,5.9-.65,7,3.05H476.11Z"/><path class="cls-2" d="M1370.87,368c-1.62-20.78-2.13-41.92-10-61.46-5.72-14.19-11.7-28.61-22.26-40.29-3-3.29-6.82-5.25-10.66-7.25-1.4-.73-3.37-1.58-2.47-3.66s2.62-.64,3.94-.34c8.95,2,16.34,6.51,21.31,14.37,9.1,14.44,19.25,28.35,23.83,45.16,3.23,11.83,4.72,24,6.38,36.1a123.18,123.18,0,0,1,.94,17.37A26.19,26.19,0,0,1,1370.87,368Z"/><path class="cls-2" d="M1327.5,428.09q101.22,0,202.45-.06c44.62,0,89.23-1.86,133.85-1,4.39.09,6.56-2.42,9-5.11-.54,4.54-3.4,6.16-7.62,6.06h-1c-91.61,1.1-183.22,1.1-274.83,1-7.09,0-7.08.32-5.87,7.41,2,12,9.28,21.17,16,30.58,4.22,5.87,6.37,11.8,4.44,19-.56,2.13-1.26,3-3.37,1.87-2.52-1.29-5.29-2.28-7-4.69-7.93-11.28-15.86-22.57-20.93-35.53-1.82-4.67-3.26-9.46-2.76-14.56.35-3.48-1.34-4.15-4.41-4.12-12.5.13-25,.06-37.5.06Z"/><path class="cls-1" d="M1145.93,299.23c-.81-.64-3.83.9-2.22-2.11,2.06-3.83.51-6.16-2.94-7.87-.12-1.1-2.44-.32-1.8-2.09,25.57-4.88,51.06-10.11,76.17-17.06.94-.27,1.83-.7,2.75-1.05l9.27,11c-12.12,4.58-24.81,7.1-37.38,10C1175.22,293.34,1160.55,296.17,1145.93,299.23Z"/><path class="cls-7" d="M1316,407l-.45,0-.44,0c-5.28-3.92-7.29-10-10.27-15.47-.81-1.46.34-2,1.77-2q29.44,0,58.87,0c1.8,0,3.66-.45,5.4.45h0c-1.93,3.77-1,7.84-.91,11.74s-1,5.44-5.25,5.37C1348.5,406.87,1332.26,407,1316,407Z"/><path class="cls-2" d="M1370.87,368h11q143.4,0,286.8.06c2,0,4.36-.9,6.15,1L1240.11,369c-2.5,0-5,0-7.49-.06,12.6-4.66,25.21-9.29,37.79-14,3.2-1.2,6.28-2.69,9.42-4,2.82,4.27,5.78,8.46,8.42,12.85,1.89,3.15,4.14,4.4,8,4.37C1321.12,367.93,1346,368,1370.87,368Z"/><path class="cls-8" d="M266.87,850c-.84-.08-1.72-.08-2.05-1.11-2.38-1.27-2.87-3.64-3-5.92a20,20,0,0,0-3.2-10c-.29-.81-1.1.25-.56-.15.12-.09.22,0,.33.27,1.58,3.87,1.23,7.7-.19,11.53-2.67,7.31-4,8.06-9.6,5.48-5.28-2.91-3.39-8.44-4.6-12.82-.37-1.34.71-2.86-.19-4.25-3.12-2.23-2-5.49-2.09-8.47a8.91,8.91,0,0,1,.31-1.62c1.46-2.83,1.08-6.52,4-8.69a6.37,6.37,0,0,1,2.46-.65c3.1-.25,6.2-.12,9.3-.13a6.81,6.81,0,0,1,6.25,3.13c6.73,5.22,9.27,12.49,9.94,20.61.3,3.59.26,7.22,1.87,10.57-1.12.31-.85,1.32-1.07,2.1C272.19,852,269.54,851.74,266.87,850Z"/><path class="cls-2" d="M1146.9,142.05h48l11,10h-45c-4.5-1.78-8.26-4.79-12.28-7.36C1147.7,144.1,1146.45,143.58,1146.9,142.05Z"/><path class="cls-9" d="M1084,369l140.37.05c1.83,0,3.66.07,5.49.1-1.53,1.52-3.46.88-5.22.88q-75.27.06-150.56,0a34,34,0,0,1-11.08-1.86c19.29-2,38.4-5.21,57.5-8.51A770.64,770.64,0,0,0,1213,338c15.74-4.77,31.33-10,47-15.1a2.22,2.22,0,0,1,1,2l-2,.27c-12,3.93-24,8.16-36.06,11.87h0c-5.65,1.73-11.37,3.23-17,5h0c-43,12.4-86.83,20.36-130.23,26.64C1077.81,369.38,1081.05,366.77,1084,369Z"/><path class="cls-10" d="M223.18,802.93c1.1-8.16,4.59-14.78,12.13-18.78.88-1.49,2.35-1.7,3.88-1.76,2.63.46,5.42,0,7.89,1.41a22,22,0,0,1,4.12,4,2.32,2.32,0,0,1,.09,1.38c-2.47,2.32-4.62,4.57-1,7.82,1.09,1,.86,2.71.16,4.13a2.42,2.42,0,0,1-2.4,1.13c-2.45-4.86-5.16-2.68-7.88-.27-3.45,1.2-6.37,3.34-9.4,5.29-1.47.95-2.81,2.36-4.86,1.92C224.61,807.24,224.11,805,223.18,802.93Z"/><path class="cls-10" d="M243.05,823a5.85,5.85,0,0,1-.25.91c-3.28,6.73-9.62,7.51-16,8.21C222,829,219.75,824.79,221,819c.93-2.43-.26-5.52,2.31-7.44a5.9,5.9,0,0,1,2.49-1.55c3.88-.93,6.15-5.71,10.9-4.58,1.89,2,.79,5.21,2.87,7.14C241.52,815.8,245.38,818.36,243.05,823Z"/><path class="cls-11" d="M250.22,800.77c-.18-1.42,0-2.88-1.05-4.14-3.79-4.72-3.77-4.74,1.82-7.81,2.41-1.6,5.09-1.46,7.78-1.22,2.23,3.36,5.42,6.29,4.84,10.9-.4,1-1.42,1.3-2.65,2.59,1.91-.39,2.64-1,3-2.19s-.3-3,1.32-3.83c4,4,3.54,8-.06,12-1.44-.18-2.91-.12-4.56-.42,1.6.39,3.19,0,4.33,1.25,2.49,3.18-1,5.77-.86,8.73-5-3.26-10.69-.89-16-1.91-.89-1.87-.29-3.69.14-5.53.54-1.25,1.41-2.31,2-3.54C251.45,804,251.14,802.4,250.22,800.77Z"/><path class="cls-2" d="M477.61,339.06c3.41-.07,5.16,1.45,4.09,4-3.06,7.19-4,15.1-7.74,22-1.89,3.47-4.41,3.72-6.67.42-1.9-2.79-3-5.83-1.89-9.4,1-3,1.88-6,1.58-9.25a3.68,3.68,0,0,1,1.75-3.88C471.8,341.42,475,340.18,477.61,339.06Z"/><path class="cls-12" d="M250.81,757.39c1.54-3.48,4.72-3.95,7.17-5.38,1.06-.63,2.32-1.24,1.72-2.51s-2.13-.61-3.12-.26c-2.14.74-4.12,2-6.29,2.56-2.59.71-5.22.21-6.18-2.62-.89-2.65,1.77-3.12,3.4-4,3.86-2.16,8.09-.79,12.14-1.18,1.3-.13,3,0,3-1.68,0-1.34-1.69-1.4-2.84-1.28q-6.87.71-13.73,1.58c-1,.13-2.07.74-2.46-.6-.32-1.1.51-1.65,1.54-2.11a32.49,32.49,0,0,1,16.72-2.77,5.94,5.94,0,0,1,5,3.53c.89,2.37-.42,4.14-2.42,5.37-.58.36-1.07.58-1.09,1.4C263.23,755.5,259.76,758.34,250.81,757.39Z"/><path class="cls-13" d="M239,783l-3.69,1.11c-2.35.12-3.46-1.73-4.71-3.17-.89-1-1.26-3.11.54-3,3.23.3,2.85-2.23,3.53-3.69,4-8.74,11.27-11.19,18.3-4.48-1.31,2.69-4.21,3.2-6.4,4.69-2.13.69-2.92,2.39-3.6,4.34S241.93,783.22,239,783Z"/><path class="cls-14" d="M501.65,371q74.05,0,148.13.05c1.44,0,3,.37,4.16-1a9.07,9.07,0,0,1,6-.1l2,.15c.87,1.51,2.85.35,4.34,2h-7.17l-155,0c-1.16,0-2.32-.09-3.48-.15Z"/><path class="cls-15" d="M246.24,773.9a20.62,20.62,0,0,1,6.73-4,17,17,0,0,0,9.27-.92c1.42-.57,3.44-1.2,4.33.81.82,1.85-.77,3.06-2,4.13s-2.6,2-3.92,2.91c-.75,1.2-2,1.28-3.22,1.52-2.07.21-3.6,1.53-5.18,2.66a5.26,5.26,0,0,1-5.52.89C243.1,778.5,243.05,777.77,246.24,773.9Z"/><path class="cls-16" d="M248.64,850.16c5.16,1.19,7.72-1.15,8.33-6.14,1.74,1.94,1.51,3.92.1,5.91a75.08,75.08,0,0,0,.14,8.36c.33,2.73,0,4.74-3.2,4.62-2.77-.11-5.9-.34-5.94-4.17a49.42,49.42,0,0,0-.94-6.69Z"/><path class="cls-17" d="M257.05,777.09l3.62-.3a24,24,0,0,1,.25,9.21c-.67.75-.79,2-2.05,2.2-2.54,1.36-5.23.69-7.88.62,0-.29,0-.58,0-.87C248.66,781.91,253.53,779.88,257.05,777.09Z"/><path class="cls-18" d="M226.8,832.1c5.36-2.68,11.83-3.2,16-8.21.55,3.05-.45,6.27,1,9.2C238.1,833.92,232.34,834.92,226.8,832.1Z"/><path class="cls-19" d="M218.87,815.88c-1.11.67-2.15,1.7-3.35,1.93-1.67.32-4.13,1-4.81-1.09s1.84-2.22,3.21-2.81c2.72-1.19,5.32-2.51,7.15-5,1.73-1,2.26,0,2.48,1.52C222.56,812.76,221.4,814.91,218.87,815.88Z"/><path class="cls-20" d="M258.87,788.2a3.55,3.55,0,0,1,2.05-2.2c-.34,3.87,4,5.51,4.31,9.07l-.87,4.89c-1.21.54-1.77.21-1.51-1.16C262.93,794.74,259.84,791.87,258.87,788.2Z"/><path class="cls-21" d="M222.93,810.72c0-1.26-.74-1.71-1.86-1.78a14.07,14.07,0,0,1,2.11-6c3.14,1,2.7,3.67,2.86,6.06a1.24,1.24,0,0,1-.17,2l-1.62,1.1A1.35,1.35,0,0,1,222.93,810.72Z"/><path class="cls-22" d="M222.93,810.72l1.32,1.32c-1.07,2.33-2.15,4.66-3.22,7,0-1.56-.12-3-2.16-3.14Z"/><path class="cls-23" d="M264.94,807.93c-1.56,0-3.32.62-4.63-1.53,1.91-.51,3.49-1,4.86.7A1.17,1.17,0,0,1,264.94,807.93Z"/><path class="cls-2" d="M250.05,290.08c-1.47,1.51-3.34.8-5.06.93C246.43,289.39,248.33,290.22,250.05,290.08Z"/><path class="cls-4" d="M387.07,801.1A156.29,156.29,0,0,1,452.41,772c11.85-2.29,23.8-4.34,36-3.73a148.46,148.46,0,0,1,64,17.58c16.33,8.82,30.27,20.35,42.67,34,1.45,1.58,2.67,3.38,4,5.08.94,1,2.29,1.75,2.72,3.23,12.11,16,20.74,33.84,27,52.86,1.88,5.7,1.82,10.89-1.82,16.06a44.3,44.3,0,0,0-5,10.25,52.22,52.22,0,0,1-15.12,21.7l.06,0a213.23,213.23,0,0,0-26.13,8.89.52.52,0,0,1-.84.26,333.13,333.13,0,0,0-40.88,16.76c-4,4-9.58,5-14.24,7.72-10.32,6.06-21.52,7.17-33.08,5.12-4-.71-8.35,1.14-11.92-1.91.91-2.92,3.44-2,5.35-2,9-.09,18-.22,26.95.17-1.21,0-2.54.37-3.61-.14-11.51-5.44-24.36-5-36.37-8.29-20.66-5.73-36.77-17.5-48.89-35-3.78-5.44-8.87-9.39-14.15-13.21-19.82-14.34-40.1-28-59.15-43.45-3.59-2.91-7.24-5.87-8.27-10.79C352,834.41,366,818.84,382,805,383.84,803.88,385.06,802,387.07,801.1Z"/><path class="cls-7" d="M479.91,965.11c15.15,1.57,30.38,4.79,44.73-3.94a50.42,50.42,0,0,1,14.47-6.36c12,1.65,24,3.41,36,4.93,9.62,1.22,19.28,2.1,28.91,3.21,10.91,1.27,21.79,2.94,32.74,3.83,7.71.62,15.4,1.43,23.11,2.15q22.38,2.05,44.77,4c4.77.39,9.56.48,14.34.88,13.68,1.16,27.44,1.3,41.15,2.23,22.83,1.54,45.68,2.27,68.54,3.22,11.3.48,22.61.08,33.88.77,34.61,2.13,69.26.37,103.88.95,1.5,0,3-.1,4.49-.15a1.58,1.58,0,0,1,1.95,0h21a.57.57,0,0,1,1,0c14.55-1.81,29.25.28,43.8-1.73a18.61,18.61,0,0,1,3-.1c18.62.4,37.16-1.46,55.73-2.19,14.51-.58,29-2,43.53-2.9,11.35-.73,22.66-2,34-3.08A14.18,14.18,0,0,1,1180,970l16.88-1.21c1.67,1.59,1.46,3.74,1.23,5.63-.65,5.38,1.75,8.76,6.24,11.36,5.76,3.33,10.92,7.6,16.44,11.31,1.69,1.14,3.94,2,4,4.66-13.4.26-26.73,1.78-40.13,2.34-12.21.52-24.42,1.31-36.63,2-14.88.82-29.76,1.31-44.64,2-21.05,1-42.13,1.12-63.15,2.12-16.32.78-32.6,0-48.87.77-49,2.16-97.92.89-146.87.69-18.62-.07-37.31.17-55.89-1-11.32-.69-22.61-.19-33.89-.8-18.89-1-37.8-1.5-56.7-2.12-13.72-.46-27.44-1.32-41.16-2q-26.49-1.31-53-3c-14.15-.89-28.29-2-42.44-2.91-16.42-1.09-32.82-2.53-49.22-4-13.41-1.19-26.85-2.28-40.19-4-35.31-4.63-71-5.85-106-13,5-4.37,8-9.94,11.29-15.68,4.86-8.51.89-16.32.29-24.35-.41-5.34-2.36-10.56-3.62-15.83,3.56-1.76,6.36-.53,8.79,2.22,3,8.84,3.14,17.93,2.32,27.09-.46,5.1,2.61,8.49,7.71,8.53q22.41.2,44.73,2.21c11.41,1,22.91.47,34.37.44C474.64,963.45,477.63,962.71,479.91,965.11Z"/><path class="cls-4" d="M1224.8,1001.76c-7.28-5.13-14.4-10.53-21.91-15.3-4.55-2.9-7-6.18-6.1-11.71a39.3,39.3,0,0,0,.1-6c3.18-17.85,9.7-34.48,18.27-50.38,1.71-3.18,4.18-6,5.17-9.53a4.91,4.91,0,0,1,3.51-4.83c4.32-3.9,7.39-8.87,11.31-13.14,21.49-23.33,47.85-37.16,79.12-42.18,9.89-1.59,19.77-1.68,29.69-1.93a.71.71,0,0,1,1,.19c7.84,1.73,15.87,2.5,23.54,5a128.18,128.18,0,0,1,46.69,26.68c6.82,6.14,13.36,12.47,18.19,20.36,1.57,4.85-.82,8.79-3.14,12.63-6.11,10.11-14.35,18.29-23.56,25.57a338.5,338.5,0,0,1-70.31,42.56c-20.66,9.4-41.71,17.72-63.95,22.53-11.17,2.42-22.43,5.07-34.06,3-1.81-.32-3.57-.76-5.34-1.2C1230.38,1003,1227.8,1001.64,1224.8,1001.76Z"/><path class="cls-5" d="M1233,1004.12a120.45,120.45,0,0,0,39.55-3.11c51-13.08,97.4-35.28,138.09-68.93a89.58,89.58,0,0,0,16.22-17.56,34.88,34.88,0,0,0,6.5-15.48c4.8,3.74,6.53,9.83,10.74,14a6,6,0,0,1,3.17,2.27c7.69,10.94,11.47,22.67,7.35,36a146.05,146.05,0,0,1-6.32,15.64,13.6,13.6,0,0,1-4.4,5.89c-12.74,16.12-29.75,24.58-49.49,29.18-16.75,3.9-33.44,8-50.44,10.57-9.3,1.4-18.78,1.6-28.18,2.34a18.28,18.28,0,0,1-8.85,0c-12.94-.15-25.9.39-38.8-1-9-1-18-2.07-27.06-3C1236.74,1010.51,1236.26,1005.73,1233,1004.12Z"/><path class="cls-5" d="M479.91,965.11c-10.15-.06-20.31.2-30.44-.24-16-.69-32-1.87-48-2.79a28.68,28.68,0,0,0-8.9.41c-4.39,1.11-10.4-4.29-9.46-8.72,1.92-9.08.6-17.93-1.13-26.8a16.35,16.35,0,0,1-.16-2c-2.82-6.36-4.55-13.1-6.88-19.63-3.13-8.81-8.15-16.55-12.95-24.43-1.94-5-6.21-8.25-10.16-11.19-4.57-3.4-7.66-8.07-11.88-11.71-1.54-1.32-2.72-4.7,1.76-5,7.86,10.9,19.26,17.73,29.76,25.54,13.48,10,27.21,19.75,41,29.41,6.63,4.65,11.46,10.84,16.19,17.2,14,18.78,33.55,27.85,55.91,31.58,9.66,1.61,19.31,3,28.92,7.43C502.09,966,490.93,964.25,479.91,965.11Z"/><path class="cls-3" d="M1422.87,755.31c0,2.68,0,4.85,0,7,0,1.47.35,3.49-1.3,3.92s-2.51-1.42-3.31-2.62c-9.35-14.15-17.28-28.88-20.37-45.87a144.13,144.13,0,0,0-11.23-35.35c-1-2-1.69-4.38.48-5.85,2.54-1.72,4.42.27,5.85,2.14,10,13,16.94,27.65,21.74,43.21,2.44,7.87,6.18,15.3,7.58,23.55C1422.91,749,1422.52,752.39,1422.87,755.31Z"/><path class="cls-3" d="M1460.23,799.71c-8-12.76-12.17-25.6-15.23-38.86s-6.31-26.75-12.65-39.09a3.18,3.18,0,0,1-.35-.93c-.4-2.41-2.87-5.13.45-7.1,3.6-2.14,5.3,1.29,6.72,3.31a95.15,95.15,0,0,1,11.5,22.49c4.15,11.33,9.09,22.47,11.43,34.33C1463.71,782,1464.14,790.52,1460.23,799.71Z"/><path class="cls-3" d="M1365.74,805.28c.87,3.61-.89,6.92-.87,10.41,0,1.23-.26,2.43-1.51,2.88s-2.19-.68-2.86-1.55a69.36,69.36,0,0,1-8.85-15.48c-5.42-12.83-11.13-25.53-16.65-38.31-2.09-4.84-2.58-10.24-5.65-14.79-1.36-2,.44-3.44,2.67-3.38a5.73,5.73,0,0,1,5.06,2.78c8.07,15.43,19.72,28.75,26.54,44.9C1365.3,796.71,1366.59,800.88,1365.74,805.28Z"/><path class="cls-3" d="M884.94,971.08c-3,.06-4.07-1.74-5.25-3.62-6.1-9.69-6.4-20.42-5.57-31.26.69-9,2-18,2.75-27.06.58-7.4,2.4-14.68,2.11-22.17-.08-2,1.19-2.93,3.18-3,2.16-.08,3.57.68,3.73,3,.06,1,0,2,0,3,0,21,.18,41.92-.11,62.87C885.73,958.87,884.65,964.92,884.94,971.08Z"/><path class="cls-3" d="M1119.64,861.85c4.72,1.5,5.46,5.09,6.55,7.95,5.38,14.06,12.84,27.26,17.4,41.63,3.73,11.76,9.18,23,11.08,35.33a4,4,0,0,1,.09.48c0,2.09,1.16,5-.67,6s-3.07-1.87-4.47-3.12c-7.62-6.82-9.85-16.19-12-25.61-3.76-16.76-9.62-32.93-14.07-49.49C1122.45,870.85,1121,866.72,1119.64,861.85Z"/><path class="cls-3" d="M342.94,757.79c.54-4.79,2.88-9.08,4.23-13.67C354,721,360.88,697.77,373.1,676.65a17.14,17.14,0,0,1,.93-1.75c.91-1.25,1.05-4,3-3.33s1,3.25.83,4.89a98.83,98.83,0,0,1-7.54,27.63c-6.29,14.59-11.74,29.51-17.64,44.25a41.19,41.19,0,0,1-6.19,10.73c-.77.95-1,3-2.67,2.34C342.27,760.85,343.26,759.06,342.94,757.79Z"/><path class="cls-3" d="M664.87,567.37c-.24-17.9,7.4-31.7,15.15-45.46a3.76,3.76,0,0,1,.88-1.19c2.1-1.6,4.52-2.61,6.9-1.08s.67,3.81,0,5.4c-6.36,14.08-9.81,29.2-15.52,43.51-1.35,3.37-2.17,7-3.36,10.39-.24.67-1.08,1.58-1.68,1.6-1.4.05-1.1-1.29-1.25-2.21C665.31,574.24,664.51,570.16,664.87,567.37Z"/><path class="cls-3" d="M1223.84,904.06l-3.51,4.83c-2,.15-2.15,2.37-3.82,3.48a42.13,42.13,0,0,1-8.35-14.82c-4.92-14.7-13.11-27.91-19.06-42.13a19.72,19.72,0,0,1-1.83-5.13c-.15-1.33-2.62-3.07,0-4.13,1.85-.74,2.92.64,3.84,2.27,3.34,5.91,6.65,11.85,10.32,17.56C1209.44,878.39,1217,891,1223.84,904.06Z"/><path class="cls-3" d="M744.94,912.55c-.41,6.24.5,13.68-.84,21.14a28.94,28.94,0,0,0,.55,11.34c1.43,6.43-.12,12.82-1.95,19-.77,2.62-2.69,3.41-4.69.89a14.66,14.66,0,0,1-3.1-8.72c-.51-10.48,1.88-20.68,2.66-31,.63-8.39,1.86-16.78,1.4-25.26a14.37,14.37,0,0,1,.63-6.39c.64-1.55.12-4,3-3.43,2.49.49,2.28,2.49,2.28,4.31C745,900.06,744.94,905.71,744.94,912.55Z"/><path class="cls-3" d="M1378.59,768.12c-5-2.64-6.54-7.1-8.59-11.16-7.91-15.63-12.2-32.51-17.08-49.19-.74-2.53-1.29-5.17-3-7.3-.68-.82-1.15-1.64-.23-2.61s1.71-.58,2.69-.14a6.47,6.47,0,0,1,3.33,2.88,421.61,421.61,0,0,1,19.16,44.75C1377.38,752.24,1377.36,760.09,1378.59,768.12Z"/><path class="cls-3" d="M383.59,732.79c-.51,8.44-3.57,16.06-6.39,23.81-4.9,13.45-13.06,25.34-18,38.74a9.7,9.7,0,0,1-2,2.84c-.74.83-1.52,2-2.89,1.32-1.2-.59-1.39-1.8-1.32-3,.23-4.16,1.63-8.07,2.73-12,4-14.4,11.49-27.12,19.12-39.76C377.38,740.51,379.55,736.05,383.59,732.79Z"/><path class="cls-3" d="M650.53,906.37a123.81,123.81,0,0,1-13,50.4c-.85,1.72-1.68,4.4-4,3.72a5.28,5.28,0,0,1-3.61-5.9,106.85,106.85,0,0,1,7.35-30.17,68.59,68.59,0,0,1,8.43-15.17C647,907.56,648.25,906.32,650.53,906.37Z"/><path class="cls-3" d="M1138.73,746.8a151.74,151.74,0,0,1-10.82-30.1c-2.44-9.42-2.06-19-2-28.62,0-1.73-.53-3.87,2.31-4.07,2.35-.16,4.31.1,4.82,3,1.18,6.63,2.82,13.2,3.58,19.87,1.35,11.94,3.43,23.84,3.24,35.92C1139.85,744,1140.41,745.43,1138.73,746.8Z"/><path class="cls-3" d="M1415.46,834c-6.62-9.5-10.48-20.16-13.54-31.12-2.44-8.75-4.34-17.66-8.91-25.67-.85-1.49-2.34-3.67-.2-4.82s4.46-.36,6.14,1.81c3.57,4.66,5.91,9.91,8.19,15.27C1413.18,803.65,1415.57,818.51,1415.46,834Z"/><path class="cls-3" d="M782.92,909.8c-.6,13.86-1.14,27.71-3.74,41.41a41.86,41.86,0,0,0-.18,10.44c.19,3-1.6,4.11-3.65,5.3a2.67,2.67,0,0,1-3.54-.85c-1.49-1.72-1-3.68-.12-5.59a7.9,7.9,0,0,0,1.14-3.24c-.57-12.31,1-24.4,3-36.51,1.21-7.14,1.46-14.43,2.11-21.66.15-1.66.7-3.06,2.6-3s2.37,1.55,2.37,3.19C782.93,902.82,782.92,906.31,782.92,909.8Z"/><path class="cls-3" d="M855.89,932.49c-.4,11.72,1.8,25.09,1,38.54-.06,1.16,0,2.33-.07,3.48-.06.84-.38,1.77-1.34,1.77a2.13,2.13,0,0,1-1.47-1.1c-4-7.85-7.4-16-6.91-25,.5-9.19,1.81-18.35,2.8-27.52.28-2.62.74-5.22,1-7.84.15-1.72.16-3.66,2.38-3.66s2.51,2.06,2.55,3.65C856,920.14,855.89,925.46,855.89,932.49Z"/><path class="cls-3" d="M721.89,950.41c0,3.33.17,6.68-.08,10-.13,1.75-.7,3.89-2.84,4.21-1.86.27-2.66-1.48-3.68-2.84-5.68-7.62-5-16.47-5.45-25.23-.25-5.18.71-9.5,4.44-13.22a4.39,4.39,0,0,1,4-1.27c1.6.17,1.51,1.45,1.62,2.62C720.77,933.24,722.44,941.74,721.89,950.41Z"/><path class="cls-3" d="M1053.28,942.47c-5.34-7-8.74-14.85-9.17-23.24-.71-14.09-1.88-28.19-1.2-42.32a10.34,10.34,0,0,1,.21-3c.49-1.3.64-3.42,2.49-3.2,1.62.19,1.19,2.07,1.3,3.36,1.22,14.3,3,28.54,4.65,42.79C1052.53,925.3,1053.65,933.81,1053.28,942.47Z"/><path class="cls-3" d="M816.05,938.49c-.35,7.67-.59,15.35-1.12,23-.14,1.94,3.31,3.26.6,5.62-1.13,1-1.43,2.9-2.11,4.4-2.7-1.88-5.29,1-7.82.29-2.79-.82-2.94-3.17-2.24-5.66a129.27,129.27,0,0,0,4.6-27.42c.17-3,.7-5.89,1-8.84.2-2,1.31-2.89,3.29-2.93s3.61.67,3.66,3c.05,2.83,0,5.65,0,8.48Z"/><path class="cls-7" d="M1443.91,972.88c2.62-5.53,5.43-11,7.82-16.6,6.35-15,3.19-28.58-6.21-41.21-.49-.66-.94-1.33-1.41-2l4.68-2.44c6.84,14.39,11.35,29.34,11.18,45.45-1.31,5.62,3.61,8.08,6,11.83-6.06,1.54-12.12,3.12-18.2,4.61A25.87,25.87,0,0,1,1443.91,972.88Z"/><path class="cls-3" d="M1096.9,968.94a20.14,20.14,0,0,1,0,2.16c-.17,1.37.6,3.23-1.53,3.71-2.29.52-2.73-1.4-3.34-2.89-4.23-10.28-6.87-21.07-10.1-31.67-1.55-5.06-3.24-10.09-5-15.09-.67-1.91-2-3.9.83-5,2.1-.8,3.84-.07,4.87,2.15,5.86,12.66,10.73,25.66,13.17,39.44C1096.27,964.34,1097.67,966.84,1096.9,968.94Z"/><path class="cls-3" d="M1318.4,846.91c-2.39.55-4.12-.63-5.21-3.06-.89-2-2-3.82-2.78-5.8a167.27,167.27,0,0,0-14.12-26.69c-1.24-2-4-5.05-1.28-6.93,2.85-2,4.55,1.34,6.56,3.43,9.37,9.71,15.55,21.27,20.55,33.61C1324.11,846.38,1323.84,846.88,1318.4,846.91Z"/><path class="cls-24" d="M362,880.93c6.35,4.87,9,12.16,12,19.08,3.46,8,7,16.09,7.83,25a23,23,0,0,0-7.85-2c-3.61-12.08-10.09-22.67-17.07-33l1.12-.05c2.75-.2,1.18-2.67,2-3.92,1-1.49,1.2-3.39,1.92-5Z"/><path class="cls-3" d="M972.89,980.78h-1.95c-6.18-16-8.47-32.61-8-49.67.06-2.28-.44-5.1,3.13-5.05,3.23,0,2.63,2.66,2.9,4.77C971,947.42,973.18,964,972.89,980.78Z"/><path class="cls-3" d="M1264.76,501.27c-5.78-5.43-7.49-11.93-9.86-18-4.38-11.21-6.24-23.34-12.32-33.95-.59-1-1.14-2.3.23-3a3.32,3.32,0,0,1,3.73.65c2.68,2.31,4.39,5.35,6,8.41,4.73,8.89,5.78,18.86,8.26,28.4C1262.22,489.15,1263.28,494.63,1264.76,501.27Z"/><path class="cls-3" d="M317.41,786.22c-4.43,17.85-6.93,36-14.08,53a6.77,6.77,0,0,1-.4.91c-1.2,1.82-1.73,5.3-4.5,4.26-2.92-1.09-1-4-.45-6.14,4.43-16.42,8.56-32.94,16.08-48.33C314.72,788.51,314.92,786.56,317.41,786.22Z"/><path class="cls-3" d="M1062.91,940.49c0-5,0-10,0-15,0-1.36.09-3,1.76-3.08s1,1.69,1.23,2.71c2.11,10.32,2.74,21,7.09,30.79,2,4.39.71,8.8-.3,13.15-.2.85-.41,2.13-1.64,2.14-1,0-1.69-.76-2.32-1.64-3.33-4.69-5.74-9.71-5.82-15.59C1062.86,949.49,1062.91,945,1062.91,940.49Z"/><path class="cls-2" d="M817.46,430.07,981.13,430c1.29,0,2.7-.34,3.72.88-46,1.91-92,1.24-137.92.9-8.72-.06-17.52-.49-26.28-.76C819.51,431,818.29,431.17,817.46,430.07Z"/><path class="cls-3" d="M1191.85,947.45c-8-14.16-17.74-26.48-21.31-42-.42-1.79-1-3.35,1.08-4.17a3,3,0,0,1,4.18,1.58c6,14.12,14.31,27.33,16.92,42.79C1192.76,945.86,1192.46,946.18,1191.85,947.45Z"/><path class="cls-3" d="M1420.4,656.5a56.87,56.87,0,0,1-12.14-20.81c-4.1-11.9-10.85-22.31-17.82-32.62-.51-.76-1.69-1.22-1.08-2.48C1400.48,604.78,1414.38,629.5,1420.4,656.5Z"/><path class="cls-3" d="M1345,847l-1-.19q-4.76-14.34-9.48-28.68c-.72-2.19-1.07-4.51-1.91-6.65-.73-1.86-.72-3.22,1.31-4,2.2-.85,3.16.86,3.73,2.31,2.49,6.29,5.48,12.38,7.44,18.89,1.43,4.77,2.07,9.67,3.25,14.44C1349.27,847,1347.55,847,1345,847Z"/><path class="cls-3" d="M1048.6,960.25c-1.16,3.12-.69,6.31-.65,9.43s-1.32,3.81-3.42,2c-4.5-3.93-7.61-9-7.32-15,.16-3.4.62-6.86.7-10.32,0-1.86-.08-3.8,2.38-4.24s3.06,1.49,3.73,3.16A77.85,77.85,0,0,1,1048.6,960.25Z"/><path class="cls-3" d="M1395.78,756c-4.18-5.77-8-10.71-9.94-16.79-2.6-8.36-5-16.79-7.47-25.18-.28-.95-.86-2,.3-2.58s1.9.57,2.39,1.35a38.39,38.39,0,0,1,2.82,5.25c4.8,11.1,8.28,22.66,11.87,34.19C1396,753.1,1395.78,754.13,1395.78,756Z"/><path class="cls-3" d="M917.48,967.83c-3-1-3.66-3.39-4.09-5.24-1.62-6.88-3.44-13.85-1.79-21,.91-3.92-.56-8,1-11.85.45-1.11.28-2.93,2.31-2.58,1.61.29,1.72,1.63,2.08,3,2.41,8.93.17,17.86-.43,26.7C916.26,960.56,917.62,963.83,917.48,967.83Z"/><path class="cls-3" d="M1120.57,953c-5.75-8.94-8.21-19-10.64-29.09-.66-2.73-1.41-5.44-1.87-8.2-.23-1.37-.91-3.45.67-4.07,1.84-.71,2.81,1.38,3.68,2.65a17.92,17.92,0,0,1,1.66,4.14A120.41,120.41,0,0,1,1120.57,953Z"/><path class="cls-3" d="M1405.08,857.91c-6.16-2.66-8.4-7.75-11.55-11.88-3.92-5.14-7.3-10.7-8.48-17.2-.28-1.57-1.21-4,1.3-4.69,2.29-.68,2.87,1.23,3.79,3C1395.34,836.87,1400.63,846.6,1405.08,857.91Z"/><path class="cls-3" d="M1447.19,809.74c-4.46-3.68-5.23-8.49-7-12.58a89.09,89.09,0,0,1-6.79-22.15c-.23-1.44-1.18-3,.75-3.8s3.08.35,3.92,2.07c3.45,7,5,14.64,6.74,22.18C1445.79,799.92,1446.32,804.49,1447.19,809.74Z"/><path class="cls-3" d="M1281.37,818.05c2.5,0,2.89,1.58,3.4,2.92,3.53,9.29,5.72,19,8.46,28.5.56,2-.3,2.18-1.64,2.77-2.09.9-3,.13-3.71-1.81a171.25,171.25,0,0,1-6-20.44c-.63-2.9-1.25-5.79-1.81-8.7C1279.81,819.77,1279.64,818.22,1281.37,818.05Z"/><path class="cls-3" d="M321.38,819.6c-1.06-4.41.21-8.06,1.17-11.6,3-10.89,7.47-21.21,12.19-31.44.61-1.33,1.28-3.2,2.86-2.72s.58,2.26.45,3.54c-.61,5.69-2.93,10.84-5.11,16C329.29,802,325.39,810.53,321.38,819.6Z"/><path class="cls-3" d="M1244.84,840.9c.16-1.73-.3-3.29,1.47-3.77a3.26,3.26,0,0,1,4.09,1.82c3.31,5.83,4.37,12.41,6.44,18.65.72,2.19,1.35,4.41,1.91,6.64a2.73,2.73,0,0,1-1.47,3.35,1.71,1.71,0,0,1-2.48-.83C1250.1,858.51,1247.44,849.49,1244.84,840.9Z"/><path class="cls-3" d="M606.9,928.94c2.24.2,2,1.39,1.53,3.13-2.26,7.73-4.39,15.51-6.52,23.28-.42,1.54-1.17,3-2.71,3.23-1.7.26-2.51-1.34-3.22-2.64-2.28-4.14-.49-8.05,1-11.86,2.21-5.77,5.87-10.65,10-15.18Z"/><path class="cls-3" d="M1180,970c-1.38,2.34-3.23,1.58-5.09.77-2.11-6.95-5.49-13.5-6.53-20.78a22.55,22.55,0,0,1-.45-3.43c0-1.36-.6-3.2,1.68-3.52,1.76-.25,2.71.72,3.47,2.21,3,5.82,4.12,12.2,5.74,18.43C1179.37,965.76,1179.63,967.9,1180,970Z"/><path class="cls-3" d="M1281.66,489.5c-5-4.67-7.1-9.84-9.64-14.7-2.31-4.4-4.3-9-6.43-13.47-.64-1.37-1.49-3,.17-4s3,.57,3.6,1.84c2.08,4.13,4.09,8.31,5.82,12.61C1277.37,477.29,1279.25,482.88,1281.66,489.5Z"/><path class="cls-3" d="M395.73,755.63c-6.1,10.47-8.18,21.06-12.54,30.8-.46,1-.89,2.48-2.34,2s-1-2-.82-3.05c1.23-8.88,5.4-16.58,10.05-24C391.22,759.55,392,757.33,395.73,755.63Z"/><path class="cls-3" d="M1159.66,730.3c-7.13-8-9.33-18.07-12.45-27.75a1.7,1.7,0,0,1,.94-2.09c1.15-.62,1.93.14,2.55.89a19.8,19.8,0,0,1,3.45,7.1C1156.32,715.65,1156.92,723.22,1159.66,730.3Z"/><path class="cls-3" d="M1318.41,808.2a107.39,107.39,0,0,1-12.86-24c-.51-1.3-1.12-2.51.64-3.31s2.86,0,3.74,1.36a41.65,41.65,0,0,1,4.34,10.48C1315.79,797.86,1318.12,802.78,1318.41,808.2Z"/><path class="cls-3" d="M1262.73,812.7q-5.68-11.41-11.35-22.82c-.6-1.23-1-2.8.45-3.54,2-1.05,3.62.2,4.58,1.86,3.43,5.94,5.16,12.48,6.44,19.15.33,1.69.38,3.42.56,5.13Z"/><path class="cls-3" d="M697.41,901.88c-2.55-1.51-2.45-3.64-2.72-5.49-.86-6-2-12.06-1.61-18.15.12-2-.14-5.62,3.17-5,2.6.49,3,3.63,2.38,6.14-1.34,5.33-.25,10.86-1.59,16.2C696.59,897.36,697.23,899.41,697.41,901.88Z"/><path class="cls-3" d="M1428.68,697.11c-11-10.73-19.42-26.46-19.08-35.59C1415.8,673.47,1421.76,685.55,1428.68,697.11Z"/><path class="cls-3" d="M995.85,905.06a8.8,8.8,0,0,1,0,2.24c-.45,2.28-1.87,4.1-4.12,4.41s-3.22-1.66-3.92-3.66a10.56,10.56,0,0,1-.63-6.29,4.74,4.74,0,0,1,5.3-3.54C995.85,898.58,996.07,901.53,995.85,905.06Z"/><path class="cls-3" d="M1030.3,955c-4.29-9.63-6.45-18.66-6.37-28.21,0-1.08-.26-2.56,1.46-2.63s1.76,1.51,1.9,2.49c1,6.51,2,13,2.5,19.58C1030,948.87,1031.68,951.31,1030.3,955Z"/><path class="cls-3" d="M1437.8,823.83c.17,2.54-.65,4.19-2.31,4.65-2.11.57-2.1-1.7-2.51-2.9a88.84,88.84,0,0,1-3-10.45c-.31-1.52-1-3.89,2-4.12,2.1-.17,3.49.5,3.88,2.82C1436.48,817.4,1437.24,820.93,1437.8,823.83Z"/><path class="cls-3" d="M666.86,930.61c.25,5.52-1.47,10.65-2.26,15.85-.51,3.38-1.76,6.65-2.64,10-.27,1-.74,2.15-1.78,2.08-1.7-.11-1.17-1.7-1.21-2.74-.31-7.83,3.39-14.66,5.56-21.86C664.86,932.82,664.55,931.11,666.86,930.61Z"/><path class="cls-3" d="M580,938.05a1.33,1.33,0,0,1,.84-.26,36.42,36.42,0,0,1-4.64,18.29c-.41.75-1.17,1.8-2.35,1.07a3.58,3.58,0,0,1-1.85-3.76c.65-4.26,1.71-8.37,4.71-11.68C577.81,940.49,578.9,939.27,580,938.05Z"/><path class="cls-3" d="M682.62,591.73c-.34-8.51,2.15-16.18,4.5-23.87.48-1.57,1.28-3.42,3.44-2.66,2.34.83,1.28,2.65.71,4.15Q687,580.56,682.62,591.73Z"/><path class="cls-3" d="M934.94,965.24c-.06-4-.31-9.68,2.33-10s1.25,5.4,2.67,8.2c1.3,2.58,1.08,5.46,1,8.28,0,1.23-.32,2.44-1.54,2.86s-2.07-.72-2.8-1.6C934.61,970.55,934.85,967.69,934.94,965.24Z"/><path class="cls-3" d="M643.93,874.3c-.35-3.36.41-5.6,4.43-5.44,2.57.1,5.09.45,4.46,3.66s-.36,7.76-4.69,8.19C644,881.12,644.23,877.17,643.93,874.3Z"/><path class="cls-3" d="M352.22,687.54l-12.4,34.19C337,717.54,344.37,697.37,352.22,687.54Z"/><path class="cls-3" d="M322.24,769a52.18,52.18,0,0,1,7.95-21.7,2.18,2.18,0,0,1,3-1c1.28.79.48,2,.13,3.08C330.94,756.65,326.27,762.64,322.24,769Z"/><path class="cls-3" d="M1078.91,465.3c-.13-3,.25-6.15,4-6.2,4-.05,4,3.8,4.86,6.52.38,1.24-4.46,5.9-5.72,5.78C1080.18,471.22,1078.94,468.81,1078.91,465.3Z"/><path class="cls-3" d="M326.94,863.94c-1.57.3-2.35-.71-3.06-1.84a28.3,28.3,0,0,1,10.2-17.85C332.16,851,331.15,858.05,326.94,863.94Z"/><path class="cls-3" d="M1420.44,864.65a52.65,52.65,0,0,1-8-10.76c-.85-1.61-1.51-3.81.76-4.64,1.93-.7,4.43-1,5.48,1.8C1420.33,855.24,1421.66,859.49,1420.44,864.65Z"/><path class="cls-3" d="M994.89,980.78l-.48.12-.48-.12c-3.43-7.82-4.66-16.1-5-24.54,0-1.17-.56-3,1.51-3,1.65-.07,1.51,1.58,1.8,2.57,1.44,5,.36,10.15,1.47,15.24C994.41,974.12,994.26,977.53,994.89,980.78Z"/><path class="cls-3" d="M331.52,836.48c2.38-9.49,3.39-17.9,8.16-25.43C341.68,815.36,337.65,828.4,331.52,836.48Z"/><path class="cls-3" d="M975.63,864.52c-2.46-6.66-2.17-13.43-.89-20.25.28-1.51,1-2.52,2.7-2.16,1.92.41,1.52,2,1.24,3.21C977.26,851.64,975.65,857.93,975.63,864.52Z"/><path class="cls-3" d="M1366.58,675c-4.5-5.9-7.38-12.6-10.68-19.06-.49-1-1.58-2.18-.25-3.09,1.68-1.13,2.37.69,2.95,1.65C1362.51,660.86,1364.68,667.91,1366.58,675Z"/><path class="cls-3" d="M840.7,956c-.73,5.77-1.44,11.1,0,16.42.32,1.15-.72,2.29-1.84,2.69-1.61.58-1.84-1-2.3-1.94C834.59,968.94,836.53,960.23,840.7,956Z"/><path class="cls-3" d="M375,640.46c-.28-2.74,1.55-3.61,4.32-3.55,2.05.05,3.88.6,3.58,3-.33,2.82-1.5,6.2-4.28,6.51S375,643.61,375,640.46Z"/><path class="cls-3" d="M422.17,758.16a26.45,26.45,0,0,1,4.72-17.11c1.09-1.59,2.52-2.72,4.06-1.77,1.94,1.2.05,2.87-.71,3.68C426.14,747.31,424.43,752.8,422.17,758.16Z"/><path class="cls-3" d="M313.42,843a34.69,34.69,0,0,1,4.26-17.37c.5-.91,1-1.86,2.22-1.42,1.51.56.47,1.59.29,2.45C319,832.49,315.76,837.49,313.42,843Z"/><path class="cls-3" d="M618.86,754.76c-.88,2.61-2.17,5.23-5.15,6-2.06.54-3.35-1.6-3.12-3a6.54,6.54,0,0,1,5.31-5.68C617.58,751.76,618.77,752.69,618.86,754.76Z"/><path class="cls-25" d="M342.77,875.17c-1.55-.74-3.5-1-3.93-3.12a9,9,0,0,1,4.27-7.41c.66-.42,1.42.25,1.48.86C344.93,868.88,346,872.44,342.77,875.17Z"/><path class="cls-3" d="M1433.24,684.13c-2.13-4.41-4.28-8.8-6.36-13.23-.37-.8-1.38-1.84-.17-2.59s2.31.1,3,1.07A21.88,21.88,0,0,1,1433.24,684.13Z"/><path class="cls-26" d="M1188,875.94c1.88.4,4,.78,3.78,3.15-.14,1.86-.51,4.48-3,4.49s-3.6-2.12-3.8-4.47C1184.79,877,1186.1,876.17,1188,875.94Z"/><path class="cls-3" d="M1299.18,747.19c2,1.35,4.15,2.65,3.56,5.43-.33,1.57-.55,4.16-3.08,3.49-2.73-.72-2.79-3.33-2.77-5.72C1296.91,748.78,1297.27,747.45,1299.18,747.19Z"/><path class="cls-3" d="M426.09,584.47c.51,6.56-1.87,12.53-3.61,18.63C422.29,596.63,422.81,590.3,426.09,584.47Z"/><path class="cls-3" d="M1362.93,565.54c.44,6,4,11,5.75,16.52C1364.08,577.48,1360.7,572.48,1362.93,565.54Z"/><path class="cls-3" d="M1264.69,635c-2-.51-3.88-1.57-3.55-3.59s2.44-3.11,4.42-3.25,2.44,1.49,2.26,3.13C1267.6,633.23,1266.85,634.81,1264.69,635Z"/><path class="cls-3" d="M589.38,945.79c-1.73,5.38-2.71,9.63-4.82,13.66C582.11,955.66,583.67,950.8,589.38,945.79Z"/><path class="cls-3" d="M497.87,485.23c-.25,1,.07,3.43-2.4,3.32-1.89-.08-3.12-1.84-3.33-3.76-.23-2.18,1.32-2.71,3.16-2.79S498.1,482.67,497.87,485.23Z"/><path class="cls-3" d="M770.33,471.9a47.68,47.68,0,0,1,3.81-21.12C773.45,458,771.11,464.91,770.33,471.9Z"/><path class="cls-27" d="M1440,904.26c-2-2.76-4.1-5.5-6-8.32-.5-.72-1.41-1.76-.29-2.57a1.88,1.88,0,0,1,2.87,1c1.53,3.19,2.89,6.46,4.31,9.7Z"/><path class="cls-26" d="M317.71,845.47c.41,3-1.74,5.36-1.86,8.13,0,1.13-1,1.23-1.78.68s-2.05-1.21-1.33-2.74C313.86,849.17,314.81,846.68,317.71,845.47Z"/><path class="cls-28" d="M362,881c.42,3.34-.8,6.37-2,9.33-.77,1.88-1.22-.43-1.92-.36C355.79,885.38,360.48,883.87,362,881Z"/><path class="cls-26" d="M583,547.35a24.09,24.09,0,0,1-2.73,10.6C579.51,553.36,580.47,550.12,583,547.35Z"/><path class="cls-26" d="M1225.35,489.24c-3.73-4.11-3.78-9.07-3-14.2C1223.11,479.79,1223.53,484.62,1225.35,489.24Z"/><path class="cls-26" d="M1143.41,817.62c-1-3.49,0-6.65-1.13-9.59-.31-.79.54-1.62,1.38-1.68,1.06-.09,1.3.89,1.19,1.7C1144.45,811.07,1144,814.07,1143.41,817.62Z"/><path class="cls-29" d="M1309.78,594c-2.18-.76-1.66-2.85-2.38-4.21a1,1,0,0,1,.59-1.55,1.26,1.26,0,0,1,1.77,1.13C1309.86,590.87,1309.78,592.34,1309.78,594Z"/><path class="cls-30" d="M387.07,801.1c-1.43,1.63-2.58,3.63-5.06,3.91C383.27,803.15,384.43,801.17,387.07,801.1Z"/><path class="cls-31" d="M736.91,575.83c-.19.1-.77.66-1.35.66a1.36,1.36,0,0,1-1.4-1.61c.1-.53.7-1.35,1.12-1.38C736.17,573.44,736.67,574.18,736.91,575.83Z"/><path class="cls-32" d="M601.81,828.07a6.13,6.13,0,0,1-2.72-3.23C600.82,825.22,602,826.07,601.81,828.07Z"/><path class="cls-4" d="M591.94,253.92c2.33,0,4.66.12,7,.12h537.85c12,0,13.44,2.21,8.61,13-1.47,3.29-3.84,4-7.18,4-22.33-.09-44.67-.44-67,.05-94.93,2.11-189.88-.4-284.8,1.17-68.95,1.14-137.89.18-206.83.75-17.47.15-34.93,0-52.4,0H523c5-6.81,9.38-12.91,15-18,3.92-2.16,8.28-2.41,12.56-2.49,11.92-.24,23.85-.12,35.78-.06C588.29,252.47,590.34,252.39,591.94,253.92Z"/><path class="cls-7" d="M591.94,253.92c-18,.44-36-.54-54,1.09,3.4-5.79,8.49-10.17,12.81-15.18A438.63,438.63,0,0,1,590.61,200c10.47-9.37,20.58-19.23,32.39-27l56.91.09c-6.26,6.65-14.21,11.25-21,17.28-7.9,7-16.39,13.38-24.2,20.5-9.81,9-19.28,18.27-28.69,27.64C601.1,243.42,596.62,248.77,591.94,253.92Z"/><path class="cls-7" d="M563.1,288a16.68,16.68,0,0,1-3.83.92c-16.43,0-32.83,1.82-49.29,1.06,2.89-4,5.74-8.08,8.69-12.06a9,9,0,0,1,8-4c13.62.22,27.24.06,40.86.12,1.59,0,3.88-.86,4.65.65,1.06,2.06-1.66,2.81-2.64,4.19-.57.81-1.41,1.42-1.41,2.53C567.52,284.46,565.29,286.22,563.1,288Z"/><path class="cls-7" d="M1146.9,142.05c4.5,3.56,10,5.75,14,10l-75,0-15-9.94Z"/><path class="cls-33" d="M563.1,288c.5-3.09,3.14-4.55,5-6.59l29.73,6.66c-2.74,1.74-5.78.84-8.64.78C580.5,288.69,571.75,289.85,563.1,288Z"/><path class="cls-34" d="M1139,287.16l1.8,2.09c-3.17-.73-6.58.75-9.62-1.07Z"/><path class="cls-35" d="M1307,1015h8.86A9,9,0,0,1,1307,1015Z"/><path class="cls-1" d="M600.81,391c2.16-.07,4.32-.2,6.48-.2q262.31,0,524.6,0c2,0,4.33-1.13,5.95,1.12-1.44,1.67-3.51,1.82-5.45,2.17q-44.27,7.89-89,12.12c-10,.95-20.19,1.82-30.34,1-11.89,1.13-23.81,2-35.76,2q-91.71.11-183.43,0c-2.32,0-4.65-.07-7-.11-10,1.16-19.92,0-29.86-.3-18.28-.57-36.49-2.48-54.7-4.14-26.19-2.39-52.3-5.41-78.4-8.6-6.12-.74-12.23-1.53-18.31-2.5C603.75,393.3,601.39,393.71,600.81,391Z"/><path class="cls-2" d="M600.81,391c6.31,1.81,12.86,2.07,19.31,3,9.74,1.38,19.5,2.62,29.27,3.8,7,.85,14.07,1.48,21.11,2.23,12.09,1.3,24.16,2.87,36.28,3.84,8.21.66,16.41,1.59,24.61,2,18.5,1,36.92,3.19,55.46,3.26-1.74,1.5-3.83.8-5.76.8-32.48.05-65-.44-97.44.21-20.29.41-40.57.8-60.86.83-10-2-20-4.14-30-5.91C575.4,402,558.18,398.3,541,394.57c-4.3-.93-8.61-1.84-12.91-2.76,1.55-1.44,3.47-.79,5.22-.8Q567,391,600.81,391Z"/><path class="cls-2" d="M1013,407.23c19.47-.75,38.81-3.14,58.12-5.44,21.48-2.56,42.95-5.55,64.2-9.78a13.88,13.88,0,0,1,2.5,0c2.68-1.22,5.55-1,8.35-1q43.18-.06,86.37,0c1.45,0,3-.42,4.28.77-1.22,2.12-3.5,2.41-5.52,3-14.67,4.35-29.46,8.25-44.43,11.41-3.86.82-7.78,1.59-11.78,1-2.73,1-5.57.87-8.39.87q-74.46,0-148.93,0C1016.19,408,1014.43,408.55,1013,407.23Z"/><path class="cls-24" d="M1175.11,407.15c11.36-1.84,22.48-4.77,33.62-7.59,9.42-2.39,18.75-5.18,28.11-7.79,6.69-1.72,13.57-1.17,20.34-1.47,15.79-.69,31.61-.85,47.41-1.22.41.07.61.23.6.49s-.06.45-.16.45q5,8.48,10.1,16.94c-1.24,1.65-3,1.07-4.62,1.07q-65.62,0-131.26,0C1177.86,408,1176.22,408.68,1175.11,407.15Z"/><path class="cls-36" d="M1305,390c-.15-.31-.29-.62-.44-.94q30.81,0,61.63,0c1.59,0,3.35-.55,4.68.93Z"/><path class="cls-16" d="M266.87,850l7.95-.1c.12,2.09.33,4.08,3.21,4a3.39,3.39,0,0,1,3.75,3.72c-.12,2.37-2.61,2.07-4.32,2.23C267.38,860.79,267.25,860.65,266.87,850Z"/><path class="cls-37" d="M257.07,849.93c0-2-.07-3.94-.1-5.91,2.13-3.82.33-8,1.25-12.21,3.15,2.75,5.4,5.71,4.81,10.13-.34,2.53,1.18,4.66,1.79,7C262.39,850.45,259.68,849.83,257.07,849.93Z"/><path class="cls-4" d="M660,369.93l-6,.1A738.85,738.85,0,0,1,527,343.24a12.58,12.58,0,0,1-2.15-1.12c8,.65,15.39,3.89,23.06,5.92a850.47,850.47,0,0,0,84.15,17.74C641.36,367.26,650.8,367.66,660,369.93Z"/><path class="cls-1" d="M960.86,307.9c32.08-1.79,64.22-.2,96.3-1.26,12.47-.41,24.93-.63,37.4-.78,1.73,0,3.71-.62,5.15,1.06-21.17,2.47-42.31,5.08-63.49,7.38-31.31,3.4-62.73,5.28-94.17,6.76-34.61,1.64-69.25,2.33-103.91,1.78-51.47-.83-102.81-3.67-153.94-9.9-9.74-1.18-19.44-2.63-29.16-4,1.53-1.5,3.46-.87,5.21-.87q44.89-.06,89.79,0c9,0,17.88,1.52,26.87.92,2-1.68,4.15-.58,6.24-.53,37.63.89,75.28,1.58,112.9.66,20.62-.51,41.26-.47,61.86-1.62A5.74,5.74,0,0,1,960.86,307.9Z"/><path class="cls-38" d="M960.86,307.9c-59.14,3.78-118.31,4-177.5,1.8-2.15-.08-4.3-.43-6.45-.65-.09-.73-.77-1.76.58-1.92a39.36,39.36,0,0,1,4.48-.08q86.56,0,173.14,0C957,307.07,959.13,306.38,960.86,307.9Z"/><path class="cls-39" d="M1535.56,962.92c-9.73,3.74-19.72,3.46-29.78,1.87C1515.7,964.19,1525.59,963,1535.56,962.92Z"/><path class="cls-40" d="M1575.82,959.78c-8.79,1-17.54,3-26.48.86C1558.06,958.55,1566.94,959,1575.82,959.78Z"/><path class="cls-41" d="M1466.49,960.44c9.09,2,18.45,2.64,27.65,4.49A42.45,42.45,0,0,1,1466.49,960.44Z"/><path class="cls-42" d="M1591,952.46l25.21-4.45c-7.79,4.68-16.31,5.77-25,6Z"/><path class="cls-43" d="M1650.38,939.47c-7.12,5.37-15.26,6.92-24,6.26C1634.26,943.09,1642.57,942.27,1650.38,939.47Z"/><path class="cls-44" d="M1658.58,934.38l21.29-11.92.72,1.3c-6.63,4.85-13.41,9.42-21.24,12.15Z"/><path class="cls-45" d="M239.78,973.6c6.46,4.77,13.13,6.15,20.32,9.52C252.1,983.79,242.29,979.3,239.78,973.6Z"/><path class="cls-46" d="M196.28,947.88c-4.34-5.75-9.77-8.25-15-12.06C187.56,935.12,195.72,941.53,196.28,947.88Z"/><path class="cls-44" d="M235.29,972.3c-6.48.91-11.63-2.16-16.46-9.73C224.66,965.16,228.67,970.94,235.29,972.3Z"/><path class="cls-47" d="M201.48,949.26,213.26,960l-1,1.17c-5.22-2.08-8.19-6.85-12.22-10.36Z"/><path class="cls-48" d="M267.5,984l14.09,2.41c-5.22,2.33-9.78.73-14.37-.77C267.31,985.05,267.41,984.51,267.5,984Z"/><path class="cls-49" d="M178.63,920.56v11.08C175.68,929.17,175.64,928.73,178.63,920.56Z"/><path class="cls-50" d="M300.06,987.46c-2.71,1.71-5.57,1.74-9.12,1C294.08,985.83,297.14,987.13,300.06,987.46Z"/><path class="cls-51" d="M1084,369h-9.91c0-.18,0-.36,0-.54,12.58-2.05,25.14-4.18,37.74-6.14A805.85,805.85,0,0,0,1202,342.52a28,28,0,0,1,3.91-.5c-9,4.08-18.65,5.6-28.08,8-29.25,7.49-58.93,12.75-88.8,17.08C1087.23,367.37,1085.41,367.66,1084,369Z"/><path class="cls-51" d="M1222.89,337A290.78,290.78,0,0,1,1259,325.15C1247.26,330.1,1235.35,334.4,1222.89,337Z"/><path class="cls-51" d="M1205.89,342a54.94,54.94,0,0,1,17-5A50.13,50.13,0,0,1,1205.89,342Z"/><path class="cls-3" d="M527.38,403.51a3.15,3.15,0,0,1,.42,1.12c0,.79-.5,1.26-1.24.84-.29-.17-.42-.87-.38-1.31S526.54,403.22,527.38,403.51Z"/><path class="cls-52" d="M243.05,823a7.8,7.8,0,0,0-3.12-7.66c-.71-.55-2.26-1.22-.85-2.62a1.8,1.8,0,0,1,2.27-1c1.83,2.13,4.11-.87,6,.5.61,1.47-.67,2.06-1.35,2.92C244.3,817.5,245.2,820.81,243.05,823Z"/><path class="cls-53" d="M246,815.16c.34-1.13,1.11-2.18.76-3.47-.42-1.83-.08-3,2.2-2.57.07,1.93.37,3.9-.86,5.63Z"/><path class="cls-54" d="M240.94,812.07l-1.86.63c-3.2-1.55-2.54-4.17-1.89-6.79-.28-2.35,1.45-3.51,2.85-4.88,4.9-5.28,5.66-5.22,8.47.74a7.47,7.47,0,0,1,1.33,4.39C247.39,808.91,245.94,813.17,240.94,812.07Z"/><path class="cls-55" d="M246.24,773.9c-.52,2.6-3.74,5.75,1.47,7.17.88,1.47.41,2.63-.84,3.6-2.4-1.67-5.58.53-7.88-1.63,2.23-1.2,2.81-3.3,3.18-5.6S243.49,773.47,246.24,773.9Z"/><path class="cls-56" d="M240,801c-.09,2.14-1.82,3.3-2.86,4.88-4.67-.36-7.07,4.41-11.31,5,.06-.65.11-1.3.17-2C230.66,806.27,234.49,802.13,240,801Z"/><path class="cls-57" d="M246.87,784.67l.84-3.6c4.11,1,5.57-4.19,9.34-4-2.71,3.24-6.5,5.88-6.1,10.86C248.44,788.29,248.31,785.66,246.87,784.67Z"/><path class="cls-58" d="M249.11,806c-.56-1.37-1.75-2.65-.6-4.26l1.71-1c5,.87,2.11,3.22,1,5.24A1.54,1.54,0,0,1,249.11,806Z"/><path class="cls-59" d="M249.11,806l2.08,0a3.43,3.43,0,0,1-2.22,3.11,2.85,2.85,0,0,0-2.2,2.57c-1.85,1.53-3.6,4.67-5.83.38C244.52,811.22,247.06,809,249.11,806Z"/><path class="cls-60" d="M262.85,798.8l1.52,1.16a6.15,6.15,0,0,1-.74,1.71c-.88,1.05-2,1.76-3.4,1a1.94,1.94,0,0,1-1.12-2.43C259.75,798.38,261.5,799,262.85,798.8Z"/><path class="cls-61" d="M1374.6,1001.73c-7.54,2.18-15,4.75-23,4.6-.08-.43-.17-.86-.26-1.3l23-5.08C1374.39,1000.55,1374.5,1001.14,1374.6,1001.73Z"/><path class="cls-62" d="M1305.51,1010c-7.54,3.12-15.32,1.68-23.07,1C1290.07,1009.38,1297.84,1010.56,1305.51,1010Z"/><path class="cls-41" d="M1340.56,1008.16c-6.36,2.92-13.09,3-20,2.06A59.86,59.86,0,0,1,1340.56,1008.16Z"/><path class="cls-41" d="M1401.17,991.36c-5.06,5.56-12.37,5.78-18.92,7.89C1387.68,994.63,1394.9,994.22,1401.17,991.36Z"/><path class="cls-63" d="M1422.49,985.88c-4.92,3.85-10.85,4.57-16.83,5.14l-.41-1.28,16.84-5.11C1422.22,985.05,1422.36,985.46,1422.49,985.88Z"/><path class="cls-41" d="M1426.94,981.77l11.31-13.3C1438,973.38,1432,980.59,1426.94,981.77Z"/><path class="cls-63" d="M1448.75,948.51a41.48,41.48,0,0,1-3.78,13c-.35.8-.71,1.57-1.75,1.3-.88-.23-.72-1-.5-1.58q2.34-6.57,4.72-13.14Z"/><path class="cls-64" d="M1271,1011.58c-5.75,1-11.13-.81-16.42-3.38l16.49,1.92C1271,1010.61,1271,1011.1,1271,1011.58Z"/><path class="cls-65" d="M1451,940.72v-5.25C1453.5,937.25,1451.43,939.08,1451,940.72Z"/><path class="cls-66" d="M429.6,959.7c5.35-2.79,13.36-2.37,16.56.72C440.69,960.12,435.61,961.57,429.6,959.7Z"/><path class="cls-45" d="M469.43,960.07c-4.21,2.9-8.68,3-13.18,2.77-.87,0-1.79-.39-1.87-1.29s.77-1.45,1.62-1.46C460.48,960.05,465,960.07,469.43,960.07Z"/><path class="cls-67" d="M480.36,961c5.08-1.61,10.23-1.06,15.35-1a1.11,1.11,0,0,1,1.08,1.34,1.33,1.33,0,0,1-1.79,1.18C490.18,961.32,485.19,962.53,480.36,961Z"/><path class="cls-68" d="M420.14,956.71a21,21,0,0,1-14.61,1.14C409.83,956,414.21,955.5,420.14,956.71Z"/><path class="cls-69" d="M389.93,957.82c-2.66.55-4.24-.24-4-3.25.18-2-.48-4.16.66-6.27,3.3,2-1.13,6.68,3.31,7.79A1,1,0,0,1,389.93,957.82Z"/><path class="cls-63" d="M389.94,957.82c0-.57,0-1.15,0-1.73H400.3C396.55,959,393.12,957.74,389.94,957.82Z"/></svg>